<?xml version="1.0" encoding="UTF-8"?>
<svg id="Acrylic_Blocks" data-name="Acrylic Blocks" xmlns="http://www.w3.org/2000/svg" viewBox="0 0 48 48">
  <defs>
    <style>
      .cls-1 {
        stroke-miterlimit: 10;
      }

      .cls-1, .cls-2, .cls-3 {
        fill: none;
      }

      .cls-1, .cls-3, .cls-4 {
        stroke: #000;
        stroke-width: .5px;
      }

      .cls-5 {
        fill: #000000;
      }

      .cls-2 {
        stroke: #000000;
        stroke-width: .75px;
      }

      .cls-2, .cls-3, .cls-4 {
        stroke-linecap: round;
        stroke-linejoin: round;
      }
    </style>
  </defs>
  <g>
    <path class="cls-1" d="M33.58,21.72c-1.39,3.29-4.29,5.5-7.76,5.43-3.8-.07-6.63-1.58-8.24-5.5"/>
    <path class="cls-1" d="M22.48,14.66l3.14,6.46,2.2-6.5,5.77,7.05s3.21-7.22-2.74-13.44c-6.21-6.5-11.9-.46-11.9-.46,0,0-3.07,2.34-2.99,7.09.08,4.71,1.62,6.78,1.62,6.78l4.9-6.98Z"/>
    <path class="cls-4" d="M17.97,8.8l-.16-4.32,2.48.2.07,1.98s-2.03,1.34-2.38,2.14Z"/>
    <path class="cls-4" d="M32.48,10.26l-.12-4.45-2.31-.18.05,1.93s2,1.88,2.38,2.7Z"/>
    <path class="cls-3" d="M17.96,8.57c.44-.26-.06-1.59-.06-1.59,0,0-1.21-.6-2.64,2.13s-5,13.99-4.39,16.77,2.65,6.61,6.68,7.03,5-1.27,5-1.27c0,0-3.48-2.82-5.32-10.61"/>
    <path class="cls-3" d="M32.2,9.65c-.42-.31-.04-1.53-.04-1.53,0,0,1.08-.41,2.55,2.38,1.45,2.76,5.19,13.54,4.83,16.08s-1.91,6.09-5.49,6.47c-3.65.38-4.77-1.27-4.77-1.27,0,0,3.07-2.66,4.29-10.07"/>
    <line class="cls-3" x1="17.51" y1="21.87" x2="20.87" y2="27.79"/>
    <polygon class="cls-4" points="23.14 28.21 20.58 28.17 20.55 27.36 23.12 27.41 23.14 28.21"/>
    <path class="cls-4" d="M23.16,20.28c.03.87-.3,1.56-.73,1.54s-.82-.73-.85-1.6.3-1.56.74-1.55.81.74.84,1.6Z"/>
    <path class="cls-4" d="M29.44,20.51c.02.85-.3,1.53-.72,1.52s-.79-.72-.81-1.57.3-1.54.72-1.52.78.72.81,1.58Z"/>
  </g>
  <path class="cls-2" d="M17.28,46.09l.04-10.46c-2.9-2.38-4.92-6.18-5.13-10.47l-.55-11.29c-.21-4.4,1.49-8.21,4.24-10.49v-1.71"/>
  <path class="cls-2" d="M39.14,46.34l-.02-10.65c2.31-2.19,3.76-5.61,3.7-9.48l-.18-10.17c-.07-3.96-1.68-7.63-4.13-10.11l-.05-2.61-6.28-.56-15.81-1.41-7.25.76"/>
  <path class="cls-2" d="M39.14,46.34H11.08l-.46-10.37c-2.9-2.38-4.92-6.18-5.13-10.47l-.55-11.29c-.21-4.4,1.52-7.47,4.28-9.75l-.1-2.35"/>
  <g>
    <path class="cls-5" d="M23.53,35.79h.08c.72-.01,1.25.5,1.59,1.55.11.36.16.75.17,1.17,0,.41-.05.96-.16,1.66l-.41,2.96h0s-1.1.03-1.1.03h0s0,0,0,0c.33-2.37.51-3.66.53-3.85.01-.14.02-.27.02-.38,0-.49-.13-.88-.36-1.19h0l-.64,4.68-.1.74h0s-1.1.03-1.1.03h0s0,0,0,0l.75-5.45h0c-.1.06-.25.26-.46.6-.19.39-.31.74-.36,1.06l-.52,3.8h0s-1.09.03-1.09.03h-.01c.34-2.48.53-3.82.56-4.04.06-.29.12-.55.2-.79.33-.96.8-1.69,1.41-2.19.35-.27.7-.4,1.06-.41Z"/>
    <path class="cls-5" d="M27.92,37.68h0s-.88,5.42-.88,5.42h0s-.95.02-.95.02h0s.88-5.42.88-5.42h0s.95-.02.95-.02Z"/>
    <path class="cls-5" d="M30.06,37.65h0s-.25,1.97-.25,1.97h.79c.2-.05.33-.09.39-.13.09-.03.18-.1.26-.2.16-.18.27-.4.32-.67l.13-1h.71s0,0,0,0c-.08.65-.14,1.04-.17,1.18-.04.16-.1.35-.2.56-.13.25-.26.45-.39.58-.08.1-.2.2-.35.3-.05.04-.11.07-.15.09h0c.08.05.17.13.27.23.27.32.42.71.42,1.18v.02c0,.16-.02.45-.08.86-.03.25-.05.38-.06.4h-.71s0,0,0,0c.07-.58.11-.92.12-1.04v-.08c0-.25-.08-.46-.23-.63-.03-.04-.09-.07-.17-.1-.03-.03-.13-.06-.32-.1h-.81s-.25,1.98-.25,1.98h-.71s0,0,0,0l.69-5.41h0s.71-.02.71-.02Z"/>
    <path class="cls-5" d="M34.36,37.58h0c-.25,1.77-.38,2.73-.4,2.9v.2c0,.33.08.62.23.84.12.15.26.23.44.22.35,0,.65-.3.91-.89.05-.15.1-.29.13-.44.03-.16.16-1.09.4-2.8,0-.04.01-.06.02-.06h.82s0,0,0,0c-.25,1.8-.39,2.77-.42,2.92-.16.83-.5,1.5-1.02,2.03-.32.32-.66.48-1.02.48h-.01c-.6,0-1.02-.42-1.25-1.29-.05-.23-.08-.46-.08-.69v-.06c0-.25.03-.62.11-1.11l.32-2.24h0s.82-.02.82-.02Z"/>
  </g>
</svg>
