<?xml version="1.0" encoding="UTF-8"?>
<svg id="Acrylic_Blocks" data-name="Acrylic Blocks" xmlns="http://www.w3.org/2000/svg" viewBox="0 0 48 48">
  <defs>
    <style>
      .cls-1 {
        stroke-miterlimit: 10;
      }

      .cls-1, .cls-2, .cls-3 {
        fill: none;
      }

      .cls-1, .cls-3, .cls-4 {
        stroke: #000;
        stroke-width: .5px;
      }

      .cls-2 {
        stroke: #000000;
        stroke-width: .75px;
      }

      .cls-2, .cls-3, .cls-4 {
        stroke-linecap: round;
        stroke-linejoin: round;
      }

      .cls-5 {
        fill: #000000;
        font-family: Vocaloid-Italic, Vocaloid;
        font-size: 10.07px;
        font-style: italic;
      }
    </style>
  </defs>
  <g>
    <path class="cls-1" d="M33.58,21.72c-1.39,3.29-4.29,5.5-7.76,5.43-3.8-.07-6.63-1.58-8.24-5.5"/>
    <path class="cls-1" d="M22.48,14.66l3.14,6.46,2.2-6.5,5.77,7.05s3.21-7.22-2.74-13.44c-6.21-6.5-11.9-.46-11.9-.46,0,0-3.07,2.34-2.99,7.09.08,4.71,1.62,6.78,1.62,6.78l4.9-6.98Z"/>
    <path class="cls-4" d="M17.97,8.8l-.16-4.32,2.48.2.07,1.98s-2.03,1.34-2.38,2.14Z"/>
    <path class="cls-4" d="M32.48,10.26l-.12-4.45-2.31-.18.05,1.93s2,1.88,2.38,2.7Z"/>
    <path class="cls-3" d="M17.96,8.57c.44-.26-.06-1.59-.06-1.59,0,0-1.21-.6-2.64,2.13s-5,13.99-4.39,16.77,2.65,6.61,6.68,7.03,5-1.27,5-1.27c0,0-3.48-2.82-5.32-10.61"/>
    <path class="cls-3" d="M32.2,9.65c-.42-.31-.04-1.53-.04-1.53,0,0,1.08-.41,2.55,2.38,1.45,2.76,5.19,13.54,4.83,16.08s-1.91,6.09-5.49,6.47c-3.65.38-4.77-1.27-4.77-1.27,0,0,3.07-2.66,4.29-10.07"/>
    <line class="cls-3" x1="17.51" y1="21.87" x2="20.87" y2="27.79"/>
    <polygon class="cls-4" points="23.14 28.21 20.58 28.17 20.55 27.36 23.12 27.41 23.14 28.21"/>
    <path class="cls-4" d="M23.16,20.28c.03.87-.3,1.56-.73,1.54s-.82-.73-.85-1.6.3-1.56.74-1.55.81.74.84,1.6Z"/>
    <path class="cls-4" d="M29.44,20.51c.02.85-.3,1.53-.72,1.52s-.79-.72-.81-1.57.3-1.54.72-1.52.78.72.81,1.58Z"/>
  </g>
  <path class="cls-2" d="M17.28,46.09l.04-10.46c-2.9-2.38-4.92-6.18-5.13-10.47l-.55-11.29c-.21-4.4,1.49-8.21,4.24-10.49v-1.71"/>
  <path class="cls-2" d="M39.14,46.34l-.02-10.65c2.31-2.19,3.76-5.61,3.7-9.48l-.18-10.17c-.07-3.96-1.68-7.63-4.13-10.11l-.05-2.61-6.28-.56-15.81-1.41-7.25.76"/>
  <path class="cls-2" d="M39.14,46.34H11.08l-.46-10.37c-2.9-2.38-4.92-6.18-5.13-10.47l-.55-11.29c-.21-4.4,1.52-7.47,4.28-9.75l-.1-2.35"/>
  <text class="cls-5" transform="translate(20.3 43.16) rotate(-.86) scale(.65 1)"><tspan x="0" y="0">Miku</tspan></text>
</svg>
