<?xml version="1.0" encoding="UTF-8"?>
<svg id="Layer_2" data-name="Layer 2" xmlns="http://www.w3.org/2000/svg" viewBox="0 0 48 48">
  <defs>
    <style>
      .cls-1 {
        fill: #010101;
      }

      .cls-2 {
        stroke-width: .5px;
      }

      .cls-2, .cls-3 {
        fill: none;
        stroke: #010101;
        stroke-linecap: round;
        stroke-linejoin: round;
      }

      .cls-3 {
        stroke-width: .75px;
      }
    </style>
  </defs>
  <path class="cls-3" d="M.62,19.86l20.77,17.24s2.29,2.13,5.6.16c3.3-1.97,20.5-17.96,20.5-17.96l-2.18-6.79s-20.55,10.41-42.68.69l-2,6.66h-.01Z"/>
  <path class="cls-1" d="M46.37,15.78c-24.46,12.53-44.74.49-44.74.49l1.13-3.13s16.98,10.17,42.22-.59c0,0,1.39,3.23,1.39,3.23Z"/>
  <path class="cls-3" d="M26.98,37.26s4.61-16.48,20.5-17.96"/>
  <path class="cls-3" d="M21.39,37.1S13.36,18.12.62,19.86"/>
  <path class="cls-1" d="M17.61,30.33s5.11,5.2,12.17.77l-2,3.98s-2.78,2.67-7.41,0c0,0-2.76-4.75-2.76-4.75Z"/>
  <path class="cls-1" d="M9.02,21.7s12.62,8.06,29.83.26l-7.29,5.77s-7.15,3.32-15.34-.18l-7.21-5.86h.01Z"/>
  <path class="cls-2" d="M23.65,17s-1.68-4.39-3.05-3.27c-1.68,1.38,1.09,3.59,3.05,3.27Z"/>
  <path class="cls-2" d="M23.93,17.03s.56-4.64,2.37-3.28-1.08,3.3-2.37,3.28Z"/>
</svg>