<?xml version="1.0" encoding="utf-8"?>
<!-- Generator: Adobe Adobe Illustrator 24.2.0, SVG Export Plug-In . SVG Version: 6.00 Build 0)  -->
<svg version="1.1" xmlns="http://www.w3.org/2000/svg" xmlns:xlink="http://www.w3.org/1999/xlink" x="0px" y="0px"
	 viewBox="0 0 48 48" style="enable-background:new 0 0 48 48;" xml:space="preserve">
<style type="text/css">
	
		.st0{fill:none;stroke:#000000;stroke-width:0.5;stroke-linecap:round;stroke-linejoin:round;stroke-miterlimit:10;stroke-dasharray:0,0,0,0,0,0;}
	.st1{fill:none;}
	.st2{fill:none;stroke:#000000;stroke-linecap:round;stroke-linejoin:round;stroke-miterlimit:10;stroke-dasharray:0,0,0,0,0,0;}
</style>
<g id="Layer_1">
</g>
<g id="Layer_6">
</g>
<g id="Layer_3">
	<path class="st0" d="M17.32,16.83c-0.14,4.37-2.77,8.26-3.71,12.54c-1.06,4.87-2.52,10.75,1.96,12.44
		c4.31,1.63,10.64,1.08,14.73,0.41c4.77-0.79,4.2-7.92,3.04-11.36c-1.6-4.75-2.48-9.22-4.03-13.83"/>
	<path class="st1" d="M15.9,29.64c-0.06,2.45,0.37,4.9,1.27,7.2"/>
	<path class="st1" d="M17.37,16.76c4-0.01,8.01-0.01,12.01-0.02"/>
	<path class="st0" d="M17.43,16.77c3.98,0.08,7.96,0.16,11.97,0.1c0.97-0.37,2.19-0.03,2.79,0.76c0.59,0.79,0.49,1.96-0.23,2.65
		c1.27,0.2,2.38,1.08,2.77,2.2s0.04,2.43-0.87,3.25c2.4,1.2,3.31,4.37,1.78,6.93c1.35,0.65,2.22,2.05,2.15,3.44s-1.11,2.7-2.52,3.22
		c1.01,1.18,1.08,2.96,0.17,4.2c-0.91,1.25-2.73,1.86-4.31,1.46c-0.65,1.36-2.24,2.3-3.87,2.29c-1.63-0.01-3.2-0.98-3.82-2.35
		c-0.77,1.33-2.51,2.12-4.13,1.88s-3-1.5-3.27-2.98c-1.02,0.65-2.47,0.68-3.52,0.07s-1.63-1.83-1.4-2.95
		c-1.61-0.63-2.78-2.12-2.92-3.71s0.74-3.24,2.22-4.1c-1.01-1.02-1.41-2.52-1.03-3.85s1.53-2.46,2.95-2.91
		c-1.38-0.79-2.01-2.52-1.41-3.91c0.6-1.38,2.36-2.25,3.95-1.96c-0.98-0.53-1.32-1.84-0.7-2.72c0.62-0.87,2.44-1.55,3.37-0.95"/>
	<path class="st0" d="M21.55,20.69c1.34,0.33,2.23,1.74,1.88,2.96s-1.88,2.06-3.22,1.75c-1.34-0.3-2.27-1.69-1.95-2.92
		c0.32-1.23,1.82-2.1,3.17-1.82"/>
	<path class="st0" d="M22.49,25.34c0.32,1.26,1.95,2.08,3.29,1.66s2.07-1.98,1.49-3.15c-0.58-1.17-2.35-1.7-3.58-1.05"/>
	<path class="st0" d="M16.3,29.87c-1.14,2.84,0.01,6.32,2.68,8.11c2.68,1.79,6.65,1.73,9.26-0.13c2.62-1.86,3.65-5.37,2.47-8.08
		c-4.6,1.42-9.72,1.43-14.33,0.02c-0.05,0.06-0.09,0.11-0.14,0.17"/>
	<path class="st0" d="M22.49,30.64c-0.61-0.67-1.43-2-1.43-2c0.09-0.67,0.23-1.16,0.49-1.64c-0.64-0.14-1.04-0.13-1.57-0.12
		c-0.06,0.22-0.24,0.74-0.27,1.06c-0.65,0.05-1.41-0.2-1.41-0.2c-0.17,0.46-0.33,0.94-0.49,1.42c0.68-0.07,1.36-0.13,2.08-0.04
		c0.59,0.53,0.95,1.57,0.95,1.57"/>
	<path class="st0" d="M19.74,22.79c0.13-0.07,0.29,0.12,0.19,0.22c-0.11,0.09-0.31-0.07-0.23-0.18"/>
	<path class="st0" d="M21.63,23.64c-0.05,0.02-0.09,0.04-0.14,0.05"/>
	<path class="st0" d="M22.23,22.25c0.02-0.02,0.05-0.04,0.07-0.05"/>
	<path class="st0" d="M25.17,23.95c-0.06,0.12-0.32,0.05-0.29-0.08c0.02-0.13,0.29-0.13,0.31,0.01"/>
	<path class="st0" d="M24.3,25.39c0.02-0.04,0.03-0.08,0.05-0.12"/>
	<path class="st0" d="M26,25.19c-0.05,0.07-0.09,0.14-0.14,0.21c0.08-0.03,0.16-0.07,0.24-0.1c0.01-0.12-0.24-0.13-0.25-0.01
		c-0.01,0.12,0.22,0.16,0.27,0.05c0.05-0.11-0.13-0.23-0.23-0.16s-0.05,0.25,0.07,0.27"/>
	<path class="st2" d="M17.17,16.61c-1.16-0.94-1.75-2.45-1.48-3.84c0.25-1.35,1.29-2.56,2.66-3.12c3.3-1.34,5.2-3.63,7.71-6.56
		c0.19-0.22,1.74-2,3.9-2.26c0.5-0.06,1.01-0.07,1.51-0.05c2.09,0.09,3.89,0.13,5.15,2.11c0.65,1.03,0.89,2.25,0.73,3.43
		c-0.35,2.59-2.13,4.63-4.03,6.43c-1.53,1.45-3.02,2.28-4.28,3.94"/>
	<path class="st0" d="M36.01,28.17c0.62-0.14,1.32,0.06,1.74,0.51c0.42,0.44,0.53,1.1,0.29,1.64c-0.63,1.38,0.12,3.16,1.6,3.8
		c1.48,0.64,3.45,0.04,4.22-1.29s0.2-3.15-1.21-3.92c-0.7-0.38-1.67-0.27-2.25,0.24c-0.58,0.51-0.74,1.39-0.35,2.05
		c0.29,0.49,0.91,0.85,1.51,0.72s1-0.83,0.65-1.29c-0.34-0.46-1.34-0.24-1.31,0.32"/>
	<path class="st0" d="M9.61,28.66c-0.89-0.15-1.79,0.69-1.61,1.5c0.26,1.18,0.06,2.46-0.7,3.44s-2.11,1.59-3.41,1.4
		c-1.29-0.19-2.42-1.25-2.44-2.45c-0.02-1.2,1.21-2.33,2.51-2.2c1.3,0.13,2.24,1.62,1.59,2.67c-0.33,0.53-1.03,0.87-1.68,0.72
		s-1.09-0.86-0.82-1.41c0.27-0.55,1.28-0.66,1.61-0.13"/>
	<path class="st0" d="M16.03,17.61c-0.38,0.03-0.97,0.66-1.08,1.03c-0.11,0.36,0.02,0.79,0.32,1.03c0.07,0.05,0.19,0.02,0.21-0.07
		c0.14-0.53,0.53-1.95,0.53-1.95"/>
	<path class="st0" d="M30.31,17.75c0.21,0.59,0.42,1.17,0.63,1.76c0.41-0.26,0.61-0.81,0.46-1.27s-0.63-0.79-1.12-0.76"/>
	<path class="st0" d="M32.07,22.11c0.25,0.84,0.5,1.67,0.75,2.51c0.32-0.31,0.61-0.66,0.74-1.09c0.38-1.23-0.8-1.5-1.46-1.5"/>
	<path class="st0" d="M33.56,27.95c0.33,0.99,0.65,1.99,0.98,2.98c0.59-0.39,0.89-1.17,0.71-1.85c-0.17-0.68-0.81-1.22-1.51-1.29"/>
	<path class="st0" d="M35.36,34.62c-0.1,0.95-0.2,1.91-0.3,2.86c0.66-0.12,1.06-0.43,1.18-1.09c0.12-0.66-0.21-1.37-0.79-1.71"/>
	<path class="st0" d="M34.14,41.54c-0.48,0.86-1.14,1.61-1.93,2.19c0.61,0.15,1.3-0.02,1.77-0.43s0.47-1.16,0.16-1.75"/>
	<path class="st0" d="M25.82,44.65c0.33,0.69,1.13,1.31,1.88,1.15c0.75-0.16,1.34-0.88,1.35-1.64c-1.03,0.4-2.15,0.56-3.25,0.45"/>
	<path class="st0" d="M17.87,43.67c-0.15,0.77,0.34,1.62,1.09,1.87c0.74,0.26,1.65-0.11,2.01-0.81c-1.14,0-2.06-0.36-2.99-1"/>
	<path class="st0" d="M12.41,41.01c-0.26,0.64-0.03,1.45,0.53,1.86c0.56,0.41,1.4,0.38,1.94-0.06c-0.93-0.43-1.84-0.96-2.44-1.8"/>
	<path class="st0" d="M10.85,39.16c-0.88-0.33-1.53-1.19-1.64-2.12c-0.1-0.93,0.21-1.81,1.21-2.37c-0.23,1.46-0.08,2.99,0.42,4.38"
		/>
	<path class="st0" d="M10.99,32.12c-0.64-0.67-0.9-1.68-0.69-2.58s0.91-1.67,1.75-1.92c-0.36,1.55-0.69,2.85-1.05,4.41"/>
	<path class="st0" d="M12.84,24.84c-0.68-0.33-1.06-1.2-0.83-1.92c0.22-0.73,1.01-1.23,1.97-0.98c-0.36,0.99-0.77,1.88-1.13,2.87"/>
	<path class="st0" d="M17.68,33.55c0.22-0.54,1.08-0.65,1.43-0.18c0.56,0.75,1.84,0.79,2.45,0.08c0.3-0.35,0.87-0.33,1.3-0.14
		c0.43,0.19,0.79,0.51,1.23,0.67s1.01,0.13,1.26-0.27"/>
	<path class="st0" d="M27.22,33.64c0.77,0.46,1.8,0.44,2.56-0.04"/>
	<path class="st0" d="M20.5,36.32c-0.04-0.25,0.08-0.51,0.3-0.64c0.22-0.12,0.51-0.09,0.7,0.07c1.06,0.94,2.84,0.93,3.89-0.03"/>
	<path class="st0" d="M17.32,16.83c-0.14,4.37-2.77,8.26-3.71,12.54c-1.06,4.87-2.52,10.75,1.96,12.44
		c4.31,1.63,10.64,1.08,14.73,0.41c4.77-0.79,4.2-7.92,3.04-11.36c-1.6-4.75-2.48-9.22-4.03-13.83"/>
</g>
<g id="Layer_4">
</g>
<g id="Layer_5">
</g>
<g id="Layer_2">
</g>
</svg>
