<?xml version="1.0" encoding="UTF-8"?>
<svg id="Layer_1" data-name="Layer 1" xmlns="http://www.w3.org/2000/svg" viewBox="0 0 48 48">
  <defs>
    <style>
      .cls-1 {
        stroke-width: .5px;
      }

      .cls-1, .cls-2 {
        stroke-miterlimit: 10;
      }

      .cls-1, .cls-2, .cls-3 {
        fill: none;
        stroke: #000;
      }

      .cls-2 {
        stroke-width: .75px;
      }

      .cls-3 {
        stroke-linejoin: round;
      }
    </style>
  </defs>
  <polyline class="cls-3" points="4.97 10.03 2.24 10.01 2.24 41.02 23.2 41.02 23.95 41.02 44.91 41.02 44.91 10.01 41.59 10.01"/>
  <path class="cls-2" d="M23.39,40.2c4.36-4.91,12.38-4.99,18.67-2.83l-.13-29.73c-2.48-.82-10.86-3.09-17.92,2.7l-.62,29.86Z"/>
  <path class="cls-2" d="M23.39,40.2c-5.34-5.11-12.61-4.74-18.58-2.2l.17-30.61c.16-.68,10.56-3.63,18.8,2.87l-.39,29.94Z"/>
  <g>
    <path class="cls-1" d="M9.7,18.46s-.23,3.09.27,4.09c.48.96,6.09,3.93,9.33,3.06,2.8-.76.72-4.87.72-4.87"/>
    <path class="cls-1" d="M20.7,22.96c-.64,1.65-2.3-.28-2.3-.28,0,0,.59-.24.73-.84.04-.1.05-.15.09-.26.28-.87-2.08-3.13-2.08-3.09-.24-.18-.36-.27-.6-.45,0,.04,0,.06-.02.1,0,0,.16,1.91-.27,2.85-.43.97-1.92.06-1.48.15.43.09-.11-3.11-.11-3.11,0,0-3.05,1.92-2.59,2.55.45.62,1.18,1.16,1.18,1.16,0,0-2.36.79-3.64-1.15,0,0-5.03-1.16-2.78-4.04,2.01-2.57,3.22.87,4.25.3,0,0-3.58-1.83-2.59-3.05.95-1.16,1.66-1.09,1.94-.97.28.11-.54-1.25-.95-1.35-.41-.1.23-.5.88-.38.47.08,4.72,1.58,5.21,4.44.09.13.14.19.23.32.1-.09.15-.13.26-.22.88-2.35,3.98-1.43,4.27-1.26.39.23.7.82.46.7-.24-.12-.85.57-.68.61.18.04.59.28,1.04,1.54.44,1.23-1.71,1.44-1.71,1.44.61.84,1.21-1.93,2.52,1.29,1.28,3.17-1.3,3.09-1.3,3.09"/>
    <path class="cls-1" d="M15.09,16.13s-.13.73-.06.84c.06.11.86.47,1.1.34.24-.12.17-.84.17-.84,0,0-.68-.77-1.21-.34Z"/>
    <path class="cls-1" d="M14.94,16.79s-.46.68-1.7.52c-2.09-.27-.73-1.79-.65-1.79,0,0-.2-1.25-.02-1.21.83.19.91.02,2.51,1.82"/>
    <path class="cls-1" d="M14.23,25.12c0,.34,0,.51-.02.83,0,0,1.63,1.13,3.53.62-.01-.32-.02-.48-.05-.82"/>
    <path class="cls-1" d="M14.21,25.95s-3.6,5.11-4.6,5.62c-1.03.53,10.29,1.26,10.29,1.26,0,0-1.66-6.38-2.16-6.27"/>
    <path class="cls-1" d="M16.19,17.12s.36.88,1.54,1.32c1.71.64.78-1.21.72-1.25,0,0,.25-.98.12-1.03-.66-.26-.73-.44-2.41.27"/>
    <path class="cls-1" d="M17.74,26.65c1.12.83,1.75,1.52,2.93,2.61-.65.24-.96.37-1.55.77"/>
    <path class="cls-1" d="M14.21,25.95c-1.59.18-2.61.4-3.54.68.17.93.42,1.41,1.01,2.37"/>
    <path class="cls-1" d="M14.15,32.24c.11.88.11,1.3-.38,2.04.75-.02,1.07.03,1.66.15"/>
    <path class="cls-1" d="M17.26,32.78c0,.79,0,1.19-.16,1.93.42.04.63.05,1.06.02"/>
    <path class="cls-1" d="M15.89,26.58c.08.24.12.35.19.58.23-.17.35-.26.56-.45"/>
    <path class="cls-1" d="M16.03,26.88c-.63,1.06-1.02,1.46-1.35,2.45.62.53.93.8,1.47,1.33.42-.2.64-.3,1.09-.54-.37-1.3-.47-1.86-.79-3.23"/>
    <path class="cls-1" d="M15.08,28.38c.32.06.48.09.8.14"/>
    <path class="cls-1" d="M14.81,28.96c.44.08.67.12,1.1.19"/>
  </g>
  <g>
    <path class="cls-1" d="M36.47,22.83c-.21,2.71-3.04,4.13-5.49,4.26-2.34.13-3.92-1.56-3.83-4.04.09-2.48,1.82-4.99,4.31-5.34,2.61-.36,5.22,2.42,5.01,5.12Z"/>
    <path class="cls-1" d="M27.34,21.34s-1.96-1.05-.62-2.97c1.38-1.97,1.72-1.69,1.71-1.87-.01-.18-2.07,0-2.64-.24-.63-.27-1.49-3.13,1.2-3.83,2.48-.65,4.3.42,4.56,1.77.27,1.4,0,1.81,0,1.81"/>
    <path class="cls-1" d="M36.34,21.63s3.21-.81,1.47-3.21c-1.7-2.33-2.21-1.96-2.17-2.15.04-.19,2.91.03,3.68-.23.87-.31,2.43-3.81-1.28-4.29-3.11-.41-5.25,1.01-5.71,2.42-.47,1.45-.5,1.8-.5,1.8"/>
    <path class="cls-1" d="M31.2,16.36s-.15.9-.09.99c.06.09.9.18,1.16-.04.26-.22.18-1.07.18-1.07,0,0-.7-.66-1.26.12Z"/>
    <path class="cls-1" d="M28.86,15.74c.7-.28.78-.59,2.34.62"/>
    <path class="cls-1" d="M29.36,18.63c-1.72.7-.58-1.54-.51-1.59,0,0-.14-1.24,0-1.3"/>
    <path class="cls-1" d="M31.03,17.19s-.53.97-1.67,1.44"/>
    <path class="cls-1" d="M35.12,15.24c-.88-.21-.9-.56-2.8,1"/>
    <path class="cls-1" d="M34.02,18.36c2.25.66,1.04-1.68.95-1.72,0,0,.33-1.35.14-1.39"/>
    <path class="cls-1" d="M32.35,17.06s.26.88,1.67,1.29"/>
    <path class="cls-1" d="M28.37,26.63s-1.78,5.44-1.77,5.92c.01.48,10.02,1.14,10.35.52.33-.62-2.22-6.58-2.68-6.94"/>
    <path class="cls-1" d="M31.18,27.31c-.2,1.43-.27,2.16-.63,3.55.61.58.93.88,1.52,1.43.45-.37.6-.6,1-1-.64-1.6-1.05-2.42-1.59-4.09"/>
    <path class="cls-1" d="M30.84,29.54c.28,0,.41,0,.67-.01"/>
    <path class="cls-1" d="M30.68,30.36c.41.01.62.01.99,0"/>
    <path class="cls-1" d="M28.91,33.24s.2,1.02.45,1.23c.49.4,1.79,1.08,1.79-1"/>
    <path class="cls-1" d="M33.57,33.35s.24,1.02.43,1.19c.34.31,1.41.92,1.32-1.28"/>
    <path class="cls-1" d="M34.51,26.01s2.09,1.02,2.4,1.64c.31.62-.11,1.98-1.1,1.27"/>
    <path class="cls-1" d="M27.95,26.19s-1.01.87-1.17,1.47c-.15.6.17,2.1.82,1.36"/>
  </g>
</svg>