<?xml version="1.0" encoding="UTF-8"?>
<svg id="Layer_2" data-name="Layer 2" xmlns="http://www.w3.org/2000/svg" viewBox="0 0 48 48">
  <defs>
    <style>
      .cls-1, .cls-2, .cls-3, .cls-4 {
        fill: none;
      }

      .cls-2 {
        stroke-width: .5px;
      }

      .cls-2, .cls-3, .cls-4 {
        stroke: #010101;
        stroke-linecap: round;
        stroke-linejoin: round;
      }

      .cls-4 {
        stroke-width: .75px;
      }
    </style>
  </defs>
  <path id="head" class="cls-4" d="M8.54,35.32c-2.29-9.31,5.4-19.74,15.39-19.67,3.8.03,7.12,1.41,8.39,2.21,5.22,3.33,9.59,11.37,6.79,19.04-2.19,6-8.03,9.23-15.01,9.16-7.93-.09-13.93-4.12-15.57-10.76h0Z"/>
  <g id="left_ear" data-name="left ear">
    <path class="cls-4" d="M12.89,42.33c1.92,5.23-15.91,7.27-7.59-11.58,1.39-3.16,5.23-7.78,4.18-5.53-.34-1.15-1.14-4.35-1.49-6.49-.52-3.12-.92-4.19-.68-4.39,1.39-1.23,7.34,2.98,8.18,3.48"/>
    <rect class="cls-1" x="7.31" y="14.34" width="8.56" height="10.99"/>
  </g>
  <g id="right_ear" data-name="right ear">
    <path class="cls-4" d="M34.92,42.73c-1.69,3.49,15.4,5.26,7.25-12.31-2.27-4.9-4.72-6.56-3.64-5.51-.05.31.7-4.13,1.05-6.4.49-3.12.83-4.2.59-4.4-1.42-1.22-7.28,3.09-8.12,3.6"/>
    <polygon class="cls-1" points="31.62 14.23 40.18 14.11 40.35 24.52 31.79 24.64 31.62 14.23"/>
  </g>
  <path id="mouth" class="cls-4" d="M14.6,26.6s-6.48,15.83,9.77,15.01c16.25-.82,8.89-15.21,8.89-15.21,0,0-3.54,4.88-9.24.1,0,0-4.03,5.53-9.43.1h0Z"/>
  <polyline id="toof" class="cls-2" points="29.27 28.83 30.4 30.75 31.31 28.33"/>
  <g id="left_inner_ear" data-name="left inner ear">
    <polyline class="cls-2" points="9.77 16.43 10.63 21.06 13.6 18.11 9.89 16.43"/>
    <rect class="cls-1" x="9.38" y="16.07" width="4.6" height="5.36"/>
  </g>
  <g id="right_inner_ear" data-name="right inner ear">
    <polyline class="cls-2" points="38.42 16.43 37.56 21.06 34.58 18.11 38.3 16.43"/>
    <rect class="cls-1" x="34.19" y="16.07" width="4.6" height="5.36"/>
  </g>
  <path id="glare" class="cls-2" d="M15.66,36.35c.02,1.28.02,2.76,4.86,3.79,1.76.38,3.06.16,3.98.04"/>
  <path id="hair" class="cls-4" d="M8.92,27.08c3.05,0,8.46-3.51,9.16-4.4.3-.38,2.12-2.29,1.86-3.35.94,1.41,3.59,5.59,4.61,4.4.32-.38.69-.84,1.19-2.2.63-1.75.81-2.39.75-2.77-.11-.65,1.65,2.3,3.25,4.07,1.36,1.48,3.85,3.21,8.82,3.78"/>
  <path id="right_eye" data-name="right eye" class="cls-4" d="M26.46,24.05s1.93.39,3.59,1.64c.23.17,1.07.59.94.71-.37.33-4.41-1.93-4.52-2.35h-.01Z"/>
  <path id="left_eye" data-name="left eye" class="cls-4" d="M21.23,23.94c.08,0-.77,1.3-2.91,2.25-.31.14-1.03.65-1.23.54-.5-.31,3.44-2.77,4.13-2.79Z"/>
  <polyline class="cls-3" points="15.92 17.4 22.15 3.59 23.28 1.29 32.07 17.12"/>
</svg>