<?xml version="1.0" encoding="UTF-8"?>
<svg id="Bandages" xmlns="http://www.w3.org/2000/svg" viewBox="0 0 48 48">
  <defs>
    <style>
      .cls-1 {
        stroke-width: 1px;
      }

      .cls-1, .cls-2 {
        fill: none;
      }

      .cls-1, .cls-2, .cls-3 {
        stroke: #000000;
        stroke-linecap: round;
        stroke-linejoin: round;
      }

      .cls-4 {
        fill: #000000;
      }

      .cls-2 {
        stroke-width: .5px;
      }

      .cls-5 {
        isolation: isolate;
      }

      .cls-3 {
        fill: #000000;
        stroke-width: .5px;
      }
    </style>
  </defs>
  <path class="cls-1" d="M43.66,9.3h0c3.59,5,2.45,11.96-2.55,15.56l-21.86,15.71c-5,3.59-11.97,2.46-15.56-2.54h0c-3.59-5-2.45-11.96,2.55-15.56L28.1,6.76c5-3.59,11.97-2.46,15.56,2.54Z"/>
  <rect class="cls-2" x="15.27" y="14.14" width="17.69" height="17.63" transform="translate(-8.82 18.06) rotate(-35.13)"/>
  <circle class="cls-3" cx="6.14" cy="31.95" r=".54"/>
  <circle class="cls-3" cx="10.98" cy="28.34" r=".54"/>
  <circle class="cls-3" cx="9.37" cy="36.41" r=".54"/>
  <circle class="cls-3" cx="14.28" cy="32.99" r=".54"/>
  <circle class="cls-3" cx="32" cy="13.6" r=".54"/>
  <circle class="cls-3" cx="36.83" cy="9.98" r=".54"/>
  <circle class="cls-3" cx="35.23" cy="18.05" r=".54"/>
  <circle class="cls-3" cx="40.14" cy="14.64" r=".54"/>
  <g class="cls-5">
    <g class="cls-5">
      <path class="cls-4" d="M23.26,23.91c.3-.09.58-.08.83.02.25.1.62.5,1.11,1.19.36.51.59.95.67,1.32s.04.72-.15,1.07c-.18.35-.5.69-.95,1-.51.36-.97.56-1.38.6-.41.03-.75-.04-1.02-.22-.27-.18-.62-.58-1.06-1.2l-.36-.51,1.61-1.14.74,1.05c.2.28.34.44.43.5.09.05.19.04.3-.04.12-.09.17-.19.15-.32-.03-.12-.18-.39-.47-.79l-.32-.45c-.18-.25-.33-.41-.47-.48-.14-.07-.27-.09-.41-.05-.13.04-.36.17-.68.39l-.66-.94c.38-.27.61-.45.68-.55.07-.09.09-.2.06-.33s-.12-.29-.27-.5l-.25-.36c-.16-.23-.29-.36-.39-.4-.1-.04-.19-.02-.29.05-.11.08-.16.17-.15.28.01.1.11.28.28.53l.38.53-1.61,1.14-.39-.55c-.44-.62-.59-1.13-.46-1.55.13-.42.5-.84,1.11-1.28.77-.54,1.39-.76,1.88-.66.49.1.92.42,1.3.96.26.36.39.66.41.89.02.23-.05.5-.21.81Z"/>
      <path class="cls-4" d="M25.94,24.92l1.61-1.14c.21.3.35.49.41.56.06.07.14.12.24.13.1.01.19-.02.29-.09.08-.06.13-.13.15-.22.02-.09,0-.17-.05-.26-.05-.08-.16-.25-.33-.49l-.73-1.03c.04.23.02.44-.08.64-.1.2-.27.38-.5.55-.29.21-.61.31-.95.31-.34,0-.62-.09-.84-.27-.22-.18-.46-.46-.73-.84l-.37-.51c-.32-.45-.54-.8-.66-1.05-.12-.25-.17-.51-.16-.81.02-.29.12-.58.31-.87.19-.29.46-.56.81-.81.43-.31.83-.5,1.19-.57.36-.08.7-.06,1.01.06s.57.29.76.52c.2.23.55.7,1.05,1.41l.63.9c.54.77.9,1.29,1.06,1.56.16.27.24.58.25.93,0,.35-.1.68-.29.99-.2.31-.48.6-.84.86-.45.32-.88.51-1.27.57s-.75,0-1.06-.18c-.31-.18-.61-.47-.9-.87ZM26.12,21.77c.19.27.35.41.46.43.12.01.21,0,.29-.06.11-.08.16-.18.16-.3,0-.12-.09-.29-.26-.53l-.83-1.17c-.2-.28-.36-.45-.47-.51-.11-.05-.22-.04-.34.04-.07.05-.12.13-.14.25-.03.12.07.33.28.63l.86,1.21Z"/>
    </g>
  </g>
</svg>
