<?xml version="1.0" encoding="UTF-8"?>
<svg id="Layer_3" data-name="Layer 3" xmlns="http://www.w3.org/2000/svg" viewBox="0 0 48.67 47.74">
  <defs>
    <style>
      .cls-1 {
        stroke-width: .75px;
      }

      .cls-1, .cls-2 {
        fill: none;
        stroke: #000000;
        stroke-linecap: round;
        stroke-linejoin: round;
      }

      .cls-2 {
        stroke-width: .5px;
      }
    </style>
  </defs>
  <path class="cls-2" d="M33.17,34.01c-1.87-1.73-.71-.5-2.32-2.24"/>
  <path class="cls-2" d="M13.84,8.54C9.1.96,9.48.27,9.46.25"/>
  <line class="cls-2" x1="11.23" y1="3.72" x2="47.25" y2="24.07"/>
  <path class="cls-2" d="M31.63,26.83c6.65,3.1,4.61,2.09,11.26,5.18"/>
  <path class="cls-2" d="M47.25,24.07c1.5,2.69.42,2.92,0,5.9"/>
  <path class="cls-2" d="M42.96,32.01c3.44-.48,2.71-1.06,4.29-2.05"/>
  <path class="cls-2" d="M4.38,14.52C.03,7.33,1.26,7.78.92,7.19"/>
  <path class="cls-2" d="M9.46.25C1.37,2.85.81,7.03.92,7.19"/>
  <path class="cls-2" d="M33.4,32.85h0c-.08-.11-.18-.2-.32-.26h0c-.27-.15-.68-.19-1.25-.07"/>
  <path class="cls-2" d="M9.46.25c2.08,1.55,5.18,3.73,6.28,5.96"/>
  <path class="cls-2" d="M31.63,26.83c5.08,5.31,7.58,8.14,10.16,14.87-2.25-1.76-4.62-3.83-6.59-5.65l5.07,4.43,1.52,1.22c.19.26-1.27,3.02-9.04,5.74-.25.09-.53.05-.75-.11-1.1-.83-4.57-3.47-6.31-5.08"/>
  <path class="cls-2" d="M25.27,42.39c-.08.04-2.31-2.03-2.25-2.07.58-.37,9.6-4,10.21-6.01.03-.05.42-1.02.12-1.43l1.67,1.43c.63.35.21,1.68.18,1.75-.73,2.04-9.29,6-9.93,6.33Z"/>
  <path class="cls-1" d="M18.97,21.29c-.76-.06-1.33-.09-2.12-.08.59.46,1.18.92,1.79,1.35l-2.36,3.12"/>
  <path class="cls-1" d="M16.24,25.74c.86-.42,1.72-.84,2.62-1.25l.4,1.7"/>
  <path class="cls-1" d="M12.08,21.62c-.07.62.07,1.27.44,1.8-.18-.94.38-1.37,1.19-2.04.75-.6,1.71-.97,2.63-.91.93.06,1.78.48,2.64.83"/>
  <path class="cls-1" d="M25.19,24.47c-.66.01-1.35,0-2.02.02"/>
  <path class="cls-1" d="M25.19,24.47c-.1,1.01.07,2.39-.06,3.38-.68-.04-1.33,0-2.06.02"/>
  <path class="cls-1" d="M22.94,27.69c-.27.88-2.84,2.95-4.31,3.45"/>
  <path class="cls-1" d="M16.65,18.52c.26-.69.54-1.49.74-2.14.9.17,1.79.33,2.69.53.15.03.29.07.45.1-.05.12-.11.25-.16.37-.27.61-.53,1.23-.8,1.85-.96-.27-1.96-.44-2.92-.7Z"/>
  <path class="cls-1" d="M21.07,19.92c.91-1.56,2.44-2.92.47-5.16-1.46-1.67-3.95-1.65-5.83-1.18-4.53,1.13-8.22,5.27-9.85,9.97.55-1.01,1.37-1.81,2.33-2.32-1.01,1.11-1.85,2.82-1.31,4.41,1.18-2.22,3.85-4.08,5.79-5.4-2.84,5.16,1.34,10.28,5.96,10.9"/>
  <path class="cls-1" d="M18.63,31.13c-1.95,1.5-4.67,2.82-7.09,2.58,1.02,1.32,2.77,1.5,4.21,1.11-.9.64-1.94,1.01-3.01,1.01,4.37.83,9.26-.38,12.53-3.83,1.43-1.5,2.82-3.74,2.45-6.05-.52-3.26-3.26-4.38-4.87-3.28"/>
  <path class="cls-1" d="M12.16,20.59c.77-.73,3.91-2.59,4.49-2.07"/>
  <path class="cls-1" d="M19.57,19.22c2.03.68,3.49,3.11,3.59,5.27"/>
  <path class="cls-1" d="M17.55,18.57c.13-.29.25-.58.41-.85.38.08.76.17,1.11.33l-.26.94"/>
  <path class="cls-1" d="M23.17,25.42c.29.02.58.04.94.07-.04.45-.09.9-.22,1.33h-.73"/>
  <path class="cls-1" d="M19.26,26.38c.45-.4.82-.87,1.09-1.39"/>
  <path class="cls-1" d="M20.35,24.99c-.11.92-.2,1.33-.42,2.26-.2.88-.53,1.79-1.27,2.34-.69.52-1.54.71-2.21.07.32.73,1.28,1.28,2.17,1.48"/>
  <line class="cls-2" x1="23.04" y1="24.4" x2="22.94" y2="27.69"/>
  <ellipse class="cls-2" cx="33.06" cy="21.79" rx=".18" ry="1.15" transform="translate(-2.17 39.86) rotate(-60.54)"/>
  <ellipse class="cls-2" cx="38.19" cy="24.7" rx=".18" ry=".98" transform="translate(-2.09 45.81) rotate(-60.54)"/>
  <ellipse class="cls-1" cx="17.3" cy="24.4" rx="13.54" ry="16.72" transform="translate(-9.56 11.24) rotate(-28.55)"/>
  <ellipse class="cls-2" cx="42.96" cy="27.38" rx=".18" ry=".98" transform="translate(-2.01 51.32) rotate(-60.54)"/>
  <ellipse class="cls-2" cx="17.3" cy="24.33" rx="12.23" ry="14.99" transform="translate(-9.53 11.23) rotate(-28.55)"/>
</svg>
