<?xml version="1.0" encoding="UTF-8"?>
<svg id="Blankets" xmlns="http://www.w3.org/2000/svg" viewBox="0 0 48 48">
  <defs>
    <style>
      .cls-1 {
        stroke-miterlimit: 10;
      }

      .cls-1, .cls-2, .cls-3, .cls-4, .cls-5, .cls-6 {
        stroke: #000;
      }

      .cls-1, .cls-3, .cls-7, .cls-8, .cls-4, .cls-5 {
        fill: none;
      }

      .cls-1, .cls-9, .cls-8, .cls-4, .cls-6 {
        stroke-width: .5px;
      }

      .cls-2, .cls-3, .cls-7, .cls-9, .cls-8, .cls-4, .cls-5, .cls-6 {
        stroke-linecap: round;
        stroke-linejoin: round;
      }

      .cls-2, .cls-5 {
        stroke-width: .35px;
      }

      .cls-3 {
        stroke-width: .75px;
      }

      .cls-7 {
        stroke-width: .3px;
      }

      .cls-7, .cls-9, .cls-8 {
        stroke: #000000;
      }

      .cls-9 {
        fill: #000000;
      }
    </style>
  </defs>
  <g>
    <path class="cls-8" d="M19.38,30.88c0,2.06-2.61,3.73-5.82,3.73s-5.82-1.67-5.82-3.73"/>
    <path class="cls-8" d="M13.33,24.55s-3.54-.03-5.57,3.8c0,0-1.69,3.1-1.97,3.1,0,0,.99.23,2.12-.94,0,0,.13,1.02.45,1.16,0,0,2.31-3,3.35-3.41,0,0,.98,2.49,2.71,2.91,0,0-.35-2.96.17-2.77h0c3.32,1.19,3.98,3.48,4.26,3.27s.28-1.08.28-1.08"/>
    <polygon class="cls-9" points="8.08 31.27 8.61 32.85 7.39 33.23 6.89 31.27 7.91 30.52 8.08 31.27"/>
    <polygon class="cls-9" points="19.05 31.45 18.52 33.03 19.74 33.42 20.14 31.87 19.23 30.71 19.05 31.45"/>
    <path class="cls-8" d="M10.01,30.71s1.08,1.38,2.33,0"/>
    <path class="cls-8" d="M14.93,30.71s1.08,1.38,2.33,0"/>
    <g>
      <path class="cls-7" d="M13.56,32.51c0,.26-.21.48-.48.48s-.48-.21-.48-.48"/>
      <path class="cls-7" d="M13.56,32.51c0,.26.21.48.48.48s.48-.21.48-.48"/>
    </g>
    <ellipse class="cls-1" cx="18.43" cy="34.44" rx="2.71" ry="1.05" transform="translate(-10.96 8.71) rotate(-20.64)"/>
    <path class="cls-6" d="M11.17,24.73l-.77-.78-2.66,2.12.65,1.28s1.98-2.76,2.78-2.63Z"/>
    <path class="cls-8" d="M8.18,26.93c.19-.36.37-.71.45-.79l1.38-1.59c-.45-1.35-1.53-1.75-2.37-1.46-.72.25-1.05.92-1.82,2.6s-2.2,4.65-2.2,4.65c-.81.7-5.4,4.44.92,6.04,0,0,.34.09.11.7s.98.33,1.16,0,.57-.24.16-1.96c-.34-1.41.88-3.27,1.33-3.9"/>
    <path class="cls-8" d="M24,35.98c-.36.15-.78.28-1.27.4,0,0-.34.09-.11.7s-.98.33-1.16,0-.57-.24-.16-1.96c.34-1.41-1.15-3.19-1.6-3.81"/>
    <ellipse class="cls-1" cx="8.88" cy="34.44" rx="1.05" ry="2.71" transform="translate(-26.48 30.61) rotate(-69.36)"/>
  </g>
  <path class="cls-4" d="M38.12,17.81c1.9,1.82,3.2,3.87,2.46,4.63"/>
  <g>
    <path class="cls-3" d="M8.24,22.84c3.73-4.15,9.02-1.96,9.02-1.96.21.41,1.82.6,2.4.93s3.7,2.56,4.08,3.64,1.66,4.48,2.74,5.34,3.36,2.49,3.36,2.49l2.6,1.42s-4.02,7.14-7.31,2.74c0,0-12.42-14.89-14.33-14.6s-2.56,0-2.56,0Z"/>
    <path class="cls-3" d="M13.59,20.24s11.68-7.54,15.8-7.41,8.3,3.55,8.81,4.82,7.86,4.56,8.18,5.32.89,1.84-.63,2.85-13.31,8.88-13.31,8.88"/>
    <line class="cls-4" x1="37" y1="25.25" x2="31.1" y2="28.82"/>
  </g>
  <path class="cls-5" d="M27.76,24.55c-.98-2.5-5.54-4.49-8.44-5.53-1.43-.51-2.46-.79-2.46-.79"/>
  <path class="cls-5" d="M21.48,15.67s7.4,1.44,11.34,6.27"/>
  <path class="cls-5" d="M27.15,13.22s6.91,1.51,10.32,6.91"/>
  <path class="cls-5" d="M17.26,20.88s8.43-7,15.17-7.18"/>
  <path class="cls-5" d="M22.86,24.32s8.07-8.37,14.25-8.02"/>
  <polygon class="cls-2" points="16.87 18.23 19.33 19.03 17.26 20.88 13.59 19.88 16.87 18.23"/>
  <path class="cls-2" d="M21.85,15.67l2.15.62,5.77-2.2-2-1.26s-5,2.11-5.91,2.85Z"/>
  <path class="cls-2" d="M24,16.29s5.65,2.54,5.44,2.67-4,2.98-4,2.98l-5.73-2.89s3.82-2.71,4.29-2.77Z"/>
  <path class="cls-2" d="M25.44,21.94l-2.58,2.06s1.05,1.97,1.29,2.57,2.32-2.16,3.62-2.01-1.46-2.18-2.33-2.61Z"/>
  <path class="cls-2" d="M29.44,18.96s4.31-2.73,4.85-2.29,2.71,2.76,3.18,3.46-3.85,1.41-4.02,2.32-2.22-2.94-4.02-3.48Z"/>
  <path class="cls-2" d="M29.77,14.08l3.05-.48,3.88,2.68-2.41.39s-3.23-2.62-4.52-2.59Z"/>
</svg>
