<?xml version="1.0" encoding="UTF-8"?>
<svg id="Bookmarks" xmlns="http://www.w3.org/2000/svg" viewBox="0 0 48 48">
  <defs>
    <style>
      .cls-1 {
        fill: #231f20;
      }

      .cls-2, .cls-3 {
        stroke-width: .25px;
      }

      .cls-2, .cls-3, .cls-4 {
        stroke: #000;
        stroke-linecap: round;
        stroke-linejoin: round;
      }

      .cls-2, .cls-4 {
        fill: none;
      }

      .cls-4 {
        stroke-width: .5px;
      }
    </style>
  </defs>
  <rect class="cls-4" x="16.68" y="6" width="12.81" height="36.76" transform="translate(22.67 -9.19) rotate(42.73)"/>
  <circle class="cls-2" cx="33.5" cy="12.81" r="1.19"/>
  <polygon class="cls-3" points="34.92 10.3 33.62 12.09 34.24 12.67 35.93 11.23 34.92 10.3"/>
  <path d="M38.83,7.1c-.79,1.47-3.3,3.56-3.3,3.56l-.5-.47c.78-.3,3-5.34,3-5.34l.3,1.78,1.47-1.14-.96,1.61Z"/>
  <path d="M40.23,9.03c-1.26,1.1-4.35,2.16-4.35,2.16l-.31-.62c.84,0,4.7-3.93,4.7-3.93l-.35,1.77,1.78-.55-1.47,1.17Z"/>
  <g>
    <path class="cls-1" d="M12.86,33.17l.07-.08c.64-.72,1.48-.96,2.51-.71.35.1.67.26.97.49.29.22.62.59,1,1.09l1.68,2.07h0s-.98,1.11-.98,1.11h0s0,0,0,0c-1.35-1.66-2.08-2.56-2.19-2.68-.09-.09-.17-.17-.25-.23-.34-.26-.73-.37-1.15-.31h0s2.66,3.27,2.66,3.27l.42.52h0s-.98,1.11-.98,1.11h-.01s0,0,0,0l-3.09-3.81h0c-.05.14-.04.41,0,.8.09.41.23.73.41.95l2.16,2.65h0s-.98,1.11-.98,1.11h-.02c-1.4-1.72-2.16-2.66-2.28-2.82-.15-.22-.27-.43-.37-.64-.36-.87-.44-1.75-.24-2.64.13-.5.35-.93.67-1.28Z"/>
    <path class="cls-1" d="M17.33,28.14h.02s4.05,5.31,4.05,5.31h0s-1.13,1.29-1.13,1.29h-.02s-4.05-5.31-4.05-5.31h0s1.13-1.29,1.13-1.29Z"/>
    <path class="cls-1" d="M19.7,25.5h.02s1.54,1.83,1.54,1.83l.94-1.06c.2-.29.32-.49.36-.61.08-.15.12-.31.12-.5.03-.35-.05-.66-.24-.93l-.79-.94.84-.95h.02c.52.6.82.97.91,1.12.11.17.21.4.29.7.08.38.11.7.07.96,0,.18-.05.41-.13.69-.03.1-.06.19-.1.27h0c.14-.07.32-.13.54-.19.63-.12,1.17,0,1.62.34l.02.02c.16.12.39.38.71.77.2.23.31.35.31.37l-.85.95h0c-.46-.54-.73-.86-.83-.96l-.07-.06c-.24-.19-.53-.25-.87-.18-.08.01-.17.06-.29.14-.06.02-.22.14-.48.35l-.96,1.08,1.55,1.84-.85.95h-.02s-4.27-5.05-4.27-5.05h0s.85-.97.85-.97Z"/>
    <path class="cls-1" d="M24.63,19.93h.02c1.36,1.67,2.11,2.59,2.25,2.75l.18.15c.33.25.69.36,1.09.33.28-.04.53-.18.73-.41.42-.47.5-1.09.25-1.88-.07-.19-.16-.36-.26-.51-.12-.16-.84-1.05-2.17-2.67-.03-.04-.04-.06-.04-.07l.98-1.1h.02c1.4,1.71,2.15,2.64,2.26,2.79.59.85.82,1.81.7,2.91-.09.66-.35,1.24-.78,1.72l-.02.02c-.72.81-1.63,1.03-2.73.67-.28-.11-.54-.25-.76-.42l-.06-.05c-.24-.19-.55-.52-.91-1l-1.75-2.14h0s.98-1.11.98-1.11Z"/>
  </g>
</svg>