<?xml version="1.0" encoding="UTF-8"?>
<svg id="Buttons" xmlns="http://www.w3.org/2000/svg" viewBox="0 0 48 48">
  <defs>
    <style>
      .cls-1, .cls-2 {
        stroke-width: .75px;
      }

      .cls-1, .cls-2, .cls-3, .cls-4, .cls-5 {
        stroke: #000;
      }

      .cls-1, .cls-2, .cls-3, .cls-6, .cls-7, .cls-8 {
        fill: none;
      }

      .cls-1, .cls-3, .cls-4, .cls-6, .cls-7, .cls-8, .cls-9, .cls-10, .cls-5 {
        stroke-linecap: round;
        stroke-linejoin: round;
      }

      .cls-2 {
        stroke-miterlimit: 10;
      }

      .cls-3 {
        stroke-width: .3px;
      }

      .cls-4 {
        fill: #020202;
      }

      .cls-4, .cls-6, .cls-7, .cls-8, .cls-5 {
        stroke-width: .5px;
      }

      .cls-6 {
        stroke: #231f20;
      }

      .cls-7 {
        stroke: #fff;
      }

      .cls-8, .cls-9, .cls-10 {
        stroke: #010101;
      }

      .cls-9 {
        fill: #010101;
      }

      .cls-9, .cls-10 {
        stroke-width: .25px;
      }

      .cls-10 {
        fill: #010202;
      }
    </style>
  </defs>
  <circle class="cls-2" cx="17.68" cy="19.84" r="16.06"/>
  <g>
    <path class="cls-9" d="M3.62,19.2l-1.41-2.85s-.29-5.63,5.65-7.27l2.21,2.06s-2.68,1.34-6.18,7.49l-.26.57Z"/>
    <path class="cls-8" d="M3.01,26.38c.42-.35.71-.66,1.16-1.21,0,0,.31,2.82,1.04,3.21,0,0,5.38-8.31,7.81-9.45,0,0,2.29,6.89,6.33,8.06,0,0-.82-8.19.39-7.67h.01c7.73,3.31,9.28,9.62,9.92,9.07s.65-3,.65-3c.66.54,1.23.98,1.73,1.34"/>
    <path class="cls-8" d="M33.14,24.2c-.27-.42-.53-.81-.75-1.1-1.04-1.43-1.52-3.33-1.52-3.33-3.57-11.55-13.39-11.1-13.39-11.1,0,0-8.92-.07-13.65,10.53,0,0-.88,1.92-1.87,3.94"/>
    <path class="cls-8" d="M7.68,24.83l-2.6,3.52c.71,1.41,2.51,4.03,4.59,4.58,0,0-2.36-6.25-1.99-8.11h0Z"/>
    <path class="cls-8" d="M27.67,26.02l1.65,2.39s-1.09,3.21-4.27,4.51c0,0,2.39-4.59,2.61-6.91h0Z"/>
    <path class="cls-8" d="M7.68,25.87s.45,8.11,9.69,8.11,10.25-7.57,10.25-7.57"/>
    <path class="cls-9" d="M30.74,18.63l1.59-2.1s.55-5.62-5.28-7.54l-1.98,1.9s2.49,1.43,5.68,7.72h-.01Z"/>
    <path class="cls-8" d="M6.1,30.97l.23-.05s-2.08-3.97-2.19-5.41"/>
    <path class="cls-8" d="M29,31.23l-.95-.22s2.08-3.97,2.19-5.41c.09-1.13,1.11.97,1.54,1.93"/>
    <path class="cls-7" d="M3.25,16.62s1.7-4.84,5.07-5.89"/>
    <path class="cls-7" d="M31.33,16.27s-1.62-4.66-4.82-5.68"/>
    <polyline class="cls-6" points="15.43 35.64 16.73 34.14 12.2 33.18 13.56 35.28"/>
    <polyline class="cls-6" points="19.3 35.82 17.64 34.06 22.75 33.25 21.18 35.41"/>
    <path class="cls-8" d="M28.04,9.62s.53-1.31,1.01-.96,2.38,2.89,2.38,2.89"/>
    <path class="cls-8" d="M7.16,9.68s-.53-1.31-1.01-.96-2.38,2.89-2.38,2.89"/>
    <rect class="cls-10" x="11.53" y="22.59" width="1.15" height="4.1" rx=".57" ry=".57"/>
    <rect class="cls-10" x="22.43" y="22.59" width="1.15" height="4.1" rx=".57" ry=".57"/>
    <path class="cls-3" d="M20.38,28.87c0,1.22-1.22,2.21-2.74,2.21s-2.74-.99-2.74-2.21h5.47Z"/>
  </g>
  <g>
    <path class="cls-2" d="M30.94,10.18c.57.73,1.09,1.5,1.53,2.33,6.62,1.03,11.7,6.75,11.7,13.66,0,7.65-6.2,13.85-13.85,13.85-3.83,0-7.29-1.55-9.8-4.06-.73.1-1.47.17-2.22.17-.21,0-.41-.02-.62-.03,2.94,3.75,7.5,6.17,12.64,6.17,8.87,0,16.06-7.19,16.06-16.06s-6.86-15.7-15.44-16.03Z"/>
    <line class="cls-1" x1="33.44" y1="23.93" x2="39.37" y2="23.93"/>
    <rect class="cls-4" x="38.18" y="22.81" width="2.74" height="2.23" rx="1.11" ry="1.11"/>
  </g>
  <polygon class="cls-5" points="40.05 35.28 40.91 38.4 43.19 39.56 40.91 40.72 40.09 43.86 39.24 40.73 36.96 39.58 39.22 38.42 40.05 35.28"/>
</svg>
