<?xml version="1.0" encoding="UTF-8" standalone="no"?>
<svg
   id="Buttons"
   viewBox="0 0 48 48"
   version="1.1"
   sodipodi:docname="Buttons.svg"
   inkscape:version="1.4.4 (dcaf3e7, 2026-05-05)"
   xmlns:inkscape="http://www.inkscape.org/namespaces/inkscape"
   xmlns:sodipodi="http://sodipodi.sourceforge.net/DTD/sodipodi-0.dtd"
   xmlns="http://www.w3.org/2000/svg"
   xmlns:svg="http://www.w3.org/2000/svg">
  <sodipodi:namedview
     id="namedview15"
     pagecolor="#ffffff"
     bordercolor="#000000"
     borderopacity="0.25"
     inkscape:showpageshadow="2"
     inkscape:pageopacity="0.0"
     inkscape:pagecheckerboard="0"
     inkscape:deskcolor="#d1d1d1"
     inkscape:zoom="16"
     inkscape:cx="19.25"
     inkscape:cy="23.03125"
     inkscape:window-width="1706"
     inkscape:window-height="1401"
     inkscape:window-x="1698"
     inkscape:window-y="0"
     inkscape:window-maximized="0"
     inkscape:current-layer="Buttons" />
  <defs
     id="defs1">
    <style
       id="style1">
      .cls-1, .cls-2 {
        stroke-width: .75px;
      }

      .cls-1, .cls-2, .cls-3, .cls-4, .cls-5 {
        stroke: #000;
      }

      .cls-1, .cls-2, .cls-3, .cls-6, .cls-7, .cls-8 {
        fill: none;
      }

      .cls-1, .cls-3, .cls-4, .cls-6, .cls-7, .cls-8, .cls-9, .cls-10, .cls-5 {
        stroke-linecap: round;
        stroke-linejoin: round;
      }

      .cls-2 {
        stroke-miterlimit: 10;
      }

      .cls-3 {
        stroke-width: .3px;
      }

      .cls-4 {
        fill: #020202;
      }

      .cls-4, .cls-6, .cls-7, .cls-8, .cls-5 {
        stroke-width: .5px;
      }

      .cls-6 {
        stroke: #000000;
      }

      .cls-7 {
        stroke: #fff;
      }

      .cls-8, .cls-9, .cls-10 {
        stroke: #000000;
      }

      .cls-9 {
        fill: #000000;
      }

      .cls-9, .cls-10 {
        stroke-width: .25px;
      }

      .cls-10 {
        fill: #010202;
      }
    </style>
  </defs>
  <circle
     class="cls-2"
     cx="17.68"
     cy="19.84"
     r="16.06"
     id="circle1" />
  <path
     id="path1"
     class="cls-9"
     d="M 7.859375 9.0800781 C 1.919375 10.720078 2.2109375 16.349609 2.2109375 16.349609 L 3.6191406 19.199219 L 3.6308594 19.199219 L 3.890625 18.630859 C 7.390625 12.480859 10.070312 11.140625 10.070312 11.140625 L 7.859375 9.0800781 z M 8.3105469 10.480469 A 0.25 0.25 0 0 1 8.5585938 10.65625 A 0.25 0.25 0 0 1 8.3945312 10.96875 C 6.8022874 11.46485 5.5626207 12.887315 4.7324219 14.203125 C 3.9022231 15.518935 3.4863281 16.703125 3.4863281 16.703125 A 0.25 0.25 0 0 1 3.1679688 16.855469 A 0.25 0.25 0 0 1 3.0136719 16.537109 C 3.0136719 16.537109 3.4482457 15.302237 4.3105469 13.935547 C 5.1728481 12.568857 6.4683374 11.046088 8.2460938 10.492188 A 0.25 0.25 0 0 1 8.3105469 10.480469 z "
     style="stroke:none" />
  <path
     class="cls-8"
     d="m 3.01,26.38 c 0.42,-0.35 0.71,-0.66 1.16,-1.21 0,0 0.31,2.82 1.04,3.21 0,0 5.38,-8.31 7.81,-9.45 0,0 2.29,6.89 6.33,8.06 0,0 -0.82,-8.19 0.39,-7.67 h 0.01 c 7.73,3.31 9.28,9.62 9.92,9.07 0.64,-0.55 0.65,-3 0.65,-3 0.66,0.54 1.23,0.98 1.73,1.34"
     id="path2" />
  <path
     class="cls-8"
     d="M 33.14,24.2 C 32.87,23.78 32.61,23.39 32.39,23.1 31.35,21.67 30.87,19.77 30.87,19.77 27.3,8.22 17.48,8.67 17.48,8.67 c 0,0 -8.92,-0.07 -13.65,10.53 0,0 -0.88,1.92 -1.87,3.94"
     id="path3" />
  <path
     class="cls-8"
     d="m 7.68,24.83 -2.6,3.52 c 0.71,1.41 2.51,4.03 4.59,4.58 0,0 -2.36,-6.25 -1.99,-8.11 v 0 z"
     id="path4" />
  <path
     class="cls-8"
     d="m 27.67,26.02 1.65,2.39 c 0,0 -1.09,3.21 -4.27,4.51 0,0 2.39,-4.59 2.61,-6.91 v 0 z"
     id="path5" />
  <path
     class="cls-8"
     d="m 7.68,25.87 c 0,0 0.45,8.11 9.69,8.11 9.24,0 10.25,-7.57 10.25,-7.57"
     id="path6" />
  <path
     id="path7"
     class="cls-9"
     d="M 27.050781 8.9902344 L 25.070312 10.890625 C 25.070312 10.890625 27.56 12.319375 30.75 18.609375 L 30.740234 18.609375 L 30.740234 18.630859 L 32.330078 16.529297 C 32.330078 16.529297 32.880781 10.910234 27.050781 8.9902344 z M 26.488281 10.339844 A 0.25 0.25 0 0 1 26.585938 10.351562 C 28.279266 10.89131 29.511284 12.361904 30.332031 13.679688 C 31.152778 14.99747 31.566406 16.1875 31.566406 16.1875 A 0.25 0.25 0 0 1 31.412109 16.505859 A 0.25 0.25 0 0 1 31.09375 16.351562 C 31.09375 16.351562 30.697456 15.21253 29.908203 13.945312 C 29.11895 12.678095 27.940266 11.308377 26.433594 10.828125 A 0.25 0.25 0 0 1 26.271484 10.513672 A 0.25 0.25 0 0 1 26.488281 10.339844 z "
     style="stroke:none" />
  <path
     class="cls-8"
     d="m 6.1,30.97 0.23,-0.05 c 0,0 -2.08,-3.97 -2.19,-5.41"
     id="path8" />
  <path
     class="cls-8"
     d="m 29,31.23 -0.95,-0.22 c 0,0 2.08,-3.97 2.19,-5.41 0.09,-1.13 1.11,0.97 1.54,1.93"
     id="path9" />
  <polyline
     class="cls-6"
     points="15.43 35.64 16.73 34.14 12.2 33.18 13.56 35.28"
     id="polyline11" />
  <polyline
     class="cls-6"
     points="19.3 35.82 17.64 34.06 22.75 33.25 21.18 35.41"
     id="polyline12" />
  <path
     class="cls-8"
     d="m 28.04,9.62 c 0,0 0.53,-1.31 1.01,-0.96 0.48,0.35 2.38,2.89 2.38,2.89"
     id="path12" />
  <path
     class="cls-8"
     d="m 7.16,9.68 c 0,0 -0.53,-1.31 -1.01,-0.96 -0.48,0.35 -2.38,2.89 -2.38,2.89"
     id="path13" />
  <rect
     class="cls-10"
     x="11.53"
     y="22.59"
     width="1.15"
     height="4.0999999"
     rx="0.56999999"
     ry="0.56999999"
     id="rect13" />
  <rect
     class="cls-10"
     x="22.43"
     y="22.59"
     width="1.15"
     height="4.0999999"
     rx="0.56999999"
     ry="0.56999999"
     id="rect14" />
  <path
     class="cls-3"
     d="m 20.38,28.87 c 0,1.22 -1.22,2.21 -2.74,2.21 -1.52,0 -2.74,-0.99 -2.74,-2.21 h 5.47 z"
     id="path14" />
  <g
     id="g15">
    <path
       class="cls-2"
       d="M30.94,10.18c.57.73,1.09,1.5,1.53,2.33,6.62,1.03,11.7,6.75,11.7,13.66,0,7.65-6.2,13.85-13.85,13.85-3.83,0-7.29-1.55-9.8-4.06-.73.1-1.47.17-2.22.17-.21,0-.41-.02-.62-.03,2.94,3.75,7.5,6.17,12.64,6.17,8.87,0,16.06-7.19,16.06-16.06s-6.86-15.7-15.44-16.03Z"
       id="path15" />
    <line
       class="cls-1"
       x1="33.44"
       y1="23.93"
       x2="39.37"
       y2="23.93"
       id="line15" />
    <rect
       class="cls-4"
       x="38.18"
       y="22.81"
       width="2.74"
       height="2.23"
       rx="1.11"
       ry="1.11"
       id="rect15" />
  </g>
  <polygon
     class="cls-5"
     points="40.05 35.28 40.91 38.4 43.19 39.56 40.91 40.72 40.09 43.86 39.24 40.73 36.96 39.58 39.22 38.42 40.05 35.28"
     id="polygon15" />
</svg>
