<?xml version="1.0" encoding="UTF-8"?>
<svg id="Calendars" xmlns="http://www.w3.org/2000/svg" viewBox="0 0 48 48">
  <defs>
    <style>
      .cls-1 {
        stroke-width: .55px;
      }

      .cls-1, .cls-2, .cls-3, .cls-4 {
        stroke: #000;
        stroke-linecap: round;
        stroke-linejoin: round;
      }

      .cls-2 {
        stroke-width: .75px;
      }

      .cls-2, .cls-3 {
        fill: none;
      }

      .cls-5 {
        fill: #231f20;
      }

      .cls-3, .cls-4 {
        stroke-width: .5px;
      }
    </style>
  </defs>
  <polygon class="cls-2" points="31.92 6.25 39.71 6.25 39.71 37.51 38.19 37.51 36.52 36.14 34.09 35.2 31.99 34.23 26.22 37.51 2.3 37.51 2.3 6.25 9.58 6.25 8 12.59 13.66 13.2 15.48 11.14 13.66 6.25 27.28 6.25 26.13 12.23 30.63 13.2 33.37 9.13 31.92 6.25"/>
  <path class="cls-1" d="M31.46,6.25v3.5c0,.85-.69,1.54-1.54,1.54h-.89c-.85,0-1.54-.69-1.54-1.54v-3.5h-13.85v3.5c0,.85-.69,1.54-1.54,1.54h-.89c-.85,0-1.54-.69-1.54-1.54v-3.5H2.3v10.79h37.41V6.25h-8.25Z"/>
  <g>
    <path class="cls-5" d="M19.54,24.43c0,.57-.12,1.08-.37,1.52-.25.45-.64.79-1.18,1.05v.03c.26.07.51.19.73.34.22.15.41.34.57.56s.29.47.38.75c.09.28.13.59.13.92,0,.55-.09,1.05-.27,1.5-.18.44-.45.83-.81,1.14-.36.31-.81.56-1.36.73s-1.18.25-1.9.25c-.2,0-.42,0-.64-.03-.23-.02-.45-.05-.67-.09-.22-.04-.44-.09-.65-.16-.21-.06-.4-.13-.58-.22v-1.74c.32.15.68.27,1.09.37.41.1.86.15,1.35.15.44,0,.81-.05,1.11-.15.3-.1.54-.24.73-.41.19-.17.32-.37.4-.6.08-.23.12-.47.12-.72,0-.37-.08-.68-.23-.92-.15-.25-.38-.43-.66-.55-.15-.06-.31-.11-.5-.13-.19-.03-.42-.04-.68-.04h-1.32v-1.7h.9c.26,0,.49-.01.69-.04s.39-.07.55-.14c.32-.13.57-.33.74-.6.17-.27.26-.6.26-1.01,0-.26-.05-.49-.15-.67-.1-.18-.24-.33-.41-.44-.17-.11-.38-.19-.62-.25s-.47-.08-.7-.08c-.47,0-.91.05-1.31.14-.4.09-.8.22-1.18.38v-1.73c.37-.14.77-.26,1.21-.35.44-.1.95-.14,1.55-.14s1.09.08,1.55.24c.46.16.85.38,1.17.66.32.28.56.61.73.98.17.38.25.78.25,1.21Z"/>
    <path class="cls-5" d="M24.33,28.03v-4.36l-2.85.81v-1.77l3.31-1.17h1.54v6.49h2.38v1.7h-7.06v-1.7h2.68Z"/>
  </g>
  <g>
    <polygon class="cls-3" points="33.66 30.31 29.89 32.65 34.09 35.2 33.66 30.31"/>
    <g>
      <rect class="cls-4" x="35.78" y="23.79" width="3.79" height="10.62" transform="translate(13.54 -11.93) rotate(21.86)"/>
      <path class="cls-3" d="M33.9,33.04l1.19-.74c.71-.44,1.66-.22,2.1.49l.47.75c.44.71.22,1.66-.49,2.1"/>
      <path class="cls-3" d="M34.09,37.56l-12.3,7.65c-.71.44-1.66.22-2.1-.49l-.47-.75c-.44-.71-.22-1.66.49-2.1l12.52-7.79"/>
      <polygon class="cls-3" points="38.19 37.59 34.43 39.94 34 35.04 38.19 37.59"/>
      <polyline class="cls-4" points="34.16 34.91 34 33.09 45.4 26.09 47.44 29.42 36.52 36.14 34.16 34.91"/>
    </g>
  </g>
  <rect x="10.73" y="1.43" width="1.99" height="9.16" rx=".99" ry=".99"/>
  <rect x="28.48" y="1.43" width="1.99" height="9.16" rx=".99" ry=".99"/>
</svg>