<?xml version="1.0" encoding="UTF-8"?>
<svg id="Layer_1" data-name="Layer 1" xmlns="http://www.w3.org/2000/svg" viewBox="0 0 48 48">
  <defs>
    <style>
      .cls-1, .cls-2 {
        stroke-width: .5px;
      }

      .cls-1, .cls-2, .cls-3, .cls-4, .cls-5 {
        stroke: #000000;
        stroke-miterlimit: 10;
      }

      .cls-1, .cls-2, .cls-4, .cls-5 {
        fill: none;
      }

      .cls-1, .cls-3, .cls-5 {
        stroke-linecap: round;
      }

      .cls-4, .cls-5 {
        stroke-width: .75px;
      }
    </style>
  </defs>
  <ellipse class="cls-5" cx="24" cy="10.65" rx="12.67" ry="4.85"/>
  <path class="cls-5" d="M12.08,12.29s10.57-7.71,24.13-.35"/>
  <path class="cls-5" d="M11.33,11.46v5.4s-1.68.85-1.82,2.44-.23,20.86-.23,20.86c0,0,15.96,7.49,29.43-.3,0,0-.09-19.27-.23-20.86-.14-1.59-1.82-2.44-1.82-2.44v-5.4"/>
  <path class="cls-5" d="M11.33,16.85s11.66,6.9,25.33-.3"/>
  <path class="cls-4" d="M23.56,11.61c-.01-.74,4.7-6.51,1.64-8.93"/>
  <path class="cls-4" d="M19.22,24.88c.31,2.72.95,4.26,1.6,4.34,1.61.2,1.82-6.22,1.82-6.22-1.61-3.67,2.17-.38,2.85.89s1.03,4.23.69,5.1c-.41,1.05,3.36-2.9,1.7-4.47-2.79-2.66,3.31.88,4.2,2.79,0,0,3.1,6-1.22,11.07-2.21,2.59-11.22,2.07-14.21-1.15,0,0-2.7-2.49-.66-8.04.78-2.12,4.26-5.57,3.02-3.65"/>
  <circle class="cls-1" cx="19.78" cy="32.18" r="1.79"/>
  <circle class="cls-1" cx="28.96" cy="31.9" r="1.79"/>
  <circle class="cls-3" cx="20.11" cy="32.18" r=".47"/>
  <circle class="cls-3" cx="28.96" cy="31.9" r=".47"/>
  <path class="cls-1" d="M21.25,35.33s2.15,2,6.34.05c0,0,1.39.97.78,1.47s-3,1.7-6.41.82-.72-2.33-.72-2.33Z"/>
  <path class="cls-2" d="M37.24,19.28c-.26,1.23.03,17.37.03,17.37"/>
</svg>
