<?xml version="1.0" encoding="UTF-8"?>
<svg id="Layer_1" data-name="Layer 1" xmlns="http://www.w3.org/2000/svg" viewBox="0 0 48 48">
  <defs>
    <style>
      .cls-1 {
        fill: none;
      }

      .cls-1, .cls-2 {
        stroke: #000000;
        stroke-miterlimit: 10;
      }

      .cls-2 {
        fill: #000000;
        stroke-width: 1.2px;
      }
    </style>
  </defs>
  <path class="cls-1" d="M13.73,37.08c-6.49-1.26-7.2-1.28-10.15-1.66"/>
  <path class="cls-1" d="M43.38,9.86c-4.35,12.94-5.08,32.64-5.08,32.64"/>
  <path class="cls-1" d="M3.67,37.98l-.09.68s1.76.15,9.7,1.55"/>
  <path class="cls-1" d="M40.43,45.65s1.2-21.88,6.2-34.56l-22.12-6.16-1.47,9.9-.98,5.63-4.84-1.26-10.67-2.94-2.64,19.89-.33,2.51"/>
  <path class="cls-2" d="M40.99,45.42h-3.52l-11.08-15.8-.93-1.31.71-1.4-1.95-.62-.54-1.59,2.85-1.18,2.3,3.78c.06.11.12.23.19.33l9.31,14.2"/>
  <polyline class="cls-2" points="12.64 36.87 15.5 37.42 15.31 38.39 17.01 38.74 16.64 41.02 12.16 40.02"/>
  <polyline class="cls-1" points="46.95 11.01 44.29 7.61 22.17 1.45 20.31 13.98 19.82 17.01 17.14 16.35 4.21 12.78 1.36 35.64 3.43 38.87"/>
</svg>
