<?xml version="1.0" encoding="UTF-8"?>
<svg id="Card_Deck" data-name="Card Deck" xmlns="http://www.w3.org/2000/svg" viewBox="0 0 48 48">
  <defs>
    <style>
      .cls-1, .cls-2, .cls-3, .cls-4, .cls-5 {
        fill: none;
      }

      .cls-1, .cls-2, .cls-3, .cls-5 {
        stroke: #000;
      }

      .cls-1, .cls-2, .cls-4 {
        stroke-miterlimit: 10;
      }

      .cls-1, .cls-2, .cls-5 {
        stroke-width: .35px;
      }

      .cls-2, .cls-3, .cls-5 {
        stroke-linecap: round;
      }

      .cls-3 {
        stroke-width: .5px;
      }

      .cls-3, .cls-5 {
        stroke-linejoin: round;
      }

      .cls-4 {
        stroke: #000000;
        stroke-width: .3px;
      }

      .cls-6 {
        fill: #000000;
        font-family: Vocaloid-Italic, Vocaloid;
        font-size: 2.85px;
        font-style: italic;
      }
    </style>
  </defs>
  <g>
    <g>
      <path class="cls-2" d="M30.78,15.07s-.09,2.35,1.95,1.35"/>
      <path class="cls-1" d="M31.92,16.79l-.04.43s-1.82-.15-2.24.42-1.54,2.71-1.54,2.71l-3.02,2.83s-1.62-.71-1.58-.16-.37.12-.58.41-.22.73.53.87,2-.19,2-.19c0,0,2.49-1.72,2.81-1.91s.88-1.21.88-1.21l.93-.36"/>
      <path class="cls-5" d="M30.44,18.87s-1.52,2.49,1.04,2.18"/>
      <path class="cls-1" d="M30.55,21.04v1.44s-1.43,1.4-1.05,2.56"/>
      <path class="cls-1" d="M33.21,25.72s.56,4.12.47,4.97l-.53,5.22s.34.98.28,1.63-.98-.25-1.29-1.35.15-1.5.15-1.5c0,0-.78-2.66-.32-3.83,0,0-1.16-1.36-1.01-2.27s1.32-3.04,2.25-2.88Z"/>
      <path class="cls-1" d="M34.67,24.17s2.01,4.13,1.44,4.72-2.28,1.43-2.28,1.43l-.63-4.6,1.46-1.55Z"/>
      <path class="cls-1" d="M31.98,30.86l-2.23.9s-.65,1-.71,1.11-.44.99-.44.99l-.45-.05s-.11-2.41.1-2.75,1.07-.36,1.29-.46,1.69-.78,1.69-.78l.75,1.02Z"/>
      <path class="cls-1" d="M33.19,16.35s-.02,1.04.82,1.57"/>
      <path class="cls-5" d="M34.18,16.27s2.27,1.3,2.18,1.88.28,1.36-.24,2.38-1,2.58-1.17,3.01-.59.96-.94,1.33-1.33.91-1.57,1.14-1.41,2.47-1.51,2.87-.99-.4-.99-.4c0,0-1.15-.09-1.12-.94s.25-2.58,1.05-2.86,2.2-.87,2.27-1.22.68-1.77.95-2.01.93-.97,1.1-1.78.03-2.01-.44-2.39-.4-1.11-.4-1.11l.83.08Z"/>
      <path class="cls-1" d="M37.28,24.9l-2.05-1.75.86-2.22,1.72,3.46s1.03-.09,1.35,0,.62.06.71.04.38.05.18.28-.2.2.02.31.4.19.26.35-1.74.64-3.05-.47Z"/>
      <path class="cls-5" d="M34.96,29.71c.76,1.76-1.32,2.89-1.32,2.89l-.16,1.58s.38-.23.55-.3,2.3-.42,2.3-.42c0,0,1.08-.45,1.92-2.53s-2.24-3.48-2.24-3.48c0,0,.78.93.27,1.32s-1.33.93-1.33.93Z"/>
      <path class="cls-5" d="M30.92,14.46l.8,1,.68-1.23.92.87-.33,1.47,1.23-.76s.38-2.57-1.58-3.07-2.44,1.06-2.44,1.06c0,0-.74,2.12-.25,2.46l.49.35.48-2.14Z"/>
      <path class="cls-5" d="M31.73,12.61l.02-1.98.7.87,1.34-1.17.15,1.7,1.06.08-1.31,1.29s-.81-1.04-1.97-.8Z"/>
      <path class="cls-5" d="M24,16.07c.15.08.38.13.72.16,1.32.11.88.09.88.09,0,0-.54.63-.28,1.27s.27,1.39,1.7,1.3,2.02-.29,2.02-.29l.79-1.29,2.03-.09-.28-.5-.82-.8-.33.68-.72-.34s-2.01.67-1.65,0,1.04-.92.09-1.14c-.84-.19-2.84.16-3.17-.15"/>
      <path class="cls-1" d="M34.4,12.72s1.2-.52,1.52-.13.69,1.94,2.08,2.52,2.65-.14,3.1,1-.17,2.85.85,2.96-1.43.79-2.51-1.52-2.83-1.89-2.83-1.89c0,0-2.21.02-2.31-.54s-.59-1.72-.59-1.72l.7-.68Z"/>
      <path class="cls-1" d="M30.2,12.01s-1.07-.75-1.46-.43-1.07,1.76-2.55,2.05-2.57-.67-3.24.36-.41,2.83-1.43,2.72,1.24,1.07,2.77-.98,3.15-1.28,3.15-1.28c0,0,2.16.46,2.38-.06s.93-1.57.93-1.57l-.54-.81Z"/>
      <path class="cls-5" d="M32.01,34.86s-1.24.53-1.98.23c0,0-2.01-.24-2.06.22s.43,1.05.43,1.05c0,0-1.58-.02-1.79-.68s-.34-2.48,1.34-2.16l.2.29.45.05.17-.38s.93.27,1.02.44.91.29,1.27.02.81-.42.81-.42l.33.84-.19.5Z"/>
    </g>
    <rect class="cls-3" x="19.55" y="5.15" width="22.83" height="40.66" transform="translate(2.74 -3.01) rotate(5.82)"/>
    <line class="cls-3" x1="18.04" y1="39.68" x2="40.75" y2="41.99"/>
    <text class="cls-6" transform="translate(18.84 42.93) rotate(5.82)"><tspan x="0" y="0">THE WORLD</tspan></text>
    <path class="cls-4" d="M18.88,31.46s3.01-.41,3.39,1.59c0,0,3.4.74,2.42,3.44,0,0,1.51.38,1.45,1.61s1.15,2.53.38,2.45l-8.49-.87.84-8.22Z"/>
    <path class="cls-4" d="M41.58,33.64s-2.87-1.01-3.64.87c0,0-3.48.04-3.07,2.88,0,0-1.56.07-1.75,1.28s-1.64,2.24-.86,2.32l8.49.87.84-8.22Z"/>
    <path class="cls-4" d="M43.42,14.94s-3.01.41-3.39-1.59c0,0-3.4-.74-2.42-3.44,0,0-1.51-.38-1.45-1.61s-.98-2.84-.2-2.76l8.43.86-.95,8.53Z"/>
    <path class="cls-4" d="M20.8,12.64s2.87,1.01,3.64-.87c0,0,3.48-.04,3.07-2.88,0,0,1.56-.07,1.75-1.28s1.92-2.54,1.14-2.62l-8.73-.89-.87,8.54Z"/>
  </g>
  <polyline class="cls-3" points="19.64 44.77 13.82 45.11 11.4 4.52 34.19 3.16 34.32 5.38"/>
  <polyline class="cls-3" points="18.46 44.92 11.44 46.57 1.99 6.37 24.21 1.13 24.73 3.45"/>
</svg>
