<?xml version="1.0" encoding="UTF-8"?>
<svg id="Layer_1" data-name="Layer 1" xmlns="http://www.w3.org/2000/svg" viewBox="0 0 48 48">
  <defs>
    <style>
      .cls-1, .cls-2, .cls-3, .cls-4, .cls-5 {
        stroke: #000000;
        stroke-linecap: round;
        stroke-miterlimit: 10;
      }

      .cls-1, .cls-3, .cls-5 {
        fill: none;
      }

      .cls-2, .cls-4 {
        fill: #000000;
      }

      .cls-2, .cls-5 {
        stroke-width: .75px;
      }

      .cls-3 {
        stroke-width: .5px;
      }

      .cls-4 {
        stroke-width: .25px;
      }
    </style>
  </defs>
  <path class="cls-3" d="M7.48,18.76c.69.52,6.73,4.18,6.73,4.18.53.52-.75,2.45-.75,2.45-3.58.08-6.43,2.06-7.75,5.35-1.82,4.54.72,9.82,5.67,11.81,4.95,1.99,10.44-.08,12.26-4.61,1.67-4.16-.32-8.94-4.48-11.24l2.78-1.06-2.9-3.26,2.95-.47-4.33-3.69-10.17.54Z"/>
  <polyline class="cls-3" points="9.89 32.93 7.81 34.73 11.19 35.83 11.76 38.46 14.36 37.18 17.02 39.27 18.44 37.38 21.03 38.35 19.96 35.31"/>
  <circle class="cls-5" cx="25.82" cy="8.78" r="5.4"/>
  <line class="cls-5" x1="22.76" y1="13.21" x2="19.11" y2="18.86"/>
  <path class="cls-3" d="M29.49,25.57c-.06.3-.07.58,0,.81.36,1.22.95,1.68,1.92,1.72,1.35.06,1.71-1.84,1.71-1.84l.07-.31.23.21s1.63.94,2.49.32c.79-.57.87-1.39.38-2.55-.5-1.17-3.48-1.94-3.72-2.02l-.89-.1-.14.14"/>
  <path class="cls-3" d="M31.55,21.95l-.49.51c-.1.17-1.31,1.84-1.57,3.11"/>
  <path class="cls-3" d="M32.31,20.8c.13-.21,1.84-2.61,1.48-3.82s-.87-1.83-1.92-1.72c-.97.09-1.71,1.83-1.71,1.83l-.07.32-.12-.11s-1.7-.76-2.6-.42-.96,1.51-.38,2.55c.62,1.11,3.48,1.94,3.72,2.02l.89.1.72-.75Z"/>
  <path class="cls-3" d="M28.34,20.57c-.14,0-1.24-.87-1.36-.84-1.22.37-1.82.53-1.98,1.49s1.84,1.7,1.84,1.7l.32.06-.21.23s-.93,1.83-.2,2.47,1.3.6,2.48.1c.09-.04.58-1.27.66-1.33"/>
  <path class="cls-3" d="M33.5,18.67c.11-.09.43-1.37.55-1.42,1.18-.5,1.73-.37,2.2-.05.81.54-.04,2.39-.04,2.39l-.22.27.31.05s1.71.53,1.84,1.7c.1.97-.73,1.36-1.96,1.73-.09.03-1.26-.62-1.36-.62"/>
  <line class="cls-1" x1="33.47" y1="26.79" x2="38.26" y2="40.02"/>
  <path class="cls-4" d="M37.85,39.41l2.88-.8-.37-1.91-.65.21c-.04.5-.03,1.22-.37,1.31-.53.15-1.15-.43-1.39-1.29s.06-1.46.59-1.61c.4-.11.81-.04.95.56l.64-.22-.4-1.57-3.11.86"/>
  <line class="cls-2" x1="29.86" y1="16.96" x2="28.05" y2="13.9"/>
</svg>
