<?xml version="1.0" encoding="UTF-8"?>
<svg id="Clear_Files" data-name="Clear Files" xmlns="http://www.w3.org/2000/svg" viewBox="0 0 48 48">
  <defs>
    <style>
      .cls-1, .cls-2 {
        fill: none;
      }

      .cls-1, .cls-2, .cls-3 {
        stroke: #000;
        stroke-linecap: round;
        stroke-linejoin: round;
      }

      .cls-1, .cls-3 {
        stroke-width: .75px;
      }
    </style>
  </defs>
  <g>
    <rect class="cls-2" x="3.09" y="13.52" width="40.95" height="30.8"/>
    <path class="cls-2" d="M3.09,13.68h40.95c0-3.5-1.09-6.37-2.42-6.37h-24.61c-.88-2.43-2.64-4.29-2.95-4.29H4.14s-1.04.85-1.04,10.65Z"/>
  </g>
  <g>
    <path class="cls-1" d="M13.37,44.02c-1.35-2-2.14-4.4-2.14-6.99,0-6.91,5.6-12.51,12.51-12.51s12.51,5.6,12.51,12.51c0,2.57-.78,4.96-2.1,6.95"/>
    <polyline class="cls-1" points="12.09 41.58 19.09 34.63 23.85 42.39 28.5 34.63 35.57 41.22"/>
    <path class="cls-1" d="M12.42,44.32c-.12-.89-.24-1.8-.34-2.75"/>
    <path class="cls-1" d="M14.3,25.49s-1.75-1.06-4.54,2.41c-1.49,1.86-4.38,6.84-6.67,11.63"/>
    <path class="cls-3" d="M14.64,28.43l-.25-4.74,3.05.08.1,2.19s-2.47,1.58-2.9,2.47Z"/>
    <path class="cls-1" d="M35.03,44.32c.09-.65.17-1.31.24-2"/>
    <path class="cls-1" d="M32.84,25.49s1.75-1.06,4.54,2.41c1.49,1.86,4.38,6.84,6.67,11.63"/>
    <path class="cls-3" d="M32.5,27.99l.25-4.74-3.05.08-.1,2.19s2.47,1.58,2.9,2.47Z"/>
    <path class="cls-3" d="M11.29,35.81l-2.71.39.9,6.23,2.97-.03s-1.94-6.32-1.15-6.59Z"/>
    <path class="cls-3" d="M36.38,35.79l2.71.39-.9,6.23-2.97-.03s1.94-6.32,1.15-6.59Z"/>
    <circle class="cls-3" cx="18.16" cy="40.75" r="1.63"/>
    <circle class="cls-3" cx="29.6" cy="40.75" r="1.63"/>
  </g>
</svg>