<?xml version="1.0" encoding="UTF-8"?>
<svg id="Layer_1" data-name="Layer 1" xmlns="http://www.w3.org/2000/svg" viewBox="0 0 48.57 48.5">
  <defs>
    <style>
      .cls-1, .cls-2, .cls-3 {
        stroke: #000;
        stroke-linecap: round;
        stroke-linejoin: round;
      }

      .cls-1, .cls-3 {
        stroke-width: .5px;
      }

      .cls-2 {
        stroke-width: .75px;
      }

      .cls-2, .cls-3 {
        fill: none;
      }
    </style>
  </defs>
  <path class="cls-2" d="M18.95,41.35c-2.8,4.74-8.52,6.94-13.2,4.89-4.93-2.14-6.8-8.18-4.21-13.47,2.6-5.28,8.71-7.83,13.63-5.68.12.05.24.11.35.16.01.1.03.19.04.3.13.75.28,1.51.42,2.27.87,4.57,1.95,8.95,2.96,11.53Z"/>
  <path class="cls-2" d="M31.79,9.33c-1.75-1.42-3.3-2.54-3.66-2.67-1.76-.64-7.41-.8-9.07-1.18-2.1-.47-4.29,6.51-4.67,7.26-.43.87-.31,3.98.16,7.93-2.72-2.83-3.42-7.4-1.4-11.52,2.12-4.33,6.6-6.82,10.84-6.41h.01c.73.07,1.46.23,2.17.49.2.07.4.14.6.23,2.57,1.13,4.31,3.3,5.01,5.87Z"/>
  <path class="cls-3" d="M13.22,26.28s.91-1.37,1.67-3.39"/>
  <line class="cls-2" x1="9.47" y1="44.1" x2="4.24" y2="34.46"/>
  <line class="cls-2" x1="14.64" y1="43.65" x2="6.61" y2="29.65"/>
  <path class="cls-2" d="M48.19,28.86c-.21,2.79-5.68,2.82-8.39,2.93-1.46.06-7.96-.91-8.98.86-.39.69-.43,3.31-4.3,6.63-.07.06-4.99,5.31-6.29,4.29-.4-.31-.83-1.1-1.28-2.22-1.01-2.58-2.09-6.96-2.96-11.53-.15-.76-.29-1.52-.42-2.27-.01-.1-.03-.19-.04-.3-.23-1.31-.43-2.62-.61-3.88-.14-.93-.26-1.83-.36-2.7-.47-3.95-.59-7.06-.16-7.93.38-.76,2.56-7.74,4.67-7.26,1.66.38,7.31.54,9.07,1.18.36.13,1.91,1.25,3.66,2.67,2.16,1.76,4.64,3.95,5.63,5.29.85,1.14,1.5,2.38,2.14,3.62,1.75,3.39,1.67,6.29,5.58,8.48.48.27,3.07,1.79,3.06,2.14Z"/>
  <path class="cls-2" d="M30.17,30.67c-.46-2.08-3.46-10.6-3.92-12.68"/>
  <path class="cls-2" d="M29.13,20.67c.42,1.22,6.19,7.32,7,8.43"/>
  <path class="cls-2" d="M15.56,27.54c.13.75.28,1.51.42,2.27-.31-.05-.66-.18-1-.34-1.04-.52-1.67-1.34-1.39-1.82.24-.43,1.07-.46,1.97-.11Z"/>
  <path class="cls-1" d="M2.15,44.85s.99.68,1.47,1.08c1.36.4,2.72.8,4.08,1.2h0c.21,0,.41.29.41.6,0,.27-.17.5-.35.52h0c-1.4-.58-2.79-1.15-4.18-1.72-.42.17-.8.34-1.17.52-.06.03-.12.05-.17.08-.12.06-.26-.03-.32-.21-.04-.11-.07-.22-.1-.33,0,0,0-.02,0-.02-.05-.13,0-.29.11-.31.03,0,.06,0,.09-.02.27-.05.48-.12.8-.14l-.7-.58c-.07-.06-.11-.17-.11-.28.02-.17.14-.39.14-.39Z"/>
  <path class="cls-1" d="M23.67,1.85s1.2.23,1.83.3c1.23.68,2.46,1.36,3.69,2.03h0c.13.15.5.1.74-.12.21-.19.28-.45.18-.59h0c-1.4-.59-2.78-1.17-4.17-1.76-.15-.41-.27-.79-.38-1.16-.02-.06-.04-.11-.05-.17-.04-.13-.2-.16-.38-.08-.11.05-.22.1-.33.15,0,0-.01,0-.02,0-.14.06-.22.2-.16.28.02.02.04.05.05.07.15.22.23.41.43.65l-.93-.09c-.09-.01-.21.03-.29.11-.13.13-.21.36-.21.36Z"/>
  <polygon class="cls-1" points="34.55 36.65 35.06 38.22 36.46 38.8 35.06 39.38 34.55 40.95 34.03 39.38 32.63 38.8 34.03 38.22 34.55 36.65"/>
  <polygon class="cls-1" points="41.48 7.68 42.07 9.51 43.69 10.19 42.07 10.87 41.48 12.71 40.88 10.87 39.27 10.19 40.88 9.51 41.48 7.68"/>
</svg>