<?xml version="1.0" encoding="UTF-8"?>
<svg id="Clocks" xmlns="http://www.w3.org/2000/svg" viewBox="0 0 48 48">
  <defs>
    <style>
      .cls-1 {
        stroke-width: .75px;
      }

      .cls-1, .cls-2, .cls-3, .cls-4, .cls-5 {
        stroke: #000000;
      }

      .cls-1, .cls-3, .cls-5 {
        fill: none;
      }

      .cls-1, .cls-4 {
        stroke-linecap: round;
        stroke-linejoin: round;
      }

      .cls-2, .cls-3, .cls-5 {
        stroke-miterlimit: 10;
      }

      .cls-2, .cls-4 {
        fill: #000000;
      }

      .cls-4 {
        stroke-width: .5px;
      }

      .cls-5 {
        stroke-width: 1.75px;
      }
    </style>
  </defs>
  <g id="Clocks-2" data-name="Clocks">
    <path class="cls-1" d="M22.74,22.37l-6.06-3.6c-.44-.26-1-.11-1.26.32s-.11,1,.32,1.26l5.98,3.56s-.08-1.1,1.02-1.54Z"/>
    <path class="cls-4" d="M25.31,24.02l8.25-6.05c.45-.33.55-.97.22-1.42h0c-.33-.45-.97-.55-1.42-.22l-8.11,5.96s1.07-.09,1.07,1.74h-.01Z"/>
    <circle class="cls-5" cx="23.68" cy="23.66" r="21"/>
    <g>
      <path class="cls-3" d="M35.03,27.01c-.65-.1-1.35.07-1.98.33-1.95,3.23-5.5,5.4-9.55,5.4s-7.69-2.22-9.62-5.52c-.49-.13-1-.2-1.54-.2-3.3,0-5.97,2.67-5.97,5.97,0,0-.13,2.77,1.27,4.02,0,0,5.94,7.65,16.05,7.65,7.05,0,12.61-4.75,15.1-7.04.26-.21.5-.44.72-.69l.8-1.14c.45-.84.71-1.8.71-2.82,0-3.3-2.72-5.45-5.97-5.97h-.02Z"/>
      <line class="cls-3" x1="13.61" y1="27.16" x2="13.58" y2="41.92"/>
      <line class="cls-3" x1="20.73" y1="32.64" x2="20.73" y2="44.11"/>
      <line class="cls-3" x1="27.59" y1="32.25" x2="27.59" y2="44.11"/>
      <line class="cls-3" x1="33.26" y1="27.26" x2="33.26" y2="41.81"/>
    </g>
    <circle class="cls-3" cx="23.5" cy="23.9" r="1.78"/>
    <path class="cls-2" d="M10.21,24.02h-4.14c-.52,0-.95-.43-.95-.95h0c0-.52.43-.95.95-.95h4.14v1.9Z"/>
    <path class="cls-2" d="M37.09,24.02h4.14c.52,0,.95-.43.95-.95h0c0-.52-.43-.95-.95-.95h-4.14v1.9Z"/>
  </g>
</svg>
