<?xml version="1.0" encoding="UTF-8" standalone="no"?>
<!-- Created with Inkscape (http://www.inkscape.org/) -->

<svg
   width="48"
   height="48"
   viewBox="0 0 48 48"
   version="1.1"
   id="svg1"
   xml:space="preserve"
   inkscape:version="1.4.4 (dcaf3e7, 2026-05-05)"
   sodipodi:docname="Coasters.svg"
   xmlns:inkscape="http://www.inkscape.org/namespaces/inkscape"
   xmlns:sodipodi="http://sodipodi.sourceforge.net/DTD/sodipodi-0.dtd"
   xmlns="http://www.w3.org/2000/svg"
   xmlns:svg="http://www.w3.org/2000/svg"><sodipodi:namedview
     id="namedview1"
     pagecolor="#ffffff"
     bordercolor="#000000"
     borderopacity="0.25"
     inkscape:showpageshadow="2"
     inkscape:pageopacity="0.0"
     inkscape:pagecheckerboard="0"
     inkscape:deskcolor="#d1d1d1"
     inkscape:document-units="px"
     inkscape:zoom="19.927084"
     inkscape:cx="43.383166"
     inkscape:cy="26.044955"
     inkscape:window-width="3411"
     inkscape:window-height="1440"
     inkscape:window-x="1496"
     inkscape:window-y="0"
     inkscape:window-maximized="0"
     inkscape:current-layer="layer3" /><defs
     id="defs1" /><g
     inkscape:label="Layer 1"
     inkscape:groupmode="layer"
     id="layer1"
     style="display:inline" /><g
     inkscape:groupmode="layer"
     id="layer2"
     inkscape:label="Layer 2"
     style="display:none"><g
       id="g1"
       transform="matrix(0.03804917,0,0,0.03799366,0.10100885,0.1378969)"
       style="stroke-width:13.1505;stroke-dasharray:none"><path
         d="m 0,0 c 413.82,0 827.64,0 1254,0 0,413.82 0,827.64 0,1254 -413.82,0 -827.64,0 -1254,0 C 0,840.18 0,426.36 0,0 Z"
         fill="#fdfdfd"
         id="path1"
         style="stroke-width:13.1505;stroke-dasharray:none" /><path
         d="m 0,0 c 2.4892027,0.7957732 4.9990654,1.5049703 7.5161133,2.2070313 3.3336567,0.9896854 6.4163807,2.2480996 9.5703127,3.7109374 3.826381,1.7625181 7.660983,3.4993774 11.515625,5.1992193 29.993795,13.349155 56.950342,30.868099 82.414059,51.527343 1.29164,1.028672 1.29164,1.028672 2.60938,2.078125 6.82167,5.480996 13.2529,11.295585 19.62988,17.278809 1.83429,1.711695 3.68267,3.407058 5.53418,5.100097 6.91172,6.34349 13.48857,12.814906 19.74219,19.808598 2.29486,2.52579 4.6635,4.91847 7.10937,7.29687 4.06431,4.00635 7.63111,8.30564 11.19532,12.75781 1.97267,2.42519 4.01112,4.74563 6.11718,7.05469 4.53132,5.04969 8.62237,10.41121 12.70313,15.82422 1.38454,1.83412 2.77778,3.66141 4.17187,5.48828 17.75213,23.35445 33.78327,47.75891 48.1875,73.3125 0.4117,0.72574 0.82339,1.45149 1.24756,2.19922 20.07462,35.42673 37.79973,71.99464 51.2251,110.46484 1.07928,3.09015 2.20287,6.16113 3.33984,9.23047 2.62153,7.1938 4.98049,14.47218 7.34156,21.75464 0.77454,2.38591 1.55519,4.76976 2.33618,7.15357 3.93,12.06176 7.53005,24.20332 10.59204,36.51635 0.84406,3.38545 1.79411,6.71345 2.79272,10.05591 3.64387,12.71966 6.24267,25.57157 8.21094,38.64844 0.98186,6.50623 2.04927,12.99811 3.11084,19.4917 0.93065,5.69349 1.84575,11.38946 2.76193,17.08529 0.64864,4.01845 1.31827,8.03158 2.02567,12.0402 9.25532,53.62034 6.08801,113.56899 1.57812,167.60937 -0.0614,0.74497 -0.12288,1.48994 -0.18618,2.25748 -0.61858,7.33262 -1.38017,14.39239 -3.37632,21.49252 -0.34772,2.14041 -0.66108,4.28672 -0.9375,6.4375 -2.24801,16.34134 -5.63096,32.43528 -9.0625,48.5625 -0.66,0 -1.32,0 -2,0 -0.0735,1.03125 -0.14695,2.0625 -0.22265,3.125 -0.82601,6.52789 -3.1096,12.66979 -5.21485,18.875 -0.33122,0.98544 -0.33122,0.98544 -0.66913,1.99078 -6.04771,17.94339 -13.12573,35.45733 -21.96075,52.22065 -0.90637,1.73823 -1.77559,3.49569 -2.64355,5.25341 -20.27245,40.058 -52.04729,75.52802 -91.28907,97.53516 -0.6173,0.35047 -1.2346,0.70093 -1.8706,1.06201 -13.12913,7.41398 -26.46294,12.64629 -41.0044,16.62549 -1.03874,0.28561 -2.07748,0.57122 -3.1477,0.86548 -15.61562,4.12399 -30.52396,6.0333 -46.6648,5.94702 -0.88857,-0.002 -1.77715,-0.004 -2.69265,-0.005 C 73.183697,962.97081 35.328463,952.89872 1.0161133,935.64487 0.16291504,935.2169 -0.6902832,934.78893 -1.5693359,934.348 -32.371502,918.80008 -60.531244,899.785 -86.983887,877.64487 c -1.092441,-0.90495 -2.18489,-1.8099 -3.277343,-2.71484 -5.483892,-4.56664 -10.81006,-9.1921 -15.77051,-14.33399 -1.82892,-1.82801 -3.71178,-3.51243 -5.67871,-5.18945 -4.29203,-3.72837 -8.32876,-7.66872 -12.33594,-11.69922 -0.66838,-0.66451 -1.33675,-1.32902 -2.02539,-2.01367 -3.9275,-3.93513 -7.666,-7.98 -11.2976,-12.18921 -2.27041,-2.6151 -4.62902,-5.13797 -6.98951,-7.67212 -5.11734,-5.54071 -9.89964,-11.30857 -14.625,-17.1875 -1.39523,-1.68799 -2.79108,-3.37548 -4.1875,-5.0625 -9.25745,-11.3468 -18.20474,-22.89035 -26.625,-34.875 -0.60481,-0.85843 -1.20962,-1.71687 -1.83276,-2.60132 -0.55663,-0.80059 -1.11327,-1.60117 -1.68677,-2.42602 -0.49218,-0.70762 -0.98436,-1.41523 -1.49145,-2.14429 -1.17652,-1.89087 -1.17652,-1.89087 -2.17652,-4.89087 -1.05461,0.1107 -2.10923,0.2214 -3.1958,0.33545 -4.08146,0.42686 -8.16367,0.84616 -12.24609,1.26367 -1.73523,0.17842 -3.47027,0.35864 -5.20508,0.54102 -25.5197,2.67919 -50.95675,4.2039 -76.62231,4.1206 -3.92798,-0.0108 -7.85549,10e-6 -11.78345,0.0127 -16.73636,0.01 -33.28107,-0.76938 -49.94727,-2.27344 -1.34011,-0.11695 -1.34011,-0.11695 -2.7073,-0.23627 -5.49822,-0.48086 -10.99001,-1.0114 -16.4802,-1.57623 -1.20657,-0.12248 -1.20657,-0.12248 -2.43753,-0.24744 -16.56063,-1.69628 -32.96721,-4.14122 -49.37497,-6.94006 0.18176,1.2607 0.36352,2.52141 0.55078,3.82031 0.53305,3.70234 1.05884,7.40564 1.58204,11.10938 0.55575,3.92558 1.13488,7.8465 1.73437,11.76562 4.7251,31.48044 4.7251,31.48044 -1.12891,41.16016 -7.73905,9.54773 -18.74201,14.47781 -30.73828,16.14453 -8.48075,0.77593 -15.78615,-0.77382 -23.3125,-4.75 -4.1523,-3.47634 -7.07635,-6.40514 -8.24218,-11.83203 -0.37495,-5.36173 0.35129,-8.87356 3.55468,-13.23047 7.12418,-7.96148 16.20336,-14.24681 27.11866,-15.41406 12.13833,-0.64494 12.13833,-0.64494 15.88134,1.22656 -1.98,-14.52 -3.96,-29.04 -6,-44 -6.6,-1.32 -13.2,-2.64 -20,-4 -4.86936,-1.272 -9.68042,-2.57198 -14.5,-4 -1.14468,-0.33 -2.28937,-0.66 -3.46875,-1 -7.40733,-2.15486 -14.7276,-4.51874 -22.03125,-7 -1.57937,-0.52361 -3.15879,-1.04706 -4.73828,-1.57031 -26.01445,-8.76436 -53.1192,-19.97241 -75.26172,-36.42969 -1.02351,-0.7309 -2.04703,-1.4618 -3.10156,-2.21484 -16.12555,-11.73428 -32.25853,-27.05297 -36.43329,-47.39077 -0.55093,-4.02036 -0.60677,-7.97255 -0.59886,-12.02104 -0.002,-0.85561 -0.005,-1.71123 -0.007,-2.59278 -0.006,-2.86014 -0.006,-5.72023 -0.005,-8.58037 -0.003,-2.0536 -0.006,-4.1072 -0.0102,-6.1608 -0.009,-5.57452 -0.0112,-11.14903 -0.0118,-16.72356 -7.1e-4,-3.48465 -0.003,-6.96929 -0.005,-10.45394 -0.009,-12.1623 -0.0133,-24.32459 -0.0125,-36.4869 6e-4,-11.32774 -0.01,-22.65544 -0.0257,-33.98317 -0.0131,-9.73269 -0.0184,-19.46535 -0.0178,-29.19805 2.5e-4,-5.80959 -0.003,-11.61914 -0.0132,-17.42873 -0.01,-5.4665 -0.01,-10.93292 -0.002,-16.39943 10e-4,-2.00183 -10e-4,-4.00366 -0.007,-6.00548 -0.0648,-22.90972 4.65899,-38.28538 20.8964,-55.09842 16.44736,-15.90736 38.15786,-27.11668 59.35547,-35.26172 1.31103,-0.53237 2.621,-1.06738 3.92969,-1.60547 9.48002,-3.8292 19.10133,-7.16029 28.82031,-10.33203 1.82121,-0.60268 1.82121,-0.60268 3.6792,-1.21753 1.15259,-0.37036 2.30517,-0.74073 3.49268,-1.12231 1.02706,-0.3325 2.05412,-0.665 3.1123,-1.00757 3.09457,-0.74613 5.79491,-0.84539 8.96582,-0.71509 -0.15819,-0.82963 -0.15819,-0.82963 -0.31958,-1.67602 -2.96842,-15.97601 -4.52456,-31.85347 -5.55273,-48.05079 -0.58571,-8.90481 -1.57439,-17.59488 -3.05922,-26.39535 -1.22953,-7.45211 -1.71701,-14.8306 -2.06847,-22.37784 -0.14986,-2.79742 -0.31094,-5.5941 -0.47656,-8.39062 -0.0614,-1.03662 -0.0614,-1.03662 -0.12393,-2.09418 -0.60364,-9.78841 -1.79687,-19.50397 -2.96542,-29.23737 -0.4047,-3.52205 -0.77635,-7.04535 -1.13306,-10.57248 -0.32511,-3.21417 -0.65974,-6.42734 -0.99445,-9.64053 -0.15975,-1.55597 -0.31547,-3.11236 -0.46667,-4.66919 -2.38697,-24.4729 -11.17181,-43.13621 -30.39704,-59.19641 -20.84015,-16.802863 -45.25149,-28.263684 -72.44287,-25.699219 -8.7486,2.226161 -13.97862,8.360025 -18.75,15.687499 -4.79507,12.70694 -4.67252,25.01378 -4.62181,38.40512 -0.003,2.24188 -0.006,4.48375 -0.0116,6.72562 -0.0102,6.13682 -0.002,12.27349 0.009,18.4103 0.008,5.94575 0.002,11.89148 -0.004,17.83722 -0.0118,12.157 -0.0104,24.31396 -0.002,36.47097 0.0114,16.59937 0.002,33.1987 -0.0126,49.79807 -0.007,7.73946 -0.0128,15.47893 -0.0186,23.21839 -5.8e-4,0.77464 -10e-4,1.54929 -0.002,2.34741 -0.0135,18.42099 -0.0181,36.84198 -0.0208,55.26298 -1.9e-4,1.20841 -1.9e-4,1.20841 -3.8e-4,2.44124 -0.003,17.98903 -0.004,35.97806 -0.003,53.96708 4.2e-4,7.34892 7.3e-4,14.69784 9.9e-4,22.04675 4e-5,0.80609 7e-5,1.61218 10e-5,2.44269 6.9e-4,18.40208 -0.002,36.80416 -0.0163,55.20623 -6e-4,0.77325 -10e-4,1.54649 -0.002,2.34316 -0.006,7.71901 -0.0129,15.43802 -0.0206,23.15703 -0.0165,16.58296 -0.0225,33.16583 -0.007,49.74879 0.011,12.08224 0.008,24.16441 -0.009,36.24664 -0.009,6.54667 -0.0108,13.0932 0.005,19.63986 0.0139,5.98915 0.01,11.97801 -0.01,17.96715 -0.004,2.16997 -4.3e-4,4.33997 0.0102,6.50993 0.0134,2.94378 0.002,5.88649 -0.015,8.83023 0.01,0.84745 0.0195,1.6949 0.0296,2.56804 -0.0697,5.69986 -1.24689,9.03094 -4.52901,13.7216 -2.40234,1.74219 -2.40234,1.74219 -4.9375,2.875 -0.83402,0.3893 -1.66804,0.7786 -2.52734,1.17969 -10.93126,4.07606 -26.1472,3.50274 -36.85938,-0.78516 -11.38776,-5.40295 -20.29721,-10.34552 -25.67578,-22.26953 -0.93796,-3.29172 -0.75333,-4.46513 0,-8 3.93771,-6.0524 9.17325,-8.35377 16,-10 3.07808,-0.40398 6.08567,-0.47713 9.1875,-0.4375 0.82081,0.005 1.64162,0.0108 2.48731,0.0164 10.21388,0.25147 19.02264,3.40775 28.32519,7.42114 -0.002,-1.09135 -0.003,-2.18271 -0.005,-3.30713 -0.0667,-48.12341 -0.12842,-96.24682 -0.16477,-144.37027 -8.3e-4,-1.09375 -8.3e-4,-1.09375 -0.002,-2.2096 -0.012,-15.84881 -0.0231,-31.69761 -0.0332,-47.54642 -0.005,-7.77284 -0.0102,-15.54569 -0.0155,-23.31853 -5.3e-4,-0.77347 -10e-4,-1.54694 -0.002,-2.34385 -0.017,-25.04664 -0.0471,-50.09325 -0.0839,-75.13987 -0.0378,-25.74996 -0.0624,-51.4999 -0.0705,-77.2499 -0.001,-3.64139 -0.002,-7.28278 -0.004,-10.92418 -2.7e-4,-0.71664 -5.4e-4,-1.43328 -8.1e-4,-2.17164 -0.005,-11.51153 -0.0233,-23.02299 -0.047,-34.53449 -0.0236,-11.58776 -0.0322,-23.17544 -0.0267,-34.76322 0.003,-6.27252 -10e-4,-12.54487 -0.0228,-18.81736 -0.0196,-5.75215 -0.0204,-11.504 -0.007,-17.25617 0.002,-2.07165 -0.003,-4.14331 -0.0159,-6.21492 -0.11909,-20.74475 2.08916,-42.180155 17.28469,-57.871511 11.17454,-9.893509 23.96989,-13.972807 38.77344,-13.332032 34.49008,2.432722 66.21762,24.008256 88.4414,49.371093 3.46378,4.40934 6.29566,9.08803 9,14 0.49629,0.85723 0.99258,1.71445 1.50391,2.59766 7.28753,13.37861 8.10524,26.9178 8.99609,41.82031 0.47246,7.69843 1.22678,15.35292 2.0625,23.01953 0.12706,1.18417 0.25411,2.36833 0.38501,3.58838 0.59619,5.72327 0.59619,5.72327 1.55689,11.39111 0.60955,3.17688 0.85927,6.31456 1.10888,9.54004 0.1125,1.41725 0.22514,2.83449 0.3379,4.25171 0.0586,0.74853 0.11714,1.49707 0.17749,2.26828 1.14145,14.50102 2.43282,28.98597 3.87133,43.46048 0.0846,0.85189 0.16923,1.70378 0.25641,2.58148 1.02321,10.21914 2.08045,20.42511 3.79242,30.55695 1.28786,7.91419 1.54516,15.92611 1.95117,23.92407 1.18514,-0.24645 2.37027,-0.4929 3.59131,-0.74682 32.88481,-6.81397 65.39626,-12.50026 98.84619,-15.56568 0.939,-0.0876 1.87801,-0.17525 2.84546,-0.26553 12.60507,-1.15822 25.06017,-1.64293 37.71704,-1.42197 -0.0311,-1.18022 -0.0622,-2.36043 -0.0942,-3.57641 -0.74905,-31.65461 5.28869,-64.11833 14.09423,-94.42359 0.2272,-0.78246 0.4544,-1.56492 0.68848,-2.37109 3.94967,-13.42538 9.17949,-26.06258 15.31152,-38.62891 0.33661,-0.69078 0.67322,-1.38155 1.02002,-2.09326 5.83005,-11.82061 12.59617,-22.9716 21.55811,-32.70752 2.67606,-3.17465 3.9292,-6.6458 5.37158,-10.50439 14.4419,-37.054782 44.61501,-74.434507 76.05029,-98.694829 0.9552,-0.748945 1.91039,-1.49789 2.89453,-2.269531 16.61545,-12.782789 35.15987,-23.2291332 55.10547,-29.7304687 1.28112,-0.4969967 2.561,-0.9971907 3.83985,-1.5000001 4.26736,-1.6158474 8.57569,-2.6281362 13.03515,-3.5624999 0.79737,-0.1706397 1.59473,-0.3412793 2.41626,-0.5170899 1.55975,-0.3326748 3.12004,-0.6628735 4.68091,-0.9902344 1.58706,-0.336671 3.16974,-0.6939452 4.75049,-1.059082 C -75.612102,-17.417249 -36.157175,-11.80256 0,0 Z"
         fill="#fdfdfd"
         transform="translate(809.98389,145.35547)"
         id="path2"
         style="stroke-width:13.1505;stroke-dasharray:none" /><path
         d="m 0,0 c 2.4892027,0.7957732 4.9990654,1.5049703 7.5161133,2.2070313 3.3336567,0.9896854 6.4163807,2.2480996 9.5703127,3.7109374 3.826381,1.7625181 7.660983,3.4993774 11.515625,5.1992193 29.993795,13.349155 56.950342,30.868099 82.414059,51.527343 1.29164,1.028672 1.29164,1.028672 2.60938,2.078125 6.82167,5.480996 13.2529,11.295585 19.62988,17.278809 1.83429,1.711695 3.68267,3.407058 5.53418,5.100097 6.91172,6.34349 13.48857,12.814906 19.74219,19.808598 2.29486,2.52579 4.6635,4.91847 7.10937,7.29687 4.06431,4.00635 7.63111,8.30564 11.19532,12.75781 1.97267,2.42519 4.01112,4.74563 6.11718,7.05469 4.53132,5.04969 8.62237,10.41121 12.70313,15.82422 1.38454,1.83412 2.77778,3.66141 4.17187,5.48828 17.75213,23.35445 33.78327,47.75891 48.1875,73.3125 0.4117,0.72574 0.82339,1.45149 1.24756,2.19922 20.07462,35.42673 37.79973,71.99464 51.2251,110.46484 1.07928,3.09015 2.20287,6.16113 3.33984,9.23047 2.62153,7.1938 4.98049,14.47218 7.34156,21.75464 0.77454,2.38591 1.55519,4.76976 2.33618,7.15357 3.93,12.06176 7.53005,24.20332 10.59204,36.51635 0.84406,3.38545 1.79411,6.71345 2.79272,10.05591 3.64387,12.71966 6.24267,25.57157 8.21094,38.64844 0.98186,6.50623 2.04927,12.99811 3.11084,19.4917 0.93065,5.69349 1.84575,11.38946 2.76193,17.08529 0.64864,4.01845 1.31827,8.03158 2.02567,12.0402 9.25532,53.62034 6.08801,113.56899 1.57812,167.60937 -0.0614,0.74497 -0.12288,1.48994 -0.18618,2.25748 -0.61858,7.33262 -1.38017,14.39239 -3.37632,21.49252 -0.34772,2.14041 -0.66108,4.28672 -0.9375,6.4375 -2.24801,16.34134 -5.63096,32.43528 -9.0625,48.5625 -0.66,0 -1.32,0 -2,0 -0.0735,1.03125 -0.14695,2.0625 -0.22265,3.125 -0.82601,6.52789 -3.1096,12.66979 -5.21485,18.875 -0.33122,0.98544 -0.33122,0.98544 -0.66913,1.99078 -6.04771,17.94339 -13.12573,35.45733 -21.96075,52.22065 -0.90637,1.73823 -1.77559,3.49569 -2.64355,5.25341 -20.27245,40.058 -52.04729,75.52802 -91.28907,97.53516 -0.6173,0.35047 -1.2346,0.70093 -1.8706,1.06201 -13.12913,7.41398 -26.46294,12.64629 -41.0044,16.62549 -1.03874,0.28561 -2.07748,0.57122 -3.1477,0.86548 -15.61562,4.12399 -30.52396,6.0333 -46.6648,5.94702 -0.88857,-0.002 -1.77715,-0.004 -2.69265,-0.005 C 73.183697,962.97081 35.328463,952.89872 1.0161133,935.64487 0.16291504,935.2169 -0.6902832,934.78893 -1.5693359,934.348 -32.371502,918.80008 -60.531244,899.785 -86.983887,877.64487 c -1.092441,-0.90495 -2.18489,-1.8099 -3.277343,-2.71484 -5.483892,-4.56664 -10.81006,-9.1921 -15.77051,-14.33399 -1.82892,-1.82801 -3.71178,-3.51243 -5.67871,-5.18945 -4.29203,-3.72837 -8.32876,-7.66872 -12.33594,-11.69922 -0.66838,-0.66451 -1.33675,-1.32902 -2.02539,-2.01367 -3.9275,-3.93513 -7.666,-7.98 -11.2976,-12.18921 -2.27041,-2.6151 -4.62902,-5.13797 -6.98951,-7.67212 -5.11734,-5.54071 -9.89964,-11.30857 -14.625,-17.1875 -1.39523,-1.68799 -2.79108,-3.37548 -4.1875,-5.0625 -9.25745,-11.3468 -18.20474,-22.89035 -26.625,-34.875 -0.60481,-0.85843 -1.20962,-1.71687 -1.83276,-2.60132 -0.55663,-0.80059 -1.11327,-1.60117 -1.68677,-2.42602 -0.49218,-0.70762 -0.98436,-1.41523 -1.49145,-2.14429 -1.17652,-1.89087 -1.17652,-1.89087 -2.17652,-4.89087 -1.05461,0.1107 -2.10923,0.2214 -3.1958,0.33545 -4.08146,0.42686 -8.16367,0.84616 -12.24609,1.26367 -1.73523,0.17842 -3.47027,0.35864 -5.20508,0.54102 -25.5197,2.67919 -50.95675,4.2039 -76.62231,4.1206 -3.92798,-0.0108 -7.85549,10e-6 -11.78345,0.0127 -16.73636,0.01 -33.28107,-0.76938 -49.94727,-2.27344 -1.34011,-0.11695 -1.34011,-0.11695 -2.7073,-0.23627 -5.49822,-0.48086 -10.99001,-1.0114 -16.4802,-1.57623 -1.20657,-0.12248 -1.20657,-0.12248 -2.43753,-0.24744 -16.56063,-1.69628 -32.96721,-4.14122 -49.37497,-6.94006 0.18176,1.2607 0.36352,2.52141 0.55078,3.82031 0.53305,3.70234 1.05884,7.40564 1.58204,11.10938 0.55575,3.92558 1.13488,7.8465 1.73437,11.76562 4.7251,31.48044 4.7251,31.48044 -1.12891,41.16016 -7.73905,9.54773 -18.74201,14.47781 -30.73828,16.14453 -8.48075,0.77593 -15.78615,-0.77382 -23.3125,-4.75 -4.1523,-3.47634 -7.07635,-6.40514 -8.24218,-11.83203 -0.37495,-5.36173 0.35129,-8.87356 3.55468,-13.23047 7.12418,-7.96148 16.20336,-14.24681 27.11866,-15.41406 12.13833,-0.64494 12.13833,-0.64494 15.88134,1.22656 -1.98,-14.52 -3.96,-29.04 -6,-44 -6.6,-1.32 -13.2,-2.64 -20,-4 -4.86936,-1.272 -9.68042,-2.57198 -14.5,-4 -1.14468,-0.33 -2.28937,-0.66 -3.46875,-1 -7.40733,-2.15486 -14.7276,-4.51874 -22.03125,-7 -1.57937,-0.52361 -3.15879,-1.04706 -4.73828,-1.57031 -26.01445,-8.76436 -53.1192,-19.97241 -75.26172,-36.42969 -1.02351,-0.7309 -2.04703,-1.4618 -3.10156,-2.21484 -16.12555,-11.73428 -32.25853,-27.05297 -36.43329,-47.39077 -0.55093,-4.02036 -0.60677,-7.97255 -0.59886,-12.02104 -0.002,-0.85561 -0.005,-1.71123 -0.007,-2.59278 -0.006,-2.86014 -0.006,-5.72023 -0.005,-8.58037 -0.003,-2.0536 -0.006,-4.1072 -0.0102,-6.1608 -0.009,-5.57452 -0.0112,-11.14903 -0.0118,-16.72356 -7.1e-4,-3.48465 -0.003,-6.96929 -0.005,-10.45394 -0.009,-12.1623 -0.0133,-24.32459 -0.0125,-36.4869 6e-4,-11.32774 -0.01,-22.65544 -0.0257,-33.98317 -0.0131,-9.73269 -0.0184,-19.46535 -0.0178,-29.19805 2.5e-4,-5.80959 -0.003,-11.61914 -0.0132,-17.42873 -0.01,-5.4665 -0.01,-10.93292 -0.002,-16.39943 10e-4,-2.00183 -10e-4,-4.00366 -0.007,-6.00548 -0.0648,-22.90972 4.65899,-38.28538 20.8964,-55.09842 16.44736,-15.90736 38.15786,-27.11668 59.35547,-35.26172 1.31103,-0.53237 2.621,-1.06738 3.92969,-1.60547 9.48002,-3.8292 19.10133,-7.16029 28.82031,-10.33203 1.82121,-0.60268 1.82121,-0.60268 3.6792,-1.21753 1.15259,-0.37036 2.30517,-0.74073 3.49268,-1.12231 1.02706,-0.3325 2.05412,-0.665 3.1123,-1.00757 3.09457,-0.74613 5.79491,-0.84539 8.96582,-0.71509 -0.15819,-0.82963 -0.15819,-0.82963 -0.31958,-1.67602 -2.96842,-15.97601 -4.52456,-31.85347 -5.55273,-48.05079 -0.58571,-8.90481 -1.57439,-17.59488 -3.05922,-26.39535 -1.22953,-7.45211 -1.71701,-14.8306 -2.06847,-22.37784 -0.14986,-2.79742 -0.31094,-5.5941 -0.47656,-8.39062 -0.0614,-1.03662 -0.0614,-1.03662 -0.12393,-2.09418 -0.60364,-9.78841 -1.79687,-19.50397 -2.96542,-29.23737 -0.4047,-3.52205 -0.77635,-7.04535 -1.13306,-10.57248 -0.32511,-3.21417 -0.65974,-6.42734 -0.99445,-9.64053 -0.15975,-1.55597 -0.31547,-3.11236 -0.46667,-4.66919 -2.38697,-24.4729 -11.17181,-43.13621 -30.39704,-59.19641 -20.84015,-16.802863 -45.25149,-28.263684 -72.44287,-25.699219 -8.7486,2.226161 -13.97862,8.360025 -18.75,15.687499 -4.79507,12.70694 -4.67252,25.01378 -4.62181,38.40512 -0.003,2.24188 -0.006,4.48375 -0.0116,6.72562 -0.0102,6.13682 -0.002,12.27349 0.009,18.4103 0.008,5.94575 0.002,11.89148 -0.004,17.83722 -0.0118,12.157 -0.0104,24.31396 -0.002,36.47097 0.0114,16.59937 0.002,33.1987 -0.0126,49.79807 -0.007,7.73946 -0.0128,15.47893 -0.0186,23.21839 -5.8e-4,0.77464 -10e-4,1.54929 -0.002,2.34741 -0.0135,18.42099 -0.0181,36.84198 -0.0208,55.26298 -1.9e-4,1.20841 -1.9e-4,1.20841 -3.8e-4,2.44124 -0.003,17.98903 -0.004,35.97806 -0.003,53.96708 4.2e-4,7.34892 7.3e-4,14.69784 9.9e-4,22.04675 4e-5,0.80609 7e-5,1.61218 10e-5,2.44269 6.9e-4,18.40208 -0.002,36.80416 -0.0163,55.20623 -6e-4,0.77325 -10e-4,1.54649 -0.002,2.34316 -0.006,7.71901 -0.0129,15.43802 -0.0206,23.15703 -0.0165,16.58296 -0.0225,33.16583 -0.007,49.74879 0.011,12.08224 0.008,24.16441 -0.009,36.24664 -0.009,6.54667 -0.0108,13.0932 0.005,19.63986 0.0139,5.98915 0.01,11.97801 -0.01,17.96715 -0.004,2.16997 -4.3e-4,4.33997 0.0102,6.50993 0.0134,2.94378 0.002,5.88649 -0.015,8.83023 0.01,0.84745 0.0195,1.6949 0.0296,2.56804 -0.0697,5.69986 -1.24689,9.03094 -4.52901,13.7216 -2.40234,1.74219 -2.40234,1.74219 -4.9375,2.875 -0.83402,0.3893 -1.66804,0.7786 -2.52734,1.17969 -10.93126,4.07606 -26.1472,3.50274 -36.85938,-0.78516 -11.38776,-5.40295 -20.29721,-10.34552 -25.67578,-22.26953 -0.93796,-3.29172 -0.75333,-4.46513 0,-8 3.93771,-6.0524 9.17325,-8.35377 16,-10 3.07808,-0.40398 6.08567,-0.47713 9.1875,-0.4375 0.82081,0.005 1.64162,0.0108 2.48731,0.0164 10.21388,0.25147 19.02264,3.40775 28.32519,7.42114 -0.002,-1.09135 -0.003,-2.18271 -0.005,-3.30713 -0.0667,-48.12341 -0.12842,-96.24682 -0.16477,-144.37027 -8.3e-4,-1.09375 -8.3e-4,-1.09375 -0.002,-2.2096 -0.012,-15.84881 -0.0231,-31.69761 -0.0332,-47.54642 -0.005,-7.77284 -0.0102,-15.54569 -0.0155,-23.31853 -5.3e-4,-0.77347 -10e-4,-1.54694 -0.002,-2.34385 -0.017,-25.04664 -0.0471,-50.09325 -0.0839,-75.13987 -0.0378,-25.74996 -0.0624,-51.4999 -0.0705,-77.2499 -0.001,-3.64139 -0.002,-7.28278 -0.004,-10.92418 -2.7e-4,-0.71664 -5.4e-4,-1.43328 -8.1e-4,-2.17164 -0.005,-11.51153 -0.0233,-23.02299 -0.047,-34.53449 -0.0236,-11.58776 -0.0322,-23.17544 -0.0267,-34.76322 0.003,-6.27252 -10e-4,-12.54487 -0.0228,-18.81736 -0.0196,-5.75215 -0.0204,-11.504 -0.007,-17.25617 0.002,-2.07165 -0.003,-4.14331 -0.0159,-6.21492 -0.11909,-20.74475 2.08916,-42.180155 17.28469,-57.871511 11.17454,-9.893509 23.96989,-13.972807 38.77344,-13.332032 34.49008,2.432722 66.21762,24.008256 88.4414,49.371093 3.46378,4.40934 6.29566,9.08803 9,14 0.49629,0.85723 0.99258,1.71445 1.50391,2.59766 7.28753,13.37861 8.10524,26.9178 8.99609,41.82031 0.47246,7.69843 1.22678,15.35292 2.0625,23.01953 0.12706,1.18417 0.25411,2.36833 0.38501,3.58838 0.59619,5.72327 0.59619,5.72327 1.55689,11.39111 0.60955,3.17688 0.85927,6.31456 1.10888,9.54004 0.1125,1.41725 0.22514,2.83449 0.3379,4.25171 0.0586,0.74853 0.11714,1.49707 0.17749,2.26828 1.14145,14.50102 2.43282,28.98597 3.87133,43.46048 0.0846,0.85189 0.16923,1.70378 0.25641,2.58148 1.02321,10.21914 2.08045,20.42511 3.79242,30.55695 1.28786,7.91419 1.54516,15.92611 1.95117,23.92407 1.18514,-0.24645 2.37027,-0.4929 3.59131,-0.74682 32.88481,-6.81397 65.39626,-12.50026 98.84619,-15.56568 0.939,-0.0876 1.87801,-0.17525 2.84546,-0.26553 12.60507,-1.15822 25.06017,-1.64293 37.71704,-1.42197 -0.0311,-1.18022 -0.0622,-2.36043 -0.0942,-3.57641 -0.74905,-31.65461 5.28869,-64.11833 14.09423,-94.42359 0.2272,-0.78246 0.4544,-1.56492 0.68848,-2.37109 3.94967,-13.42538 9.17949,-26.06258 15.31152,-38.62891 0.33661,-0.69078 0.67322,-1.38155 1.02002,-2.09326 5.83005,-11.82061 12.59617,-22.9716 21.55811,-32.70752 2.67606,-3.17465 3.9292,-6.6458 5.37158,-10.50439 14.4419,-37.054782 44.61501,-74.434507 76.05029,-98.694829 0.9552,-0.748945 1.91039,-1.49789 2.89453,-2.269531 16.61545,-12.782789 35.15987,-23.2291332 55.10547,-29.7304687 1.28112,-0.4969967 2.561,-0.9971907 3.83985,-1.5000001 4.26736,-1.6158474 8.57569,-2.6281362 13.03515,-3.5624999 0.79737,-0.1706397 1.59473,-0.3412793 2.41626,-0.5170899 1.55975,-0.3326748 3.12004,-0.6628735 4.68091,-0.9902344 1.58706,-0.336671 3.16974,-0.6939452 4.75049,-1.059082 C -75.612102,-17.417249 -36.157175,-11.80256 0,0 Z m -152.98389,20.644531 c -1.03125,0.475664 -2.0625,0.951328 -3.125,1.441406 -19.61572,9.250597 -36.1872,22.774168 -51.875,37.558594 -0.73218,0.689649 -1.46437,1.379297 -2.21875,2.089844 -5.40949,5.2485 -10.12751,10.989388 -14.78125,16.910156 -0.73218,0.926836 -1.46437,1.853672 -2.21875,2.808594 -6.19455,8.037649 -11.58524,16.483519 -16.78125,25.191405 -0.38156,0.63922 -0.76312,1.27843 -1.15625,1.93701 -9.09996,15.39173 -16.9603,31.42891 -22.60937,48.40674 -1.01705,3.01252 -2.1241,5.91709 -3.35938,8.84375 -2.08626,5.06417 -3.48258,10.28842 -4.9375,15.5625 -0.73076,2.5333 -1.5229,4.93226 -2.5,7.375 -2.90317,7.38416 -4.39988,15.30634 -5.88159,23.07984 -0.59199,2.9766 -1.25856,5.93158 -1.92309,8.89282 -1.7729,8.25485 -3.09832,16.56169 -4.36768,24.90698 -0.39028,2.55878 -0.79021,5.11593 -1.19092,7.6731 -0.25709,1.67113 -0.51362,3.34235 -0.76953,5.01367 -0.175,1.11309 -0.175,1.11309 -0.35355,2.24867 -1.77415,11.80946 -2.11278,23.61113 -2.11911,35.53648 -0.003,1.46048 -0.007,2.92096 -0.0101,4.38144 -0.006,3.04393 -0.008,6.08782 -0.007,9.13175 8e-5,3.07948 -0.007,6.15882 -0.0205,9.23828 -0.0716,16.37468 -0.0354,32.51694 2.20581,48.77197 0.25512,2.27924 0.50432,4.55915 0.7461,6.83984 2.58124,24.53631 2.58124,24.53631 7.63672,48.64063 0.57953,2.36581 0.90204,4.597 1.11718,7.01953 2.38715,26.45179 13.26205,55.34502 21.5,80.5 0.25105,0.76699 0.50209,1.53399 0.76075,2.32422 28.73109,86.67153 72.21352,170.779 158.36035,269.76172 1.78906,1.82254 3.427335,3.70685 5.066403,5.66406 3.678973,4.28651 7.800115,8.02204 11.972168,11.81616 3.128613,2.84645 6.187206,5.72797 9.152832,8.74634 3.727634,3.77423 7.634973,7.26635 11.6875,10.6875 0.752813,0.64195 1.505625,1.28391 2.28125,1.94531 29.765424,24.89639 63.53834562,46.7317 99.604492,61.20411 1.827776,0.73533 3.6476,1.49037 5.465821,2.24902 14.422938,5.85117 29.441453,9.5609 44.710937,12.41406 1.104888,0.2069 2.209776,0.41379 3.348145,0.62695 19.400172,3.46318 39.139732,3.74249 58.589352,0.56055 1.30196,-0.20625 2.60391,-0.4125 3.94532,-0.625 33.79542,-5.65466 63.67521,-21.12732 88.78906,-44.29687 2.0674,-1.89631 4.18312,-3.70842 6.32812,-5.51563 38.24105,-33.68854 59.72716,-88.11121 71.21704,-136.56274 0.73563,-3.06292 1.52197,-6.11019 2.31031,-9.15992 1.30058,-5.19045 2.23825,-10.35509 2.97265,-15.65234 0.12295,-0.84732 0.24589,-1.69463 0.37256,-2.56763 0.58477,-4.06474 1.13682,-8.13303 1.6626,-12.20581 0.13523,-1.0445 0.13523,-1.0445 0.27319,-2.1101 0.23933,-1.87528 0.46969,-3.7517 0.69947,-5.62818 0.42968,-2.67578 0.42968,-2.67578 1.42968,-3.67578 0.242,-3.62989 0.39244,-7.25333 0.51758,-10.88867 0.21562,-5.05697 0.74767,-9.95241 1.49805,-14.95899 1.73102,-12.58403 1.33071,-25.35399 1.29687,-38.02734 -10e-4,-1.34863 -0.002,-2.69726 -0.004,-4.0459 -0.0253,-19.29205 -0.61335,-38.35047 -2.89444,-57.51465 -0.41705,-3.58596 -0.77026,-7.17315 -1.10595,-10.76757 -1.96189,-20.56941 -5.10921,-40.94352 -9.54932,-61.12622 -0.66615,-3.22046 -1.24042,-6.43478 -1.77676,-9.678 -1.75407,-10.5632 -4.34833,-20.83976 -7.10752,-31.18016 -0.36066,-1.36339 -0.36066,-1.36339 -0.7286,-2.75433 -8.22117,-31.17639 -8.22117,-31.17639 -18.81437,-61.60114 -1.84794,-4.79599 -3.40621,-9.66873 -4.96093,-14.5664 -1.82266,-5.41283 -4.1506,-10.63256 -6.3711,-15.89063 -0.77873,-1.88745 -1.55609,-3.77546 -2.33203,-5.66406 -10.81833,-26.10429 -22.63975,-51.79089 -36.66797,-76.33594 -0.59168,-1.04623 -1.18336,-2.09247 -1.79297,-3.17041 -7.66598,-13.55179 -15.50453,-26.91666 -24.20703,-39.82959 -0.58813,-0.87672 -1.17627,-1.75345 -1.78222,-2.65674 -7.15543,-10.64913 -14.39933,-21.16878 -22.21778,-31.34326 -1.47984,-1.9995 -2.95899,-3.99951 -4.4375,-6 -3.87723,-5.17189 -7.94587,-10.14924 -12.11718,-15.08594 -2.23753,-2.66645 -4.40507,-5.37647 -6.57032,-8.10156 -9.98471,-12.19003 -21.26131,-23.28776 -32.375,-34.4375 -0.91934,-0.92401 -1.83868,-1.84803 -2.78589,-2.80005 -4.54906,-4.538304 -9.15136,-8.942351 -14.02905,-13.126218 -2.09499,-1.801168 -4.10348,-3.688239 -6.12256,-5.573731 C 104.43296,77.082986 96.719717,71.38788 89.016113,65.644531 87.924358,64.823479 87.924358,64.823479 86.810547,63.98584 55.285098,40.336479 19.757859,22.189981 -18.167969,11.444824 -20.520003,10.776369 -22.859651,10.079081 -25.19873,9.3671875 -65.867831,-2.134746 -115.20385,1.2232307 -152.98389,20.644531 Z"
         fill="#080808"
         transform="translate(809.98389,145.35547)"
         id="path3"
         style="stroke-width:13.1505;stroke-dasharray:none" /><path
         d="M 0,0 C 0.66,0.33 1.32,0.66 2,1 0.48186681,7.0509989 -1.2065915,12.413183 -4,18 -6.3532265,24.924859 -7.6016248,32.063922 -8.8046875,39.258301 -9.68582,44.453122 -10.793214,49.559799 -12,54.6875 -15.362484,69.275878 -17.14846,84.130727 -17.789062,99.078125 -18,102 -18,102 -19,104 c -1.403502,13.09044 -1.238097,26.3527 -1.25,39.5 -0.002,1.07974 -0.004,2.15948 -0.0061,3.27194 -0.007,15.48034 0.482772,30.85696 1.693573,46.29056 0.06739,0.86528 0.134788,1.73057 0.204224,2.62207 0.192414,2.40941 0.394766,4.81762 0.60437,7.22559 0.06048,0.71104 0.12096,1.42208 0.183273,2.15467 0.06534,3.25262 0.06534,3.25262 1.570633,5.93517 0.433193,2.70689 0.811886,5.40254 1.15625,8.12109 0.107194,0.8151 0.214387,1.63019 0.324829,2.46999 0.343668,2.61497 0.681844,5.2306 1.018921,7.84642 0.337293,2.61222 0.675848,5.22424 1.018921,7.83571 0.213816,1.62775 0.424274,3.25595 0.631103,4.88461 0.4725,4.04682 0.4725,4.04682 1.849976,7.84218 0.103125,1.19625 0.20625,2.3925 0.3125,3.625 0.444362,4.35112 1.3948307,8.44525 2.484375,12.67969 0.3644704,1.42997 0.7281344,2.86016 1.0910645,4.29052 0.1854336,0.73 0.3708673,1.45999 0.5619201,2.2121 0.8689226,3.46326 1.6924821,6.93692 2.5149841,10.41144 0.3286277,1.37894 0.6574043,2.75785 0.9863282,4.13672 0.4939006,2.07179 0.9861811,4.1439 1.47338865,6.21728 2.27212715,9.65512 4.92595555,19.10572 7.97183225,28.5448 0.9361651,2.91959 1.8358218,5.85017 2.7364202,8.78089 0.331289,1.07636 0.662578,2.15273 1.003906,3.26172 0.326133,1.06089 0.652265,2.12179 0.988281,3.21484 0.333867,1.0841 0.667734,2.1682 1.011719,3.28516 1.753717,5.7013 3.487767,11.40657 5.160156,17.13232 1.031396,3.23815 2.328423,6.35153 3.622559,9.49219 1.171384,2.94355 2.209213,5.9166 3.244628,8.91064 3.123095,8.77991 6.702895,17.35054 10.335938,25.92969 0.350706,0.82992 0.701411,1.65985 1.062744,2.51492 C 51.201668,439.23278 67.555109,472.84202 87,505 c 0.52626,0.87737 1.05252,1.75474 1.594727,2.65869 15.856593,26.37996 33.361673,51.92034 52.999513,75.63135 1.91948,2.33485 3.78709,4.70935 5.65576,7.08496 3.29611,4.13915 6.80107,8.04899 10.37427,11.94971 2.1571,2.42909 4.15728,4.91756 6.15698,7.47607 5.89716,7.23922 12.50436,13.74895 19.13013,20.31641 2.15581,2.13746 4.30342,4.28291 6.44995,6.42968 1.3908,1.3859 2.78206,2.77133 4.17383,4.15625 0.63043,0.62933 1.26087,1.25865 1.91041,1.90705 4.36389,4.31832 8.9048,8.38271 13.55443,12.38983 1.0483,0.92548 2.09544,1.85226 3.14062,2.78125 9.85186,8.65712 20.26649,16.49569 30.85938,24.21875 0.81243,0.59603 1.62486,1.19206 2.46191,1.80615 C 272.00652,703.1926 300.97488,719.08339 332,730 c 1.30094,0.47353 2.60173,0.94745 3.90234,1.42187 7.04811,2.47947 14.15394,4.44013 21.41016,6.20313 0.79277,0.19425 1.58555,0.38849 2.40234,0.58862 2.75349,0.64385 5.51384,1.22389 8.28516,1.78638 1.28028,0.26402 2.56056,0.52803 3.87964,0.80005 12.27644,2.37499 24.3302,2.71912 36.80786,2.63745 1.01508,-0.004 2.03015,-0.007 3.07599,-0.0112 C 426.4706,743.34978 440.75992,743.03551 455,739 c 0.94778,-0.26313 1.89557,-0.52626 2.87207,-0.79736 C 477.16987,732.67244 496.57084,724.67671 513,713 c 1.06605,-0.72316 2.13211,-1.44633 3.23047,-2.19141 C 532.8911,699.37721 547.42366,685.79931 560,670 c 0.65742,-0.7902 1.31484,-1.58039 1.99219,-2.39453 C 578.74042,647.32598 589.85312,623.62464 601,600 c 1.01235,3.12245 0.98383,4.91798 -0.0742,8.01172 -0.25346,0.75346 -0.50692,1.50691 -0.76807,2.2832 -0.27892,0.78955 -0.55784,1.5791 -0.84521,2.39258 -0.27892,0.81146 -0.55784,1.62293 -0.84521,2.45898 -1.62728,4.66868 -3.34665,9.25204 -5.48365,13.71509 -0.98796,2.14783 -1.8463,4.31479 -2.69458,6.52124 -2.63943,6.63316 -5.68929,13.06414 -8.78906,19.49219 -0.30547,0.63407 -0.61094,1.26814 -0.92566,1.92142 C 567.93666,682.91771 551.97632,705.93075 532,727 c -0.7176,0.76063 -0.7176,0.76063 -1.44971,1.53662 C 523.27364,736.19767 515.60592,742.87243 507,749 c -0.58652,0.42023 -1.17305,0.84047 -1.77734,1.27344 C 495.93915,756.86173 486.32595,762.22808 476,767 c -1.7093,0.80051 -1.7093,0.80051 -3.45313,1.61719 C 456.88978,775.64468 441.01033,779.91034 424,782 c -0.69553,0.095 -1.39106,0.18998 -2.10767,0.28784 -6.52279,0.83171 -13.01022,0.90436 -19.57983,0.89966 -1.17595,-8.1e-4 -2.35189,-0.002 -3.56348,-0.002 -7.69872,-0.053 -15.33084,-0.37229 -22.99902,-1.06006 -0.88518,-0.0784 -1.77037,-0.15678 -2.68237,-0.23755 C 368.15649,781.39134 363.75168,780.37656 359,779 c -1.90584,-0.32913 -3.81516,-0.63845 -5.72656,-0.93359 -6.02521,-0.9655 -11.79883,-2.40534 -17.64844,-4.12891 -1.0302,-0.30309 -2.06041,-0.60618 -3.12183,-0.91846 C 321.68801,769.74102 311.32335,765.57752 301,761 c -0.81275,-0.3582 -1.62551,-0.7164 -2.46289,-1.08545 C 277.79549,750.68056 258.62737,738.92385 240,726 c -0.79036,-0.54801 -1.58071,-1.09603 -2.39502,-1.66064 C 212.68535,706.94736 190.47045,686.54814 169,665.125 c -0.5422,-0.53961 -1.0844,-1.07923 -1.64304,-1.63519 C 161.3521,657.50756 155.47819,651.47536 150,645 c -0.97273,-1.11826 -1.94666,-2.23547 -2.92188,-3.35156 -6.41735,-7.40894 -12.58528,-14.9695 -18.58154,-22.72217 -1.61497,-2.07865 -3.24423,-4.14554 -4.87549,-6.21143 C 115.73578,602.70337 108.19188,592.52047 101,582 100.40494,581.13198 99.809873,580.26396 99.196777,579.36963 70.599797,537.49731 44.914242,492.80821 26.132812,445.63281 25.183843,443.42728 24.154479,441.33443 23.054687,439.20312 20.989995,435.11881 19.457326,430.95687 18,426.625 c -0.517982,-1.50314 -1.037506,-3.00575 -1.558594,-4.50781 -0.247339,-0.71318 -0.494677,-1.42635 -0.749511,-2.16114 C 14.263087,415.91667 12.619371,411.96555 11,408 7.8964474,400.2925 5.1661095,392.54763 2.7390137,384.60669 1.3248481,379.98858 -0.26177288,375.50359 -2,371 c -1.5758,-4.37106 -2.988808,-8.69794 -3.9375,-13.25 -0.758912,-3.62038 -1.7589223,-7.09819 -2.875,-10.625 -4.524215,-14.41671 -8.123871,-29.14237 -11.1875,-43.93359 -0.175876,-0.84692 -0.351753,-1.69383 -0.532959,-2.56641 -0.344522,-1.66717 -0.685377,-3.33511 -1.021973,-5.00391 -0.158474,-0.77086 -0.316948,-1.54171 -0.480224,-2.33593 -0.207016,-1.02275 -0.207016,-1.02275 -0.418213,-2.06617 -0.534715,-2.32986 -0.534715,-2.32986 -1.519287,-4.95385 -1.229623,-3.90803 -1.84495,-7.74589 -2.429688,-11.79248 -0.122325,-0.81719 -0.24465,-1.63438 -0.370682,-2.47634 -0.393951,-2.64378 -0.77969,-5.28868 -1.164474,-7.93382 -0.269052,-1.82815 -0.538258,-3.65627 -0.807617,-5.48438 C -29.507078,253.38689 -30.255944,248.19383 -31,243 c -0.177407,-1.23379 -0.354814,-2.46759 -0.537598,-3.73877 -3.202414,-22.53486 -4.788937,-44.86977 -4.668213,-67.63647 0.01842,-3.58398 0.02051,-7.1677 0.02026,-10.75171 0.02528,-17.46295 0.639887,-34.55338 3.060547,-51.87305 0.17636,-1.2893 0.35272,-2.57861 0.534424,-3.90698 C -28.799251,77.799251 -28.799251,77.799251 -27,76 c 0.377248,-2.141896 0.72491,-4.288996 1.0625,-6.4375 1.349334,-7.782799 3.493985,-15.267748 5.8125,-22.8125 0.491254,-1.613463 0.491254,-1.613463 0.992432,-3.259521 C -15.89456,33.147037 -11.821995,23.264796 -6.875,13.625 c 0.3338672,-0.658711 0.6677344,-1.317422 1.0117188,-1.996094 0.64715,-1.276535 1.2958276,-2.5522972 1.946289,-3.8271482 C -2.5970648,5.2082901 -1.2981726,2.6044083 0,0 Z"
         fill="#f9f9f9"
         transform="translate(523,313)"
         id="path4"
         style="stroke-width:13.1505;stroke-dasharray:none" /><path
         d="M 0,0 C 0.0093457,1.2142969 0.01869141,2.4285938 0.02832031,3.6796875 0.40562511,45.743574 2.0174542,89.152022 12.535675,130.13696 c 0.614161,2.46424 1.090199,4.94394 1.550263,7.44116 3.441858,17.94879 8.038209,35.47065 12.950683,53.06934 0.260874,0.93595 0.521748,1.87189 0.790527,2.8362 0.495936,1.77486 0.994678,3.54893 1.496582,5.32211 C 31,204.7818 31,204.7818 31,207 c -14.336353,0.10713 -28.6160609,-0.15671 -42.9375,-0.8125 -0.975619,-0.0438 -1.951238,-0.0877 -2.956421,-0.13287 C -31.67745,205.28727 -48.310783,203.96799 -65,202 c -1.363675,-0.15464 -2.727449,-0.30842 -4.091309,-0.46143 C -86.50205,199.58339 -103.77747,197.26724 -121,194 c -1.54873,-8.44249 -2.56908,-16.88855 -3.40256,-25.42615 -1.79687,-18.26698 -4.01006,-36.48194 -6.27088,-54.69606 -0.26415,-2.12853 -0.52789,-4.25712 -0.7915,-6.38572 -0.85932,-6.93844 -1.72016,-13.87669 -2.58193,-20.814824 -2.44292,-19.673208 -2.44292,-19.673208 -3.5745,-29.016724 -0.2057,-1.690455 -0.41349,-3.380658 -0.62372,-5.070556 C -139.63611,41.402669 -140.50127,30.26274 -141,19 c 16.9434,-4.145798 16.9434,-4.145798 22.1875,-4.625 3.6622,-0.205742 3.6622,-0.205742 6.37695,-1.285645 4.67407,-1.482071 9.37578,-2.161354 14.2168,-2.894042 1.599543,-0.2462467 1.599543,-0.2462467 3.2314,-0.4974675 C -91.492805,9.1649439 -87.996725,8.6433987 -84.5,8.125 -83.307587,7.9470288 -82.115174,7.7690576 -80.886627,7.5856934 -63.693196,5.0390932 -46.507741,2.9553182 -29.1875,1.5 c 1.449954,-0.1225113 1.449954,-0.1225113 2.929199,-0.2474976 2.737904,-0.2272394 5.47627,-0.44596283 8.215332,-0.6587524 1.182551,-0.0931297 1.182551,-0.0931297 2.388993,-0.18814087 C -10.42384,0.02399741 -5.2440675,-0.04945699 0,0 Z"
         fill="#fcfcfc"
         transform="translate(476,471)"
         id="path5"
         style="stroke-width:13.1505;stroke-dasharray:none" /><path
         d="M 0,0 C 7.4062487,0.65111006 14.71718,1.6748872 22.0625,2.8125 38.006215,5.2080223 53.971087,7.2779868 70,9 70.68274,9.074967 71.36548,9.1499341 72.068909,9.2271729 108.21473,13.173181 144.68399,12.738737 181,13 c 0.45834,0.95872 0.91668,1.91744 1.38892,2.905212 15.22106,31.824014 30.90662,63.556302 51.10937,92.581118 C 235,111 235,111 235,114 c -3.81433,0.39427 -7.62905,0.78455 -11.44409,1.17188 -1.89839,0.19344 -3.79649,0.38961 -5.69458,0.58593 -3.46288,0.35067 -6.92636,0.68771 -10.39185,1.01123 -1.73203,0.16199 -3.46378,0.32696 -5.19531,0.49414 -16.82306,1.60085 -33.50579,2.06011 -50.39917,1.98682 -1.25759,-0.003 -2.51518,-0.006 -3.81088,-0.008 C 102.77078,119.12528 58.722184,115.00665 14,108 11.955557,101.7467 11.1641,95.498533 10.378906,88.980469 10.233479,87.809058 10.088051,86.637648 9.9382172,85.43074 9.4744472,81.683613 9.0184752,77.935583 8.5625,74.1875 8.2602517,71.741476 7.9575215,69.295512 7.6542969,66.849609 4.9046317,44.58876 2.2851295,22.313618 0,0 Z"
         fill="#fcfcfc"
         transform="translate(368,772)"
         id="path6"
         style="stroke-width:13.1505;stroke-dasharray:none" /><path
         d="m 0,0 c 7.6808569,-0.35090209 13.900187,0.00172419 21,3 0.71543,0.2668359 1.430859,0.5336719 2.167969,0.8085938 20.228933,8.0557702 35.547443,26.4873302 43.981445,46.0595702 3.790677,9.500629 5.599643,19.542451 7.381836,29.573242 0.19848,1.113924 0.19848,1.113924 0.40097,2.250351 0.665059,3.754782 1.310433,7.511527 1.92569,11.274796 0.237377,1.396581 0.47484,2.793147 0.712402,4.189697 0.203834,1.245879 0.407667,2.491758 0.617676,3.77539 0.805771,3.04478 1.258059,4.2913 3.812012,6.06836 8.802707,1.00563 16.786785,-2.20509 24,-7 8.51211,-7.183982 10.13558,-16.49343 12,-27 16.30695,1.019185 30.20609,19.220945 40.44141,30.75 2.25052,2.70546 4.41565,5.45858 6.55859,8.25 0.65331,0.83072 0.65331,0.83072 1.31982,1.67822 5.3779,6.85743 10.23192,13.78647 14.18018,21.57178 0.31397,0.61255 0.62793,1.22509 0.95142,1.8562 5.56743,11.52328 6.46529,23.71823 7.61108,36.2688 1.57555,20.05999 1.57555,20.05999 5.9375,39.625 11.69695,40.66973 21.2544,81.90982 24.68506,124.16699 0.33819,4.11595 0.70883,8.22817 1.08447,12.34082 C 230.80361,460.27315 230.80361,460.27315 212,496 c -2.65625,2.85937 -2.65625,2.85937 -5,5 -0.99,-0.33 -1.98,-0.66 -3,-1 -1.4308,-3.44932 -1.14538,-7.22026 -1.17358,-10.90015 -0.007,-0.68999 -0.0135,-1.37998 -0.0204,-2.09088 -0.0141,-1.5024 -0.0261,-3.00483 -0.0361,-4.50726 -0.0162,-2.41151 -0.0383,-4.82291 -0.062,-7.23436 -0.0336,-3.44463 -0.0652,-6.88928 -0.0955,-10.33394 -0.61764,-68.33152 -3.76637,-136.06164 -18.60971,-203.00885 -0.44088,-1.99018 -0.87548,-3.98166 -1.30933,-5.97339 -3.2858,-14.99476 -7.10447,-29.84411 -11.19336,-44.63867 -0.20877,-0.75576 -0.41754,-1.51153 -0.63263,-2.29019 -3.46775,-12.49442 -7.24773,-24.87424 -11.24237,-37.20981 -0.25258,-0.78418 -0.50515,-1.56837 -0.76538,-2.37631 C 152.1906,146.29821 152.1906,146.29821 137,129 c -3.07666,-0.48796 -3.07666,-0.48796 -6,1 -2.95231,2.68322 -5.19105,5.89258 -7.53516,9.10156 -2.85815,3.90346 -5.45667,7.06914 -9.46484,9.89844 -4.62311,-1.74651 -8.408,-3.8993 -12.5,-6.6875 C 96.977206,139.35337 94.345983,138.07026 89,139 c -1.40122,1.18139 -1.40122,1.18139 -1.230469,4.52734 0.06382,4.71095 1.353454,8.63088 2.917969,13.03516 5.04076,15.1163 7.964799,30.67627 10.5625,46.375 0.16323,0.96889 0.32646,1.93778 0.49463,2.93604 2.21578,14.03325 2.44204,28.16126 2.44067,42.33691 0.002,2.55111 0.0205,5.1018 0.0393,7.65283 C 104.3059,279.3177 104.3059,279.3177 99,288 c -4.706943,-1.8488 -5.787475,-4.77132 -7.839844,-9.18359 -5.04797,-12.2545 -6.238626,-25.85606 -8.25,-38.86329 -5.867422,-38.43918 -5.867422,-38.43918 -13.400879,-76.5747 -0.65294,-3.04935 -1.252943,-6.10806 -1.856933,-9.16748 C 58.608939,108.64533 47.792577,68.271293 16.996094,32.12915 11.191877,25.239948 6.4790329,17.801291 2,10 1.5823437,9.3155078 1.1646875,8.6310156 0.734375,7.9257812 -0.28597481,5.2500767 -0.12877541,2.8330591 0,0 Z"
         fill="#f9f9f9"
         transform="translate(790,331)"
         id="path7"
         style="stroke-width:13.1505;stroke-dasharray:none" /><path
         d="m 0,0 c 0.66,0 1.32,0 2,0 1.4101563,1.46875 1.4101563,1.46875 3.0625,3.5 17.365372,20.241845 45.43158,34.62888 70.524902,42.662354 2.772956,0.962761 5.444656,2.092705 8.143067,3.247802 6.418251,2.713267 12.943811,4.918497 19.582031,7.027344 1.20898,0.386155 2.41796,0.77231 3.66357,1.170166 13.78117,4.344003 27.70085,8.266388 41.90821,10.947266 C 151,69 151,69 154,70 c 3.48843,24.616584 6.70687,49.26033 9.63862,73.94918 0.23634,1.98796 0.47381,3.97578 0.71151,5.96357 0.4468,3.74612 0.8891,7.49273 1.32956,11.23959 0.13409,1.12524 0.26817,2.25049 0.40632,3.40982 0.12099,1.04031 0.24197,2.08061 0.36663,3.15244 0.10625,0.90431 0.21251,1.80862 0.32199,2.74034 0.22402,2.52981 0.26539,5.00682 0.22537,7.54506 -6.95415,-0.32047 -13.21621,-1.77343 -19.86719,-3.77734 -3.01179,-0.9068 -6.03615,-1.73931 -9.07812,-2.53907 C 93.687227,160.01672 32.673476,141.51506 6.6875,99.9375 4.2810098,95.732682 2.5074266,91.601618 1,87 0.71927391,86.147617 0.71927391,86.147617 0.43287659,85.278015 -0.22024962,81.840935 -0.1299739,78.4117 -0.11352539,74.926758 c -2.1904e-4,-1.215196 -2.1904e-4,-1.215196 -4.4251e-4,-2.454941 6.9566e-4,-2.672925 0.008472,-5.345779 0.01631165,-8.018692 0.0018654,-1.855163 0.0032887,-3.710327 0.0042877,-5.565491 0.0038155,-4.879327 0.01363751,-9.758624 0.02470398,-14.637939 0.01023494,-4.980363 0.01479811,-9.960731 0.01983643,-14.941101 C -0.0381079,19.539049 -0.02104309,9.7695272 0,0 Z"
         fill="#fbfbfb"
         transform="translate(196,697)"
         id="path8"
         style="stroke-width:13.1505;stroke-dasharray:none" /><path
         d="M 0,0 C 0.82628906,0.27585937 1.6525781,0.55171875 2.5039063,0.8359375 4.3910937,1.42375 4.3910937,1.42375 6.3164062,2.0234375 18.679854,6.9688168 28.239258,14.441076 37.503906,23.835937 c 0.750235,0.739922 1.500469,1.479844 2.273438,2.242188 4.109648,4.304572 7.320383,9.012647 10.414062,14.070312 0.356748,0.579837 0.713496,1.159673 1.081055,1.757081 6.211536,10.554151 9.400583,21.683755 11.918945,33.555419 0.296516,1.354389 0.594039,2.708557 0.892578,4.0625 0.826665,3.766662 1.625507,7.538898 2.419922,11.3125 0.21479,0.993545 0.42958,1.98709 0.650879,3.010743 0.275296,1.305659 0.275296,1.305659 0.556152,2.637695 0.155735,0.731382 0.31147,1.462764 0.471924,2.216309 0.361373,2.403476 0.37503,4.708316 0.321045,7.135256 6.691666,-1.53491 12.811882,-3.23257 17,-9.000003 1.779767,-4.381487 2.632867,-8.891418 3.441406,-13.535156 0.978908,-5.282573 2.181615,-7.96326 6.558594,-11.464844 3.57603,-1.788014 7.250294,-0.853947 11.000004,0 28.12543,9.99663 53.25251,44.576733 65.75,70.437503 5.06013,11.99145 6.93595,23.41049 7.75,36.25 1.20288,18.73525 5.35957,36.33539 10.21692,54.43362 1.23891,4.62738 2.45386,9.26105 3.66979,13.8945 0.23466,0.89393 0.46932,1.78786 0.7111,2.70888 11.67661,44.54199 16.33925,89.57807 19.5455,135.40294 0.0825,1.17465 0.16501,2.3493 0.25001,3.55954 0.15507,2.21596 0.30852,4.43204 0.46005,6.64825 0.36708,5.25106 0.80281,10.47512 1.44196,15.70053 0.37171,3.56742 0.39594,7.13032 0.39217,10.71424 -8.1e-4,0.83563 -0.002,1.67127 -0.002,2.53222 -0.11546,12.60153 -1.14347,25.16495 -2.18505,37.71778 -0.0641,0.8308 -0.12827,1.6616 -0.19434,2.51758 -0.95924,11.95524 -4.24608,23.09176 -7.80566,34.48242 -0.34161,1.155 -0.68321,2.31 -1.03516,3.5 -2.19117,6.82963 -5.63983,12.84581 -11.90625,16.6914 -3.6525,1.43467 -7.20699,1.35292 -11.05859,0.8086 -4.78206,-2.59895 -6.23378,-5.96626 -8,-11 -1.2589,-4.74786 -1.15904,-9.45466 -1.17359,-14.3313 -0.007,-0.93444 -0.0134,-1.86888 -0.0203,-2.83164 -0.014,-2.03079 -0.0259,-4.0616 -0.0359,-6.09241 -0.0165,-3.24792 -0.0398,-6.49573 -0.0649,-9.7436 -0.0703,-9.23654 -0.12991,-18.47313 -0.18211,-27.70979 -0.18581,-31.99769 -0.62662,-63.78959 -4.39819,-95.60376 -0.17398,-1.51163 -0.34789,-3.02327 -0.52173,-4.53491 -2.13095,-18.2957 -4.85458,-36.47017 -8.16577,-54.59009 -0.19779,-1.08354 -0.39558,-2.16708 -0.59937,-3.28345 -1.15426,-6.14161 -2.51798,-12.1909 -4.07031,-18.24365 -1.06123,-4.19533 -2.02043,-8.41207 -2.98657,-12.63013 -1.39949,-6.10002 -2.83479,-12.19124 -4.28125,-18.28027 -0.2952,-1.26586 -0.59039,-2.53172 -0.89454,-3.83594 -1.44641,-6.06602 -3.01844,-11.62476 -5.60546,-17.28906 -0.58985,-2.59766 -0.58985,-2.59766 -0.9375,-5.0625 -2.44442,-14.80906 -7.9952,-28.9542 -13.30713,-42.92725 -0.70987,-1.88916 -1.39558,-3.78735 -2.07959,-5.68603 -2.25261,-6.16092 -4.52468,-11.22429 -8.67578,-16.32422 -0.5659,0.71801 -1.1318,1.43601 -1.71485,2.17578 -2.21608,2.73885 -4.49958,5.38553 -6.84765,8.01172 -0.76442,0.8598 -1.52883,1.71961 -2.31641,2.60547 -2.53077,2.6333 -4.17696,4.10347 -7.863281,4.50781 -1.033828,0.004 -2.067657,0.008 -3.132813,0.0117 -1.028672,0.0168 -2.057344,0.0335 -3.117187,0.0508 -3.363179,-0.4062 -5.255801,-1.43891 -8.007813,-3.36328 0.281016,1.24652 0.562032,2.49304 0.851563,3.77734 3.149031,14.18725 5.929314,28.46447 8.398437,42.78516 0.162906,0.91273 0.325811,1.82547 0.493653,2.76587 2.38123,14.18995 2.465639,28.59197 2.496582,42.94409 0.0098,2.72459 0.04094,5.44843 0.07227,8.17285 0.186901,30.60184 0.186901,30.60184 -9,40.42969 -4.04559,2.59528 -6.642379,3.10769 -11.3125,2.125 -6.800339,-3.20016 -9.711122,-8.47215 -12.206543,-15.30249 -3.393436,-10.36344 -5.527762,-20.77379 -7.355957,-31.51001 -0.300546,-1.71673 -0.60166,-3.43337 -0.90332,-5.1499 -1.928369,-11.06302 -3.701929,-22.14539 -5.204346,-33.27515 -0.875895,-6.35038 -2.120883,-12.52215 -3.643554,-18.75025 -0.682425,-2.99528 -1.184001,-5.97265 -1.62378,-9.0122 -1.378338,-9.39271 -3.223571,-18.68856 -5.0625,-28 -0.373667,-1.90846 -0.373667,-1.90846 -0.754883,-3.85547 C 30.584475,120.39504 20.817171,83.161827 -6.6992187,49.96875 -29.322544,22.608161 -29.322544,22.608161 -28.992187,8.5 -28.189395,4.1889395 -25.818685,1.5732016 -22.496094,-1.1640625 -15.944683,-4.4397676 -6.6426265,-2.0598757 0,0 Z M -18.496094,8.8359375 C -19.237853,21.538564 -7.5309731,33.209137 0.14501953,42.443848 22.682672,69.6431 34.880993,98.964342 42.663086,133.16553 c 0.80322,3.50627 1.633173,7.00493 2.473633,10.50244 2.661238,11.14682 5.027882,22.28064 6.903564,33.58691 1.126119,6.77175 2.443873,13.485 3.838623,20.20606 2.209102,10.77002 4.052278,21.58701 5.8125,32.4375 0.126469,0.77442 0.252938,1.54885 0.38324,2.34674 1.301551,7.99639 2.507793,15.98628 3.46051,24.03216 0.75916,6.2477 1.786669,12.32135 3.28125,18.4336 0.215838,0.88985 0.431675,1.77971 0.654053,2.69653 2.30579,9.25436 2.30579,9.25436 7.033447,17.42847 2.058443,1.24664 2.058443,1.24664 4,2 0.662798,-1.30402 1.304139,-2.61894 1.9375,-3.9375 0.359649,-0.7309 0.719297,-1.4618 1.089844,-2.21485 2.253,-6.59613 2.123959,-13.78587 2.105469,-20.69531 0.0014,-1.22245 0.0014,-1.22245 0.0029,-2.46959 6.76e-4,-1.71513 -0.0011,-3.43027 -0.0053,-5.1454 -0.0053,-2.56915 -5.9e-5,-5.13813 0.0063,-7.70727 0.01017,-16.37913 -1.065457,-32.30284 -3.824219,-48.45508 -0.13089,-0.77994 -0.26178,-1.55987 -0.396637,-2.36344 -2.590056,-15.34303 -6.085373,-30.26312 -11.334076,-44.93075 -0.964159,-3.4484 -0.836055,-6.52105 -0.581787,-10.08081 1,-1 1,-1 4.113281,-1.33985 4.808827,0.42047 7.240707,2.0224 11.074219,4.77735 4.971065,3.89151 4.971065,3.89151 10.8125,5.5625 5.89612,-3.36748 9.77832,-9.16806 13.35937,-14.76563 1.69765,-2.31204 3.20068,-3.73955 5.64063,-5.23437 3.1381,-0.13644 5.05317,0.21506 7.50781,2.25 23.77523,25.89135 30.33383,75.43561 37.96289,108.5039 0.79325,3.36621 1.6647,6.71 2.5293,10.0586 15.44923,61.54775 20.55095,124.9772 21.27343,188.24218 0.0153,1.3177 0.0153,1.3177 0.0309,2.66201 0.10252,8.92767 0.19282,17.85524 0.24895,26.78332 0.0226,3.37586 0.0526,6.75162 0.0838,10.1274 0.0127,1.58954 0.0218,3.17912 0.0271,4.7687 0.007,2.19691 0.0268,4.39342 0.0487,6.59022 0.0109,1.85824 0.0109,1.85824 0.0221,3.75402 0.25783,3.1713 0.90508,5.40472 2.26502,8.25965 3.99254,-1.78976 6.26391,-3.49458 8.21093,-7.47657 28.46345,-76.98501 8.49074,-178.74773 -15.33007,-271.16259 -1.14409,-4.36517 -2.20907,-8.74824 -3.25879,-13.13697 -0.41342,-2.17871 -0.41342,-2.17871 -1.62207,-3.22387 -0.52051,-2.68719 -0.96902,-5.35701 -1.375,-8.0625 -0.13229,-0.864 -0.26458,-1.72799 -0.40088,-2.61817 -0.82969,-5.72217 -1.44193,-11.44394 -1.91162,-17.20605 -2.19699,-26.91984 -8.06008,-46.1247 -25.3125,-67.11328 -0.44828,-0.55124 -0.89655,-1.10247 -1.3584,-1.67041 -5.94054,-7.26741 -12.24311,-14.14245 -18.8291,-20.829593 -0.64083,-0.658469 -1.28165,-1.316938 -1.9419,-1.995361 -5.49779,-5.490078 -13.46177,-13.258783 -21.6206,-13.629639 -0.7425,0.04125 -1.485,0.0825 -2.25,0.125 -0.363515,1.610684 -0.363515,1.610684 -0.734375,3.253907 -0.337961,1.436334 -0.676535,2.872525 -1.015625,4.308593 -0.157265,0.704473 -0.314531,1.408946 -0.476562,2.134766 -1.993429,8.318731 -5.650479,14.412767 -12.773438,19.302737 -6.371857,3.84762 -13.540309,5.61604 -21,5 -2.807755,-1.81968 -3.071937,-3.28455 -3.903808,-6.57495 -0.259703,-1.48738 -0.507102,-2.97694 -0.744629,-4.46802 -0.139269,-0.80126 -0.278538,-1.60252 -0.422028,-2.42806 C 57.987213,99.794551 57.556344,97.221988 57.128906,94.648437 53.579734,73.322598 49.064225,52.64361 34.503906,35.835937 33.910938,35.099883 33.317969,34.363828 32.707031,33.605469 27.424764,27.264566 21.251434,22.541213 14.503906,17.835937 13.50875,17.134687 12.513594,16.433437 11.488281,15.710938 8.6400422,13.921468 6.048788,12.74227 2.8789063,11.648438 1.9585156,11.324883 1.038125,11.001328 0.08984375,10.667969 -4.3878933,9.2272467 -8.0029063,8.7218811 -12.746094,8.7734375 c -1.077656,0.00902 -2.155312,0.018047 -3.265625,0.027344 -1.229765,0.017402 -1.229765,0.017402 -2.484375,0.035156 z"
         fill="#0d0c0c"
         transform="translate(808.49609,322.16406)"
         id="path9"
         style="stroke-width:13.1505;stroke-dasharray:none" /><path
         d="M 0,0 C 0.10942177,0.96386627 0.10942177,0.96386627 0.22105408,1.9472046 0.98033913,8.6308622 1.7433547,15.314086 2.5085449,21.99707 c 0.285139,2.494683 0.5693244,4.989474 0.8525391,7.484375 0.4070818,3.584601 0.8175835,7.168797 1.2287597,10.75293 0.1260814,1.116791 0.2521628,2.233583 0.3820649,3.384216 0.1200489,1.040777 0.2400979,2.081554 0.3637848,3.15387 0.1043687,0.914892 0.2087375,1.829784 0.3162689,2.7724 C 5.9657024,51.758057 6.4452788,53.838255 7,56 c 0.1515119,1.893899 0.2729734,3.790292 0.375,5.6875 0.3665643,5.291533 1.124829,10.366257 2.125,15.5625 1.063971,5.594751 1.72719,11.05102 1.9375,16.75 0.282008,7.10525 1.25985,13.99031 2.4375,21 1.470401,8.774 2.793669,17.54391 3.875,26.375 0.127456,1.00289 0.254912,2.00578 0.38623,3.03906 C 18.917481,150.97087 19.14521,157.39941 19,164 -8.5726747,160.9398 -38.149367,150.3078 -62.929687,138.02051 -65.00167,136.99918 -67.09058,136.02363 -69.1875,135.05469 -89.772172,125.38594 -110.95776,111.22426 -119,89 c -2.75804,-9.143107 -1.55754,-17.606045 2.88135,-25.964844 C -112.82701,57.286462 -108.73509,52.590134 -104,48 c 0.67547,-0.672891 1.35094,-1.345781 2.04687,-2.039063 C -87.222417,32.060909 -67.761275,22.173429 -49,15 c 0.961641,-0.382852 1.923281,-0.765703 2.914063,-1.160156 C -10.636946,-0.11539202 -10.636946,-0.11539202 0,0 Z"
         fill="#fbfbfb"
         transform="translate(317,496)"
         id="path10"
         style="stroke-width:13.1505;stroke-dasharray:none" /><path
         d="M 0,0 C 6.639946,0.61069048 13.222078,1.4194923 19.816406,2.4023438 64.482969,8.9027047 108.92012,11.143392 154,12 c 1.93529,4.450972 3.62898,8.770314 5,13.4375 1.2793,4.249792 2.6205,8.422548 4.22656,12.558594 0.92024,2.384246 1.7834,4.786592 2.64844,7.191406 3.11758,8.579291 6.28577,17.116773 10.08984,25.417969 1.76872,4.091417 3.26332,8.289518 4.78907,12.476562 1.09018,2.910823 1.09018,2.910823 2.89843,4.992188 1.71478,2.450393 1.45132,3.997162 1.34766,6.925781 -26.63939,0.298989 -53.22852,0.533196 -79.8125,-1.4375 -0.92246,-0.06748 -1.84491,-0.134969 -2.79532,-0.204498 -2.575525,-0.192637 -5.149991,-0.394774 -7.724211,-0.604096 -0.755713,-0.06047 -1.511426,-0.12095 -2.290039,-0.183258 C 87.242342,92.121171 87.242342,92.121171 85,91 83.529198,90.82556 82.052161,90.702294 80.574219,90.605469 79.646738,90.539163 78.719258,90.472856 77.763672,90.404541 76.748535,90.332917 75.733398,90.261294 74.6875,90.1875 52.780644,88.499655 30.166459,86.124909 9,80 7.8237925,70.160241 6.6501046,60.320184 5.4796371,50.47974 4.9360702,45.910498 4.3916341,41.341363 3.8452148,36.772461 3.3179756,32.363663 2.7930155,27.954599 2.2696381,23.545341 2.0695062,21.862733 1.8685517,20.180221 1.6667633,18.49781 1.3843912,16.142348 1.1049394,13.786556 0.82617188,11.430664 0.74201523,10.734389 0.65785858,10.038114 0.57115173,9.3207398 0.20164065,6.1735933 0,3.177404 0,0 Z"
         fill="#fbfafb"
         transform="translate(357,678)"
         id="path11"
         style="stroke-width:13.1505;stroke-dasharray:none" /><path
         d="M 0,0 C 4.8046875,4.7915039 4.8046875,4.7915039 6.5625,6.6679687 27.705685,29.017694 58.673982,40.888793 87,51 c 1.04269,0.378501 1.04269,0.378501 2.106445,0.764648 16.378135,5.923267 33.555145,10.422049 50.647465,13.727539 C 142,66 142,66 143,67 c 0.3307,1.945154 0.60124,3.900567 0.8479,5.858154 0.16009,1.256086 0.32018,2.512172 0.48512,3.80632 0.17189,1.386539 0.34343,2.773122 0.51464,4.159745 0.1778,1.422364 0.35573,2.844712 0.53379,4.267044 0.37375,2.995002 0.7439,5.990424 1.11196,8.98613 0.46756,3.801057 0.94674,7.600547 1.42919,11.399737 0.37228,2.9465 0.73661,5.89395 1.09888,8.8417 0.17306,1.39827 0.34881,2.79622 0.52752,4.19378 1.17758,9.24285 1.67411,18.17695 1.451,27.48739 -12.57911,-1.06603 -24.49585,-4.60699 -36.5,-8.375 -1.21559,-0.37383 -2.43117,-0.74766 -3.68359,-1.13281 C 102.74287,133.97621 94.855347,131.12843 87,128 c -0.855051,-0.33701 -1.710103,-0.67402 -2.591064,-1.02124 -1.533815,-0.60655 -3.064343,-1.22145 -4.59253,-1.84204 -2.152061,-0.86859 -4.312545,-1.71633 -6.476562,-2.55469 C 48.627877,112.88226 17.349379,98.337841 4,74 0.16358111,65.017862 -0.54514547,56.952475 -0.390625,47.265625 c 0.007483,-1.372896 0.0131662,-2.745803 0.0171509,-4.118713 0.0150948,-3.57089 0.0542308,-7.141104 0.0988159,-10.711731 0.0413072,-3.660593 0.0592698,-7.321297 0.0793457,-10.982056 C -0.15272817,14.301811 -0.08468003,7.1509501 0,0 Z"
         fill="#fafafa"
         transform="translate(196,607)"
         id="path12"
         style="stroke-width:13.1505;stroke-dasharray:none" /><path
         d="M 0,0 C 0.88034912,0.02441162 1.7606982,0.04882324 2.6677246,0.07397461 45.486482,1.7507877 81.525314,28.286681 109.5625,58.5625 c 3.46193,3.978109 6.65853,8.138456 9.78955,12.379395 1.99248,2.667627 4.08362,5.258392 6.14795,7.870605 17.99654,23.33043 34.79827,49.68935 44.0625,77.75 0.33,0.99 0.66,1.98 1,3 0.14564,2.33027 0.22082,4.66536 0.25,7 0.0387,1.85625 0.0387,1.85625 0.0781,3.75 -0.32812,3.25 -0.32812,3.25 -1.61328,5.16016 -3.0598,1.94461 -6.27555,1.62374 -9.71484,1.08984 -13.57845,-4.15667 -24.741,-18.45735 -34.39893,-28.19312 -2.35475,-2.37308 -4.71748,-4.73799 -7.08154,-7.1018 -1.52261,-1.52752 -3.04476,-3.0555 -4.5664,-4.58399 -0.69495,-0.69605 -1.3899,-1.39211 -2.1059,-2.10926 -3.92,-3.95763 -7.67218,-8.01108 -11.29994,-12.23873 -2.380343,-2.72773 -4.913835,-5.28868 -7.48479,-7.8356 -0.518687,-0.51675 -1.037373,-1.03351 -1.571777,-1.56592 -3.38369,-3.34587 -6.873363,-6.51449 -10.498536,-9.59814 -2.431567,-2.16457 -4.704298,-4.457735 -6.992187,-6.77344 -4.178643,-4.21663 -8.481259,-8.155241 -13,-12 C 59.522748,83.659648 58.483749,82.755927 57.445312,81.851562 46.648773,72.478001 35.422269,63.738136 24.0625,55.0625 21.912042,53.416754 19.761673,51.770894 17.611328,50.125 15.689174,48.659106 13.759258,47.20403 11.828125,45.75 -14.497583,25.744773 -14.497583,25.744773 -16.964844,14.066406 -17.487777,7.8921289 -17.487777,7.8921289 -15.157959,4.9426269 -10.41341,0.27679673 -6.4712189,-0.30469724 0,0 Z"
         fill="#f8f8f8"
         transform="translate(733.4375,665.4375)"
         id="path13"
         style="stroke-width:13.1505;stroke-dasharray:none" /><path
         d="m 0,0 c 2.7428486,2.2618074 5.4123878,4.5984941 8.0551758,6.9760742 1.3799973,1.2377296 2.7809212,2.4520141 4.1831052,3.6645508 15.623721,13.649691 27.736811,30.56024 37.349121,48.869629 0.865368,1.648126 1.753253,3.284376 2.643067,4.919433 4.062038,7.702447 6.697112,15.576864 9.292968,23.863282 0.579008,1.751436 1.161553,3.501713 1.75,5.25 1.75094,5.252818 2.492606,9.607961 2.5625,15.125001 0.029,0.75539 0.05801,1.51078 0.08789,2.28906 0.04514,3.97248 -0.10556,5.87272 -2.294922,9.3125 -2.787675,2.67907 -3.687835,2.97869 -7.605469,3.39844 -16.59505,-0.38732 -31.942959,-20.42093 -42.555664,-31.315919 -2.54457,-2.69474 -4.9685338,-5.48379 -7.3901363,-8.288819 -1.9243616,-2.191886 -3.96117,-4.239713 -6.0541992,-6.270263 -2.7450054,-2.708036 -5.3727091,-5.441693 -7.875,-8.375 -6.3607645,-7.393835 -13.3907635,-14.19955 -20.8085935,-20.523438 -1.800418,-1.587465 -3.461896,-3.250438 -5.128906,-4.976562 -3.692518,-3.759654 -7.751604,-6.994443 -11.851563,-10.296875 -3.603678,-2.958392 -7.051016,-6.066731 -10.496094,-9.207032 -2.127892,-1.928957 -4.287052,-3.811457 -6.464843,-5.683593 -9.520683,-8.349793 -19.531295,-17.86360086 -21.375,-31 0.658732,-4.528789 2.143439,-6.372815 5.5,-9.4375 C -52.569678,-27.809217 -20.338651,-16.214392 0,0 Z"
         fill="#fafafa"
         transform="translate(666.47656,366.70703)"
         id="path14"
         style="stroke-width:13.1505;stroke-dasharray:none" /><path
         d="M 0,0 C 1.0185205,0.01514648 2.037041,0.03029297 3.0864258,0.04589844 15.068313,0.39680869 26.482419,2.885327 37.125,8.5625 37.691543,8.8575342 38.258086,9.1525684 38.841797,9.456543 77.591493,29.765711 111.10548,71.073258 125.125,112.5625 c 1.06856,3.79303 1.41678,7.04062 1,11 -1.875,3 -1.875,3 -5,5 -10.98522,1.99927 -23.853723,-7.36817 -32.4375,-13.1875 -2.203304,-1.58703 -4.388406,-3.18675 -6.5625,-4.8125 -0.656133,-0.4863 -1.312266,-0.9726 -1.988281,-1.47363 C 66.493412,98.94498 53.70587,87.986267 41.125,76.5625 40.374766,75.893477 39.624531,75.224453 38.851562,74.535156 9.540049,48.388507 9.540049,48.388507 -2.875,33.5625 -3.6175,32.697539 -4.36,31.832578 -5.125,30.941406 -16.903801,16.973453 -16.903801,16.973453 -17.5625,9.3125 -16.838567,5.3637739 -15.99665,4.0149325 -12.861572,1.5834961 -8.816252,-0.49559073 -4.4476887,-0.12093634 0,0 Z"
         fill="#0c0c0c"
         transform="translate(650.875,492.4375)"
         id="path15"
         style="stroke-width:13.1505;stroke-dasharray:none" /><path
         d="M 0,0 C 0.88034912,0.02441162 1.7606982,0.04882324 2.6677246,0.07397461 45.486482,1.7507877 81.525314,28.286681 109.5625,58.5625 c 3.46193,3.978109 6.65853,8.138456 9.78955,12.379395 1.99248,2.667627 4.08362,5.258392 6.14795,7.870605 17.99654,23.33043 34.79827,49.68935 44.0625,77.75 0.33,0.99 0.66,1.98 1,3 0.14564,2.33027 0.22082,4.66536 0.25,7 0.0387,1.85625 0.0387,1.85625 0.0781,3.75 -0.32812,3.25 -0.32812,3.25 -1.61328,5.16016 -3.0598,1.94461 -6.27555,1.62374 -9.71484,1.08984 -13.57845,-4.15667 -24.741,-18.45735 -34.39893,-28.19312 -2.35475,-2.37308 -4.71748,-4.73799 -7.08154,-7.1018 -1.52261,-1.52752 -3.04476,-3.0555 -4.5664,-4.58399 -0.69495,-0.69605 -1.3899,-1.39211 -2.1059,-2.10926 -3.92,-3.95763 -7.67218,-8.01108 -11.29994,-12.23873 -2.380343,-2.72773 -4.913835,-5.28868 -7.48479,-7.8356 -0.518687,-0.51675 -1.037373,-1.03351 -1.571777,-1.56592 -3.38369,-3.34587 -6.873363,-6.51449 -10.498536,-9.59814 -2.431567,-2.16457 -4.704298,-4.457735 -6.992187,-6.77344 -4.178643,-4.21663 -8.481259,-8.155241 -13,-12 C 59.522748,83.659648 58.483749,82.755927 57.445312,81.851562 46.648773,72.478001 35.422269,63.738136 24.0625,55.0625 21.912042,53.416754 19.761673,51.770894 17.611328,50.125 15.689174,48.659106 13.759258,47.20403 11.828125,45.75 -14.497583,25.744773 -14.497583,25.744773 -16.964844,14.066406 -17.487777,7.8921289 -17.487777,7.8921289 -15.157959,4.9426269 -10.41341,0.27679673 -6.4712189,-0.30469724 0,0 Z m -6.4375,10.5625 c 2.6085365,14.905923 24.666994,27.432965 36,36 6.395157,4.923256 12.715498,9.936433 19,15 0.876562,0.699961 1.753125,1.399922 2.65625,2.121094 6.066858,4.890096 11.846664,10.011556 17.554687,15.308593 2.334159,2.151087 4.696529,4.24957 7.101563,6.320313 3.091194,2.67691 5.967656,5.506034 8.82959,8.424561 1.717949,1.687924 3.484306,3.243869 5.322754,4.798095 5.234878,4.553274 10.114876,9.457034 15.008056,14.369874 1.5867,1.59206 3.17868,3.1787 4.77124,4.76489 4.80658,4.80357 9.4946,9.65183 13.91577,14.81665 3.70117,4.17554 7.65394,8.1146 11.59058,12.06665 1.49024,1.49995 2.96942,3.01027 4.44873,4.521 6.16006,6.22591 12.52877,11.57851 19.80078,16.48828 3.00598,-10.53481 -7.08889,-25.75854 -12,-35 -11.24799,-20.09755 -24.35946,-39.22295 -39,-57 -0.47115,-0.574116 -0.9423,-1.148232 -1.42773,-1.739746 C 91.498687,52.883058 74.24463,37.336596 52.5625,25.5625 51.977104,25.244424 51.391709,24.926348 50.788574,24.598633 33.43401,15.389696 13.198055,9.9456763 -6.4375,10.5625 Z"
         fill="#0b0a0a"
         transform="translate(733.4375,665.4375)"
         id="path16"
         style="stroke-width:13.1505;stroke-dasharray:none" /><path
         d="m 0,0 c 2.7428486,2.2618074 5.4123878,4.5984941 8.0551758,6.9760742 1.3799973,1.2377296 2.7809212,2.4520141 4.1831052,3.6645508 15.623721,13.649691 27.736811,30.56024 37.349121,48.869629 0.865368,1.648126 1.753253,3.284376 2.643067,4.919433 4.062038,7.702447 6.697112,15.576864 9.292968,23.863282 0.579008,1.751436 1.161553,3.501713 1.75,5.25 1.75094,5.252818 2.492606,9.607961 2.5625,15.125001 0.029,0.75539 0.05801,1.51078 0.08789,2.28906 0.04514,3.97248 -0.10556,5.87272 -2.294922,9.3125 -2.787675,2.67907 -3.687835,2.97869 -7.605469,3.39844 -16.59505,-0.38732 -31.942959,-20.42093 -42.555664,-31.315919 -2.54457,-2.69474 -4.9685338,-5.48379 -7.3901363,-8.288819 -1.9243616,-2.191886 -3.96117,-4.239713 -6.0541992,-6.270263 -2.7450054,-2.708036 -5.3727091,-5.441693 -7.875,-8.375 -6.3607645,-7.393835 -13.3907635,-14.19955 -20.8085935,-20.523438 -1.800418,-1.587465 -3.461896,-3.250438 -5.128906,-4.976562 -3.692518,-3.759654 -7.751604,-6.994443 -11.851563,-10.296875 -3.603678,-2.958392 -7.051016,-6.066731 -10.496094,-9.207032 -2.127892,-1.928957 -4.287052,-3.811457 -6.464843,-5.683593 -9.520683,-8.349793 -19.531295,-17.86360086 -21.375,-31 0.658732,-4.528789 2.143439,-6.372815 5.5,-9.4375 C -52.569678,-27.809217 -20.338651,-16.214392 0,0 Z m -72.476562,-11.707031 c 1.481112,14.393907 19.278108,26.180127 29.686767,34.95166 6.211712,5.237061 12.317771,10.56313 18.313233,16.04834 0.971953,0.87914 1.943906,1.758281 2.945312,2.664062 6.289425,5.716502 12.4082913,11.58762 18.4296875,17.585938 0.9805737,0.973685 0.9805737,0.973685 1.980957,1.967041 3.7836807,3.795724 7.3723431,7.705366 10.8754883,11.760498 19.2835702,23.247156 19.2835702,23.247156 43.7685542,40.022462 0.66,0 1.32,0 2,0 1.671238,-12.81282 -3.191353,-27.212039 -10,-38.000001 C 44.79568,73.597555 44.068995,71.901612 43.358887,70.19873 35.179635,51.540859 22.550515,35.835748 8.5234375,21.292969 7.935625,20.641992 7.3478125,19.991016 6.7421875,19.320312 -9.409331,1.8915055 -35.050834,-10.536853 -58.756348,-11.831543 c -4.5788,-0.117505 -9.143592,-0.03981 -13.720214,0.124512 z"
         fill="#0b0b0b"
         transform="translate(666.47656,366.70703)"
         id="path17"
         style="stroke-width:13.1505;stroke-dasharray:none" /><path
         d="M 0,0 C 17.444058,-0.54074577 17.444058,-0.54074577 23.929687,2.171875 26.263383,3.1053532 28.540771,3.5486313 31,4.0625 44.415358,7.6699913 56.461981,17.248802 67,26 c 0.89332,0.739922 1.786641,1.479844 2.707031,2.242187 C 75.911613,33.598524 80.981531,39.539045 86,46 c 0.779883,0.964219 1.559766,1.928437 2.363281,2.921875 C 95.686655,58.125733 101.907,67.949693 108,78 c 0.40557,0.667734 0.81114,1.335469 1.229,2.023437 C 121,99.562379 121,99.562379 121,107 108.15824,103.10505 97.407116,94.664876 86.959473,86.525879 85.067743,85.052752 83.166019,83.593541 81.261719,82.136719 74.722976,77.103178 68.494739,71.874489 62.441406,66.261719 60.346107,64.320633 58.222951,62.430159 56.0625,60.5625 46.112959,51.894096 36.596996,42.807973 27.253906,33.494141 25.376847,31.626837 23.489339,29.770522 21.601562,27.914062 1.1155694,7.609047 1.1155694,7.609047 0,0 Z"
         fill="#f8f8f8"
         transform="translate(645,503)"
         id="path18"
         style="stroke-width:13.1505;stroke-dasharray:none" /><path
         d="M 0,0 C 1.0123459,3.1224531 0.98382635,4.9179787 -0.07421875,8.0117188 -0.3278418,8.7655786 -0.58146484,9.5194385 -0.84277344,10.296143 -1.2609131,11.479865 -1.2609131,11.479865 -1.6875,12.6875 c -0.2774707,0.807839 -0.5549414,1.615679 -0.8408203,2.447998 -1.6800589,4.822626 -3.4617821,9.559501 -5.678711,14.165283 C -9.1283088,31.176403 -9.1283088,31.176403 -9.9375,34 c -0.350625,0.66 -0.70125,1.32 -1.0625,2 -0.804375,0.144375 -1.60875,0.28875 -2.4375,0.4375 -0.845625,0.185625 -1.69125,0.37125 -2.5625,0.5625 -1.666667,2.916667 -1.666667,2.916667 -3,6 -0.99,0.66 -1.98,1.32 -3,2 1.443075,-3.794816 3.156912,-7.345551 5.046875,-10.9375 0.598125,-1.143398 1.19625,-2.286797 1.8125,-3.464844 1.243476,-2.367882 2.488941,-4.734709 3.734375,-7.101562 C -7.3610362,15.760055 -3.5805657,7.9612208 0,0 Z"
         fill="#d5d5d6"
         transform="translate(1124,913)"
         id="path19"
         style="stroke-width:13.1505;stroke-dasharray:none" /><path
         d="m 0,0 c 0.66,0.33 1.32,0.66 2,1 -1.51211874,6.0270265 -3.104809,11.472817 -6,17 -0.6990741,2.735726 -0.6990741,2.735726 -1,5 -0.66,-1.32 -1.32,-2.64 -2,-4 -0.66,0 -1.32,0 -2,0 1.3922459,-4.626757 3.2952098,-8.646862 5.625,-12.875 C -2.7433594,4.9725781 -2.1117188,3.8201563 -1.4609375,2.6328125 -0.97882812,1.7639844 -0.49671875,0.89515625 0,0 Z"
         fill="#bfc0c0"
         transform="translate(523,313)"
         id="path20"
         style="stroke-width:13.1505;stroke-dasharray:none" /><path
         d="M 0,0 C 0.63019694,8.1925602 0.63019694,8.1925602 -2,11.5625 -2.66,12.036875 -3.32,12.51125 -4,13 -6,10 -6,10 -7,8 -2.9298246,0 -2.9298246,0 0,0 Z"
         fill="#e3e3e3"
         transform="translate(517,331)"
         id="path21"
         style="stroke-width:13.1505;stroke-dasharray:none" /><path
         d="M 0,0 C 0.99,0 1.98,0 3,0 2.67,6.27 2.34,12.54 2,19 1.67,19 1.34,19 1,19 1,15.7 1,12.4 1,9 0.34,9 -0.32,9 -1,9 -1.0976562,2.8476563 -1.0976562,2.8476563 -1,1 -0.67,0.67 -0.34,0.34 0,0 Z"
         fill="#363536"
         transform="translate(1151,823)"
         id="path22"
         style="stroke-width:13.1505;stroke-dasharray:none" /><path
         d="m 0,0 c 1.9229968,3.1736676 2.1932905,4.9534727 1.375,8.5625 -0.77647673,3.105907 -1.15361247,4.222624 -3.5,6.5 C -2.74375,15.371875 -3.3625,15.68125 -4,16 -3.3989142,10.349794 -1.9247132,5.3383554 0,0 Z"
         fill="#c7c6c7"
         transform="translate(1137,913)"
         id="path23"
         style="stroke-width:13.1505;stroke-dasharray:none" /><path
         d="m 0,0 c 1.4341015,3.7881927 0.51009497,6.0652128 -0.9375,9.75 -0.3802734,0.984844 -0.7605469,1.969687 -1.1523438,2.984375 C -2.3901953,13.482031 -2.6905469,14.229688 -3,15 -3.99,15 -4.98,15 -6,15 -4.3604124,9.7672737 -2.6104796,4.8480336 0,0 Z"
         fill="#c7c8c9"
         transform="translate(1124,913)"
         id="path24"
         style="stroke-width:13.1505;stroke-dasharray:none" /><path
         d="M 0,0 C 0.66,0.99 1.32,1.98 2,3 1.01,3.495 1.01,3.495 0,4 -0.7115625,5.4540625 -0.7115625,5.4540625 -1.4375,6.9375 -3,10 -3,10 -6,12 -4.4335825,7.6923518 -2.3166384,3.9382854 0,0 Z M 6,0 C 5.67,0.99 5.34,1.98 5,3 4.01,2.34 3.02,1.68 2,1 4,0 4,0 6,0 Z"
         fill="#d5d4d6"
         transform="translate(1108,946)"
         id="path25"
         style="stroke-width:13.1505;stroke-dasharray:none" /><path
         d="M 0,0 C -0.98742187,0.20496094 -1.9748438,0.40992188 -2.9921875,0.62109375 -4.2735156,0.89050781 -5.5548437,1.1599219 -6.875,1.4375 -8.1511719,1.7043359 -9.4273438,1.9711719 -10.742188,2.2460938 -13.864602,2.8347826 -13.864602,2.8347826 -16,4 c -2.008005,-0.2811206 -4.010141,-0.6106797 -6,-1 0,-0.33 0,-0.66 0,-1 2.915165,-0.5308479 5.831606,-1.04999055 8.75,-1.5625 0.825,-0.15146484 1.65,-0.30292969 2.5,-0.45898438 0.7992187,-0.13857421 1.5984375,-0.27714843 2.421875,-0.41992187 0.7331543,-0.13092041 1.4663086,-0.26184082 2.2216797,-0.39672852 C -3.8376671,-1.0124741 -2.1622142,-0.66874807 0,0 Z"
         fill="#abacac"
         transform="translate(384,482)"
         id="path26"
         style="stroke-width:13.1505;stroke-dasharray:none" /><path
         d="M 0,0 C 0.68359375,1.703125 0.68359375,1.703125 1,4 -0.21484375,6.359375 -0.21484375,6.359375 -1.9375,8.75 -2.5033984,9.5492188 -3.0692969,10.348437 -3.6523438,11.171875 -4.0970703,11.775156 -4.5417969,12.378438 -5,13 -5.33,12.34 -5.66,11.68 -6,11 -4.7851562,8.3984375 -4.7851562,8.3984375 -3.0625,5.375 -2.2136523,3.8706641 -2.2136523,3.8706641 -1.3476562,2.3359375 -0.90292969,1.5650781 -0.45820312,0.79421875 0,0 Z"
         fill="#d1d0d2"
         transform="translate(1112,978)"
         id="path27"
         style="stroke-width:13.1505;stroke-dasharray:none" /><path
         d="M 0,0 C 0.66,0.33 1.32,0.66 2,1 1.01,2.485 1.01,2.485 0,4 -0.99,3.67 -1.98,3.34 -3,3 -2.01,2.01 -1.02,1.02 0,0 Z m -4,4 c 0.66,0.66 1.32,1.32 2,2 -0.66,0 -1.32,0 -2,0 -0.66,2.97 -1.32,5.94 -2,9 -0.33,0 -0.66,0 -1,0 C -7.3692308,7.4923077 -7.3692308,7.4923077 -5.5,5 -5.005,4.67 -4.51,4.34 -4,4 Z"
         fill="#2e2e2f"
         transform="translate(105,782)"
         id="path28"
         style="stroke-width:13.1505;stroke-dasharray:none" /><path
         d="M 0,0 C 0.33,0 0.66,0 1,0 1.8827775,4.5181528 2.105895,8.7751269 2.0625,13.375 2.05348,14.620234 2.044453,15.865469 2.035156,17.148437 2.0235547,18.089453 2.0119531,19.030469 2,20 1.67,20 1.34,20 1,20 0.93941406,19.324531 0.87882813,18.649062 0.81640625,17.953125 0.73261719,17.061094 0.64882813,16.169062 0.5625,15.25 0.48128906,14.368281 0.40007813,13.486563 0.31640625,12.578125 0.0661507,10.054861 0.0661507,10.054861 -0.5625,7.875 -1.2060976,5.1167247 -0.56045077,2.7399816 0,0 Z"
         fill="#030302"
         transform="translate(901,546)"
         id="path29"
         style="stroke-width:13.1505;stroke-dasharray:none" /><path
         d="m 0,0 c 0,0.33 0,0.66 0,1 -6.9317146,2.2661375 -12.80798,1.8870158 -20,1 0,-0.33 0,-0.66 0,-1 6.688155,-0.62422779 13.2811505,-1.12920865 20,-1 z m -10,3 c 2,1 2,1 2,1 z"
         fill="#bcbdbd"
         transform="translate(441,474)"
         id="path30"
         style="stroke-width:13.1505;stroke-dasharray:none" /><path
         d="M 0,0 C 0.33,0 0.66,0 1,0 1.33,4.29 1.66,8.58 2,13 0.68,13 -0.64,13 -2,13 -1.34,8.71 -0.68,4.42 0,0 Z"
         fill="#c2c3c1"
         transform="translate(361,862)"
         id="path31"
         style="stroke-width:13.1505;stroke-dasharray:none" /><path
         d="m 0,0 c 0.33,0 0.66,0 1,0 1.2221319,5.0107409 0.5375488,8.1310954 -1,13 -0.36950465,2.327879 -0.71352467,4.660451 -1,7 -0.33,0 -0.66,0 -1,0 C -2.2640446,13.134841 -1.2584195,6.7415328 0,0 Z"
         fill="#a1a1a2"
         transform="translate(519,393)"
         id="path32"
         style="stroke-width:13.1505;stroke-dasharray:none" /><path
         d="M 0,0 C 1.6917348,6.0876819 -0.49701591,10.449905 -3,16 -4.4982887,12.117642 -3.4311058,9.5655071 -2.0625,5.75 -1.6822266,4.6723437 -1.3019531,3.5946875 -0.91015625,2.484375 -0.45962891,1.2546094 -0.45962891,1.2546094 0,0 Z"
         fill="#aaa9ab"
         transform="translate(507,347)"
         id="path33"
         style="stroke-width:13.1505;stroke-dasharray:none" /><path
         d="M 0,0 C 0,1.65 0,3.3 0,5 -1.65,5.66 -3.3,6.32 -5,7 -4.67,5.02 -4.34,3.04 -4,1 -1,0 -1,0 0,0 Z"
         fill="#e8e8e9"
         transform="translate(1114,941)"
         id="path34"
         style="stroke-width:13.1505;stroke-dasharray:none" /><path
         d="m 0,0 c 0.33,0 0.66,0 1,0 0,3.96 0,7.92 0,12 -1.65,-0.33 -3.3,-0.66 -5,-1 0.66,-1.32 1.32,-2.64 2,-4 0.33,0 0.66,0 1,0 0.33,-2.31 0.66,-4.62 1,-7 z"
         fill="#c6c7c6"
         transform="translate(721,468)"
         id="path35"
         style="stroke-width:13.1505;stroke-dasharray:none" /><path
         d="M 0,0 C 0.33,0.99 0.66,1.98 1,3 -0.21484375,5.0429687 -0.21484375,5.0429687 -1.9375,7.1875 -2.5033984,7.9029297 -3.0692969,8.6183594 -3.6523438,9.3554688 -4.0970703,9.8981641 -4.5417969,10.440859 -5,11 -5.66,10.67 -6.32,10.34 -7,10 -3.535,5.05 -3.535,5.05 0,0 Z"
         fill="#d3d2d4"
         transform="translate(1098,1003)"
         id="path36"
         style="stroke-width:13.1505;stroke-dasharray:none" /><path
         d="M 0,0 C 2,3 2,3 2,7 0,8.75 0,8.75 -2,10 -1.462741,6.6229437 -0.88935377,3.303314 0,0 Z"
         fill="#c9c9ca"
         transform="translate(529,344)"
         id="path37"
         style="stroke-width:13.1505;stroke-dasharray:none" /><path
         d="M 0,0 C 1,4 1,4 -0.4375,6.75 -1.2109375,7.86375 -1.2109375,7.86375 -2,9 -2.99,8.67 -3.98,8.34 -5,8 -3.35,5.36 -1.7,2.72 0,0 Z"
         fill="#212122"
         transform="translate(548,248)"
         id="path38"
         style="stroke-width:13.1505;stroke-dasharray:none" /><path
         d="M 0,0 C 3.7348778,0.4979837 5.8123763,0.87491756 9,3 8.67,3.66 8.34,4.32 8,5 5.525,4.01 5.525,4.01 3,3 3,2.34 3,1.68 3,1 2.01,0.67 1.02,0.34 0,0 Z"
         fill="#282928"
         transform="translate(332,750)"
         id="path39"
         style="stroke-width:13.1505;stroke-dasharray:none" /><path
         d="M 0,0 C 0.66,0.99 1.32,1.98 2,3 0.68,5.31 -0.64,7.62 -2,10 -3,8 -3,8 -2.4414063,6.0546875 -2.1513672,5.3353906 -1.8613281,4.6160937 -1.5625,3.875 -1.2750391,3.1505469 -0.98757813,2.4260938 -0.69140625,1.6796875 -0.46324219,1.1253906 -0.23507812,0.57109375 0,0 Z"
         fill="#bcbcbd"
         transform="translate(1132,929)"
         id="path40"
         style="stroke-width:13.1505;stroke-dasharray:none" /><path
         d="M 0,0 C 2,3.75 2,3.75 2,6 0.68,6 -0.64,6 -2,6 -2.33,4.68 -2.66,3.36 -3,2 -2.01,1.34 -1.02,0.68 0,0 Z"
         fill="#e6e6e6"
         transform="translate(505,672)"
         id="path41"
         style="stroke-width:13.1505;stroke-dasharray:none" /><path
         d="M 0,0 C 0.66,0.33 1.32,0.66 2,1 1.360625,1.268125 0.72125,1.53625 0.0625,1.8125 -2.3313169,2.8866775 -2.3313169,2.8866775 -3,6 -4.65,6.33 -6.3,6.66 -8,7 -5.4221515,4.35248 -3.083519,2.0556794 0,0 Z"
         fill="#e2e1e3"
         transform="translate(229,531)"
         id="path42"
         style="stroke-width:13.1505;stroke-dasharray:none" /><path
         d="M 0,0 C 1.98,0.99 3.96,1.98 6,3 5.01,3.66 4.02,4.32 3,5 2.34,5.99 1.68,6.98 1,8 0.67,5.36 0.34,2.72 0,0 Z"
         fill="#cfcfd0"
         transform="translate(891,485)"
         id="path43"
         style="stroke-width:13.1505;stroke-dasharray:none" /><path
         d="M 0,0 C 0.33,0 0.66,0 1,0 2.0070238,5.035119 1.9738781,8.2394704 0,13 -0.33,13 -0.66,13 -1,13 -1.0765454,8.483824 -1.102287,4.4091478 0,0 Z"
         fill="#a8a7a8"
         transform="translate(1151,845)"
         id="path44"
         style="stroke-width:13.1505;stroke-dasharray:none" /><path
         d="M 0,0 C 0.33,0 0.66,0 1,0 2.1202981,5.4894609 1.7921797,8.8343056 0,14 -0.33,14 -0.66,14 -1,14 -1.083334,9.1666528 -0.9526149,4.7630744 0,0 Z"
         fill="#bbbabb"
         transform="translate(492,407)"
         id="path45"
         style="stroke-width:13.1505;stroke-dasharray:none" /><path
         d="M 0,0 C 0.99,0 1.98,0 3,0 1.25,5.75 1.25,5.75 -1,8 -0.67,5.36 -0.34,2.72 0,0 Z"
         fill="#d2d1d2"
         transform="translate(908,404)"
         id="path46"
         style="stroke-width:13.1505;stroke-dasharray:none" /><path
         d="M 0,0 C 0.66,0.99 1.32,1.98 2,3 0.625,5.5 0.625,5.5 -1,8 -1.66,8 -2.32,8 -3,8 -1.125,2.25 -1.125,2.25 0,0 Z"
         fill="#dbdbdc"
         transform="translate(178,248)"
         id="path47"
         style="stroke-width:13.1505;stroke-dasharray:none" /></g></g><g
     inkscape:groupmode="layer"
     id="layer3"
     inkscape:label="Layer 3"
     style="display:inline;stroke:#000000;stroke-opacity:1;fill:none;fill-opacity:1"><path
       style="fill:none;fill-opacity:1;stroke:#000000;stroke-width:0.609946;stroke-opacity:1"
       d="M 21.184631,39.464633 C 17.987314,39.76089 14.80062,39.667858 11.904402,39.119977 L 11.123289,36.468306"
       id="path59"
       sodipodi:nodetypes="ccc" /><rect
       style="fill:none;fill-opacity:1;stroke:#000000;stroke-width:0.402047;stroke-opacity:1"
       id="rect57"
       width="0.031889342"
       height="0.0031912595"
       x="2.8636997"
       y="32.948456" /><rect
       style="fill:none;fill-opacity:1;stroke:#000000;stroke-width:0.539164;stroke-dasharray:none;stroke-opacity:1"
       id="rect51"
       width="1.2627157"
       height="0.26784879"
       x="10.192872"
       y="39.053173" /><ellipse
       style="fill:none;fill-opacity:1;stroke:#000000;stroke-width:0.539164;stroke-dasharray:none;stroke-opacity:1"
       id="path50"
       cx="10.805099"
       cy="39.378422"
       rx="1.1479234"
       ry="0.7461502" /><path
       style="fill:none;fill-opacity:1;stroke:#000000;stroke-width:0.601331;stroke-dasharray:none;stroke-opacity:1"
       d="M 2.2673083,32.636409 2.1858946,31.532985 2.2665319,7.5019194 C 2.415052,6.7236921 1.9116039,4.7279016 4.4437533,5.0626768 5.6013338,5.048431 6.8611298,5.9503389 8.2337318,7.8632893 L 11.620521,39.257256 v 0 L 11.732567,39.855041 8.2543678,8.0739005 C 7.335696,6.8703033 6.781958,5.4330764 4.3485295,5.1992248 2.3431535,4.8443345 2.4501267,6.0040433 2.2673147,6.9559707 Z"
       id="path52"
       sodipodi:nodetypes="ccccccccccc" /><path
       style="fill:none;fill-opacity:1;stroke:#000000;stroke-width:0.274982;stroke-opacity:1"
       id="path51"
       sodipodi:type="arc"
       sodipodi:cx="1.6791084"
       sodipodi:cy="32.969193"
       sodipodi:rx="1.2991425"
       sodipodi:ry="0.82083327"
       sodipodi:start="0"
       sodipodi:end="6.2507711"
       sodipodi:arc-type="arc"
       d="M 2.9782509,32.969193 A 1.2991425,0.82083327 0 0 1 1.6896359,33.789999 1.2991425,0.82083327 0 0 1 0.38013652,32.982495 1.2991425,0.82083327 0 0 1 1.6475285,32.148602 1.2991425,0.82083327 0 0 1 2.9775684,32.942591"
       sodipodi:open="true" /><rect
       style="fill:none;fill-opacity:1;stroke:#000000;stroke-width:0.539164;stroke-dasharray:none;stroke-opacity:1"
       id="rect52"
       width="1.1096592"
       height="0.076528221"
       x="10.28525"
       y="39.741928" /><rect
       style="fill:none;fill-opacity:1;stroke:#000000;stroke-width:0.580262;stroke-opacity:1"
       id="rect54"
       width="1.7190505"
       height="0.37980676"
       x="0.86741298"
       y="32.827106" /><rect
       style="fill:none;fill-opacity:1;stroke:#000000;stroke-width:0.460631;stroke-opacity:1"
       id="rect53"
       width="1.8960774"
       height="0.19332455"
       x="0.71193737"
       y="32.738594" /><rect
       style="fill:none;fill-opacity:1;stroke:#000000;stroke-width:0.385466;stroke-opacity:1"
       id="rect55"
       width="1.3313841"
       height="0.72563094"
       x="0.81984681"
       y="32.752422"
       transform="matrix(0.99996691,-0.00813505,0.00165817,0.99999863,0,0)" /><rect
       style="fill:none;fill-opacity:1;stroke:#000000;stroke-width:0.393369;stroke-opacity:1"
       id="rect56"
       width="1.4276419"
       height="0.97803849"
       x="0.97485334"
       y="32.465813" /><path
       style="fill:none;fill-opacity:1;stroke:#000000;stroke-width:0.668575;stroke-opacity:1"
       d="M 12.037471,16.89396 C 6.51203,17.564727 0.41149806,20.502026 5.4698829,26.239487 m 9.2868091,3.120162 C 11.857237,28.985104 5.5316495,27.802258 4.1256164,24.512373"
       id="path57"
       sodipodi:nodetypes="cccc" /><path
       style="fill:none;fill-opacity:1;stroke:#000000;stroke-width:0.631612;stroke-opacity:1"
       d="M 10.721675,32.655422 V 32.518585 M 3.7361496,28.873565 3.6856734,28.550117 3.584721,27.169242 v -0.696664 l 0.010141,-0.447853 0.01014,-0.534933 3.3e-6,-0.957906 -5.83e-5,-1.368435 -0.040383,0.945463 0.06057,4.96369 -0.01014,5.150293 c 0.2808297,0.599847 -0.1545577,0.583245 1.6858117,2.525386 1.727086,1.52556 3.5956324,2.105373 5.7943483,2.662231 l 0.262492,-0.01248 -0.504733,-5.299537 -0.131232,-1.443079"
       id="path58"
       sodipodi:nodetypes="cccccccccccccccccc" /><path
       style="fill:none;fill-opacity:1;stroke:#000000;stroke-width:0.635224;stroke-dasharray:none;stroke-opacity:1"
       d="m 44.704389,37.244895 c -2.78128,5.754418 -7.183653,8.904111 -16.018484,4.931871 -11.864266,-7.327493 -16.933,-24.730082 -13.13143,-32.8645905 4.431418,-10.9063852 15.136067,-10.4953261 23.981158,0.5673851 3.15195,5.2118064 9.368313,16.9297434 5.168756,27.3653344 z"
       id="path48"
       sodipodi:nodetypes="ccccc" /><path
       style="fill:none;fill-opacity:1;stroke:#000000;stroke-width:0.636365;stroke-dasharray:none;stroke-opacity:1"
       d="M 20.964162,2.5989286 C 2.7867285,12.706635 16.660922,39.964583 27.283633,44.519584 53.561298,56.138812 48.939587,12.955894 33.795392,4.2797011"
       id="path49"
       sodipodi:nodetypes="ccc" /><path
       style="fill:none;fill-opacity:1;stroke:#000000;stroke-width:0.654688;stroke-opacity:1"
       d="m 18.933556,11.967935 c 4.807574,-0.437766 5.841638,2.937217 7.232272,6.149479 0.165096,0.148444 -0.114257,0.480032 -0.306932,0.628478 -1.867415,-1.199849 -1.347675,-1.064538 -2.050983,-1.625424 l -2.828938,-2.667069 -2.121703,-2.174864 z"
       id="path69"
       sodipodi:nodetypes="ccccccc" /><path
       style="fill:none;fill-opacity:1;stroke:#000000;stroke-width:0.691909;stroke-opacity:1"
       d="m 20.772458,20.797152 4.292824,3.945101 1.562143,0.808624 c 1.412615,0.19654 -1.039738,-3.243324 -1.402241,-3.540789 -0.88991,-0.779935 -1.403404,-1.740938 -2.841379,-2.217591 -2.247463,-0.718254 -2.970008,-0.497545 -1.611347,1.004655 z"
       id="path70"
       sodipodi:nodetypes="cccccc" /><path
       style="fill:none;fill-opacity:1;stroke:#000000;stroke-width:0.560181;stroke-dasharray:none;stroke-opacity:1"
       d="m 21.10913,27.874557 6.67957,6.123471 c 2.219128,2.360987 1.938017,1.1303 1.115305,-0.878419 -1.299804,-1.927525 -2.213992,-4.158916 -4.38768,-5.39782 -2.427643,-1.983696 -6.028493,-2.201518 -3.407195,0.152768 z"
       id="path71"
       sodipodi:nodetypes="ccccc" /><path
       style="display:inline;fill:none;fill-opacity:1;stroke:#000000;stroke-width:0.652371;stroke-opacity:1"
       d="m 29.10243,9.7456606 c -2.602441,-1.3685761 -2.156606,-0.3296481 -1.677885,0.8738284 1.235205,1.596419 2.218823,3.296565 2.516829,5.279385 l 1.600614,8.337788 c 0.384153,0.760631 0.682313,0.457616 0.949329,-0.230593 0.154281,-2.293345 -0.106581,-4.604246 -0.717516,-6.92995 -0.261955,-0.222352 0.531616,0.287339 1.026602,0.351957 l 0.872056,-0.849556 c 0.312765,-0.498165 0.625528,0.946649 0.938293,1.419972 0.70733,1.903773 0.974316,3.968923 1.446073,5.959031 0.520889,3.536615 0.634389,7.172765 0.629206,10.837911 0.108977,0.931488 0.29624,1.608061 1.159066,0.08496 0.59405,-2.22496 0.377147,-4.792842 0.231813,-7.330459 -0.257412,-2.684859 -0.673271,-5.378013 -1.545421,-8.095058 0.08215,-2.277636 -0.372389,-3.582751 -1.170104,-4.344873 -0.691754,-0.926617 -1.273531,-1.879814 -2.32917,-2.026798 -0.291633,-0.15867 -0.449417,0.76184 -0.662324,1.237925 -0.760837,0.659113 -1.235727,0.701106 -1.203219,-0.351959 C 30.978559,12.816925 30.84983,11.659425 30.140069,10.825809 29.983297,10.537352 29.489381,10.160652 29.10243,9.7456606 Z"
       id="path72"
       sodipodi:nodetypes="cccccccccccccccccccc" /><path
       style="font-variation-settings:'wght' 800;fill:none;stroke:#000000;stroke-width:0.612489;stroke-linejoin:round;stroke-dasharray:none"
       d="m 3.5773946,27.832418 c 0.7401192,1.200633 1.907569,4.582575 12.8272724,5.161917"
       id="path53"
       sodipodi:nodetypes="cc" /><path
       style="font-variation-settings:'wght' 800;display:inline;fill:none;fill-opacity:1;stroke:#000000;stroke-width:0.612489;stroke-linejoin:round;stroke-dasharray:none;stroke-opacity:1"
       d="m 3.5773945,30.753625 c 0.3001828,1.970374 3.6976912,5.971449 14.9252795,5.562851"
       id="path53-8"
       sodipodi:nodetypes="cc" /></g></svg>
