<?xml version="1.0" encoding="UTF-8"?>
<svg id="Layer_1" data-name="Layer 1" xmlns="http://www.w3.org/2000/svg" viewBox="0 0 47.9 47.76">
  <defs>
    <style>
      .cls-1, .cls-2 {
        stroke-linecap: square;
        stroke-width: 2px;
      }

      .cls-1, .cls-2, .cls-3, .cls-4 {
        fill: none;
      }

      .cls-1, .cls-2, .cls-3, .cls-4, .cls-5 {
        stroke: #000000;
      }

      .cls-1, .cls-3, .cls-4, .cls-5 {
        stroke-linejoin: round;
      }

      .cls-2 {
        stroke-linejoin: bevel;
      }

      .cls-3 {
        stroke-width: .75px;
      }

      .cls-3, .cls-4, .cls-5 {
        stroke-linecap: round;
      }

      .cls-4, .cls-5 {
        stroke-width: .5px;
      }

      .cls-5 {
        fill: #000000;
      }
    </style>
  </defs>
  <path class="cls-3" d="M2.78,31.35c2.58-3.4,9.89-5.57,14.4-8.52,9.35-6.11,7.28-14.34,12-19.7.02-.22-.31-1.72-.34-1.94s-.02-.45.12-.63.43-.26.61-.12c.32.25.48,1.07.81,1.32"/>
  <path class="cls-3" d="M45.93,9.28c.25-.14.51-.27.8-.32s.77-.05.8.22c.05.49-.54,1.53-.8,1.66"/>
  <path class="cls-3" d="M45.89,9.31c-5.35-3.75-8.44-6.1-15.51-7.55"/>
  <path class="cls-3" d="M1.86,32.91c1.36,5.15,11.88,14.05,18.75,12.68.19.29.26.63.37.95s.31.64.63.79.81.02.89-.31c.15-.64.31-1.31.47-1.95"/>
  <path class="cls-3" d="M46.73,10.84c2.92,12.53-8.24,29.44-23.75,34.22"/>
  <path class="cls-3" d="M2.7,31.36c-.49-.35-1.48-.76-2.08-.63-.28.06-.44,1.03.19,1.52.45.35.97.61.97.61"/>
  <path class="cls-4" d="M28.08,8.14c.26-.72.89-1.31,1.66-1.57s1.67-.17,2.36.23"/>
  <path class="cls-4" d="M40.65,11.22c1.08-.13,2.21.15,3.09.74s1.5,1.51,1.69,2.5"/>
  <path class="cls-4" d="M32.11,6.87c1.45,2.69,2.5,5.56,3.11,8.51"/>
  <path class="cls-4" d="M40.54,11.32l-5.17,4.05"/>
  <path class="cls-4" d="M28.02,8.27c2.13,5.67.91,12.32-3.12,17.02-4.03,4.71-10.75,7.32-17.21,6.7,3.95.96,9.67,4.06,10.69,3.12"/>
  <path class="cls-4" d="M32.98,26.45c-2.72,3.87-7.38,6.52-12.35,7.01-1.17.12-2.16-.55-2.27,1.66"/>
  <path class="cls-4" d="M7.68,31.99c-4.38,1.95,4.58,11.26,6.27,8.61"/>
  <path class="cls-4" d="M45.53,14.74c-4.55,2.27-8.45,5.67-11.16,9.74-4.78,7.16-12.19,13.21-20.62,16.36"/>
  <path class="cls-4" d="M7.35,32.17c2.85-.29,8.13,3.38,6.6,8.43"/>
  <path class="cls-2" d="M26.2,21.78c-1.3-.72-3.4.95-3.83,2.22-.49,1.45-.28,2.94-.42,4.64-.12,1.47-.66,3.53-.1,4.84"/>
  <path class="cls-5" d="M21.41,32.72c.27-.42,1-.48,1.39-.15s.44.94.15,1.36-.83.65-1.36.65c-.56,0-1.07-.46-1.07-.98s.5-.99,1.06-.99"/>
  <path class="cls-1" d="M38.89,20.62c2.16,1.88-.09,4.29.47,7.17-3,.91-4.45,1.1-6.14-.25"/>
  <path class="cls-4" d="M28.18,8.36c1.44.42,3.16-.2,3.91-1.42"/>
  <path class="cls-4" d="M40.75,11.26c1.11,1.36,2.61,2.44,4.3,3.11"/>
  <line class="cls-4" x1="26.2" y1="19.61" x2="30.38" y2="18.61"/>
  <line class="cls-4" x1="28.54" y1="20.61" x2="32.72" y2="19.61"/>
  <line class="cls-4" x1="30.89" y1="21.41" x2="35.07" y2="20.42"/>
  <line class="cls-4" x1="33.96" y1="22.11" x2="38.14" y2="21.11"/>
</svg>
