<?xml version="1.0" encoding="UTF-8" standalone="no"?>
<svg
   id="Digital_Files"
   data-name="Digital Files"
   viewBox="0 0 48 48"
   version="1.1"
   sodipodi:docname="Digital Files.svg"
   inkscape:version="1.4.4 (dcaf3e7, 2026-05-05)"
   xmlns:inkscape="http://www.inkscape.org/namespaces/inkscape"
   xmlns:sodipodi="http://sodipodi.sourceforge.net/DTD/sodipodi-0.dtd"
   xmlns="http://www.w3.org/2000/svg"
   xmlns:svg="http://www.w3.org/2000/svg">
  <sodipodi:namedview
     id="namedview12"
     pagecolor="#ffffff"
     bordercolor="#000000"
     borderopacity="0.25"
     inkscape:showpageshadow="2"
     inkscape:pageopacity="0.0"
     inkscape:pagecheckerboard="0"
     inkscape:deskcolor="#d1d1d1"
     inkscape:zoom="8"
     inkscape:cx="16.125"
     inkscape:cy="54.8125"
     inkscape:window-width="1704"
     inkscape:window-height="1401"
     inkscape:window-x="1699"
     inkscape:window-y="0"
     inkscape:window-maximized="0"
     inkscape:current-layer="g3" />
  <defs
     id="defs1">
    <style
       id="style1">
      .cls-1, .cls-2 {
        fill: none;
      }

      .cls-1, .cls-2, .cls-3 {
        stroke-linecap: round;
        stroke-linejoin: round;
      }

      .cls-1, .cls-3 {
        stroke: #000;
        stroke-width: .75px;
      }

      .cls-4 {
        fill: #000000;
      }

      .cls-2 {
        stroke: #000000;
      }
    </style>
  </defs>
  <g
     id="g3">
    <polygon
       class="cls-2"
       points="33.82 1.53 2.53 1.53 2.53 46.42 33.82 46.42 45.97 46.42 45.97 8.3 33.82 1.53"
       id="polygon1" />
    <rect
       class="cls-2"
       x="6.26"
       y="1.53"
       width="23.28"
       height="14.5"
       id="rect1"
       style="stroke:#000000;stroke-opacity:1" />
    <rect
       class="cls-2"
       x="9.92"
       y="23.49"
       width="28.66"
       height="22.52"
       id="rect2" />
    <rect
       class="cls-2"
       x="21.17"
       y="4.78"
       width="4.01"
       height="8.01"
       id="rect3" />
  </g>
  <g
     id="g12">
    <path
       class="cls-1"
       d="M19.53,45.73c-1.25-1.85-1.98-4.09-1.98-6.49,0-6.41,5.2-11.61,11.61-11.61,3.77,0,7.13,1.8,9.25,4.59"
       id="path5" />
    <polyline
       class="cls-1"
       points="18.35 43.46 24.85 37.02 29.27 44.22 33.58 37.02 38.58 41.68"
       id="polyline5" />
    <path
       class="cls-1"
       d="M18.66,46.01c-.11-.82-.22-1.67-.31-2.55"
       id="path6" />
    <path
       class="cls-1"
       d="M20.4,28.53s-1.62-.99-4.21,2.24c-1.38,1.72-4.06,6.35-6.19,10.8"
       id="path7" />
    <path
       class="cls-3"
       d="M20.72,31.26l-.23-4.4,2.83.07.09,2.03s-2.29,1.47-2.69,2.29Z"
       id="path8" />
    <path
       class="cls-1"
       d="M37.61,28.53s.35-.21.98-.12"
       id="path9" />
    <path
       class="cls-3"
       d="M37.29,30.85l.23-4.4-2.83.07-.09,2.03s2.29,1.47,2.69,2.29Z"
       id="path10" />
    <path
       class="cls-3"
       d="M17.61,38.11l-2.52.36.83,5.78,2.75-.02s-1.8-5.87-1.07-6.11Z"
       id="path11" />
    <line
       class="cls-1"
       x1="21.17"
       y1="42.94"
       x2="26"
       y2="42.94"
       id="line11" />
    <line
       class="cls-1"
       x1="32.44"
       y1="42.94"
       x2="37.27"
       y2="42.94"
       id="line12" />
  </g>
  <path
     style="font-variation-settings:'wght' 800;fill:none;stroke-width:0;stroke-linejoin:round"
     d="M 10.16837,1.5084945 10.22424,15.922997"
     id="path12" />
  <path
     style="font-variation-settings:'wght' 800;fill:none;stroke-width:1;stroke-linejoin:round;stroke:#000000;stroke-opacity:1;stroke-dasharray:none"
     d="M 10.615331,1.5084945 V 16.314088"
     id="path13" />
</svg>
