<?xml version="1.0" encoding="UTF-8"?>
<svg id="Layer_2" data-name="Layer 2" xmlns="http://www.w3.org/2000/svg" viewBox="0 0 47.46 45.49">
  <defs>
    <style>
      .cls-1 {
        stroke: #fff;
      }

      .cls-1, .cls-2 {
        fill: #fff;
      }

      .cls-1, .cls-3, .cls-4 {
        stroke-linecap: round;
        stroke-linejoin: round;
        stroke-width: .5px;
      }

      .cls-3 {
        fill: none;
      }

      .cls-3, .cls-4 {
        stroke: #000000;
      }

      .cls-4 {
        fill: #000000;
      }
    </style>
  </defs>
  <path class="cls-3" d="M17.17,11.51c-.78,2.06-.95,4.11-.2,6.17s2.26,3.8,4.12,4.73"/>
  <path class="cls-3" d="M21.05,22.38c-1.04-3.8-.81-8,.59-11.42,3.06,1.49,5.55,4.31,6.78,7.68s1.19,7.27-.1,10.62"/>
  <path class="cls-3" d="M17.09,11.51c-2.9,1.92-4.97,5.24-5.54,8.86s.37,7.5,2.52,10.35"/>
  <path class="cls-3" d="M10.26,13.71c-1.45,2.8-2.04,6.08-1.31,9.18s2.6,6.13,5.12,7.83"/>
  <path class="cls-3" d="M33.49,17.61c.35,4.41-1.59,8.96-4.93,11.52"/>
  <path class="cls-3" d="M32.2,16.49c1.72.97,3.46,2.62,4.16,4.58"/>
  <path class="cls-3" d="M22.48,4.3c.99-.83,2.38-.93,3.58-.53s2.22,1.24,3.15,2.15c3.98,3.89,6.58,9.39,7.16,15.15"/>
  <path class="cls-3" d="M22.14,4.92c.34.05.34.65.05.85s-.66.11-1,.03-.72-.15-.99.06c.26.36.52.73.78,1.09"/>
  <path class="cls-3" d="M20.26,7.73c-.39-.03-.72.48-.56.86"/>
  <path class="cls-3" d="M22.65,4.05c-1.31-1.09-3.09-1.47-4.69-1.01-6.46,1.86-11.57,8.27-12.32,15.45.74-1.96,2.3-3.53,4.15-4.2"/>
  <path class="cls-3" d="M34.66,7.78c1.45-.3,3.02.78,3.49,2.4,1.88,6.43,5.05,12.38,9.06,17.34"/>
  <path class="cls-3" d="M47.21,27.52c-1.05-.18-2.1-.36-3.03-.51,1.65,1.36,2.67,3.47,2.7,5.63s-.91,4.31-2.51,5.72"/>
  <path class="cls-3" d="M39.93,32.39c-.08,1.35.32,2.72,1.11,3.81s1.96,1.88,3.25,2.2"/>
  <path class="cls-3" d="M34.29,18.03c2.9,6,4.26,11.55,3.79,18.28,1.02-.7,1.71-1.79,1.89-2.96"/>
  <path class="cls-4" d="M36.01,17.94c.37-1.72.86-3.95,1.24-5.67-1.06-3.15-2.56-6.27-4.41-9.13-.73.09-1.48.12-2.23.14-.47.89-.94,1.77-1.43,2.88,3.74,2.68,6.24,6.9,6.83,11.7"/>
  <path class="cls-4" d="M30.26,27.79c1.44.85,3.4.49,4.49-.84,1.09-1.32,1.2-3.47.25-4.92.05-.6.22-1.08.45-1.64-.33-.99-.92-1.88-1.68-2.53.03,3.63-1.26,7.25-3.54,9.92"/>
  <path class="cls-4" d="M25.65,20.35c-.82-.37-1.79-.21-2.5.41s-1.12,1.68-1.08,2.72c.05,1.16.13,2.39.68,3.36.55.96,1.77,1.48,2.54.75.94-.89,1.52-2.28,1.56-3.71s-.24-2.97-1.09-3.51"/>
  <path class="cls-3" d="M22.66,18.03c1.86-.39,3.88.4,5.08,1.98"/>
  <path class="cls-3" d="M15.98,17.65c-1.58-.02-3.13.99-3.85,2.5"/>
  <path class="cls-4" d="M14.69,20.54c-.77.66-1.11,1.24-1.14,2.34s.09,2.31.59,3.3,1.48,1.59,2.38,1.32,1.35-1.47,1.39-2.64c.02-.7-.06-1.55-.09-2.28s-.19-1.4-.57-1.94-2.39-.52-2.7.03"/>
  <path class="cls-3" d="M29.31,24.59c-1.12,3.39-4.33,5.81-7.62,5.71"/>
  <path class="cls-3" d="M11.55,24.59c.85,3.12,3.74,5.8,6.8,5.72"/>
  <path class="cls-3" d="M17.91,36.52c.54.77,1.08,1.54,1.62,2.31"/>
  <path class="cls-3" d="M23.07,36.67c-.93,1.07-2.16,1.84-3.48,2.17"/>
  <path class="cls-3" d="M21.55,31.86c.52,1.6,1.07,3.26,1.59,4.7"/>
  <path class="cls-3" d="M15.87,36.52l.64,1.01"/>
  <path class="cls-3" d="M17.91,36.52l-1.35,1.14"/>
  <path class="cls-3" d="M15.94,36.91c-.15.33-.31.65-.33,1.01,1.1,1,2.5,1.59,3.94,1.66s2.88-.4,4.05-1.3"/>
  <path class="cls-3" d="M22.93,37l.62,1.29"/>
  <path class="cls-3" d="M22.07,39.26c-.37,1.46-.81,3.11-1.18,4.57"/>
  <path class="cls-3" d="M19.74,39.81l.5,4.01c.3,0,.35,0,.66,0"/>
  <path class="cls-3" d="M17.04,39.05l1.81,4.82"/>
  <path class="cls-3" d="M19.69,39.74c-.13,1.31-.03,2.77-.16,4.08"/>
  <path class="cls-3" d="M18.87,43.9c.17,0,.49-.07.66-.07"/>
  <path class="cls-3" d="M17.91,41.29c.47.01,1.31-.02,1.78,0"/>
  <path class="cls-3" d="M19.94,41.19c.62.02.98.08,1.61.1"/>
  <path class="cls-3" d="M25.79,40.4c.98-2.18,1.96-4.35,2.93-6.53.65-.49,1.84-1.61,1.84-1.61,0,0-.24-.46-.45-.66-.14-.13-.3-.17-.39-.09l-.97.69c.08-.7.05-1.18.09-1.82.02-.2-.17-.48-.36-.53-.17-.05-.32-.11-.48-.17-.24-.08-.4.08-.37.37.12,1.01.23,2.03.32,3.13-1.19,2.02-2.38,4.03-3.57,6.05l.07-.19c-.14.34.12,1,.51,1.33s.84.26.89-.15"/>
  <path class="cls-4" d="M8.43,10.51c-.06-.46-.07-1.03-.16-1.5,1.34-2.68,2.68-4.91,4.03-7.13.91-.8,1.8-1.21,2.68-1.62.52,1.01,1.05,2.03,1.58,3.18-3.2,1.56-6.02,4-8.15,7.01"/>
  <path class="cls-4" d="M14.96,43.31c3.08,1.6,6.73,1.62,9.64,0,0,0-2.06-.91-3.18-1.01,0,0-.23,1.02-.43,1.51-.27,0-.53,0-.84,0-.08-.5-.28-1.04-.34-1.54-.08.48-.04.99-.12,1.48-.37.02-.73.04-1.08.04-.15-.52-.29-1.05-.48-1.56,0,0-2.23.33-3.19.93"/>
  <path class="cls-4" d="M14.96,43.31c1.55.85,3.02,1.31,4.83,1.3,1.81,0,3.32-.46,4.82-1.3l-.06.91c-3.16,1.28-6.46,1.48-9.59-.08v-.99"/>
  <path class="cls-3" d="M10.11,5.37c-1.49-.05-2.91,1.25-3.17,2.9-1,6.56-3.37,12.86-6.69,18.34"/>
  <path class="cls-3" d="M.25,26.61c.9-.32,1.79-.65,2.59-.93-1.26,1.55-1.86,3.76-1.6,5.86s1.38,4.06,2.98,5.2"/>
  <path class="cls-3" d="M7.29,30.31c.25,1.3.09,2.69-.46,3.86s-1.46,2.11-2.55,2.6"/>
  <path class="cls-3" d="M8.95,22.89c-.86,5.59-.76,5.32.42,10.96-.93-.46-1.64-1.29-1.92-2.26"/>
  <line class="cls-3" x1="19.34" y1="31.86" x2="17.91" y2="36.52"/>
  <path class="cls-4" d="M18.27,30.72c-1.42.73-4.05,4.39-4.05,4.39,0,.78.72,1.41,1.38,1.41h.26c.98-1.73,1.83-3.31,2.69-4.89l-.57.99c-.53.27-1.07-.34-1.41-.39"/>
  <path class="cls-3" d="M14.28,35.72c-1.32,1.66.85,2.86,1.82.53"/>
  <path class="cls-4" d="M22.07,30.31c1.45.2,5.26,3.18,5.26,3.18.25.73-.66,1.75-1.66,2.15,0,0-3.01-2.72-3.01-2.72l.15-.08c.55-.16.84-1.42.79-1.71"/>
  <line class="cls-3" x1="18.67" y1="31.03" x2="18.55" y2="31.63"/>
  <line class="cls-3" x1="21.49" y1="30.86" x2="21.55" y2="31.86"/>
  <line class="cls-3" x1="22.8" y1="33.05" x2="21.55" y2="31.86"/>
  <line class="cls-3" x1="18.94" y1="30.82" x2="19.34" y2="31.86"/>
  <line class="cls-3" x1="21.55" y1="30.82" x2="19.34" y2="31.86"/>
  <path class="cls-3" d="M18.27,30.72s1.53,0,3.42,0"/>
  <line class="cls-3" x1="18.87" y1="27.06" x2="18.28" y2="30.72"/>
  <line class="cls-3" x1="21.09" y1="27.18" x2="18.87" y2="27.06"/>
  <line class="cls-3" x1="21.69" y1="30.72" x2="21.09" y2="27.18"/>
  <ellipse class="cls-2" cx="16.49" cy="26.3" rx=".52" ry=".87"/>
  <ellipse class="cls-2" cx="25.3" cy="26.3" rx=".58" ry=".82"/>
  <ellipse class="cls-1" cx="23.53" cy="22.78" rx=".67" ry="1.13"/>
  <ellipse class="cls-2" cx="14.69" cy="22.78" rx=".85" ry="1.36"/>
  <line class="cls-3" x1="19.98" y1="32.98" x2="21.69" y2="32.84"/>
</svg>
