<?xml version="1.0" encoding="UTF-8"?>
<svg xmlns="http://www.w3.org/2000/svg" viewBox="0 0 48.09 49.61">
  <defs>
    <style>
      .cls-1, .cls-2, .cls-3 {
        stroke: #000;
        stroke-linecap: round;
        stroke-linejoin: round;
      }

      .cls-1, .cls-3 {
        stroke-width: .5px;
      }

      .cls-2 {
        stroke-width: .75px;
      }

      .cls-2, .cls-3 {
        fill: none;
      }
    </style>
  </defs>
  <g id="Layer_2" data-name="Layer 2">
    <path class="cls-1" d="M13.88,13.88v.09c-.65.27-1.31.56-1.96.87-.84.4-1.68.85-2.51,1.34-.29.16-.57.33-.85.5-.37,1.18-3.42,5.79-4.12,6.53-.4.44-.73.76-1.06.34-.27-.34-4.03-3.61-2.34-5.1,2.2-1.94,2.32-2.38,4.28-4.17-1.09-.48-4.06-.66-4.79-1.27-.44-.8-.13-2.99-.27-4.21-.08-.71.43-1.29.96-1.09,2.14.81,4.49,1.55,6.92,3.09.48-.23.96-.45,1.44-.66.78-.37,1.56-.71,2.34-1.04.39-.17.77-.33,1.16-.48.13.19.22.47.28.75h0s.02.06.02.1c.3,1.41.42,2.89.5,4.41Z"/>
    <path class="cls-1" d="M29.36,10.04c-2.83.34-9.08,1.95-11.87,2.45-.23-1.81-.44-3.51-.57-5.33,2.48-.72,8.89-3.35,11.42-3.86.71-.14,1.43.32,1.71.99s.2,1.43.1,2.15c-.18,1.24-.47,2.38-.78,3.6Z"/>
    <path class="cls-1" d="M47.25,2.01c.62,1.27.64,5.2.54,5.4v-.03c-1.14.37-.55.21-1.76.27-.02-2.01-.17-4.01-.35-6,1.57.36.36.18,1.57.36.01,0,.02,0,.03.01"/>
  </g>
  <g id="Layer_3" data-name="Layer 3">
    <path class="cls-3" d="M9.41,16.18c.83-.49,1.67-.94,2.51-1.34-.03.3.4,3.93-1.01,3.93-.62,0-1.33-2.07-1.5-2.59Z"/>
    <path class="cls-3" d="M20.3,42.76c-.39-.3-1.38-.82-2.06-1.31-.12-.09-.22-.17-.3-.24-.18-.15-.31-.31-.35-.44-.08.82-.88,5.72-1.44,6.18-.78-1.44-1.88-3.27-1.73-6.25-.48,1.77-1.8,2.05-2.99,2.82,2.87-9.37,2.75-17.83,2.52-27.53-.01-.56-.03-1.13-.04-1.69-.01-.11-.02-.23-.03-.33v-.09c-.08-1.52-.2-3-.5-4.41,0-.04-.02-.06-.02-.09h0c-.06-.29-.15-.57-.28-.76-.07-.11-.15-.19-.25-.23-.3-.11-.65.15-.88.52-.02.03-.03.1-.03.19-.78.33-1.56.67-2.34,1.04.34-2.19.79-4.03,1.36-4.98.84-1.38,2.83-5.35,5.64-1.58.01.07.03.14.04.23.05.29.09.67.15,1.11.01.14.02.26.03.39.01.17.02.33.04.49.02.11.02.23.02.34.02.36.04.72.06,1.02.01.12.01.23.02.33.01.03,0,.06.01.09v.17c.02.08.02.22.03.32.08,1.16.21,2.27.35,3.33.04.37.1.73.16,1.09,0,.06.01.12.02.19,0,.01,0,.02,0,.03.37,2.23.81,4.33,1.25,6.45.6,2.89,1.17,5.82,1.42,9.24.02.17.03.33.04.49.13,1.92-.31,4.01-.42,5.98l-.03.1h0s.01.08.01.11c.01.02.01.03,0,.04-.03.69-.03,1.36.06,2.02.01.12.03.24.06.41h0c.09.62.25,1.51.37,2.41.01.07.02.14.03.2.23,1.47.36,2.87-.01,2.6Z"/>
    <path class="cls-2" d="M37.9,15.71c-.1,2.73-.2,5.45-.3,8.18-.03.76-.06,1.53-.24,2.27-.43,1.7-1.67,3.22-1.56,4.97"/>
  </g>
  <g id="Layer_4" data-name="Layer 4">
    <path class="cls-2" d="M45.69,15.2c-.21,4.05.07,8.14.2,12.21.16,5.72.02,11.41-.52,17.07-.04.39-.31.74-.75.85-.47.1-.96.02-1.46-.06-.57-.09-1.15-.19-1.67-.38-.62-.23-1.16-.57-1.7-.86-2.75-1.43-6.37-1.65-9.13-.56-1.14.46-2.32,1.14-3.59.84.15-.32.3-.74.46-1.25,1.25-4.27,2.36-14.36,2.59-15.21,1.75-6.57-1.2-9.24-.49-17.84v-.06h.01c.01-.13.04-.31.07-.52.26-1.54.97-4.76.3-5.48-.21-.22-.43-.45-.68-.64-.73.04-1.7.05-2.49.08-.01.01-.04.01-.05.01-.14,0-.27,0-.39.02.05-.35.48-.59.64-.86.44-.78,1.76-1.04,2.72-1.29,4.83-1.25,10.28-1.19,15.27.2h.01c.2.06.42.12.63.18.12.67.19,1.34.23,2.02.07,1.13.07,2.27.14,3.35.02.34.05.68.05,1.02.01.63,0,1.26-.02,1.88-.07,1.76-.27,3.51-.36,5.28Z"/>
    <path class="cls-2" d="M25.23,10.63c-.16.92-.18,1.29-.14,2.24.05,1.38.4,2.77.73,4.13.31,1.26.63,2.54.95,3.8.62,2.54.71,5.15.52,7.71-.39,5.09-1.9,10.05-4.4,14.49,1.17.29,3.37.27,4.52.05"/>
    <path class="cls-2" d="M33.21,39.89c2.03-1.47,4.17-2.18,6.21-2.08"/>
  </g>
</svg>