<?xml version="1.0" encoding="UTF-8" standalone="no"?>
<!-- Created with Inkscape (http://www.inkscape.org/) -->

<svg
   width="48"
   height="48"
   viewBox="0 0 48 48"
   version="1.1"
   id="svg1"
   xml:space="preserve"
   inkscape:version="1.4.2 (f4327f4, 2025-05-13)"
   sodipodi:docname="Game_miku(2).svg"
   xmlns:inkscape="http://www.inkscape.org/namespaces/inkscape"
   xmlns:sodipodi="http://sodipodi.sourceforge.net/DTD/sodipodi-0.dtd"
   xmlns="http://www.w3.org/2000/svg"
   xmlns:svg="http://www.w3.org/2000/svg"><sodipodi:namedview
     id="namedview1"
     pagecolor="#ffffff"
     bordercolor="#000000"
     borderopacity="0.25"
     inkscape:showpageshadow="2"
     inkscape:pageopacity="0.0"
     inkscape:pagecheckerboard="0"
     inkscape:deskcolor="#d1d1d1"
     inkscape:document-units="px"
     inkscape:zoom="22.627417"
     inkscape:cx="30.980116"
     inkscape:cy="48.591494"
     inkscape:window-width="2558"
     inkscape:window-height="2113"
     inkscape:window-x="-8"
     inkscape:window-y="0"
     inkscape:window-maximized="0"
     inkscape:current-layer="layer2" /><defs
     id="defs1" /><g
     inkscape:label="Layer 1"
     inkscape:groupmode="layer"
     id="layer1"
     style="display:inline" /><g
     inkscape:groupmode="layer"
     id="layer2"
     inkscape:label="Layer 4"
     transform="translate(-63.375,-1.75)"><path
       style="display:inline;fill:none;stroke:#000000;stroke-width:0.5;stroke-dasharray:none;stroke-opacity:1"
       d="m 63.659569,22.497306 0.141939,16.181028 6.635641,-0.07097 0.07097,-14.726154 h 3.0162 l -0.106454,-14.8680937 5.145282,0.070969 0.03548,4.3291347 3.016205,0.03548 -0.07097,4.116231 11.638986,-0.07097 -0.07097,-3.938802 h 3.229109 l -0.03548,-4.5775274 5.109793,0.070969 -0.0355,14.7261554 h 3.0517 l -0.0355,15.081001 6.60017,-0.212908 -0.0355,-16.57136 h -3.69039 l 0.0355,-4.754951 -2.87428,-0.03548 0.071,-4.045261 h -2.94526 l -0.0355,-4.2936501 -5.251722,0.035485 c 0,0.1419385 0.03548,4.5775271 0.03548,4.5775271 l -3.19362,0.03548 0.141939,3.974292 -11.461561,-0.177423 -0.07097,-4.009772 -3.122654,-0.03549 -0.141939,-4.1871909 -5.003344,0.070969 0.03548,4.4355889 -3.12265,-0.03548 v 3.974283 0 l -2.874261,-0.03548 -0.03548,4.577523 -3.796869,-0.0089 z"
       id="path21" /><path
       style="fill:none;stroke:#000000;stroke-width:0.5;stroke-dasharray:none;stroke-opacity:1"
       d="m 70.343961,38.628332 h 12.407737 l -0.03764,-6.53633 1.731314,-0.01255 v -1.204387 h 1.35494 l 0.02509,-1.681129 3.048616,0.02509 0.01255,1.894408 1.530576,0.01255 -0.01254,1.053838 1.36748,-0.02509 v 6.724515 l 12.483006,-0.01255 -12.508097,0.0251 -0.02509,-6.649247 -1.569559,-0.01599 0.01953,-1.074216 -1.445312,-0.03516 c -0.0078,-0.02734 0.0039,-1.769528 0.0039,-1.769528 l -2.882806,-0.02734 -0.03516,1.601559 -1.378902,-0.01172 -0.01953,1.113282 -1.964845,0.01172 0.0078,6.546874 z"
       id="path22" /><path
       style="fill:#000000;stroke:#000000;stroke-width:0.5;stroke-dasharray:none;stroke-opacity:1;fill-opacity:1"
       d="m 76.588503,11.247417 -0.04419,6.386058 h -1.126955 l 0.0221,-6.363961 z"
       id="path23" /><path
       style="fill:#000000;stroke:#000000;stroke-width:0.5;stroke-dasharray:none;stroke-opacity:1;fill-opacity:1"
       d="m 98.199454,11.313708 0.0221,6.386059 1.126952,-0.0221 v -6.341864 0 z"
       id="path24" /><path
       style="fill:#000000;stroke:#000000;stroke-width:0.5;stroke-dasharray:none;stroke-opacity:1;fill-opacity:1"
       d="m 75.483649,27.201514 -0.01099,2.360986 3.589844,-0.0039 -0.0078,-2.453125 -3.574218,0.0078 z"
       id="path25" /><path
       style="fill:#000000;stroke:#000000;stroke-width:0.5;stroke-dasharray:none;stroke-opacity:1;fill-opacity:1"
       d="m 95.470464,27.052359 0.01657,2.463825 3.507912,-0.01657 -0.01105,-2.43068 z"
       id="path26" /></g></svg>
