<?xml version="1.0" encoding="UTF-8"?>
<svg id="Layer_1" data-name="Layer 1" xmlns="http://www.w3.org/2000/svg" viewBox="0 0 48 48">
  <defs>
    <style>
      .cls-1, .cls-2 {
        fill: none;
      }

      .cls-1, .cls-2, .cls-3 {
        stroke: #000;
        stroke-width: .5px;
      }

      .cls-1, .cls-3 {
        stroke-miterlimit: 10;
      }

      .cls-2 {
        stroke-linejoin: round;
      }
    </style>
  </defs>
  <path class="cls-1" d="M3.75,13.97S6.67,3.33,19.97,1.52c12.03-1.64,8.81,20.85,7.97,25.74-.08.49-.56.8-1.04.69-4.79-1.1-25.95-6.77-23.15-13.98Z"/>
  <polygon class="cls-3" points="18.28 10.18 16.39 9.79 17.17 5.72 18.79 4.6 25.99 14.66 24.23 15.96 18.54 8.01 18.28 10.18"/>
  <path class="cls-3" d="M8.36,14.15s1.55,3.01,4.13,6.14c2.58,3.13,5.38.65,5.38.65l-1.29-1.95c-1.47,1.11-2.42.04-2.42.04l-2.48-3.48c-1.77-2.05-.16-2.87-.16-2.87l-1.46-1.89s-2.3,1.52-1.7,3.37Z"/>
  <path class="cls-3" d="M14.81,9.3s2.46,2.33,4.75,5.67c2.29,3.35-.71,5.2-.71,5.2l-1.34-1.87c1.31-.95.38-2.07.38-2.07l-2.66-3.35c-1.48-2.27-2.73-.97-2.73-.97l-1.41-1.93s2.12-1.76,3.73-.67Z"/>
  <path class="cls-1" d="M28.77,14.93c3.69.84,6.49,3.36,7.78,7.23,2.09,6.24-.85,13.11-7.23,15.59-6.38,2.48-13.48-.47-15.87-6.6-1.08-2.76-1.14-5.25-.19-7.8"/>
  <path class="cls-1" d="M28.96,17.14c2.69.83,4.18,2.89,5.35,5.89,2,5.14-.54,10.93-5.68,12.93-5.14,2-10.93-.54-12.93-5.68-.84-2.14-1.02-3.91-.44-5.88"/>
  <line class="cls-2" x1="28.96" y1="16.93" x2="35.88" y2="10.62"/>
  <line class="cls-2" x1="3.5" y1="38.68" x2="19.21" y2="25.79"/>
  <line class="cls-2" x1="28.77" y1="19.21" x2="39.62" y2="9.68"/>
  <line class="cls-2" x1="2.3" y1="41.9" x2="20.91" y2="26.33"/>
  <line class="cls-2" x1="28.67" y1="21.75" x2="44.42" y2="7.75"/>
  <line class="cls-2" x1="1.97" y1="44.65" x2="22.78" y2="26.88"/>
  <line class="cls-2" x1="28.29" y1="24.86" x2="46.03" y2="9.42"/>
  <line class="cls-2" x1="3.22" y1="45.97" x2="25.04" y2="27.34"/>
  <line class="cls-2" x1="9.31" y1="45.97" x2="42.08" y2="17.94"/>
  <line class="cls-2" x1="6.45" y1="45.97" x2="43.36" y2="14.1"/>
</svg>