<?xml version="1.0" encoding="UTF-8"?>
<svg id="Handicrafts" xmlns="http://www.w3.org/2000/svg" viewBox="0 0 48 48">
  <defs>
    <style>
      .cls-1, .cls-2 {
        fill: none;
      }

      .cls-1, .cls-2, .cls-3, .cls-4 {
        stroke: #000;
        stroke-miterlimit: 10;
      }

      .cls-1, .cls-4 {
        stroke-width: .5px;
      }

      .cls-2, .cls-3 {
        stroke-width: .4px;
      }
    </style>
  </defs>
  <g>
    <path class="cls-2" d="M16.88,2.97s.61.18,1.63.17,4.8.06,5.03-.04.59-.27.59-.27c0,0,1.5,2.65,1.33,3.81s-.33.62-.07,1.18.83,3.81.1,3.35-1.38-2.83-3.58-3.29c0,0-.51.66-.41,1.36s-.87.78-1.53.13-1.19-1.66-2.2-1.5-2.72,3.45-2.72,3.45c0,0-.78.09-.49-.89s.86-3.5.86-3.5c0,0-.9-.19-.46-1.18s1.92-2.78,1.92-2.78Z"/>
    <polygon class="cls-3" points="15.11 7.54 13.52 6.32 16.5 1.89 17.63 2.92 16.88 2.97 14.66 6.02 14.88 6.84 15.24 7 15.11 7.54"/>
    <polygon class="cls-3" points="23.72 3.03 24.76 1.99 26.3 7.17 25.45 7.53 25.46 6.22 24.98 4.57 23.72 3.03"/>
    <path class="cls-2" d="M15.78,2.63s-1.11-.78-1.87-.79-1.78.1-1.78.1l-4.03,3.62-3.29,8.11s-1.28,6.95-1.98,7.82-1.45.78-1.45.78c0,0-.43.73.61.62s1.51-.19,2.96-1.94c1.45-1.75,4.11-7.66,4.11-7.66,0,0,2.41-4.01,2.78-4.21s2-2.01,2.34-1.96-.02-.42-.02-.42l-.79-.38,2.4-3.69Z"/>
    <path class="cls-2" d="M35.76,20.1s3.49,4.92,4.29,5.48,1.64.51,1.87.34-.95-1.47-1.34-1.81-1.68-5.59-1.89-7.07-.1-3.74-.24-4.39-3.97-5.78-4.48-6.41-1.37-1.08-2.16-1.43-1.36-1.55-2.39-2.52-4.44.46-4.44.46l1.31,4.43c1.99.57,6.23,6.5,6.75,7.49.28.53,1.04,2.05,1.68,3.34l1.03,2.09Z"/>
    <path class="cls-2" d="M15.26,10.92s2.73,3.48,2.73,3.98-.06,2.28-1.26,2.77-1.29.36-1.57.58-3.55,1.16-4.44,1.13-1.93-.34-2.44,0-1.63,1.28-.53,1.84,2.24.76,3.38.52,4.24-1.51,4.24-1.51c0,0,1.06-.33,1.39.51s.7.43.62,1.32-.14,3.72-.14,3.72c0,0-.48,1.86-1.12,2.5s-2.37,2.72-2.37,2.72c0,0-3.33,1.46-3.34,2.17s.25.82.25.82l4.48-.4s1.46-2.15,1.67-2.58,1.84-2.3,2.73-2.4,2.99.49,2.99.49l1.78.87s1.25,1.27,1.43,1.76.34,1.45,1.72,1.35c1.38-.1,3.21-.17,3.21-.17,0,0,.99-.5,1.08-.95s-.23-.77-1.23-.88-1.1-.07-1.42-.53-1.74-3.55-3.03-4.24-1.68-4.94-1.68-4.94c0,0,.57-1.14,1.74-1.16s1.82-.24,3.65.21,2.48.76,3.14.46,1.87-2.8-.88-2.7-4.6.2-4.6.2c0,0-2.7.38-3.61-.43s-1.4-.66-1.36-1.37-.11-1.96.67-2.63,2.17-1.93,1.95-2.73-1.54-2.49-1.54-2.49l-1.53-.84-.37.4-.17,1.12-.51.38-.88-.32-1.58-1.58-.76-.04-.45.23-2.06,2.83Z"/>
    <ellipse class="cls-3" cx="17.88" cy="11.7" rx=".38" ry=".86" transform="translate(-.6 .98) rotate(-3.09)"/>
    <ellipse class="cls-3" cx="22.02" cy="11.77" rx=".92" ry=".35" transform="translate(8.19 32.55) rotate(-84.48)"/>
  </g>
  <path class="cls-4" d="M23.78,23.69s-.82-3.19-1.85-2.61-.2,2.61-.2,2.61c0,0-1.35.41-1.16,1.37s.92,1.72,1.36,1.66.5-.12.63,1.04.7,1.41,1.22.96.31-2.4.31-2.4l-.31-2.64Z"/>
  <circle class="cls-4" cx="18.32" cy="21.45" r=".44"/>
  <g>
    <rect class="cls-1" x="17.83" y="41.39" width="5.08" height="1.47" rx=".47" ry=".47" transform="translate(48.25 4.54) rotate(62.37)"/>
    <path class="cls-1" d="M46.43,28.79l-24.16,14.96-2.26-4.14,25.63-12.69s2.66-.19.8,1.87Z"/>
    <path class="cls-1" d="M20.56,44.07c-3.87,4.36-7.46.67-7.46.67,0,0,1.08.25,2.52-2.14,1.43-2.39,3.27-1.73,3.27-1.73l1.68,3.2Z"/>
    <path class="cls-4" d="M13.39,44.99c2.63,1.75,5.55.48,5.55.48,0,0-.35-1.21-.42-1.43s-1.18-.44-1.06-1.11-.82-.99-.82-.99l-1.43,1.28"/>
  </g>
</svg>