<?xml version="1.0" encoding="utf-8"?>
<!-- Generator: Adobe Adobe Illustrator 24.2.0, SVG Export Plug-In . SVG Version: 6.00 Build 0)  -->
<svg version="1.1" xmlns="http://www.w3.org/2000/svg" xmlns:xlink="http://www.w3.org/1999/xlink" x="0px" y="0px" width="48px"
	 height="48px" viewBox="0 0 48 48" style="enable-background:new 0 0 48 48;" xml:space="preserve">
<style type="text/css">
	
		.st0{stroke:#000000;stroke-width:0.5;stroke-linecap:round;stroke-linejoin:round;stroke-miterlimit:10;stroke-dasharray:0,0,0,0,0,0;}
	
		.st1{fill:none;stroke:#000000;stroke-width:0.5;stroke-linecap:round;stroke-linejoin:round;stroke-miterlimit:10;stroke-dasharray:0,0,0,0,0,0;}
</style>
<g id="Layer_1">
	<path class="st0" d="M6.94,22.3c-1.16,4.45,0.17,9.47,3.39,12.75c1.64,1.67,2.1,4.3,1.44,6.55c-0.66,2.25-2.3,4.13-4.27,5.4
		c2.6-0.51,4.5-2.89,5.32-5.41c0.82-2.52,0.79-5.23,0.95-7.88c0.16-2.65,0.55-5.41,2.07-7.58c-1.13,0.41-2.26,0.83-3.39,1.24
		c-0.47-1.52-0.94-3.03-1.41-4.55c-0.69,0.92-1.38,1.84-1.96,2.69c-0.67-1.06-1.34-2.11-2.01-3.17"/>
	<path class="st0" d="M34.84,26.9c2.33,3.77,1.26,8.89-1.44,12.41c-2.7,3.51-6.71,5.74-10.66,7.73c5.67-1.36,9.5-4.75,13.46-7.71
		c4.28-3.19,6.32-9.19,6.06-14.67c-0.91,1.01-1.82,2.01-2.73,3.02l-1.75-2.5c-0.04,0.76-0.58,2.92-0.58,2.92
		c-0.82-0.43-1.63-0.85-2.45-1.28"/>
	<path class="st0" d="M21.61,5.54C20.74,5.52,19.87,5.5,19,5.48c0.67,0.43,1.35,0.87,2.02,1.3c-2.94,1.05-5.86,2.49-7.96,4.8
		c1.96-0.8,3.92-1.6,5.88-2.41c-0.72,0.97-1.21,2.29-1.94,3.25c1.68-0.82,3.36-1.64,5.04-2.46c0.9,1.34,1.79,2.69,2.69,4.03
		c0.73-1.1,1.46-2.21,2.19-3.31c1.45,1.19,2.9,2.37,4.36,3.56c-0.27-1.25-0.55-2.5-0.82-3.75c2.61,0.24,5.36,1.28,7.6,2.65
		c-1.82-3.06-4.97-5.62-8.34-6.75c0.74-0.49,1.49-0.99,2.23-1.48c-1.15,0.21-2.3,0.41-3.45,0.62c0.58-0.95,1.16-1.89,1.74-2.84
		c-1.01,0.76-2.02,1.52-3.03,2.28c-0.19-1.15-0.37-2.31-0.56-3.46C26.27,2.68,25.88,3.84,25.48,5c-0.72-0.99-1.44-1.97-2.16-2.96
		c0.11,0.88,0.23,1.75,0.34,2.63c-1.22-0.18-2.44-0.35-3.66-0.53c0.62,0.49,1.25,0.98,1.87,1.47"/>
	<path class="st1" d="M23.84,14.95c-0.1-0.75-0.81-1.36-1.57-1.34c-0.75,0.02-1.43,0.67-1.49,1.42s0.52,1.49,1.26,1.62
		c-0.91,0.14-0.8,2.1-0.8,2.1c0.45,1.9,1.54,2.45,2.97,2.59c1.45,0.15,2.84-0.06,3.85-1.11c0.56-0.58,0.75-1.78,0.25-2.41
		c0.7,0.15,1.34-0.31,1.61-0.98c0.27-0.67,0-1.51-0.62-1.89s-1.34-0.2-1.82,0.33C26.4,14.56,25.08,14.49,23.84,14.95"/>
	<path class="st1" d="M24.66,18.92c0.26,0.32,0.52,0.64,0.77,0.96"/>
	<path class="st1" d="M25.68,18.96c-0.36,0.27-0.72,0.54-1.07,0.81"/>
	<path class="st1" d="M26.38,17.5c0.29,0.31,0.58,0.61,0.86,0.92"/>
	<path class="st1" d="M27.4,17.64c-0.39,0.18-0.78,0.35-1.17,0.53"/>
	<path class="st1" d="M23.16,16.96c0.34,0.29,0.68,0.59,1.01,0.88"/>
	<path class="st1" d="M24.29,17.1c-0.41,0.21-0.83,0.41-1.24,0.62"/>
	<path class="st1" d="M22.34,15.68c-0.32-0.1-0.39-0.61-0.11-0.8c0.28-0.19,0.72,0.08,0.7,0.41c-0.2,0.13-0.39,0.25-0.59,0.38"/>
	<path class="st1" d="M28.24,16.13c0.23-0.2,0.62-0.31,0.81-0.08c0.19,0.23,0.14,0.62-0.1,0.8c-0.23-0.22-0.47-0.44-0.7-0.66"/>
	<path class="st1" d="M14.93,10.33c-4.32,2.27-7.3,7.87-8.05,12.32"/>
	<path class="st1" d="M38.07,13.15c1.86,2.04,5.13,7.74,4.2,12.88"/>
	<path class="st1" d="M34.74,26.83c-2.36-2.58-5.78-4.16-9.27-4.29c-3.49-0.14-7.02,1.18-9.58,3.56"/>
	<path class="st1" d="M35.32,35.86c-1.11-4.11-5.63-5.88-9.78-6.8s-8.76,0.65-11.49,3.91"/>
</g>
</svg>
