<?xml version="1.0" encoding="UTF-8"?>
<svg id="Layer_2" data-name="Layer 2" xmlns="http://www.w3.org/2000/svg" viewBox="0 0 48 48">
  <defs>
    <style>
      .cls-1 {
        stroke-width: .75px;
      }

      .cls-1, .cls-2 {
        fill: none;
      }

      .cls-1, .cls-2, .cls-3 {
        stroke: #070707;
        stroke-linecap: round;
        stroke-linejoin: round;
      }

      .cls-2, .cls-3 {
        stroke-width: .5px;
      }
    </style>
  </defs>
  <path class="cls-2" d="M14.48,21.66c4.65-.13,6.25-7.73,6.25-7.73,0,0-1.23,6.35,4.63,7.23,0,0-3.39-2.26-1.22-8.5,0,0-.76,8.23,8.29,8.18,0,0-1.37-1.22-1.34-2.83,0,0,1.52,2.54,2.88,2.31"/>
  <path class="cls-1" d="M36.94,11.03s2-9.1.64-9.91-7.93,4.22-7.93,4.22c-5.87-2.72-10.76-.19-11.6.18-.67.29-6.28-6.08-7.21-4.03s-.21,9.14-.21,9.14c0,0-2.87.87-3.54,5.54-.68,4.72,5.46,5.75,4.86,5.44"/>
  <path class="cls-2" d="M15.41,19.34c-1.97,1.4-.64,9.15-.64,9.15.34.05-5.63-8.88-1.45-16.45,4.26-7.72,10.62-6.23,10.62-6.23,0,0,9.61-1.56,12.08,9.47"/>
  <path class="cls-2" d="M33.88,27.94c-.05.01,4.65-8.04,1.18-15.62"/>
  <path class="cls-2" d="M33.35,18.37c1.62,1.4.53,9.56.53,9.56"/>
  <path class="cls-2" d="M10.37,5.12S5.22-1.21,3.61,7.63c-1.61,8.83-1.41,23.81-.55,27.64.87,3.83,4.7,11.36,12.71,7.08,0,0-.86,1.26-5.36-2.26,0,0,5.3,1.57,6.37-2.04,0,0-1.32.63-2.72.36-.09-.02-.18-.04-.27-.07,0,0,1.56-.18,1.97-.75,0,0-6.92-5.7-3.44-15.52"/>
  <path class="cls-3" d="M7.03,17.81s2.81,1.36,3.02-.86-2.12-2.83-2.16-2.77"/>
  <path class="cls-3" d="M9.65,13.34s.44.91,1.22.26.97-1.74,0-1.61-1.54.71-1.22,1.35Z"/>
  <polygon class="cls-3" points="11.83 2.58 12.18 9.03 16.3 6.06 11.83 2.58"/>
  <polygon class="cls-3" points="36.57 2.58 32.07 5.7 35.8 8.79 36.57 2.58"/>
  <path class="cls-2" d="M38.1,5.12s5.15-6.33,6.77,2.5c1.61,8.83,1.41,23.81.55,27.64-.87,3.83-4.7,11.36-12.71,7.08,0,0,.86,1.26,5.36-2.26,0,0-5.3,1.57-6.37-2.04,0,0,1.32.63,2.72.36.09-.02.18-.04.27-.07,0,0-1.56-.18-1.97-.75,0,0,6.8-5.71,3.32-15.53"/>
  <path class="cls-3" d="M40.48,18.21s-2.96,1.46-3.19-.67,2.9-3.1,2.93-3.04"/>
  <path class="cls-3" d="M38,13.68s-.44.91-1.22.26-.97-1.74,0-1.61,1.54.71,1.22,1.35Z"/>
  <path class="cls-1" d="M37.11,11.1s2.87.87,3.54,5.54"/>
  <path class="cls-1" d="M40.63,16.6c.68,4.72-4.9,5.37-4.3,5.07"/>
</svg>