<?xml version="1.0" encoding="utf-8"?>
<!-- Generator: Adobe Adobe Illustrator 24.2.0, SVG Export Plug-In . SVG Version: 6.00 Build 0)  -->
<svg version="1.1" id="Layer_1" xmlns="http://www.w3.org/2000/svg" xmlns:xlink="http://www.w3.org/1999/xlink" x="0px" y="0px"
	 viewBox="0 0 48 48" style="enable-background:new 0 0 48 48;" xml:space="preserve">
<style type="text/css">
	
		.st0{fill:none;stroke:#000000;stroke-width:0.5;stroke-linecap:round;stroke-linejoin:round;stroke-miterlimit:10;stroke-dasharray:0,0,0,0,0,0;}
	
		.st1{stroke:#000000;stroke-width:0.5;stroke-linecap:round;stroke-linejoin:round;stroke-miterlimit:10;stroke-dasharray:0,0,0,0,0,0;}
</style>
<path class="st0" d="M12.1,20.83c-0.05,2.26-0.75,4.44-1.4,6.6c-0.65,2.16-1.25,4.39-1.1,6.65c0.15,2.25,1.2,4.57,3.16,5.67
	c-0.13,0.46-0.35,1.32-0.58,2.18c2.16,0.86,4.7,0.9,6.79,0.45c4.1-7.98,5-17.62,2.46-26.29c-2.62-1.49-5.2-3.12-7.78-4.76
	c-0.89-0.57-1.53-1.49-1.66-2.55C11.79,7,12.95,6.05,14.37,5.52c6.58-2.45,13.76-2.46,20.27,1.47c1.19,0.72,1.29,2.34,0.3,3.07
	c-2.56,1.91-5.11,3.82-7.57,5.7c-3.54,8.58-3.45,18.61,0.27,27.06c2.46,0.95,5.39,0.54,7.47-1.08c-0.27-0.66-0.55-1.32-0.9-2.14
	c2.06-0.99,2.75-3.28,3-5.57c0.2-1.85-0.53-5.57-0.88-7.32c-0.42-2.09-0.9-3.85-1.01-5.81"/>
<path class="st1" d="M19.49,19.17c-0.7-0.07-1.31,0.77-1.03,1.42s1.3,0.78,1.73,0.22c0.43-0.56,0.05-1.53-0.64-1.64"/>
<path class="st1" d="M19.88,26.11c-0.7-0.2-1.48,0.53-1.33,1.25s1.15,1.08,1.71,0.61c0.56-0.46,0.41-1.53-0.25-1.82"/>
<path class="st1" d="M19.39,33.13c-0.54-0.21-1.21,0.34-1.13,0.92c0.08,0.58,0.87,0.91,1.34,0.56c0.47-0.35,0.37-1.21-0.15-1.45"/>
<path class="st0" d="M12.58,39.7c2.22,1.11,4.91,1.23,7.22,0.32"/>
<path class="st0" d="M26.81,40.67c2.47,0.63,5.18,0.25,7.38-1.04"/>
<path class="st0" d="M27.11,41.55c-1.9-0.57-5.62-0.81-7.54-0.1"/>
<path class="st0" d="M20.36,39.63c2.39-0.62,3.71-0.58,6.09,0.07"/>
<path class="st0" d="M12.53,10.54c-1.49,0.74-2.7,2.04-3.35,3.58c-2.57,6.11-5.14,12.22-7.74,18.31c0.18,0.48,0.35,0.96,0.53,1.44"
	/>
<path class="st0" d="M9.59,32.83c-0.39,1.68-2.09,3.52-3.8,3.62"/>
<path class="st0" d="M5.99,36.41c-1.64-0.29-3.16-1.26-4.01-2.42c-0.43,0.88-0.86,1.76-1.31,2.69c1.27,0.68,2.54,1.35,3.96,1.9
	c0.52-0.82,0.74-1.4,0.93-2.14"/>
<path class="st0" d="M34.31,10.54c1.52,0.74,2.75,2.04,3.41,3.58c2.62,6.11,5.25,12.22,7.9,18.31c-0.18,0.48-0.36,0.96-0.54,1.44"/>
<path class="st0" d="M37.22,32.58c0.4,1.68,2.22,3.76,3.96,3.87"/>
<path class="st0" d="M40.98,36.41c1.68-0.29,3.22-1.26,4.09-2.42c0.44,0.88,0.88,1.76,1.34,2.69c-1.3,0.68-2.6,1.35-4.03,1.9
	c-0.53-0.82-0.76-1.4-0.95-2.14"/>
<path class="st1" d="M33.54,7.77c-5.58-3.33-12.63-3.15-18.76-1.3c-0.73,0.22-1.31,0.9-1.4,1.66s0.3,1.56,0.95,1.95
	c2.51,1.5,4.86,3.31,7.33,4.87l5.3-0.18c2.17-1.57,4.49-3.62,6.65-5.18C34.25,9.14,34.22,8.17,33.54,7.77z"/>
<path class="st0" d="M29.73,14.31c1.9,2.65,2.47,6.21,1.49,9.33"/>
<path class="st0" d="M17.48,13.73c-1.82,2.72-2.46,6.69-1.37,9.77"/>
<path class="st1" d="M27.21,26.36c-0.07,0.77-0.13,1.54-0.2,2.31"/>
<path class="st1" d="M28.06,19.43c-0.13,0.76-0.27,1.53-0.4,2.29"/>
<path class="st1" d="M27.02,32.32c0.06,0.77,0.12,1.54,0.18,2.32"/>
</svg>
