<?xml version="1.0" encoding="UTF-8"?>
<svg id="Layer_1" data-name="Layer 1" xmlns="http://www.w3.org/2000/svg" viewBox="0 0 48 48">
  <defs>
    <style>
      .cls-1, .cls-2, .cls-3, .cls-4, .cls-5, .cls-6, .cls-7 {
        stroke-miterlimit: 10;
      }

      .cls-1, .cls-2, .cls-4, .cls-5, .cls-7 {
        stroke-linecap: round;
      }

      .cls-1, .cls-2, .cls-5, .cls-6, .cls-7 {
        fill: none;
      }

      .cls-1, .cls-3, .cls-4, .cls-5, .cls-6, .cls-7 {
        stroke: #000000;
      }

      .cls-2 {
        stroke: #fff;
      }

      .cls-2, .cls-3, .cls-4, .cls-5, .cls-6 {
        stroke-width: .5px;
      }

      .cls-3, .cls-4 {
        fill: #000000;
      }

      .cls-7 {
        stroke-width: .75px;
      }
    </style>
  </defs>
  <path class="cls-6" d="M18.97,20.14s-6.62-4.83-12.82,1.58c0,0,.53-3.99,4.41-6.62s6.45-2.31,6.45-2.31"/>
  <path class="cls-6" d="M7.57,20.44c7.57-1.35,9.98,1.48,9.74,1.62l-5.39,5.75"/>
  <path class="cls-6" d="M37.94,21.73c2.19,8.43,4.43,17.7,3.81,18.27"/>
  <path class="cls-6" d="M37.13,18.65c.26,1,.54,2.03.81,3.08"/>
  <path class="cls-6" d="M35.01,10.78c.35,1.29.8,2.94,1.3,4.8"/>
  <path class="cls-6" d="M14.26,13.23c.16-.17,3.01-9.28,8.4-11.37,4.32-1.68,7.33.5,9.19,2.7,1.52,1.8,2.53,3.95,3.16,6.22"/>
  <path class="cls-3" d="M23.7,11.02s2.51-3.15,4.68-1.84-1.41,2.51-1.41,2.51c0,0-2.4.56-3.03.57s-.23-1.24-.23-1.24Z"/>
  <circle class="cls-5" cx="10.55" cy="20.36" r="1.37"/>
  <polygon class="cls-5" points="10.52 26.29 13.93 30.24 13.93 34.94 10.79 37.74 7.24 34.8 7.24 30.46 10.52 26.29"/>
  <line class="cls-5" x1="10.58" y1="22.13" x2="10.52" y2="26.03"/>
  <polygon class="cls-5" points="10.55 29.29 12.28 31.3 12.28 33.69 10.72 34.75 8.88 33.61 8.88 31.41 10.55 29.29"/>
  <line class="cls-5" x1="12.28" y1="33.69" x2="13.65" y2="34.75"/>
  <line class="cls-5" x1="12.28" y1="31.3" x2="13.93" y2="30.46"/>
  <line class="cls-5" x1="10.55" y1="29.29" x2="10.52" y2="26.95"/>
  <line class="cls-5" x1="8.88" y1="31.41" x2="7.24" y2="30.46"/>
  <line class="cls-5" x1="8.88" y1="33.61" x2="7.24" y2="34.8"/>
  <line class="cls-5" x1="10.72" y1="34.75" x2="10.78" y2="37.3"/>
  <path class="cls-5" d="M14.83,25.28s1.56,2.28,2.5,2.19c.5-.05,0-2.88-.67-4.46"/>
  <path class="cls-5" d="M15.79,26.6s2.08,3.29,2.85,3.66c2.18,1.05-.22-5.46-1.31-5.01"/>
  <path class="cls-5" d="M17.98,29.74s.49,1.93,3.05,2.78c1.92.63-1.16-4.13-1.6-4.26"/>
  <path class="cls-5" d="M20.27,32.5s1.42,2.36,2.77,2.11c1.31-.23-.49-3.22-1.8-3.8"/>
  <path class="cls-5" d="M39.16,26.64s-1.91,1.84-2.85,1.72c-.5-.06,1.01-3.18,1.95-4.62"/>
  <path class="cls-5" d="M37.98,27.78s-2.63,2.87-3.44,3.1c-2.33.66,1.18-5.34,2.17-4.71"/>
  <path class="cls-5" d="M35.27,30.48s-.82,1.82-3.49,2.2c-2,.29,1.87-3.86,2.32-3.91"/>
  <path class="cls-5" d="M32.53,32.8s-1.81,2.07-3.1,1.6c-1.25-.46,1.04-3.08,2.44-3.43"/>
  <path class="cls-5" d="M22,34.36s1.9,2.13,3.06,1.68c1.16-.45-1.77-3.24-1.77-3.24"/>
  <path class="cls-5" d="M30.74,34.26s-1.9,2.13-3.06,1.68,1.77-3.24,1.77-3.24"/>
  <path class="cls-4" d="M27.41,37.88s.1-.94-.39-2.26c-.43-1.17-1.27.04-1.27.04l-.5,2.46"/>
  <path class="cls-1" d="M28.48,40.28s-.44-3.23-2.6-2.18-1.01,2.71-.83,2.97,2.84,1.46,2.86,1.77c0,.17,1.53,3.49-2.49,2.65-1.83-.38-1.21-1.79-.61-2.71"/>
  <line class="cls-7" x1="26.33" y1="36.26" x2="26.33" y2="47.26"/>
  <line class="cls-2" x1="26.71" y1="10.32" x2="28.06" y2="10"/>
  <path class="cls-7" d="M36.31,19.25c-1.11,0-2.01-.9-2.01-2.01s.9-2.01,2.01-2.01,2.01.9,2.01,2.01-.9,2.01-2.01,2.01"/>
</svg>
