<?xml version="1.0" encoding="UTF-8" standalone="no"?>
<svg
   id="Layer_1"
   data-name="Layer 1"
   viewBox="0 0 37.74 47.29"
   version="1.1"
   sodipodi:docname="notebooks.svg"
   inkscape:version="1.4.4 (dcaf3e7, 2026-05-05)"
   xmlns:inkscape="http://www.inkscape.org/namespaces/inkscape"
   xmlns:sodipodi="http://sodipodi.sourceforge.net/DTD/sodipodi-0.dtd"
   xmlns="http://www.w3.org/2000/svg"
   xmlns:svg="http://www.w3.org/2000/svg">
  <sodipodi:namedview
     id="namedview36"
     pagecolor="#ffffff"
     bordercolor="#000000"
     borderopacity="0.25"
     inkscape:showpageshadow="2"
     inkscape:pageopacity="0.0"
     inkscape:pagecheckerboard="0"
     inkscape:deskcolor="#d1d1d1"
     inkscape:zoom="8.9640623"
     inkscape:cx="10.820987"
     inkscape:cy="30.622277"
     inkscape:window-width="1706"
     inkscape:window-height="1401"
     inkscape:window-x="1698"
     inkscape:window-y="0"
     inkscape:window-maximized="0"
     inkscape:current-layer="Layer_1" />
  <defs
     id="defs1">
    <style
       id="style1">
      .cls-1 {
        stroke-width: .75px;
      }

      .cls-1, .cls-2 {
        fill: none;
        stroke-linecap: round;
        stroke-linejoin: round;
      }

      .cls-1, .cls-2, .cls-3, .cls-4 {
        stroke: #000000;
      }

      .cls-2, .cls-4 {
        stroke-width: .5px;
      }

      .cls-3 {
        fill: #000000;
        stroke-width: .25px;
      }

      .cls-3, .cls-4 {
        stroke-miterlimit: 10;
      }

      .cls-4 {
        fill: #fff;
      }
    </style>
  </defs>
  <rect
     class="cls-4"
     x="2.558279"
     y="2.9911671"
     width="33.939507"
     height="41.609718"
     rx="1.0385756"
     ry="1.0385756"
     id="rect1"
     style="fill:none" />
  <path
     class="cls-3"
     d="M 6.3219244,4.0583273 H 7.579649 c 0.3144311,0 0.5621648,0.2477336 0.5621648,0.5621648 v 1.3434785 c 0,0.26679 -0.2096208,0.4764108 -0.4764109,0.4764108 H 6.2266423 c -0.2667901,0 -0.4764108,-0.2096208 -0.4764108,-0.4764108 V 4.6204921 c 0,-0.3144312 0.2477336,-0.5621648 0.5621647,-0.5621648 v 0 z"
     id="path1" />
  <path
     class="cls-3"
     d="m 9.9140619,4.0583273 h 1.2577251 c 0.314431,0 0.562164,0.2477336 0.562164,0.5621648 v 1.3434785 c 0,0.26679 -0.20962,0.4764108 -0.47641,0.4764108 H 9.8187799 c -0.26679,0 -0.476411,-0.2096208 -0.476411,-0.4764108 V 4.6204921 c 0,-0.3144312 0.247734,-0.5621648 0.562165,-0.5621648 z"
     id="path2" />
  <path
     class="cls-3"
     d="m 13.5062,4.0583273 h 1.257724 c 0.314431,0 0.562165,0.2477336 0.562165,0.5621648 v 1.3434785 c 0,0.26679 -0.209621,0.4764108 -0.476411,0.4764108 h -1.438761 c -0.26679,0 -0.47641,-0.2096208 -0.47641,-0.4764108 V 4.6204921 c 0,-0.3144312 0.247733,-0.5621648 0.562164,-0.5621648 z"
     id="path3" />
  <path
     class="cls-3"
     d="m 17.098337,4.0583273 h 1.257725 c 0.314431,0 0.562164,0.2477336 0.562164,0.5621648 v 1.3434785 c 0,0.26679 -0.20962,0.4764108 -0.47641,0.4764108 h -1.438761 c -0.26679,0 -0.476411,-0.2096208 -0.476411,-0.4764108 V 4.6204921 c 0,-0.3144312 0.247734,-0.5621648 0.562165,-0.5621648 z"
     id="path4" />
  <path
     class="cls-3"
     d="m 20.690475,4.0583273 h 1.257724 c 0.314431,0 0.562165,0.2477336 0.562165,0.5621648 v 1.3434785 c 0,0.26679 -0.209621,0.4764108 -0.476411,0.4764108 h -1.43876 c -0.266791,0 -0.476411,-0.2096208 -0.476411,-0.4764108 V 4.6204921 c 0,-0.3144312 0.247733,-0.5621648 0.562164,-0.5621648 z"
     id="path5" />
  <path
     class="cls-3"
     d="m 24.282612,4.0583273 h 1.257725 c 0.314431,0 0.562165,0.2477336 0.562165,0.5621648 v 1.3434785 c 0,0.26679 -0.209621,0.4764108 -0.476411,0.4764108 H 24.18733 c -0.26679,0 -0.476411,-0.2096208 -0.476411,-0.4764108 V 4.6204921 c 0,-0.3144312 0.247734,-0.5621648 0.562165,-0.5621648 z"
     id="path6" />
  <path
     class="cls-3"
     d="m 27.87475,4.0583273 h 1.257724 c 0.314431,0 0.562165,0.2477336 0.562165,0.5621648 v 1.3434785 c 0,0.26679 -0.209621,0.4764108 -0.476411,0.4764108 h -1.43876 c -0.26679,0 -0.476411,-0.2096208 -0.476411,-0.4764108 V 4.6204921 c 0,-0.3144312 0.247733,-0.5621648 0.562165,-0.5621648 z"
     id="path7" />
  <path
     class="cls-3"
     d="m 31.466887,4.0583273 h 1.257725 c 0.314431,0 0.562165,0.2477336 0.562165,0.5621648 v 1.3434785 c 0,0.26679 -0.209621,0.4764108 -0.476411,0.4764108 h -1.438761 c -0.26679,0 -0.476411,-0.2096208 -0.476411,-0.4764108 V 4.6204921 c 0,-0.3144312 0.247734,-0.5621648 0.562165,-0.5621648 v 0 z"
     id="path8" />
  <path
     class="cls-2"
     d="M 2.6059201,3.8105937 1.8246064,4.4108713 C 1.367252,4.7634153 1.0909337,5.3160518 1.0909337,5.897273 l -0.076226,37.50306 c 0,1.419704 1.1624424,2.591675 2.5821466,2.591675 H 33.077156 c 0.676503,0 1.343478,-0.219149 1.886587,-0.628863 l 0.895652,-0.886124"
     id="path9" />
  <path
     class="cls-2"
     d="M 6.0551344,5.5256726 C 9.4281229,1.6286321 4.7307123,0.03742003 4.1971322,2.7910745"
     id="path10" />
  <path
     class="cls-1"
     d="M 7.0651253,10.146858 C 6.9222021,9.9658216 7.1318233,9.7180876 7.3319154,9.6132776 c 0.705088,-0.371601 1.6388532,-0.257262 2.2391305,0.276318 0.352544,0.3239594 0.5621651,0.7622574 0.6288631,1.2291404 0.03811,0.247734 0.790842,2.534506 0.981406,2.734598 0.504995,0.495467 -0.495467,-2.553562 -0.42877,-2.820352 0.09528,-0.352544 0.238206,-0.686032 0.495467,-0.952822 0.752729,-0.8003704 2.019982,-0.7146164 3.106199,-0.5812214 0.295375,0.03811 0.590749,0.07623 0.857539,0.219149 0.26679,0.142923 0.466883,0.4097134 0.457355,0.7050884 -0.03811,0.628862 -0.609806,1.06716 -1.143386,1.410176 -1.000463,0.657447 -2.000926,1.314894 -2.99186,1.981869 1.572156,-0.981406 3.754117,-0.857539 5.202406,0.285847 0.524052,0.419241 0.990934,1.086216 0.752729,1.724607 -0.209621,0.562165 -0.867068,0.809898 -1.467345,0.895652 -0.971878,0.123867 -1.972341,0 -2.867993,-0.390657 -0.85754,-0.362072 -1.705551,-1.124329 -1.600741,-2.048566 -0.457354,0.581221 0.05717,1.410176 0.0667,2.143848 0.0095,0.933766 -0.781314,1.65791 -1.543571,2.19149 -1.1052734,0.781314 -2.2963005,1.448289 -3.5254404,1.991397 -0.5335801,0.238206 -1.1243295,0.447827 -1.676966,0.276319 0.2191489,-1.581684 0.7241444,-3.15384 1.6483814,-4.459206 0.924237,-1.305365 2.2963001,-2.324884 3.858928,-2.648844 0.247733,-0.04764 0.524052,-0.08575 0.752729,0.02858 0.228677,0.114339 0.381128,0.419241 0.247733,0.63839 -0.05717,0.08575 -0.142923,0.142924 -0.228677,0.200093 -1.2291401,0.762257 -2.867993,0.952822 -4.144774,0.257262 -1.276781,-0.69556 -2.0009254,-2.372526 -1.4197042,-3.706476 0.047641,-0.114339 0.1143386,-0.238206 0.2286772,-0.295375 0.095282,-0.04764 0.2000925,-0.03811 0.2953747,-0.03811 0.8765959,0.03811 1.76272,0.142923 2.5630902,0.485939 0.323959,0.133395 2.1438491,2.2963 2.5821471,2.544034 0,-0.59075 -0.876596,-3.25865 -0.876596,-3.849399 0,-0.1429244 0,-0.2953754 0.05717,-0.4382984 0.08575,-0.200093 0.276318,-0.333488 0.457354,-0.438298 0.543109,-0.3239597 1.133858,-0.5907498 1.734136,-0.7813141"
     id="path11" />
  <path
     class="cls-2"
     d="M 9.7139699,5.5256726 C 13.086958,1.6286321 8.418132,0.03742003 7.8845519,2.7910745"
     id="path12" />
  <path
     class="cls-2"
     d="M 13.401389,5.5256726 C 16.774378,1.6286321 12.076967,0.03742003 11.543387,2.7910745"
     id="path13" />
  <path
     class="cls-2"
     d="M 17.060224,5.5256726 C 20.433213,1.6286321 15.764387,0.03742003 15.230807,2.7910745"
     id="path14" />
  <path
     class="cls-2"
     d="M 20.747644,5.5256726 C 24.120633,1.6286321 19.423222,0.03742003 18.889642,2.7910745"
     id="path15" />
  <path
     class="cls-2"
     d="M 24.406479,5.5256726 C 27.779468,1.6286321 23.110642,0.03742003 22.577062,2.7910745"
     id="path16" />
  <path
     class="cls-2"
     d="M 28.093899,5.5256726 C 31.466887,1.6286321 26.769477,0.03742003 26.235897,2.7910745"
     id="path17" />
  <path
     class="cls-2"
     d="M 31.752734,5.5256726 C 35.125722,1.6286321 30.456896,0.03742003 29.923316,2.7910745"
     id="path18" />
  <path
     class="cls-1"
     d="m 23.053472,27.755002 c 0.933766,0.05717 1.915172,-0.285847 2.639316,-0.905181 1.000463,-0.857539 1.543571,-2.153377 1.705551,-3.458742 0.03811,-0.333488 0.05717,-0.686032 -0.07623,-1.000463 -0.381128,-0.943294 -1.772248,-1.038576 -2.763182,-1.858002 -1.143386,0.171508 -2.439224,-0.304903 -3.42063,0.323959 -0.219149,0.142923 -0.409713,0.333488 -0.571693,0.53358 -0.752729,0.933765 -1.048104,2.229603 -0.771786,3.401573 0.247734,1.067161 0.971878,2.02951 1.934228,2.563091 0.381129,0.20962 0.981407,0.247733 1.219612,0.63839 0.26679,0.438298 0.08575,1.353007 0.08575,1.838946 v 4.668826"
     id="path19" />
  <line
     class="cls-1"
     x1="26.026276"
     y1="29.832151"
     x2="26.807589"
     y2="29.184233"
     id="line19" />
  <line
     class="cls-1"
     x1="23.043945"
     y1="34.500977"
     x2="19.204073"
     y2="38.074059"
     id="line20" />
  <line
     class="cls-1"
     x1="26.874287"
     y1="39.512821"
     x2="23.043945"
     y2="34.500977"
     id="line21" />
  <line
     class="cls-1"
     x1="19.204073"
     y1="38.074059"
     x2="26.874287"
     y2="39.512821"
     id="line22" />
  <line
     class="cls-1"
     x1="22.100649"
     y1="38.798206"
     x2="20.214064"
     y2="42.037796"
     id="line23" />
  <line
     class="cls-1"
     x1="23.558468"
     y1="39.160275"
     x2="23.977709"
     y2="42.590435"
     id="line24" />
  <line
     class="cls-1"
     x1="20.309345"
     y1="30.622993"
     x2="19.690012"
     y2="30.232338"
     id="line25" />
  <path
     class="cls-1"
     d="m 21.862445,25.792189 c 0,0.314431 0.314431,0.543108 0.619334,0.628862 0.819427,0.219149 1.772249,-0.190564 2.162905,-0.943293"
     id="path25" />
  <path
     class="cls-1"
     d="m 24.654213,23.267212 c 0.02858,0.362072 0.01906,0.714616 -0.03811,1.076688"
     id="path26" />
  <path
     class="cls-1"
     d="M 19.566145,23.248155 C 19.385109,22.895611 18.975396,22.724103 18.594267,22.628821 17.955877,22.466842 17.29843,22.4192 16.650511,22.47637 c -0.142923,0.0095 -0.295375,0.03811 -0.390657,0.142923 -0.53358,0.562165 -0.80037,1.324422 -0.952821,2.077151 -0.152452,0.752729 -0.219149,1.534043 -0.409714,2.277244 -0.161979,0.63839 -0.42877,1.248196 -0.686031,1.858002 -0.228678,0.524052 -0.524052,0.85754 -0.743201,1.39112 -0.733673,-2.534506 -0.53358,-5.326273 0.552636,-7.736912 0.724145,-1.581684 1.886587,-3.049029 3.506384,-3.696948 0.562165,-0.228677 1.181499,-0.343016 1.791305,-0.257262 0.0667,0 0.133395,0.01906 0.200092,0.04764 0.323959,0.123867 0.457354,0.504996 0.514524,0.848012 0.123867,0.7432 0.08575,1.505458 0.04764,2.258187"
     id="path27" />
  <path
     class="cls-1"
     d="m 27.150605,22.028544 c -0.161979,-0.571693 -0.02858,-1.210084 0.285847,-1.715079 0.314431,-0.504996 0.80037,-0.895653 1.33395,-1.162443 0.524052,-0.26679 1.105273,-0.428769 1.696023,-0.476411 0.133395,-0.0095 0.295374,0 0.390656,0.09528 0.886125,0.952821 1.886587,1.819889 2.591675,2.906106 0.705088,1.086216 1.086217,2.505921 0.571693,3.706476 -0.228677,0.524052 -0.600277,0.971878 -0.876596,1.476873 -0.285846,0.53358 -0.447826,1.12433 -0.524051,1.715079"
     id="path28" />
  <path
     class="cls-1"
     d="m 32.638858,28.469618 v 2.353469 c -0.457354,-2.515449 -0.914709,-5.02137 -1.372063,-7.536819 -0.03811,-0.190564 -0.07623,-0.381128 -0.190565,-0.524052 -0.200092,-0.238205 -0.562164,-0.257262 -0.876595,-0.257262 h -2.372526 c -0.133395,0 -0.26679,0 -0.381129,0.07623 -0.114339,0.07623 -0.16198,0.247734 -0.0667,0.333488"
     id="path29" />
  <path
     class="cls-1"
     d="m 19.43275,23.9723 c -0.628862,-0.09528 -1.17197,-0.476411 -1.696022,-0.848012 0.952821,-1.410176 1.991397,-2.77271 3.09667,-4.05902 0.228677,0.343016 0.447826,0.686032 0.676503,1.029048"
     id="path30" />
  <path
     class="cls-1"
     d="m 25.283075,20.999496 c 0.400185,-0.409713 0.809898,-0.809898 1.238668,-1.200555 0.562165,0.857539 1.210084,1.65791 1.943756,2.372526 0.333488,0.323959 0.686032,0.647919 0.924237,1.048104 0.03811,0.0667 0.04764,0.152451 0.0095,0.219149 -0.657447,0.295374 -1.267252,0.676503 -1.810361,1.152914"
     id="path31" />
  <path
     class="cls-1"
     d="m 27.541262,22.74316 c -0.3716,0.914709 -0.867067,1.781776 -1.467345,2.56309 0.238205,-0.05717 0.304903,-0.362072 0.295375,-0.609806 -0.05717,-1.009991 -0.628863,-1.905643 -1.191027,-2.744126 l -1.619797,0.714616 0.123867,-0.895652 c -0.447827,0.295374 -1.257725,0.447826 -1.696023,0.762257 -0.438298,0.314431 -0.848011,0.705088 -1.057632,1.200555 -0.209621,0.495468 -0.200092,1.114802 0.133395,1.543571 C 20.404628,24.915593 19.86152,24.3439 19.518504,23.667397"
     id="path32" />
  <path
     class="cls-1"
     d="m 22.681872,32.757315 c -0.905181,-0.514524 -1.896115,-0.876596 -2.915634,-1.076688 0.26679,-0.581221 0.571693,-1.133858 0.90518,-1.676966 0.895653,0.457354 1.65791,0.981406 2.429695,1.638853 0.571693,-0.400185 1.133858,-0.943294 1.705551,-1.343479 0.381129,-0.26679 0.790842,-0.562164 0.971878,-0.990934 0.181036,0.628862 0.571693,1.200555 1.105273,1.581684 -1.305365,0.562165 -2.99186,1.124329 -4.192415,1.86753 z"
     id="path33" />
  <path
     class="cls-1"
     d="m 22.415082,23.27674 c 0.02858,0.362072 0.01906,0.714616 -0.03811,1.076688"
     id="path34" />
  <path
     class="cls-1"
     d="M 5.8931547,35.520498 C 6.1123037,35.18701 5.7883443,34.691543 5.3881593,34.65343 c -0.4001851,-0.03811 -0.7717856,0.26679 -0.9337652,0.628862 -0.1619797,0.362073 -0.1810362,0.771786 -0.2000926,1.171971 -0.019056,0.705088 -0.038113,1.410176 -0.057169,2.105736 -0.028585,1.000463 -0.047641,2.058095 0.4478262,2.934691 0.4954672,0.876595 1.676966,1.43876 2.5249773,0.90518 C 7.6463465,42.104495 7.9036084,41.542331 8.0465316,40.989694 8.5991681,38.912543 7.9036084,36.559073 5.8931547,35.51097 v 0 z"
     id="path35" />
  <path
     class="cls-1"
     d="m 9.7330259,36.349453 c 0.209621,-1.39112 0.9051811,-2.696486 1.9247001,-3.658835 -0.04764,2.820352 -0.09528,5.640704 -0.152452,8.461056 -0.0095,0.724144 -0.02858,1.457817 0.114339,2.172433"
     id="path36" />
</svg>
