<?xml version="1.0" encoding="UTF-8"?>
<svg id="Keycaps" xmlns="http://www.w3.org/2000/svg" viewBox="0 0 48 48">
  <defs>
    <style>
      .cls-1, .cls-2, .cls-3, .cls-4, .cls-5, .cls-6, .cls-7 {
        stroke: #000;
      }

      .cls-1, .cls-2, .cls-3, .cls-4, .cls-7 {
        fill: none;
      }

      .cls-1, .cls-2, .cls-6 {
        stroke-miterlimit: 10;
      }

      .cls-2 {
        stroke-width: .75px;
      }

      .cls-3, .cls-4, .cls-5, .cls-7 {
        stroke-linecap: round;
        stroke-linejoin: round;
      }

      .cls-4 {
        stroke-width: 2px;
      }

      .cls-6, .cls-7 {
        stroke-width: .5px;
      }
    </style>
  </defs>
  <rect class="cls-4" x="4.05" y="3.01" width="38.93" height="38.93"/>
  <g>
    <rect class="cls-3" x="7.57" y="5.77" width="31.51" height="28.37"/>
    <polygon class="cls-6" points="11.34 31.54 36.34 31.54 36.34 8.37 30.71 13.44 30.71 26.67 17.12 26.67 11.34 31.54"/>
    <rect class="cls-1" x="7.51" y="5.49" width="32.13" height="28.93"/>
    <line class="cls-7" x1="7.15" y1="5.11" x2="4.9" y2="3.84"/>
    <line class="cls-7" x1="39.94" y1="5.17" x2="42.13" y2="3.9"/>
    <line class="cls-2" x1="7.57" y1="34.14" x2="4.9" y2="41.31"/>
    <line class="cls-2" x1="39.64" y1="34.42" x2="42.49" y2="41.93"/>
    <ellipse cx="23.22" cy="18.99" rx="5.63" ry="4.52"/>
    <polygon class="cls-5" points="22.45 14.94 18.89 12.9 18.89 18.18 22.45 14.94"/>
    <polygon class="cls-5" points="24 14.94 27.56 12.9 27.56 18.18 24 14.94"/>
  </g>
</svg>