<?xml version="1.0" encoding="UTF-8"?>
<svg id="Layer_1" data-name="Layer 1" xmlns="http://www.w3.org/2000/svg" viewBox="0 0 48 48">
  <defs>
    <style>
      .cls-1, .cls-2 {
        fill: #000000;
      }

      .cls-3, .cls-4, .cls-5, .cls-6 {
        fill: none;
      }

      .cls-3, .cls-4, .cls-5, .cls-6, .cls-2 {
        stroke: #000000;
      }

      .cls-3, .cls-4, .cls-2 {
        stroke-linecap: round;
        stroke-width: .5px;
      }

      .cls-3, .cls-2 {
        stroke-linejoin: round;
      }

      .cls-4, .cls-5, .cls-6 {
        stroke-miterlimit: 10;
      }

      .cls-6 {
        stroke-width: .75px;
      }
    </style>
  </defs>
  <polyline class="cls-3" points="26.04 37.05 35.27 7.06 31.79 3.76 21.91 37.05 26.04 37.05"/>
  <path class="cls-6" d="M22.02,35.81h-1.53s.83,4.12,3.79,3.85c0,0,3.15-.03,3.62-3.85h-1.34"/>
  <line class="cls-5" x1="24.28" y1="38.8" x2="24.28" y2="41.59"/>
  <g>
    <polygon class="cls-1" points="25 28.33 27.18 33.14 22.52 36.22 25 28.33"/>
    <path class="cls-1" d="M25.04,29.03l1.82,4.02-3.9,2.57,2.08-6.59M24.96,27.63l-2.89,9.18,5.43-3.58-2.54-5.61h0Z"/>
  </g>
  <g>
    <polygon class="cls-1" points="27.36 20.18 29.61 24.93 24.8 27.96 27.36 20.18"/>
    <path class="cls-1" d="M27.4,20.85l1.88,3.98-4.03,2.54,2.15-6.52M27.32,19.51l-2.97,9.03,5.58-3.52-2.61-5.51h0Z"/>
  </g>
  <g>
    <polygon class="cls-1" points="30.02 11.29 32.28 16.18 27.44 19.31 30.02 11.29"/>
    <path class="cls-1" d="M30.06,11.97l1.9,4.12-4.07,2.63,2.17-6.74M29.98,10.6l-2.99,9.29,5.61-3.62-2.62-5.67h0Z"/>
  </g>
  <polygon class="cls-2" points="30.1 10.71 35.27 6.93 31.79 3.52 30.1 10.71"/>
  <polygon class="cls-3" points="24.2 30.45 16.21 3.52 12.73 6.82 21.96 36.81 24.2 30.45"/>
  <g>
    <polygon class="cls-1" points="18.39 24.69 20.57 19.96 23.06 27.71 18.39 24.69"/>
    <path class="cls-1" d="M20.53,20.64l2.08,6.48-3.9-2.52,1.83-3.95M20.62,19.27l-2.55,5.51,5.44,3.52-2.9-9.03h0Z"/>
  </g>
  <g>
    <polygon class="cls-1" points="15.71 15.86 17.88 10.88 20.35 19.05 15.71 15.86"/>
    <path class="cls-1" d="M17.84,11.6l2.07,6.83-3.88-2.66,1.81-4.17M17.92,10.16l-2.52,5.8,5.39,3.7-2.87-9.5h0Z"/>
  </g>
  <polygon class="cls-2" points="17.9 10.47 12.73 6.82 16.21 3.52 17.9 10.47"/>
  <polygon class="cls-2" points="23.42 28.3 21.91 37.05 23.84 29.74 23.42 28.3"/>
  <line class="cls-2" x1="16.21" y1="3.52" x2="31.75" y2="3.52"/>
  <line class="cls-2" x1="17.48" y1="7" x2="30.59" y2="7"/>
  <circle class="cls-4" cx="24.35" cy="43.46" r="2.15"/>
</svg>
