<?xml version="1.0" encoding="UTF-8"?>
<svg id="Large_Posters" data-name="Large Posters" xmlns="http://www.w3.org/2000/svg" viewBox="0 0 48 48">
  <defs>
    <style>
      .cls-1 {
        stroke-width: .75px;
      }

      .cls-1, .cls-2 {
        fill: none;
      }

      .cls-1, .cls-2, .cls-3 {
        stroke: #000;
        stroke-linecap: round;
        stroke-linejoin: round;
      }

      .cls-4 {
        fill: #000000;
      }

      .cls-2, .cls-3 {
        stroke-width: .5px;
      }
    </style>
  </defs>
  <polyline class="cls-1" points="40.35 37.59 40.35 2.5 7.21 2.5 7.21 44.56 33.11 44.56 40.35 37.59"/>
  <polygon class="cls-1" points="33.11 44.23 33.11 37.59 40.35 37.59 33.11 44.23"/>
  <g>
    <polyline class="cls-2" points="33.11 41.8 10.31 41.8 10.31 8.03 37.25 8.03 37.25 37.59"/>
    <path class="cls-3" d="M30.14,24.11h-1.94c.42-.6.67-1.28.67-2.02,0-1.24-.68-2.33-1.73-3.09.24-.4.46-.86.63-1.37.57-1.72.42-3.32-.33-3.57s-1.82.95-2.39,2.67c-.15.45-.25.89-.3,1.3-.31-.05-.63-.08-.96-.08-.36,0-.71.03-1.06.09-.05-.41-.15-.86-.3-1.31-.57-1.72-1.64-2.92-2.39-2.67s-.9,1.84-.33,3.57c.18.54.41,1.01.65,1.42-1.02.76-1.66,1.83-1.66,3.04,0,.74.26,1.42.67,2.02h-1.53c-.58,0-1.06.48-1.06,1.06s.48,1.06,1.06,1.06h2.16s.01,0,.02,0c-.16.4-.26.83-.26,1.28,0,.96.4,1.82,1.05,2.44l-.47,1.09c-.23.53.02,1.16.55,1.39.53.23,1.16-.02,1.39-.55l.43-1.01c.14.02.29.04.44.04h1.67c.2,0,.39-.03.58-.06l.44,1.02c.23.53.85.78,1.39.55.53-.23.78-.85.55-1.39l-.51-1.19c.58-.61.95-1.43.95-2.33,0-.45-.09-.88-.26-1.28h2.15c.58,0,1.06-.48,1.06-1.06s-.48-1.06-1.06-1.06Z"/>
    <circle class="cls-4" cx="10.31" cy="5.28" r=".78"/>
    <circle class="cls-4" cx="36.73" cy="5.28" r=".78"/>
    <line class="cls-2" x1="10.31" y1="28.85" x2="37.25" y2="28.85"/>
    <g>
      <path class="cls-2" d="M11.93,11.98c.82-1.15,2.3-1.5,3.32-.77"/>
      <path class="cls-2" d="M15.18,11.25c.82-1.15,2.3-1.5,3.32-.77"/>
    </g>
    <g>
      <path class="cls-2" d="M29.65,15.81c1.29-.56,2.74-.1,3.24,1.04"/>
      <path class="cls-2" d="M32.81,16.86c1.29-.56,2.74-.1,3.24,1.04"/>
    </g>
  </g>
</svg>
