<?xml version="1.0" encoding="utf-8"?>
<!-- Generator: Adobe Adobe Illustrator 24.2.0, SVG Export Plug-In . SVG Version: 6.00 Build 0)  -->
<svg version="1.1" xmlns="http://www.w3.org/2000/svg" xmlns:xlink="http://www.w3.org/1999/xlink" x="0px" y="0px"
	 viewBox="0 0 48 48" style="enable-background:new 0 0 48 48;" xml:space="preserve">
<style type="text/css">
	.st0{fill:none;stroke:#000000;stroke-width:0.5;stroke-linecap:round;stroke-linejoin:round;stroke-miterlimit:10;}
	.st1{stroke:#000000;stroke-width:0.5;stroke-linecap:round;stroke-linejoin:round;stroke-miterlimit:10;}
</style>
<g id="Layer_1">
</g>
<g id="Layer_2">
	<path class="st0" d="M33.73,15.32c0.69-0.21,1.64-0.72,2.1-1.48c0.04-0.02,0.04-0.04,0.04-0.05c0.45,8.62-0.14,17.3-1.89,25.75
		c-0.16,0.76-0.52,1.46-1.02,2.05c-3.25,3.82-8.26,5.81-13.31,5.83c-5.13,0.01-10.23-2.02-13.99-5.54c-0.51-0.48-0.86-1.11-1.02-1.8
		c-2.13-8.66-2.9-17.77-2.54-26.73c1.7,1.36,4.68,2.56,6.8,2.99"/>
	<path class="st0" d="M36.02,16.96c0.03-0.79,0.56-1.45,1.28-1.99c2.89-2.15,7.16-1.15,8.76,2.1c0.39,0.79,2.12,4.11-1.84,9.51
		c-1.54,2.1-3.5,3.84-5.35,5.66c-1.85,1.83-3.63,3.81-4.67,6.2"/>
	<path class="st0" d="M24.45,12.09c2.92-1.88,4.53-5.58,4.07-9.09c-0.08-0.62,0.58-1.08,1.14-0.82l0.89,0.41
		c0.79,0.37,1.13,1.09,0.96,1.78c-0.14,0.55-0.27,1.12-0.39,1.69c1.38-0.58,2.82-0.95,4.28-1.24c0.61-0.12,1.17,0.37,1.13,0.99
		c-0.01,0.22-0.03,0.44-0.04,0.66c-0.04,0.62-0.43,1.16-1,1.38c-1.42,0.57-2.85,1.15-4.31,1.74c-0.37,0.15-0.69,0.4-0.92,0.73
		l-2.11,3.01"/>
	<path class="st0" d="M36.02,20.48c0.02-0.44,1.53-1.94,1.53-1.94c1.68-1.21,3.88-0.64,4.81,1.18c0.21,0.41,0.29,0.85,0.37,1.26
		c0.65,3.35-3.81,6.85-5.09,8.08c-1.07,1.02-1.78,1.53-2.39,2.87"/>
	<path class="st1" d="M15.87,33.51c-1.6-1.38-4.34-1.05-5.58,0.67c-1.24,1.72-0.72,4.45,1.06,5.58s4.6,0.49,5.43-1.47L20,29.5
		c1.95-0.21,3.83,1.06,4.93,2.71c1.1,1.65,1.58,3.63,1.93,5.34c1.86-3.11,1.92-7.23,0.17-10.4s-5.26-5.27-8.74-4.95
		c-0.78,3.8-1.56,7.59-2.34,11.39"/>
	<path class="st0" d="M30.11,10.58c1.46,0.61,4.67,2.05,5.76,3.22"/>
	<path class="st0" d="M2.1,13.17c5.59-5.12,18.08-4.83,25.02-3.79"/>
	<path class="st0" d="M8.33,16.22c9,2.08,17.23,2.42,25.75-1.02"/>
	<path class="st0" d="M3.81,14.26c10.07-5.37,21.14-2.86,21.14-2.86"/>
	<path class="st0" d="M28.65,12.66c2.03,0.35,3.92,1.11,5.69,2.19"/>
	<path class="st0" d="M24.47,12.09c-0.16,0.44,0.97,0.88,1.56,0.7c0.79-0.23,1.96-0.04,2.12,0.56"/>
	<g id="Layer_3">
		<path class="st1" d="M15.4,13.57c0.98,0.21,1.58,1.48,1.12,2.38c-0.46,0.9-4.29,0.66-4.65,0.04c-0.35-0.62-0.12-1.51,0.42-2.03
			c1.03-0.08,2.05-0.31,3.08-0.4"/>
		<path class="st1" d="M22.44,12.66c-1.05,0.28-2.09,0.56-3.12,0.97c-0.37,0.94,0.27,2.57,1.18,2.59c0.78-0.52,2.2-1.12,3.09-1.69
			c-0.18-0.73-0.76-1.37-1.12-1.86"/>
	</g>
</g>
</svg>
