<?xml version="1.0" encoding="UTF-8"?>
<svg id="Layer_4" data-name="Layer 4" xmlns="http://www.w3.org/2000/svg" viewBox="0 0 48.21 47.5">
  <defs>
    <style>
      .cls-1 {
        stroke-width: .75px;
      }

      .cls-1, .cls-2 {
        fill: none;
        stroke: #000000;
        stroke-linecap: round;
        stroke-linejoin: round;
      }

      .cls-2 {
        stroke-width: .5px;
      }
    </style>
  </defs>
  <path class="cls-2" d="M19.74,13.09c-1.21.84-2.1,1.5-3.28,2.47,1.43-.05,2.87-.11,4.3-.22.06,2.48.13,4.96.19,7.44"/>
  <path class="cls-2" d="M20.96,22.92c.79-1.66,1.57-3.33,2.43-5.03l2.63,2"/>
  <path class="cls-2" d="M19.74,13.09c-1.7.54-3.49.98-4.94,2.02s-2.47,2.77-2.85,4.55c-.42,1.96-.73,3.29.64,4.44-2.09-.6-3.66-2.65-3.54-4.86"/>
  <path class="cls-2" d="M12.96,11.88c-.47-1.36-.94-2.72-1.47-3.93,1.88-.99,3.75-1.99,5.71-2.92l1.33,4.51"/>
  <path class="cls-2" d="M33.71,17.69c1.08-.93,2-1.79,3.07-2.56-1.12-1.83-2.24-3.65-3.45-5.47-1.13,1.07-2.35,2.14-3.48,3.2"/>
  <path class="cls-2" d="M29.7,12.66c-.52-1.43-.25-2.9.68-4.09s2.5-1.85,3.98-1.65c3.93.51,7.2,3.86,8.18,7.76s-.17,8.17-2.53,11.4c-2.37,3.23-5.85,5.49-9.57,6.87,1.38-.79,2.44-2.15,2.87-3.71-1.72,1.94-4.77,2.9-7.23,2.16,3.67-1.65,7.47-4.84,8.29-7.9.47-1.77.47-3.73-.52-5.38"/>
  <path class="cls-2" d="M18.54,9.54c1.33-.71,2.67-2.27,2.76-3.79s-.66-3.07-1.9-3.93c-3.27-2.28-7.9-1.99-11.18.27S3,8.31,2.66,12.33s.79,8.06,2.67,11.6c-.52-1.53-.41-3.26.28-4.71.01,2.61,1.46,5.25,3.79,6.36"/>
  <path class="cls-2" d="M9.08,19.89c-.1-1.96-.05-2.46.31-3.95"/>
  <path class="cls-2" d="M18.62,9.49c3.85-1.5,8.55.51,11.27,3.52"/>
  <path class="cls-2" d="M30.46,28.68c-1.53.93-3.41,1.5-5.38,1.7"/>
  <path class="cls-2" d="M8.75,19.91c.63,3.76,3.12,6.69,6.75,8.6.25.13.51.26.77.38l.33.15"/>
  <path class="cls-2" d="M9.05,18.06c-.57,1.59-.59,6.11.34,7.52"/>
  <path class="cls-2" d="M14.36,10.86c-.15-.58-.31-1.15-.4-1.73.67-.34,1.34-.68,2.05-.87l.72,1.69"/>
  <path class="cls-2" d="M30.95,13.98c.46-.33.92-.65,1.5-1.04.47.71.94,1.42,1.26,2.21l-1.08.9"/>
  <path class="cls-2" d="M12.96,11.88c-1.93.69-3.45,2.85-3.78,4.91"/>
  <path class="cls-2" d="M26.13,19.86c.13-1.07.07-2.16-.18-3.2"/>
  <path class="cls-2" d="M25.95,16.65c.94,1.46,1.55,2.32,2.34,3.94.74,1.53,1.32,3.27.89,4.99-.41,1.6-1.46,2.91-3.23,2.79,1.95.96,5.34-.19,6.64-1.74"/>
  <line class="cls-2" x1="29.53" y1="12.66" x2="33.85" y2="18.12"/>
  <path class="cls-2" d="M18.54,9.54c-2.03.86-4.06,1.71-6.09,2.57"/>
  <path class="cls-2" d="M16.79,19.89c-.69,1.56-1.17,3.21-1.44,4.89"/>
  <path class="cls-2" d="M24.86,22.5c-.61,1.59-1.02,3.26-1.2,4.96"/>
  <line class="cls-2" x1=".25" y1="14.23" x2="2.6" y2="14.19"/>
  <line class="cls-2" x1=".25" y1="14.23" x2="3.66" y2="36.31"/>
  <line class="cls-2" x1="38.05" y1="28.29" x2="38.05" y2="34.42"/>
  <line class="cls-2" x1="38.05" y1="34.42" x2="36.89" y2="41.92"/>
  <line class="cls-2" x1="3.66" y1="36.31" x2="3.66" y2="47.25"/>
  <line class="cls-2" x1="3.66" y1="47.25" x2="13.85" y2="45.37"/>
  <line class="cls-2" x1="36.89" y1="41.92" x2="37.88" y2="47.25"/>
  <line class="cls-2" x1="13.85" y1="45.37" x2="28.32" y2="45.75"/>
  <line class="cls-2" x1="37.88" y1="47.25" x2="28.32" y2="45.75"/>
  <path class="cls-1" d="M21.16,30.54c0,.07,0-.07,0,0-.05,1-.9,1.96-1.97,2.34-.27.1-.56.16-.85.18-1.43.08-2.72-.97-2.75-2.22-.01-.65.29-1.17.89-1.67"/>
  <path class="cls-1" d="M19.19,32.88c.61,2.61,1.08,5.08,1.69,7.69"/>
  <path class="cls-1" d="M24.39,35.63c-1.45-.02-2.89-.03-4.66.12-1.11,1.03-2.22,2.06-3.33,3.09"/>
  <path class="cls-1" d="M17.59,44.62c1.05-1.33,2.11-2.66,3.25-3.95,1.28.75,2.56,1.51,3.84,2.26"/>
  <path class="cls-1" d="M17.96,31.5c.25.29.73.4,1.14.26s.7-.53.7-.9"/>
  <path class="cls-1" d="M19.09,30.33q-.04-.14-.07-.28"/>
  <path class="cls-1" d="M17.64,30.01l.08.63"/>
  <path class="cls-1" d="M25.08,30.53c.21.9.29,1.68.24,2.62"/>
  <path class="cls-2" d="M25.08,30.38c-.99.05-2.95.09-3.92-.04-.74-.09-1.47-.23-2.17-.43h-.01c-.43-.11-.84-.25-1.25-.4-.39-.15-.76-.3-1.13-.47"/>
  <path class="cls-1" d="M24.13,30.64c.09.4.15.62.25,1.02.15.62.43,1.25,1.01,1.61"/>
  <path class="cls-1" d="M16.39,29.08c-.54-.34-1.44-.36-2.19-.19s-1.41.71-1.65,1.37c-.96,2.54-.66,5.36.8,7.55"/>
  <path class="cls-1" d="M15.54,31.04c-.91-.4-2.1.46-2.33,1.38s.13,1.82.36,2.71.29,1.94-.41,2.67"/>
  <path class="cls-1" d="M15.54,28.74c-.49,1.17-.81,1.61-1.3,2.78.42-.11.84-.21,1.26-.32"/>
  <path class="cls-1" d="M24.15,37.94c.19-1.14.37-2.27.46-3.45-.32-.27-.65-.54-.97-.8"/>
  <path class="cls-1" d="M24.69,34.5l.73-.83"/>
</svg>
