<?xml version="1.0" encoding="UTF-8"?>
<svg id="Layer_1" data-name="Layer 1" xmlns="http://www.w3.org/2000/svg" viewBox="0 0 48 48">
  <defs>
    <style>
      .cls-1, .cls-2, .cls-3, .cls-4, .cls-5, .cls-6 {
        stroke: #231f20;
      }

      .cls-1, .cls-2, .cls-3, .cls-5 {
        stroke-linejoin: round;
      }

      .cls-1, .cls-3, .cls-4 {
        fill: none;
      }

      .cls-1, .cls-4, .cls-5 {
        stroke-width: .5px;
      }

      .cls-2, .cls-3, .cls-6 {
        stroke-width: .25px;
      }

      .cls-2, .cls-5, .cls-6 {
        fill: #231f20;
      }

      .cls-4, .cls-6 {
        stroke-miterlimit: 10;
      }
    </style>
  </defs>
  <path class="cls-4" d="M17.19,5.78l-1.25,3.17s2.74,3.17,10.09,3.98l1.25-3.17s-6.16.18-10.09-3.98Z"/>
  <path class="cls-4" d="M15.94,8.95s-2.64.25-2.39,1.36c.41,1.78,5.57,4.91,9.32,5.46,3.4.69,5.95-.4,3.16-2.84"/>
  <path class="cls-4" d="M15.93,8.95s-2.87-.33-4.38,1.47-6.98,34.59-6.98,34.59l5.39,2.12s18.14-27.79,18.27-30.14c.13-2.35-2.2-4.07-2.2-4.07"/>
  <line class="cls-4" x1="5.77" y1="38.02" x2="13.81" y2="41.19"/>
  <polygon class="cls-6" points="20.24 8.17 17.02 9.61 18.37 10.56 21.72 8.82 20.24 8.17"/>
  <path class="cls-6" d="M22.19,12.02s2.84-1.26,3.06-2.15l1.84-.1s-2.74,2.93-3.19,2.84-1.71-.59-1.71-.59Z"/>
  <path class="cls-6" d="M5.19,45.26s6.87-3.38,7.14-4.39l1.21.41s-6.19,4.83-7.27,4.41l-1.08-.42Z"/>
  <path class="cls-6" d="M8.19,39.24s-2.35.81-2.59.95-.49,1.72-.49,1.72c0,0,4.11-1.77,4.28-2.2s-1.19-.47-1.19-.47Z"/>
  <polygon class="cls-1" points="19.59 15.02 16.32 20.47 12.11 19.64 15.31 22.3 14.77 27.96 17.98 23.35 22.38 23.7 18.49 21.35 19.59 15.02"/>
  <circle class="cls-2" cx="17.06" cy="21.86" r=".64"/>
  <line class="cls-1" x1="40.34" y1="10.56" x2="34.31" y2="28.09"/>
  <path class="cls-5" d="M33.56,34.8c-.52-.85,2.08-4.79,1.97-5.65s-1.44-1.26-1.44-1.26c0,0-2.71.56-2.48,2.66.23,2.09,1.95,4.26,1.95,4.26Z"/>
  <polygon class="cls-5" points="37.74 9.91 42.97 11.55 44.74 6.92 39.56 5.26 37.74 9.91"/>
  <path class="cls-3" d="M13.81,11.99c-.24-.16-1.36-1.54-1.99,1.67"/>
  <line class="cls-3" x1="11.26" y1="14.94" x2="10.07" y2="20.28"/>
  <path class="cls-4" d="M17.17,5.67s6.89-.33,10.2,4.02"/>
</svg>