<?xml version="1.0" encoding="UTF-8" standalone="no"?>
<svg
   id="Masks"
   viewBox="0 0 48 48"
   version="1.1"
   sodipodi:docname="Masks.svg"
   inkscape:version="1.4.4 (dcaf3e7, 2026-05-05)"
   xmlns:inkscape="http://www.inkscape.org/namespaces/inkscape"
   xmlns:sodipodi="http://sodipodi.sourceforge.net/DTD/sodipodi-0.dtd"
   xmlns="http://www.w3.org/2000/svg"
   xmlns:svg="http://www.w3.org/2000/svg">
  <sodipodi:namedview
     id="namedview21"
     pagecolor="#ffffff"
     bordercolor="#000000"
     borderopacity="0.25"
     inkscape:showpageshadow="2"
     inkscape:pageopacity="0.0"
     inkscape:pagecheckerboard="0"
     inkscape:deskcolor="#d1d1d1"
     inkscape:zoom="17.89864"
     inkscape:cx="23.80069"
     inkscape:cy="22.990573"
     inkscape:window-width="1704"
     inkscape:window-height="1401"
     inkscape:window-x="1699"
     inkscape:window-y="0"
     inkscape:window-maximized="0"
     inkscape:current-layer="Masks" />
  <defs
     id="defs1">
    <style
       id="style1">
      .cls-1, .cls-2 {
        stroke-miterlimit: 10;
      }

      .cls-1, .cls-2, .cls-3, .cls-4 {
        stroke: #000;
        stroke-width: .5px;
      }

      .cls-1, .cls-3 {
        fill: none;
      }

      .cls-1, .cls-3, .cls-4 {
        stroke-linecap: round;
      }

      .cls-3, .cls-4 {
        stroke-linejoin: round;
      }
    </style>
  </defs>
  <path
     class="cls-3"
     d="m 14.14,29.77 -1.96,-1.21 -3.14,2.47 c 0,0 -1.53,5.47 -2.73,6.51 -1.2,1.04 0.8,2.97 0.8,2.97 0,0 4.19,-1.37 3.9,-2.97 -0.29,-1.6 1.16,0 1.16,0 l 1.29,-3.58 -0.34,-1.86 -1.67,-0.75 2.68,-1.58 z"
     id="path1" />
  <path
     class="cls-3"
     d="m 14.85,15.1 c 0,0 1.22,3.47 -2.67,4.75 l 3.3,9.16 9.45,-5.62 c 0,0 0.08,-6.11 -1.39,-8.45 L 20.06,9.39 19.9,15.1 c 0,0 -4.22,1.34 -5.05,-0.01 z"
     id="path2" />
  <path
     class="cls-2"
     d="M 24.622714,21.52835 11.46,31.35 c 0,0 7.48,3.62 9.33,2.33 1.85,-1.29 3.97,-4.66 3.97,-4.66 z"
     id="path3"
     sodipodi:nodetypes="ccscc" />
  <path
     class="cls-3"
     d="m 24.93,10.53 2.05,3.38 -0.62,0.72 1.101298,1.625311 L 27.38,18.49 28.136726,18.214427 c 0,0 1.729351,-1.302714 2.529351,-0.742714 0.8,0.56 1.552832,2.49761 1.552832,2.49761 l -0.726313,2.691858 c -1.135896,1.35367 -1.431531,2.37348 -2.806401,2.986474 L 29.20587,26.933968 32.61,24.83 c 0,0 0.56,0.08 0.72,-0.56 0.16,-0.64 0.72,-5.06 0.72,-5.06 0,0 -3.3,-1.61 -3.3,-2.25 0,-0.64 2.88,-4.3 6.19,-4.98 0,0 1.45,-0.8 2.17,-0.24 0.72,0.56 2.57,1.45 2.57,1.45 C 41.2,5.23 36.05,2.9 36.05,2.9 36.05,2.9 31.71,-0.64 22.3,1.13 12.89,2.9 10.4,9.49 11.13,12.3 c 0.73,2.81 2.81,4.02 2.81,4.02 0,0 -0.64,-3.05 -0.56,-3.54 0.08,-0.49 1.29,2.89 2.25,2.89 0.96,0 4.26,-0.56 4.26,-0.56 0,0 -0.5,-5.33 0.16,-5.71 l 3.48,5.55 c 0,0 1.59,3.86 1.43,7.48 -0.16,3.62 -0.16,9.41 -0.56,10.21 -0.4,0.8 -1.53,2.09 -1.53,2.09 l 1.61,-1.21 c 0,0 1.29,-1.61 1.29,-2.57 0,-0.96 0.72,-13.18 0.16,-15.76 C 25.37,12.61 23.68,4.9 21.99,3.85"
     id="path4"
     sodipodi:nodetypes="ccccccscccccscscsccsscsscccssccssc" />
  <polygon
     class="cls-4"
     points="28.77,26.56 25.9,27.89 25.98,26.21 "
     id="polygon5"
     transform="translate(0.19554558,-0.73998765)" />
  <path
     class="cls-3"
     d="m 30.446402,19.340739 c -1.051638,-1.159745 -2.805853,1.863248 -2.549558,4.508819"
     id="path5"
     sodipodi:nodetypes="cc" />
  <path
     class="cls-3"
     d="m 38.4,11.54 c 0,0 -3.14,0.84 -2.74,3.81 0.4,2.97 1.5,8.2 1.35,9.89 -0.15,1.69 -1.42,6.9 -1.39,8.72 0.03,1.82 0.04,11.62 3.81,11.62 3.77,0 5.15,-1.61 5.31,-2.73 0.16,-1.12 -1.56,2.97 -4.56,1.37 -3,-1.6 -1.47,-7.32 -1.47,-7.32 0,0 2.73,-11.09 2.97,-14.79 0.24,-3.7 1.37,-7.14 -3.29,-10.56 z"
     id="path6" />
  <path
     class="cls-4"
     d="m 35.74,15.92 -1.69,3.3 c 0,0 -3.58,-1.62 -3.3,-2.25 0.28,-0.63 4.02,-4.74 6.19,-4.98 2.17,-0.24 -2.25,0.08 -1.21,3.94 z"
     id="path7" />
  <path
     class="cls-4"
     d="m 39.12,11.74 c 0,0 5.95,4.18 6.11,5.39 0.16,1.21 -3.38,3.24 -3.38,3.24 0,0 1.29,-5.81 -2.73,-8.62 z"
     id="path8" />
  <polygon
     class="cls-4"
     points="36.41,20 35.74,15.92 34.05,19.21 32.6,26.29 35.74,26.29 "
     id="polygon8" />
  <polygon
     class="cls-4"
     points="42.54,19.93 43.22,26.92 40.94,26.92 41.84,20.36 "
     id="polygon9" />
  <polygon
     class="cls-3"
     points="28.77,26.56 30.19,28.56 25.77,30.95 25.9,27.89 "
     id="polygon10" />
  <line
     class="cls-3"
     x1="24.08"
     y1="30.030001"
     x2="24.66"
     y2="30.950001"
     id="line10" />
  <g
     id="g20">
    <path
       class="cls-1"
       d="M25.77,30.95c-.14,1.52-1.87,3.01-1.87,3.01,0,0,.1,1.41-.06,2.05s-2.41,5.87-2.73,6.43-2.91,4.26-2.91,4.26h23.98s0-1.49-1.99-1.13-2.95-1.59-3.31-2.34-.84-3.3-1.03-4.78,0-6.69,0-6.69c-1.42,0-3.89-2.43-4.37-3.21s-1.29,0-1.29,0l-4.42,2.39Z"
       id="path11" />
    <path
       class="cls-1"
       d="M24.37,42.85s3.16-10.85,5.82-10.77,5.44,1.88,5.44,1.88"
       id="path12" />
    <line
       class="cls-1"
       x1="26.36"
       y1="42.28"
       x2="25.9"
       y2="46.71"
       id="line12" />
    <line
       class="cls-1"
       x1="34.15"
       y1="37.46"
       x2="36.95"
       y2="46.71"
       id="line13" />
    <path
       class="cls-1"
       d="M27.33,37.46s2.94-3.51,4.15-2.92,4.07,2.36,4.07,2.36"
       id="path13" />
    <line
       class="cls-1"
       x1="38.45"
       y1="38.26"
       x2="39.53"
       y2="43.72"
       id="line14" />
    <path
       class="cls-3"
       d="M6.32,37.54s-2.49,0-2.49.72,2.11.57,2.11.57c0,0-.79,1.21,0,1.69s3.76.48,3.76.48c0,0,.96-.96,1.77-.48s3.22-1.25,3.22-1.25l-1.37-.52s1.34-.17.83-.49-3.12-.72-3.12-.72"
       id="path14" />
    <path
       class="cls-3"
       d="M3.82,38.26s-.16,3.62,1.77,4.59,2.09,1.65,2.09,1.65c0,0,4.18.35,5.63-.77s1.37-4.46,1.37-4.46"
       id="path15" />
    <polyline
       class="cls-3"
       points="9.25 39.59 9.25 40.99 6.32 40.67 5.93 38.83"
       id="polyline15" />
    <path
       class="cls-3"
       d="M5.93,40.52s-1.15,1.89.75,2.96"
       id="path16" />
    <line
       class="cls-3"
       x1="9.69"
       y1="40.99"
       x2="9.69"
       y2="44.49"
       id="line16" />
    <line
       class="cls-3"
       x1="11.46"
       y1="40.99"
       x2="12.19"
       y2="44.23"
       id="line17" />
    <path
       class="cls-4"
       d="M2.3,42.08s.08,3.82.96,4.14,1.93-.64,1.93-.64c0,0,.04-2.37.94-2.11s-2.71-2.07-3.83-1.39Z"
       id="path17" />
    <path
       class="cls-4"
       d="M8.17,46.71s-.29-3.81-2.04-3.23-.94,3.23-.94,3.23h2.97Z"
       id="path18" />
    <path
       class="cls-3"
       d="M14.3,42.08s3.99.83,2.95,4.62h-8.68l-1.89-.42,1.01-1.79s5.67.84,6.61-2.41Z"
       id="path19" />
    <path
       class="cls-4"
       d="M13.31,43.72s-.11,1.88-5.32,1.86-.31-1.09-.31-1.09c0,0,5.06,0,5.63-.77Z"
       id="path20" />
  </g>
  <path
     style="font-variation-settings:'wght' 800;fill:#000000;fill-opacity:1;stroke:none;stroke-width:0.5;stroke-dasharray:none;stroke-opacity:1"
     d="m 26.245011,20.33674 2.053227,-2.123066 -2.039261,5.880335 z"
     id="path22"
     sodipodi:nodetypes="cccc" />
</svg>
