<?xml version="1.0" encoding="UTF-8"?>
<svg id="Layer_1" data-name="Layer 1" xmlns="http://www.w3.org/2000/svg" viewBox="0 0 48 48">
  <defs>
    <style>
      .cls-1 {
        fill: #231f20;
      }

      .cls-1, .cls-2, .cls-3 {
        stroke: #231f20;
        stroke-miterlimit: 10;
        stroke-width: .5px;
      }

      .cls-2 {
        stroke-linecap: round;
      }

      .cls-2, .cls-3 {
        fill: none;
      }
    </style>
  </defs>
  <rect class="cls-3" x="20.28" y="21.59" width="9.08" height="4.93" transform="translate(25.71 -10.5) rotate(47.37)"/>
  <circle class="cls-2" cx="44.25" cy="3.37" r="1.09"/>
  <path class="cls-3" d="M20.3,29.25s8.03-2.2,9.7,4.58c1.61,6.54-7.72,8.3-7.72,8.3,0,0-.97.29-6.27.87-1.24.14-6.26.19-7.51.13l-3.67-.15v-8.6c-.01-2.12.36-6.82.78-8.16.27-.88.61-1.87.94-2.73.99-2.63,4.18-6.47,9.05-5.15,6.73,1.84,3.94,9.82,3.94,9.82l-.42,1.33,1.2-.24Z"/>
  <path class="cls-3" d="M29.58,18.31s-8.78,3.05-10.64-3.57c-1.78-6.38,7.4-8.59,7.4-8.59,0,0,.95-.33,6.17-1.18,1.22-.2,6.19-.5,7.43-.51l3.63-.03.26,8.5c.06,2.1-.17,6.75-.54,8.11-.25.89-.55,1.88-.85,2.75-.9,2.65-3.95,6.61-8.8,5.54-6.71-1.47-3.15-10.66-3.15-10.66l.24-.8-1.16.46Z"/>
  <path class="cls-3" d="M30.66,17.59s-5.97,2.05-7.22-2.44,5.04-5.82,5.04-5.82c0,0,.65-.23,4.19-.79.83-.13,4.2-.33,5.04-.34l2.47-.02.16,5.77c.04,1.42-.13,4.58-.38,5.5-.17.6-.38,1.27-.58,1.86-.62,1.8-2.69,4.48-5.98,3.75-4.55-1.01-2.12-7.24-2.12-7.24l.17-.54-.79.31Z"/>
  <line class="cls-3" x1="34.52" y1="21.12" x2="32.3" y2="10.97"/>
  <line class="cls-3" x1="36.92" y1="17.95" x2="35.33" y2="11.69"/>
  <polygon class="cls-3" points="9.61 39.07 16.23 39.78 20.85 38.51 22.49 35.06 21.2 32.02 17.39 31.21 17.29 31.1 16.72 27.25 13.77 25.78 10.23 27.19 8.67 31.73 8.96 38.38 9.04 38.95 9.61 39.07"/>
  <polygon class="cls-3" points="11.61 36.74 14.91 37.1 17.22 36.46 18.03 34.74 17.39 33.23 15.49 32.82 15.44 32.77 15.16 30.85 13.68 30.11 11.91 30.82 11.14 33.08 11.28 36.4 11.32 36.69 11.61 36.74"/>
  <line class="cls-3" x1="15.49" y1="32.82" x2="17.29" y2="31.1"/>
  <line class="cls-3" x1="17.39" y1="33.23" x2="21.2" y2="32.02"/>
  <line class="cls-3" x1="18.03" y1="34.74" x2="22.49" y2="35.06"/>
  <line class="cls-3" x1="17.22" y1="36.46" x2="20.85" y2="38.51"/>
  <line class="cls-3" x1="14.91" y1="37.1" x2="16.23" y2="39.78"/>
  <line class="cls-3" x1="11.32" y1="36.69" x2="9.04" y2="38.95"/>
  <line class="cls-3" x1="15.16" y1="30.85" x2="16.72" y2="27.25"/>
  <line class="cls-3" x1="13.68" y1="30.11" x2="13.77" y2="25.78"/>
  <line class="cls-3" x1="11.91" y1="30.82" x2="10.23" y2="27.19"/>
  <line class="cls-3" x1="11.14" y1="33.08" x2="8.67" y2="31.73"/>
  <polygon class="cls-1" points="23.42 40.65 23.09 40.05 22.42 40.18 22.89 39.68 22.56 39.08 23.18 39.37 23.65 38.87 23.56 39.55 24.18 39.85 23.51 39.97 23.42 40.65"/>
  <path class="cls-3" d="M22.73,39.03s2.94-3.59.75-5.77c0,0,.89-.09,1.67.27s.32-1.33.32-1.78c0-.34,1.11,1.39,1.22,1.92.13.64,1.1-.17.92-.86-.23-.87,2.97,4.44-3.62,6.86"/>
  <polygon class="cls-1" points="8.03 24.5 8.61 24.87 8.44 25.54 8.97 25.1 9.55 25.47 9.3 24.83 9.82 24.39 9.14 24.43 8.89 23.8 8.72 24.46 8.03 24.5"/>
  <path class="cls-3" d="M9.06,24.01c2.86-6.41,7.94-2.87,7.09-3.15-.68-.23-1.55.69-.92.86.52.14,2.17,1.37,1.83,1.34-.45-.03-2.1-.57-1.8.2s.16,1.68.16,1.68c-2.03-2.34-5.81.36-5.81.36"/>
  <circle class="cls-3" cx="7.27" cy="40.61" r="1.38"/>
  <path class="cls-3" d="M8.88,41.6s.64.65,1.1.68c.39.02,3.97-1.29,5.53-.34,1.56.94,6.59-.83,6.59-.83l-1.41-.56.49-.72-1.25.23c.1,0-2.82.95-3.63.54-.29-.15-3.48-.68-4.09-.18-.59.49-2.69-.02-2.69-.02l.38,1.01-1.03.2Z"/>
  <path class="cls-3" d="M6.15,38.91s-.6-.69-.6-1.15c0-.39,1.55-3.88.72-5.5s1.27-6.52,1.27-6.52l.46,1.45.75-.44-.32,1.24c.01-.1-1.14,2.75-.78,3.58.13.3.44,3.52-.1,4.09-.53.55-.16,2.68-.16,2.68l-.98-.45-.27,1.01Z"/>
</svg>