<?xml version="1.0" encoding="UTF-8" standalone="no"?>
<!-- Created with Inkscape (http://www.inkscape.org/) -->

<svg
   width="48"
   height="48"
   viewBox="0 0 48 48"
   version="1.1"
   id="svg1"
   xml:space="preserve"
   inkscape:version="1.4.2 (f4327f4, 2025-05-13)"
   sodipodi:docname="Mouse_Pad.svg"
   xmlns:inkscape="http://www.inkscape.org/namespaces/inkscape"
   xmlns:sodipodi="http://sodipodi.sourceforge.net/DTD/sodipodi-0.dtd"
   xmlns="http://www.w3.org/2000/svg"
   xmlns:svg="http://www.w3.org/2000/svg"><sodipodi:namedview
     id="namedview1"
     pagecolor="#ffffff"
     bordercolor="#000000"
     borderopacity="0.25"
     inkscape:showpageshadow="2"
     inkscape:pageopacity="0.0"
     inkscape:pagecheckerboard="0"
     inkscape:deskcolor="#d1d1d1"
     inkscape:document-units="px"
     inkscape:zoom="20.341193"
     inkscape:cx="-41.639643"
     inkscape:cy="42.844095"
     inkscape:window-width="5120"
     inkscape:window-height="2131"
     inkscape:window-x="-9"
     inkscape:window-y="-9"
     inkscape:window-maximized="1"
     inkscape:current-layer="layer3" /><defs
     id="defs1" /><g
     inkscape:label="Layer 1"
     inkscape:groupmode="layer"
     id="layer1" /><g
     inkscape:groupmode="layer"
     id="layer3"
     inkscape:label="Layer 3"><path
       id="path651"
       style="display:none;fill:none;stroke:#000000;stroke-width:0.6;stroke-opacity:1;stroke-dasharray:none"
       d="M 1.7753906,10.994141 C 0.68646025,11.391173 0.86000542,12.089067 0.74804688,12.71875 l -0.007813,26.6875 c 0.0649955,0.748421 0.0469787,1.406788 1.18164062,1.582031 l 32.0488285,0.08789 c 0.350788,-0.01882 0.61863,-0.232404 0.796875,-0.66211 -0.01961,-0.0099 -0.03912,-0.02007 -0.06055,-0.03125 -0.126754,-0.06616 -0.254449,-0.136616 -0.369141,-0.222656 -0.01539,-0.01154 -0.02821,-0.02477 -0.04297,-0.03711 -0.0816,-0.0682 -0.05546,-0.141322 0.0078,-0.148438 0.02876,-0.0032 0.06403,0.0086 0.101563,0.03906 0.01109,0.009 0.02168,0.01699 0.0332,0.02539 0.107799,0.07893 0.225517,0.145452 0.34375,0.207032 0.01436,0.0075 0.02753,0.0146 0.04102,0.02148 0.08494,-0.255719 0.143547,-0.575051 0.173828,-0.960937 l -0.0039,-2.648438 c -0.0035,-0.02139 -0.0073,-0.04361 -0.01172,-0.06836 -0.0181,-0.101051 -0.04498,-0.199856 -0.05078,-0.302735 -0.004,-0.07157 0.02732,-0.111809 0.0625,-0.117187 l -0.0332,-22.882813 C 34.977709,12.180132 34.683365,11.3178 33.70312,10.994131 Z" /><path
       id="path652"
       style="display:inline;fill:none;fill-opacity:1;stroke:#000000;stroke-width:0.6;stroke-dasharray:none;stroke-opacity:1"
       d="m 25.049595,3.5146255 c -0.01121,1.913e-4 -0.02158,0.00184 -0.03275,0.00205 0.03471,-7.426e-4 0.06935,-4.486e-4 0.102596,0 -0.02313,-6.853e-4 -0.04733,-0.00249 -0.06985,-0.00205 z m 0.159346,0.00422 c 0.761348,0.033544 1.109674,0.3619648 1.279122,0.4307186 l 0.753066,0.365262 -0.862207,-0.4307187 C 25.850091,3.544841 25.688083,3.5485662 25.49707,3.5251719 c -0.09779,-0.00595 -0.192898,-0.00519 -0.288129,-0.00638 z m -0.316508,0.00638 c -0.376531,0.018831 -0.731289,0.076763 -1.05211,0.1984684 0.409899,-0.1257365 0.754794,-0.1809051 1.05211,-0.1984684 z m -1.05211,0.1984684 c -0.01598,0.00497 -0.03178,0.00962 -0.04802,0.014778 -0.65681,0.3699438 -1.10154,0.7853629 -2.171889,1.0683496 0.782924,-0.19075 1.523447,-0.49613 2.165341,-1.0620159 l 0.0131,-0.00422 c 0.01374,-0.00541 0.0276,-0.011632 0.04147,-0.016896 z M 21.12055,4.9208371 c -0.228235,0.041414 -0.459122,0.074255 -0.691947,0.1034534 0.0039,9.73e-5 0.0092,-1.092e-4 0.0131,0 0.248954,-0.030247 0.472957,-0.064158 0.678852,-0.1034534 z m -0.956066,0.097119 c -0.170405,0.004 -0.329981,0.028636 -0.484583,0.063337 0.216391,-0.04377 0.461331,-0.06404 0.746519,-0.057002 -0.08994,-0.00638 -0.176416,-0.00832 -0.261936,-0.00638 z m -0.71596,0.1224231 c -0.25583,0.078006 -0.463456,0.189496 -0.643927,0.3230385 0.199831,-0.136938 0.412382,-0.2462278 0.643927,-0.3230385 z m -0.643927,0.3230321 c -0.450413,0.3086555 -0.830519,0.7537301 -1.180896,1.2520383 0.422963,-0.3950245 0.702381,-0.8979552 1.180896,-1.2520383 z m -1.185261,1.2562608 -1.23765,0.601739 1.224552,-0.5890705 c 0.0046,-0.00422 0.0085,-0.00843 0.0131,-0.01267 z m -1.239832,0.6038502 -0.0044,0.00216 -0.971348,1.0176769 c -0.02748,0.034409 -0.05413,0.067812 -0.08077,0.1013454 0.02636,-0.030874 0.05336,-0.061964 0.08077,-0.092903 z m -1.558521,1.7967698 c -0.142721,0.215408 -0.266038,0.4500884 -0.379808,0.7073069 0.104316,-0.2339767 0.229004,-0.4706396 0.379808,-0.7073069 z m 4.075292,1.2414819 c -2.55e-4,0.0061 2.64e-4,0.01299 0,0.019 0.0056,0.01761 0.0097,0.03522 0.01528,0.05279 -0.0055,-0.02357 -0.01017,-0.04815 -0.01528,-0.07179 z m 0.01528,0.07179 c 0.160333,0.691843 0.451679,1.351954 0.820734,1.995239 -0.321008,-0.625935 -0.595757,-1.289683 -0.820734,-1.995239 z m 0.820734,1.995239 c 0.563174,1.098138 1.272441,2.075945 2.121684,2.936907 -0.770373,-0.964022 -1.543034,-1.928283 -2.121684,-2.936907 z m 2.121684,2.936907 c 0.01693,0.02119 0.03328,0.04216 0.0502,0.06334 l -0.02183,-0.07179 c 0.0022,0.01493 0.0045,0.02959 0.0066,0.04434 -0.01167,-0.01174 -0.0233,-0.02412 -0.03493,-0.03589 z m -2.957697,-4.98493 -0.0022,-0.0022 c -0.360085,2.508032 0.184792,5.014756 0.809819,7.522788 l 0.0131,0.019 c -1.236354,-5.363537 -0.886862,-6.032269 -0.82068,-7.539632 z m 0.807636,7.520677 -2.335599,-3.346511 0.0044,0.02745 2.333415,3.331732 c -9.01e-4,-0.0036 -0.0012,-0.0091 -0.0022,-0.01267 z m -2.331232,-3.319062 -0.0044,-0.0064 c 0.02921,0.452971 -0.137565,-0.474483 -0.02499,-0.0081 z m -0.759616,-3.578762 c -0.0076,0.03115 -0.01421,0.06178 -0.02183,0.0929 0.0078,-0.0231 0.01389,-0.04661 0.02183,-0.06967 0.358644,1.830452 0.354593,1.676233 0.742731,3.520949 z m -0.02183,0.0929 c -0.278775,0.825548 -0.471897,1.680006 -0.565345,2.565307 0.129748,-0.877932 0.357734,-1.718225 0.565345,-2.565307 z m -0.565345,2.565307 c -0.139331,0.942763 -0.166932,1.930456 0.06767,3.021361 -0.154398,-1.049457 -0.169669,-2.054589 -0.06767,-3.021361 z m 0.06767,3.021361 c 0.0077,0.05218 0.01565,0.103832 0.02401,0.156241 l 0.01965,0.211136 c -0.262934,-0.152211 -0.495654,-0.324474 -0.702862,-0.513062 0.21968,0.209416 0.467325,0.403339 0.746518,0.580626 l -0.06985,-0.358931 c -0.0058,-0.02568 -0.01197,-0.05045 -0.01746,-0.07601 z m -0.659206,-0.145685 c -0.906529,-0.864169 -1.350658,-1.978371 -1.706952,-3.139597 0.117412,-0.758377 0.156992,-1.511391 0.309958,-2.271826 -0.123067,0.585103 -0.227022,1.317829 -0.318689,2.280272 0.350946,1.069575 0.765869,2.266693 1.715683,3.131151 z m 5.526855,-4.283955 c 0.05534,0.211443 0.116868,0.41084 0.181173,0.603849 l 0.73997,2.495632 c -0.07394,-0.494438 -0.247324,-1.085242 -0.449658,-1.703871 0.208364,0.53063 0.423611,1.044737 0.600272,1.64053 -0.301757,-1.054979 -0.711921,-2.026347 -1.071757,-3.03614 z m 1.955791,2.951686 c 0.0077,0.204796 0.01993,0.403563 0.03492,0.597516 -0.01263,-0.180725 -0.02313,-0.364843 -0.03055,-0.544732 -0.0013,-0.01717 -0.003,-0.03546 -0.0044,-0.05279 z m 0.0044,0.05279 c 0.02082,0.276004 0.03804,0.534199 0.0502,0.770647 -0.0068,-0.07493 -0.01375,-0.149665 -0.01965,-0.225915 0.0068,0.09751 0.01377,0.195775 0.02183,0.293479 0.152731,3.096054 -0.405241,2.906554 -0.665756,4.093934 0.592381,-1.136458 0.770087,-2.098719 0.709411,-3.612543 0.135076,1.380747 0.344836,2.77296 0.318689,4.127715 0.07776,-1.701776 -0.174838,-2.911149 -0.325237,-4.273399 -0.01815,-0.371066 -0.04917,-0.775455 -0.09168,-1.222479 6.09e-4,0.01605 0.0016,0.03249 0.0022,0.04856 z m 0.414733,5.447317 c -0.02098,0.459008 -0.06665,0.953967 -0.144065,1.496957 0.09115,-0.491906 0.134318,-0.991927 0.144065,-1.496957 z m -0.144061,1.496951 c -0.01106,0.05987 -0.02236,0.119837 -0.03492,0.179465 -0.257812,0.200723 -0.480972,0.364448 -0.678852,0.498282 0.237501,-0.150408 0.465728,-0.311144 0.6854,-0.483502 0.0099,-0.06485 0.01932,-0.130738 0.02838,-0.194245 z m -0.713776,0.677747 c -0.386009,0.244456 -0.794553,0.459424 -1.22237,0.652411 0.335231,-0.137438 0.684084,-0.288346 1.22237,-0.652411 z M 22.17052,15.811207 c 0.243734,1.05047 0.348932,2.387941 0.113506,4.423307 0.007,-0.01327 0.01493,-0.02691 0.02183,-0.04012 0.296375,-1.725974 0.169153,-3.124701 -0.135333,-4.383191 z m -4.822795,-1.238332 1.915856,2.763235 c 0.01206,0.05235 0.382942,0.509873 0.395191,0.562325 -0.01298,-0.564509 -2.341656,-3.335429 -2.348094,-3.337504 z"
       sodipodi:nodetypes="sccssccccsscccscccccssccssccccccccccccccsccccccccccccccccccccccccccccccsccccccccccccccccccccccccccccscccccccccccccccccccccccccccccccccccccccsccssccccc" /><path
       style="fill:#000000;fill-opacity:1;stroke:#000000;stroke-width:0.214582;stroke-dasharray:none;stroke-opacity:1"
       d="m 37.503082,27.055553 -1.637424,4.072121 c -0.196123,0.851759 0.224655,1.471895 0.443756,2.067907 1.776618,1.784624 3.477646,1.648878 4.232777,1.10578 0.394221,-0.239993 0.621736,-0.689969 0.794152,-1.20935 l 1.436875,-3.817455 c 0.232393,-0.741674 -0.208728,-1.389182 -0.62139,-1.89615 -0.985772,-0.880009 -1.836055,-1.076674 -2.827637,-1.291877 -0.875405,-0.212768 -1.326407,0.565778 -1.821109,0.969024 z"
       id="path706"
       sodipodi:nodetypes="ccccccccc" /><path
       style="fill:none;fill-opacity:1;stroke:#000000;stroke-width:0.6;stroke-dasharray:none;stroke-opacity:1"
       d="m 27.086225,4.7422642 -1.834058,4.7343013 c -0.244694,0.311779 -0.213798,0.5776265 0.07182,0.8010205 l 2.508015,3.634971 c 0.163384,0.133856 0.243618,0.0737 0.320408,0.0055 l 0.243068,-0.171229 c 0.09882,-0.120213 0.07578,-0.259172 -0.01657,-0.408796 L 26.058711,9.7969735 c -0.278593,-0.151344 -0.09998,-0.320976 -0.03315,-0.486136 l 1.463936,-3.8283203 c 0.191481,-0.402275 0.363503,-0.104055 0.541379,-0.01657 l 0.728418,0.980084 0.19533,0.271079 c 0.161147,-0.144375 0.715629,-0.602606 0.523438,-0.570312 l -0.726563,-0.96875 -0.984375,-0.609375 c -0.284054,-0.07262 -0.541305,-0.08398 -0.680899,0.173594 z"
       id="path653"
       sodipodi:nodetypes="ccccccccccccccccc" /><path
       style="fill:none;fill-opacity:1;stroke:#000000;stroke-width:0.6;stroke-dasharray:none;stroke-opacity:1"
       d="M 13.990045,11.190639 14.470732,9.7005569 Z"
       id="path675"
       sodipodi:nodetypes="ccc" /><path
       style="fill:none;fill-opacity:1;stroke:#000000;stroke-width:0.6;stroke-dasharray:none;stroke-opacity:1"
       d="M 14.715149,9.25449 15.445401,8.3478742 Z"
       id="path676"
       sodipodi:nodetypes="cc" /><path
       style="fill:none;fill-opacity:1;stroke:#000000;stroke-width:0.6;stroke-dasharray:none;stroke-opacity:1"
       d="m 19.31516,5.1637385 c 0.185416,-0.048698 0.370983,-0.099136 0.555316,-0.1355642 z"
       id="path677"
       sodipodi:nodetypes="cc" /><path
       style="fill:none;fill-opacity:1;stroke:#000000;stroke-width:0.6;stroke-dasharray:none;stroke-opacity:1"
       d="m 20.951933,4.9478403 0.839404,-0.189703 z"
       id="path678"
       sodipodi:nodetypes="cc" /><path
       style="fill:none;fill-opacity:1;stroke:#000000;stroke-width:0.6;stroke-dasharray:none;stroke-opacity:1"
       d="m 24.451817,3.5765454 c 0.210938,-0.08647 0.667969,-0.06021 0.878907,-0.02344 z"
       id="path679"
       sodipodi:nodetypes="cc" /><path
       style="fill:none;fill-opacity:1;stroke:#ffffff;stroke-width:0.6;stroke-dasharray:none;stroke-opacity:1"
       d="M 28.121561,13.772824 25.757173,10.215191 C 25.517452,10.071947 25.584172,9.8454608 25.724023,9.5854244 l 1.635189,-4.2094955 c 0.111743,-0.292487 0.275647,-0.419797 0.563475,-0.154679 l 1.314777,1.314776 -1.259534,-1.259534 c -0.340565,-0.257575 -0.454141,0.0037 -0.596621,0.198874 l -1.657282,4.1321555 c -0.08712,0.3448264 -0.0753,0.2976124 0.05524,0.6187186 z"
       id="path680"
       sodipodi:nodetypes="ccccccccccc" /><path
       style="fill:none;fill-opacity:1;stroke:#000000;stroke-width:0.6;stroke-dasharray:none;stroke-opacity:1"
       d="m 19.922191,16.742703 c 0.566972,-0.24441 0.930563,-0.743046 1.25,-1.296875 -0.327869,0.398139 -0.192686,0.618181 -1.25,1.296875 z"
       id="path681"
       sodipodi:nodetypes="ccc" /><path
       style="fill:none;fill-opacity:1;stroke:#000000;stroke-width:0.6;stroke-dasharray:none;stroke-opacity:1"
       d="m 27.761894,19.301573 0.845214,-0.994369 0.939126,-1.010942 0.580048,-1.149048 0.552428,-2.032933 0.01104,0.01657 -0.541374,1.988738 -0.596621,1.182194 -0.939127,1.005418 z"
       id="path682"
       sodipodi:nodetypes="cccccccccc" /><path
       id="path3-8"
       style="display:inline;fill:#000000;fill-opacity:1;stroke-width:0.6;stroke-dasharray:none"
       d="m 27.185256,6.7677515 c -3.82e-4,2.859e-4 -6.78e-4,0.00104 -10e-4,0.00139 0.002,-2.546e-4 0.0037,-5.736e-4 0.0053,-7.7e-4 l -0.0016,-8.483e-4 c -2.77e-4,2.086e-4 -0.001,-1.56e-5 -0.0013,1.965e-4 z m 1.08933,0.091422 c -0.136206,0.016991 -0.267426,0.057805 -0.384518,0.1221006 -0.02482,0.01434 -0.04999,0.028551 -0.07545,0.04151 -0.0265,0.011073 -0.04642,0.017487 -0.06706,0.017791 -0.0034,0.00678 -0.0071,0.013489 -0.0119,0.019738 -0.0065,0.00881 -0.01399,0.017217 -0.02135,0.025621 -0.0059,0.00704 -0.01085,0.013784 -0.01707,0.020493 -0.0065,0.00669 -0.01251,0.013671 -0.01835,0.020694 -0.0036,0.004 -0.0072,0.00774 -0.01089,0.011733 0.0019,0.00191 0.0034,0.004 0.0053,0.00591 -0.01699,0.010274 -0.03335,0.019868 -0.04985,0.029845 -0.05136,0.022554 -0.103124,0.045412 -0.153653,0.069938 -0.17624,0.098904 -0.24954,0.2857923 -0.301419,0.5052096 -0.08684,0.4344611 0.0076,0.7114611 0.205936,1.1209286 0.0073,0.014848 0.01405,0.028517 0.02104,0.042939 0.15005,0.3092517 0.310141,0.6107267 0.478026,0.9087617 0.01999,0.035417 0.01926,0.035919 0.03887,0.070626 0.214288,0.381981 0.445975,0.74675 0.684514,1.109589 0.0088,0.01345 0.01714,0.02694 0.02576,0.03999 0.134963,0.205628 0.271879,0.409293 0.411469,0.610821 0.0097,0.01395 0.01917,0.02713 0.02861,0.0407 0.520429,0.75123 1.056907,1.485539 1.660033,2.147999 0.04353,0.04767 0.0871,0.09555 0.130343,0.143582 0.189582,0.211049 0.380823,0.416455 0.57938,0.61516 0.03558,0.03553 0.07156,0.0717 0.10679,0.107757 0.09941,0.102658 0.199471,0.202722 0.303218,0.298835 0.03789,0.03466 0.07508,0.06971 0.112811,0.104612 0.130538,0.129062 0.265987,0.246694 0.403677,0.363716 0.04424,0.03749 0.08908,0.07517 0.133239,0.112823 0.154043,0.131393 0.307897,0.260572 0.467475,0.381228 0.02941,0.02223 0.05864,0.04501 0.08773,0.06789 0.142406,0.113852 0.283934,0.22524 0.432029,0.326943 l 0.06189,0.04026 c 0.428803,0.290293 0.872575,0.538133 1.317193,0.782236 0.552003,0.302623 1.12985,0.592622 1.649595,0.984636 0.04348,0.03386 0.08595,0.06618 0.131104,0.09628 0.364897,0.243105 0.725833,0.561229 1.037552,0.901164 0.0727,0.0809 0.144737,0.151552 0.226153,0.218135 0.0057,-0.01081 0.0103,-0.02218 0.01586,-0.03268 0.01193,-0.02225 0.01248,-0.02221 0.02416,-0.04402 0.01762,-0.03311 0.03568,-0.06563 0.05427,-0.0979 0.05869,-0.08638 0.113581,-0.169044 0.152651,-0.271989 0.06581,-0.179797 0.140226,-0.35203 0.231676,-0.512852 0.475254,-0.427844 0.475873,-0.428393 1.123216,-0.485376 0.129895,-0.01394 0.258771,-0.03082 0.387727,-0.04955 0.230097,-0.03359 0.460139,-0.0644 0.691379,-0.09228 0.22452,-0.02699 0.448842,-0.05542 0.67263,-0.08613 0.02109,-0.0029 0.02136,-0.0022 0.0417,-0.005 2.31e-4,-0.02499 0.01129,-0.04605 0.02934,-0.06388 -0.121352,-0.486901 -0.544418,-0.998397 -0.856707,-1.337964 -0.01065,-0.01157 -0.021,-0.02344 -0.03133,-0.03467 -0.160709,-0.177439 -0.323386,-0.338567 -0.503915,-0.484797 -0.01204,-0.0097 -0.02367,-0.01905 -0.03538,-0.02846 -0.155358,-0.126006 -0.311218,-0.247758 -0.473495,-0.358997 -0.03057,-0.02069 -0.03059,-0.02019 -0.0606,-0.04046 -0.540858,-0.371775 -1.110282,-0.653925 -1.686558,-0.906146 -0.10061,-0.04399 -0.202004,-0.08922 -0.302218,-0.134977 -0.160893,-0.07346 -0.322174,-0.14412 -0.484158,-0.212505 -0.610313,-0.257314 -1.218085,-0.534023 -1.811707,-0.859527 -0.01724,-0.0095 -0.03464,-0.01912 -0.05138,-0.02834 -0.273376,-0.150338 -0.542586,-0.308652 -0.80887,-0.480074 -0.01675,-0.01081 -0.03321,-0.02152 -0.04948,-0.03199 -0.205986,-0.131691 -0.408941,-0.265818 -0.608026,-0.414333 -0.02409,-0.01817 -0.04744,-0.03648 -0.07157,-0.05456 -0.136353,-0.09868 -0.266421,-0.206757 -0.396665,-0.317574 -0.03958,-0.03377 -0.08024,-0.06656 -0.119899,-0.10019 -0.117396,-0.09948 -0.234184,-0.198615 -0.346359,-0.307052 -0.06307,-0.06201 -0.127314,-0.120889 -0.192615,-0.179292 -0.107943,-0.09647 -0.215424,-0.193781 -0.31793,-0.298906 -0.05463,-0.05684 -0.10888,-0.112744 -0.164796,-0.167687 -0.14572,-0.142875 -0.288476,-0.289365 -0.428987,-0.439724 -0.01199,-0.01286 -0.02296,-0.0251 -0.03462,-0.03756 C 31.29764,10.183963 31.106362,9.9747773 30.91779,9.7636191 30.87331,9.7138241 30.82963,9.6643781 30.785006,9.6147818 c -0.02349,-0.02606 -0.02383,-0.025907 -0.04688,-0.051466 -0.0303,-0.033659 -0.06039,-0.067503 -0.09071,-0.1011514 -0.106332,-0.1176338 -0.210109,-0.2375362 -0.311072,-0.3617042 0.06945,0.050385 0.138925,0.100693 0.20725,0.1535352 0.201943,0.157079 0.408741,0.3008495 0.619537,0.4373434 0.02599,0.016737 0.05136,0.033582 0.07737,0.050319 0.465603,0.3035732 0.949396,0.5440292 1.445771,0.7328642 0.03275,0.01229 0.03328,0.01308 0.0654,0.02514 0.301024,0.112952 0.60089,0.208208 0.906721,0.277984 0.01886,0.0044 0.03657,0.0091 0.05487,0.01322 0.434722,0.0999 0.868115,0.164052 1.302448,0.190168 0.01399,8.3e-4 0.02839,0.0019 0.042,0.0028 0.529847,0.03202 1.053681,0.02034 1.578044,0.0012 0.523217,-0.01922 1.047695,-0.04401 1.578199,0.01452 0.01483,0.0017 0.02933,0.0032 0.04376,0.0047 0.226565,0.02447 0.451918,0.049 0.677896,0.110819 0.01633,0.0046 0.03234,0.0087 0.04817,0.01307 0.609317,0.161857 1.125493,0.383457 1.639986,0.862492 0.01806,0.01693 0.0356,0.03299 0.05311,0.04942 0.003,-0.01596 0.0061,-0.03076 0.009,-0.04626 -0.78118,-0.887242 -1.854369,-1.348145 -2.857472,-1.456171 -0.01986,-0.002 -0.03941,-0.004 -0.05869,-0.0058 -0.196109,-0.01992 -0.391101,-0.0374 -0.587045,-0.05347 -0.02722,-0.0021 -0.0544,-0.0049 -0.08162,-0.007 -0.316935,-0.02623 -0.631539,-0.0388 -0.946645,-0.04179 -0.129966,-0.0012 -0.260514,-0.0016 -0.391236,-0.01171 -0.05568,-0.0045 -0.110731,-0.0074 -0.166236,-0.0091 -1.493068,-0.02622 -3.013089,-0.298989 -4.435423,-1.1449706 -0.01561,-0.00939 -0.0308,-0.018942 -0.04596,-0.028026 C 30.990081,9.1646655 30.905835,9.10492 30.827386,8.9639816 30.63466,8.599203 30.398266,8.2527148 30.147068,7.9380218 c -0.01616,-0.019597 -0.03233,-0.037884 -0.048,-0.056913 C 29.940238,7.6876815 29.77672,7.4802155 29.583031,7.33857 29.556861,7.320814 29.530951,7.303206 29.504981,7.284971 29.268753,7.0886819 29.021676,6.9647475 28.749701,6.89469 28.728861,6.89 28.708121,6.88474 28.687881,6.880245 28.552077,6.849087 28.410896,6.842404 28.274693,6.859429 Z m -2.456493,2.2229313 c 3.2e-5,0.00688 -1.29e-4,0.013232 2.28e-4,0.020187 l 0.0013,-1.965e-4 c 0.002,-0.00273 0.0034,-0.00502 0.005,-0.00742 -0.0025,-0.00404 -0.0044,-0.00862 -0.0066,-0.01249 z" /><path
       style="fill:#000000;fill-opacity:1;stroke:#000000;stroke-width:0.6;stroke-dasharray:none;stroke-opacity:1"
       d="M 22.230839,16.023042 22.009868,15.056294 Z"
       id="path703" /><path
       style="fill:none;fill-opacity:1;stroke:#000000;stroke-width:0.6;stroke-dasharray:none;stroke-opacity:1"
       d="M 2.5511648,3.2184293 45.477338,3.1873299 c 1.128201,0.1987454 1.777199,0.8486473 1.59566,1.725867 L 47.380804,16.701378 47.067896,4.9050274 C 47.268986,3.8270959 46.32152,3.5506611 45.519383,3.2152197 Z"
       id="path718"
       sodipodi:nodetypes="ccccccc" /><path
       id="path719"
       style="fill:none;fill-opacity:1;stroke:#000000;stroke-width:0.6;stroke-dasharray:none;stroke-opacity:1"
       d="m 2.8048732,3.2170746 c -0.095226,0.00125 -0.1873347,0.00898 -0.2712786,0.024467 0.166302,-0.015303 0.3571829,-0.017818 0.5733842,-0.00616 C 2.9996984,3.2212874 2.9000994,3.2158174 2.8048732,3.217028 Z M 2.5335946,3.2415417 C 1.4531724,3.3409754 1.3585056,3.9722468 1.3559986,4.6380481 L 1.1093816,32.918878 c -0.00169,0.0731 -0.00235,0.146573 0,0.218142 L 1.4053219,4.5401901 C 1.5853671,3.858745 1.9071433,3.3574979 2.5335946,3.2415386 Z M 1.1093816,33.141099 v 0.03873 c 0.00428,0.659128 0.2672677,1.207404 1.4303781,1.370007 H 2.7370533 C 1.3805254,34.389293 1.1322387,33.808323 1.1093816,33.141099 Z" /><path
       style="fill:#000000;fill-opacity:1;stroke:#000000;stroke-width:0.6;stroke-dasharray:none;stroke-opacity:1"
       d="m 27.768725,34.845555 16.079774,0.06325 z"
       id="path725" /><path
       style="fill:none;fill-opacity:1;stroke:#000000;stroke-width:0.6;stroke-dasharray:none;stroke-opacity:1"
       d="m 47.36464,16.337146 9.24e-4,16.217462 c -0.04413,0.948046 -0.09556,2.177708 -1.477094,2.254917 l -4.299205,0.145976 4.29823,-0.09082 c 1.94,-0.211938 1.327097,-1.411682 1.493195,-2.310005 -0.0053,-5.405843 0.09479,-10.707302 -0.01606,-16.21753 z"
       id="path726"
       sodipodi:nodetypes="ccccccc" /><path
       style="fill:#ffffff;fill-opacity:1;stroke:#000000;stroke-width:0.6;stroke-dasharray:none;stroke-opacity:1"
       d="M 28.913351,34.857488 2.4509257,34.555992 Z"
       id="path729" /><path
       style="fill:#ffffff;fill-opacity:1;stroke:#000000;stroke-width:0.6;stroke-dasharray:none;stroke-opacity:1"
       d="m 45.690681,12.899982 1.370398,-0.844843 z"
       id="path730" /><path
       style="fill:#ffffff;fill-opacity:1;stroke:#000000;stroke-width:0.6;stroke-dasharray:none;stroke-opacity:1"
       d="m 3.607197,25.758632 h 1.6042734 l 1.2446949,1.284237 0.02766,4.896154 -0.9957558,1.525032 -1.8532123,-0.08026 -1.1063954,-1.257484 -0.082979,-4.842644 z"
       id="path732" /><path
       style="fill:#000000;fill-opacity:1;stroke:#000000;stroke-width:0.6;stroke-dasharray:none;stroke-opacity:1"
       d="m 8.2643228,26.025839 h 1.7251025 l 0.08215,6.452838 h 0.73933 v 1.18797 H 8.2095575 l 0.027382,-1.18797 0.7119477,-0.108 0.05476,-4.886875 -0.7667127,-0.05399 z"
       id="path733" /><path
       style="fill:none;fill-opacity:1;stroke:#000000;stroke-width:0.6;stroke-dasharray:none;stroke-opacity:1"
       d="M 3.4805374,27.820066 4.029499,26.894902 H 4.7928989 L 5.350438,27.635034 5.367593,31.160937 4.9387168,32.086101 4.029499,32.044981 3.5148475,31.30485 Z"
       id="path734" /><path
       style="fill:#ffffff;fill-opacity:1;stroke:#000000;stroke-width:0.377534;stroke-dasharray:none;stroke-opacity:1"
       d="m 40.206148,27.057223 c 0.01305,-0.0367 0.0219,-0.07632 0.03915,-0.110102 0.04235,-0.08299 0.09431,-0.162546 0.134426,-0.250081 0.04349,-0.09489 0.06467,-0.188502 0.122523,-0.273501 0.04351,-0.06392 0.103754,-0.123203 0.139516,-0.193284 0.01724,-0.03378 0.02321,-0.07533 0.03915,-0.110102 0.07161,-0.156246 0.163717,-0.294532 0.255229,-0.433405 0.06007,-0.09117 0.10468,-0.199571 0.159949,-0.293422 0.207204,-0.351856 -0.04926,0.107413 0.132704,-0.159906 0.08372,-0.122993 -0.03594,-0.04308 0.102092,-0.173362 0.02091,-0.01975 0.0545,-0.01937 0.07485,-0.03984 0.02275,-0.02288 0.02829,-0.06381 0.05104,-0.08667 0.02035,-0.02048 0.05241,-0.02225 0.07485,-0.03984 0.03551,-0.02777 0.05472,-0.07633 0.08847,-0.106599 0.0719,-0.06447 0.183157,-0.08541 0.261972,-0.139455 0.03562,-0.02437 0.06456,-0.05911 0.100373,-0.08318 0.06476,-0.04351 0.142474,-0.06376 0.205835,-0.109573 0.02378,-0.01711 0.04197,-0.04218 0.06295,-0.06326 0.02721,-0.02441 0.05228,-0.052 0.08166,-0.07323 0.132478,-0.0957 0.260691,-0.205283 0.394678,-0.299359 0.115687,-0.08122 0.257735,-0.119318 0.374245,-0.199222 0.0712,-0.04882 0.129132,-0.118231 0.200747,-0.166365 0.03534,-0.02369 0.07927,-0.03242 0.112273,-0.05977 0.03478,-0.02883 0.05515,-0.07572 0.08847,-0.106599 0.07272,-0.06739 0.1687,-0.112863 0.238167,-0.186296 0.125327,-0.132474 0.227196,-0.294284 0.353882,-0.426412 0.279655,-0.291668 0.6017,-0.659991 0.69421,-1.113395 0.0283,-0.138699 0.01843,-0.295657 0.03921,-0.43743 0.107957,-0.736365 0.04117,-1.726154 -0.193394,-2.485648 -0.09523,-0.308331 -0.23231,-0.612349 -0.365517,-0.906324 -0.119755,-0.264188 -0.259739,-0.545335 -0.404655,-0.796228 -0.253165,-0.438096 0.02544,0.07376 -0.180244,-0.261098 -0.07443,-0.121161 -0.242565,-0.434171 -0.285639,-0.562043 -0.01498,-0.04458 -0.01244,-0.09148 -0.02208,-0.137015 -0.0187,-0.08828 -0.04578,-0.175657 -0.06288,-0.264068 -0.04264,-0.220405 -0.01473,-0.424533 0.01204,-0.631241 0.01453,-0.112241 0.01526,-0.238277 0.03749,-0.347252 0.02119,-0.103809 0.09027,-0.197167 0.110623,-0.296918 0.0058,-0.02837 -0.0064,-0.06297 0.0017,-0.09018 0.01008,-0.03376 0.0368,-0.05559 0.05104,-0.08667 0.01593,-0.03477 0.0219,-0.07632 0.03915,-0.110102 0.02945,-0.05772 0.07906,-0.09693 0.113993,-0.149945 0.180009,-0.273169 0.440199,-0.466109 0.697515,-0.63909 0.06511,-0.0438 0.182052,-0.124325 0.261976,-0.139447 0.03704,-0.0071 0.106217,0.02271 0.147974,0.01048 0.04698,-0.01378 0.084,-0.05597 0.130965,-0.06977 0.201465,-0.05897 0.386478,-0.176016 0.573291,-0.275373 0.08825,-0.04695 0.132212,-0.132199 0.207553,-0.19975 0.08785,-0.07878 0.303375,-0.113812 0.374246,-0.199223 0.02085,-0.02512 0.0302,-0.06155 0.05105,-0.08668 0.02492,-0.03002 0.09199,-0.02531 0.112273,-0.05977 0.03154,-0.05355 -0.01833,-0.02 0.02552,-0.04335"
       id="path727" /></g></svg>
