<?xml version="1.0" encoding="UTF-8" standalone="no"?>
<!-- Created with Inkscape (http://www.inkscape.org/) -->

<svg
   width="48"
   height="48"
   viewBox="0 0 48 48"
   version="1.1"
   id="svg1"
   xml:space="preserve"
   inkscape:version="1.4.4 (dcaf3e7, 2026-05-05)"
   sodipodi:docname="Mouse pads.svg"
   xmlns:inkscape="http://www.inkscape.org/namespaces/inkscape"
   xmlns:sodipodi="http://sodipodi.sourceforge.net/DTD/sodipodi-0.dtd"
   xmlns="http://www.w3.org/2000/svg"
   xmlns:svg="http://www.w3.org/2000/svg"><sodipodi:namedview
     id="namedview1"
     pagecolor="#ffffff"
     bordercolor="#000000"
     borderopacity="0.25"
     inkscape:showpageshadow="2"
     inkscape:pageopacity="0.0"
     inkscape:pagecheckerboard="0"
     inkscape:deskcolor="#d1d1d1"
     inkscape:document-units="px"
     inkscape:zoom="7.1916978"
     inkscape:cx="-71.888449"
     inkscape:cy="19.258318"
     inkscape:window-width="5120"
     inkscape:window-height="1417"
     inkscape:window-x="-8"
     inkscape:window-y="-8"
     inkscape:window-maximized="1"
     inkscape:current-layer="layer3" /><defs
     id="defs1" /><g
     inkscape:label="Layer 1"
     inkscape:groupmode="layer"
     id="layer1" /><g
     inkscape:groupmode="layer"
     id="layer3"
     inkscape:label="Layer 3"><path
       id="path651"
       style="display:none;fill:none;stroke:#000000;stroke-width:0.6;stroke-opacity:1;stroke-dasharray:none"
       d="M 1.7753906,10.994141 C 0.68646025,11.391173 0.86000542,12.089067 0.74804688,12.71875 l -0.007813,26.6875 c 0.0649955,0.748421 0.0469787,1.406788 1.18164062,1.582031 l 32.0488285,0.08789 c 0.350788,-0.01882 0.61863,-0.232404 0.796875,-0.66211 -0.01961,-0.0099 -0.03912,-0.02007 -0.06055,-0.03125 -0.126754,-0.06616 -0.254449,-0.136616 -0.369141,-0.222656 -0.01539,-0.01154 -0.02821,-0.02477 -0.04297,-0.03711 -0.0816,-0.0682 -0.05546,-0.141322 0.0078,-0.148438 0.02876,-0.0032 0.06403,0.0086 0.101563,0.03906 0.01109,0.009 0.02168,0.01699 0.0332,0.02539 0.107799,0.07893 0.225517,0.145452 0.34375,0.207032 0.01436,0.0075 0.02753,0.0146 0.04102,0.02148 0.08494,-0.255719 0.143547,-0.575051 0.173828,-0.960937 l -0.0039,-2.648438 c -0.0035,-0.02139 -0.0073,-0.04361 -0.01172,-0.06836 -0.0181,-0.101051 -0.04498,-0.199856 -0.05078,-0.302735 -0.004,-0.07157 0.02732,-0.111809 0.0625,-0.117187 l -0.0332,-22.882813 C 34.977709,12.180132 34.683365,11.3178 33.70312,10.994131 Z" /><path
       id="path652"
       style="display:inline;fill:none;fill-opacity:1;stroke:#000000;stroke-width:0.6;stroke-dasharray:none;stroke-opacity:1"
       d="m 23.456494,10.496133 c -0.01121,1.91e-4 -0.02158,0.0018 -0.03275,0.002 0.03471,-7.42e-4 0.06935,-4.48e-4 0.102596,0 -0.02313,-6.85e-4 -0.04733,-0.0025 -0.06985,-0.002 z m 0.159346,0.0042 c 0.761348,0.03354 1.109674,0.361965 1.279122,0.430719 l 0.753066,0.365262 -0.862207,-0.430719 c -0.528831,-0.339266 -0.690839,-0.335541 -0.881852,-0.358935 -0.09779,-0.0059 -0.192898,-0.0052 -0.288129,-0.0064 z m -0.316508,0.0064 c -0.376531,0.01883 -0.731289,0.07676 -1.05211,0.198469 0.409899,-0.125737 0.754794,-0.180906 1.05211,-0.198469 z m -1.05211,0.198469 c -0.01598,0.005 -0.03178,0.0096 -0.04802,0.01478 -0.65681,0.369943 -1.10154,0.785362 -2.171889,1.068349 0.782924,-0.19075 1.523447,-0.49613 2.165341,-1.062016 l 0.0131,-0.0042 c 0.01374,-0.0054 0.0276,-0.01163 0.04147,-0.0169 z m -2.719773,1.197143 c -0.228235,0.04141 -0.459122,0.07425 -0.691947,0.103453 0.0039,9.7e-5 0.0092,-1.09e-4 0.0131,0 0.248954,-0.03025 0.472957,-0.06416 0.678852,-0.103453 z m -0.956066,0.09712 c -0.170405,0.004 -0.329981,0.02864 -0.484583,0.06334 0.216391,-0.04377 0.461331,-0.06404 0.746519,-0.057 -0.08994,-0.0064 -0.176416,-0.0083 -0.261936,-0.0064 z m -0.71596,0.122423 c -0.25583,0.07801 -0.463456,0.189496 -0.643927,0.323039 0.199831,-0.136938 0.412382,-0.246228 0.643927,-0.323039 z m -0.643927,0.323032 c -0.450413,0.308656 -0.830519,0.75373 -1.180896,1.252039 0.422963,-0.395025 0.702381,-0.897956 1.180896,-1.252039 z m -1.185261,1.256261 -1.23765,0.601739 1.224552,-0.58907 c 0.0046,-0.0042 0.0085,-0.0084 0.0131,-0.01267 z m -1.239832,0.60385 -0.0044,0.0022 -0.971348,1.017677 c -0.02748,0.03441 -0.05413,0.06781 -0.08077,0.101346 0.02636,-0.03087 0.05336,-0.06196 0.08077,-0.0929 z m -1.558521,1.79677 c -0.142721,0.215408 -0.266038,0.450088 -0.379808,0.707307 0.104316,-0.233977 0.229004,-0.47064 0.379808,-0.707307 z m 4.075292,1.241482 c -2.55e-4,0.0061 2.64e-4,0.01299 0,0.019 0.0056,0.01761 0.0097,0.03522 0.01528,0.05279 -0.0055,-0.02357 -0.01017,-0.04815 -0.01528,-0.07179 z m 0.01528,0.07179 c 0.160333,0.691843 0.451679,1.351954 0.820734,1.995239 -0.321008,-0.625935 -0.595757,-1.289683 -0.820734,-1.995239 z m 0.820734,1.995239 c 0.563174,1.098138 1.272441,2.075945 2.121684,2.936907 -0.770373,-0.964022 -1.543034,-1.928283 -2.121684,-2.936907 z m 2.121684,2.936907 c 0.01693,0.02119 0.03328,0.04216 0.0502,0.06334 l -0.02183,-0.07179 c 0.0022,0.01493 0.0045,0.02959 0.0066,0.04434 -0.01167,-0.01174 -0.0233,-0.02412 -0.03493,-0.03589 z m -2.957697,-4.98493 -0.0022,-0.0022 c -0.360085,2.508032 0.184792,5.014756 0.809819,7.522788 l 0.0131,0.019 c -1.236354,-5.363537 -0.886862,-6.032269 -0.82068,-7.539632 z m 0.807636,7.520677 -2.335599,-3.346511 0.0044,0.02745 2.333415,3.331732 c -9.01e-4,-0.0036 -0.0012,-0.0091 -0.0022,-0.01267 z m -2.331232,-3.319062 -0.0044,-0.0064 c 0.02921,0.452971 -0.137565,-0.474483 -0.02499,-0.0081 z m -0.759616,-3.578762 c -0.0076,0.03115 -0.01421,0.06178 -0.02183,0.0929 0.0078,-0.0231 0.01389,-0.04661 0.02183,-0.06967 0.358644,1.830452 0.354593,1.676233 0.742731,3.520949 z m -0.02183,0.0929 c -0.278775,0.825548 -0.471897,1.680006 -0.565345,2.565307 0.129748,-0.877932 0.357734,-1.718225 0.565345,-2.565307 z m -0.565345,2.565307 c -0.139331,0.942763 -0.166932,1.930456 0.06767,3.021361 -0.154398,-1.049457 -0.169669,-2.054589 -0.06767,-3.021361 z m 0.06767,3.021361 c 0.0077,0.05218 0.01565,0.103832 0.02401,0.156241 l 0.01965,0.211136 c -0.262934,-0.152211 -0.495654,-0.324474 -0.702862,-0.513062 0.21968,0.209416 0.467325,0.403339 0.746518,0.580626 l -0.06985,-0.358931 c -0.0058,-0.02568 -0.01197,-0.05045 -0.01746,-0.07601 z m -0.659206,-0.145685 c -0.906529,-0.864169 -1.350658,-1.978371 -1.706952,-3.139597 0.117412,-0.758377 0.156992,-1.511391 0.309958,-2.271826 -0.123067,0.585103 -0.227022,1.317829 -0.318689,2.280272 0.350946,1.069575 0.765869,2.266693 1.715683,3.131151 z m 5.526855,-4.283955 c 0.05534,0.211443 0.116868,0.41084 0.181173,0.603849 l 0.73997,2.495632 c -0.07394,-0.494438 -0.247324,-1.085242 -0.449658,-1.703871 0.208364,0.53063 0.423611,1.044737 0.600272,1.64053 -0.301757,-1.054979 -0.711921,-2.026347 -1.071757,-3.03614 z m 1.955791,2.951686 c 0.0077,0.204796 0.01993,0.403563 0.03492,0.597516 -0.01263,-0.180725 -0.02313,-0.364843 -0.03055,-0.544732 -0.0013,-0.01717 -0.003,-0.03546 -0.0044,-0.05279 z m 0.0044,0.05279 c 0.02082,0.276004 0.03804,0.534199 0.0502,0.770647 -0.0068,-0.07493 -0.01375,-0.149665 -0.01965,-0.225915 0.0068,0.09751 0.01377,0.195775 0.02183,0.293479 0.152731,3.096054 -0.405241,2.906554 -0.665756,4.093934 0.592381,-1.136458 0.770087,-2.098719 0.709411,-3.612543 0.135076,1.380747 0.344836,2.77296 0.318689,4.127715 0.07776,-1.701776 -0.174838,-2.911149 -0.325237,-4.273399 -0.01815,-0.371066 -0.04917,-0.775455 -0.09168,-1.222479 6.09e-4,0.01605 0.0016,0.03249 0.0022,0.04856 z m 0.414733,5.447317 c -0.02098,0.459008 -0.06665,0.953967 -0.144065,1.496957 0.09115,-0.491906 0.134318,-0.991927 0.144065,-1.496957 z m -0.144061,1.496951 c -0.01106,0.05987 -0.02236,0.119837 -0.03492,0.179465 -0.257812,0.200723 -0.480972,0.364448 -0.678852,0.498282 0.237501,-0.150408 0.465728,-0.311144 0.6854,-0.483502 0.0099,-0.06485 0.01932,-0.130738 0.02838,-0.194245 z m -0.713776,0.677747 c -0.386009,0.244456 -0.794553,0.459424 -1.22237,0.652411 0.335231,-0.137438 0.684084,-0.288346 1.22237,-0.652411 z m -0.307775,-7.068845 c 0.243734,1.05047 0.348932,2.387941 0.113506,4.423307 0.007,-0.01327 0.01493,-0.02691 0.02183,-0.04012 0.296375,-1.725974 0.169153,-3.124701 -0.135333,-4.383191 z m -4.822795,-1.238332 1.915856,2.763235 c 0.01206,0.05235 0.382942,0.509873 0.395191,0.562325 -0.01298,-0.564509 -2.341656,-3.335429 -2.348094,-3.337504 z"
       sodipodi:nodetypes="sccssccccsscccscccccssccssccccccccccccccsccccccccccccccccccccccccccccccsccccccccccccccccccccccccccccscccccccccccccccccccccccccccccccccccccccsccssccccc" /><path
       style="fill:#000000;fill-opacity:1;stroke:#000000;stroke-width:0.214582;stroke-dasharray:none;stroke-opacity:1"
       d="m 36.02142,31.082265 -1.637424,4.072121 c -0.196123,0.851759 0.224655,1.471895 0.443756,2.067907 1.776618,1.784624 3.477646,1.648878 4.232777,1.10578 0.394221,-0.239993 0.621736,-0.689969 0.794152,-1.20935 l 1.436875,-3.817455 c 0.232393,-0.741674 -0.208728,-1.389182 -0.62139,-1.89615 -0.985772,-0.880009 -1.836055,-1.076674 -2.827637,-1.291877 -0.875405,-0.212768 -1.326407,0.565778 -1.821109,0.969024 z"
       id="path706"
       sodipodi:nodetypes="ccccccccc" /><path
       style="fill:#000000;fill-opacity:1;stroke:#000000;stroke-width:0.6;stroke-dasharray:none;stroke-opacity:1"
       d="m 25.493124,11.723772 -1.834058,4.734301 c -0.244694,0.311779 -0.213798,0.577627 0.07182,0.801021 l 2.508015,3.634971 c 0.163384,0.133856 0.243618,0.0737 0.320408,0.0055 l 0.243068,-0.171229 c 0.09882,-0.120213 0.07578,-0.259172 -0.01657,-0.408796 L 24.46561,16.778481 c -0.278593,-0.151344 -0.09998,-0.320976 -0.03315,-0.486136 l 1.463936,-3.82832 c 0.191481,-0.402275 0.363503,-0.104055 0.541379,-0.01657 l 0.728418,0.980084 0.19533,0.271079 c 0.161147,-0.144375 0.715629,-0.602606 0.523438,-0.570312 l -0.726563,-0.96875 -0.984375,-0.609375 c -0.284054,-0.07262 -0.541305,-0.08398 -0.680899,0.173594 z"
       id="path653"
       sodipodi:nodetypes="ccccccccccccccccc" /><path
       style="fill:none;fill-opacity:1;stroke:#000000;stroke-width:0.6;stroke-dasharray:none;stroke-opacity:1"
       d="m 12.396944,18.172147 0.480687,-1.490082 z"
       id="path675"
       sodipodi:nodetypes="ccc" /><path
       style="fill:none;fill-opacity:1;stroke:#000000;stroke-width:0.6;stroke-dasharray:none;stroke-opacity:1"
       d="M 13.122048,16.235998 13.8523,15.329382 Z"
       id="path676"
       sodipodi:nodetypes="cc" /><path
       style="fill:none;fill-opacity:1;stroke:#000000;stroke-width:0.6;stroke-dasharray:none;stroke-opacity:1"
       d="m 17.722059,12.145246 c 0.185416,-0.0487 0.370983,-0.09914 0.555316,-0.135564 z"
       id="path677"
       sodipodi:nodetypes="cc" /><path
       style="fill:none;fill-opacity:1;stroke:#000000;stroke-width:0.6;stroke-dasharray:none;stroke-opacity:1"
       d="m 19.358832,11.929348 0.839404,-0.189703 z"
       id="path678"
       sodipodi:nodetypes="cc" /><path
       style="fill:none;fill-opacity:1;stroke:#000000;stroke-width:0.6;stroke-dasharray:none;stroke-opacity:1"
       d="m 22.858716,10.558053 c 0.210938,-0.08647 0.667969,-0.06021 0.878907,-0.02344 z"
       id="path679"
       sodipodi:nodetypes="cc" /><path
       style="fill:none;fill-opacity:1;stroke:#000000;stroke-width:0.6;stroke-dasharray:none;stroke-opacity:1"
       d="m 18.32909,23.724211 c 0.566972,-0.24441 0.930563,-0.743046 1.25,-1.296875 -0.327869,0.398139 -0.192686,0.618181 -1.25,1.296875 z"
       id="path681"
       sodipodi:nodetypes="ccc" /><path
       style="fill:none;fill-opacity:1;stroke:#000000;stroke-width:0.6;stroke-dasharray:none;stroke-opacity:1"
       d="m 26.168793,26.283081 0.845214,-0.994369 0.939126,-1.010942 0.580048,-1.149048 0.552428,-2.032933 0.01104,0.01657 -0.541374,1.988738 -0.596621,1.182194 -0.939127,1.005418 z"
       id="path682"
       sodipodi:nodetypes="cccccccccc" /><path
       id="path3-8"
       style="display:inline;fill:#000000;fill-opacity:1;stroke-width:0.6;stroke-dasharray:none"
       d="m 25.592155,13.749259 c -3.82e-4,2.86e-4 -6.78e-4,10e-4 -0.001,0.0014 0.002,-2.54e-4 0.0037,-5.73e-4 0.0053,-7.7e-4 l -0.0016,-8.48e-4 c -2.77e-4,2.09e-4 -10e-4,-1.5e-5 -0.0013,1.97e-4 z m 1.08933,0.09142 c -0.136206,0.01699 -0.267426,0.05781 -0.384518,0.122101 -0.02482,0.01434 -0.04999,0.02855 -0.07545,0.04151 -0.0265,0.01107 -0.04642,0.01749 -0.06706,0.01779 -0.0034,0.0068 -0.0071,0.01349 -0.0119,0.01974 -0.0065,0.0088 -0.01399,0.01722 -0.02135,0.02562 -0.0059,0.007 -0.01085,0.01378 -0.01707,0.02049 -0.0065,0.0067 -0.01251,0.01367 -0.01835,0.02069 -0.0036,0.004 -0.0072,0.0077 -0.01089,0.01173 0.0019,0.0019 0.0034,0.004 0.0053,0.0059 -0.01699,0.01027 -0.03335,0.01987 -0.04985,0.02984 -0.05136,0.02255 -0.103124,0.04541 -0.153653,0.06994 -0.17624,0.0989 -0.24954,0.285792 -0.301419,0.50521 -0.08684,0.434461 0.0076,0.711461 0.205936,1.120928 0.0073,0.01485 0.01405,0.02852 0.02104,0.04294 0.15005,0.309252 0.310141,0.610727 0.478026,0.908762 0.01999,0.03542 0.01926,0.03592 0.03887,0.07063 0.214288,0.381981 0.445975,0.74675 0.684514,1.109589 0.0088,0.01345 0.01714,0.02694 0.02576,0.03999 0.134963,0.205628 0.271879,0.409293 0.411469,0.610821 0.0097,0.01395 0.01917,0.02713 0.02861,0.0407 0.520429,0.75123 1.056907,1.485539 1.660033,2.147999 0.04353,0.04767 0.0871,0.09555 0.130343,0.143582 0.189582,0.211049 0.380823,0.416455 0.57938,0.61516 0.03558,0.03553 0.07156,0.0717 0.10679,0.107757 0.09941,0.102658 0.199471,0.202722 0.303218,0.298835 0.03789,0.03466 0.07508,0.06971 0.112811,0.104612 0.130538,0.129062 0.265987,0.246694 0.403677,0.363716 0.04424,0.03749 0.08908,0.07517 0.133239,0.112823 0.154043,0.131393 0.307897,0.260572 0.467475,0.381228 0.02941,0.02223 0.05864,0.04501 0.08773,0.06789 0.142406,0.113852 0.283934,0.22524 0.432029,0.326943 l 0.06189,0.04026 c 0.428803,0.290293 0.872575,0.538133 1.317193,0.782236 0.552003,0.302623 1.12985,0.592622 1.649595,0.984636 0.04348,0.03386 0.08595,0.06618 0.131104,0.09628 0.364897,0.243105 0.725833,0.561229 1.037552,0.901164 0.0727,0.0809 0.144737,0.151552 0.226153,0.218135 0.0057,-0.01081 0.0103,-0.02218 0.01586,-0.03268 0.01193,-0.02225 0.01248,-0.02221 0.02416,-0.04402 0.01762,-0.03311 0.03568,-0.06563 0.05427,-0.0979 0.05869,-0.08638 0.113581,-0.169044 0.152651,-0.271989 0.06581,-0.179797 0.140226,-0.35203 0.231676,-0.512852 0.475254,-0.427844 0.475873,-0.428393 1.123216,-0.485376 0.129895,-0.01394 0.258771,-0.03082 0.387727,-0.04955 0.230097,-0.03359 0.460139,-0.0644 0.691379,-0.09228 0.22452,-0.02699 0.448842,-0.05542 0.67263,-0.08613 0.02109,-0.0029 0.02136,-0.0022 0.0417,-0.005 2.31e-4,-0.02499 0.01129,-0.04605 0.02934,-0.06388 -0.121352,-0.486901 -0.544418,-0.998397 -0.856707,-1.337964 -0.01065,-0.01157 -0.021,-0.02344 -0.03133,-0.03467 -0.160709,-0.177439 -0.323386,-0.338567 -0.503915,-0.484797 -0.01204,-0.0097 -0.02367,-0.01905 -0.03538,-0.02846 -0.155358,-0.126006 -0.311218,-0.247758 -0.473495,-0.358997 -0.03057,-0.02069 -0.03059,-0.02019 -0.0606,-0.04046 -0.540858,-0.371775 -1.110282,-0.653925 -1.686558,-0.906146 -0.10061,-0.04399 -0.202004,-0.08922 -0.302218,-0.134977 -0.160893,-0.07346 -0.322174,-0.14412 -0.484158,-0.212505 -0.610313,-0.257314 -1.218085,-0.534023 -1.811707,-0.859527 -0.01724,-0.0095 -0.03464,-0.01912 -0.05138,-0.02834 -0.273376,-0.150338 -0.542586,-0.308652 -0.80887,-0.480074 -0.01675,-0.01081 -0.03321,-0.02152 -0.04948,-0.03199 -0.205986,-0.131691 -0.408941,-0.265818 -0.608026,-0.414333 -0.02409,-0.01817 -0.04744,-0.03648 -0.07157,-0.05456 -0.136353,-0.09868 -0.266421,-0.206757 -0.396665,-0.317574 -0.03958,-0.03377 -0.08024,-0.06656 -0.119899,-0.10019 -0.117396,-0.09948 -0.234184,-0.198615 -0.346359,-0.307052 -0.06307,-0.06201 -0.127314,-0.120889 -0.192615,-0.179292 -0.107943,-0.09647 -0.215424,-0.193781 -0.31793,-0.298906 -0.05463,-0.05684 -0.10888,-0.112744 -0.164796,-0.167687 -0.14572,-0.142875 -0.288476,-0.289365 -0.428987,-0.439724 -0.01199,-0.01286 -0.02296,-0.0251 -0.03462,-0.03756 -0.192517,-0.205963 -0.383795,-0.415149 -0.572367,-0.626307 -0.04448,-0.04979 -0.08816,-0.09924 -0.132784,-0.148837 -0.02349,-0.02606 -0.02383,-0.02591 -0.04688,-0.05147 -0.0303,-0.03366 -0.06039,-0.0675 -0.09071,-0.101152 -0.106332,-0.117633 -0.210109,-0.237536 -0.311072,-0.361704 0.06945,0.05039 0.138925,0.100693 0.20725,0.153535 0.201943,0.157079 0.408741,0.30085 0.619537,0.437344 0.02599,0.01674 0.05136,0.03358 0.07737,0.05032 0.465603,0.303573 0.949396,0.544029 1.445771,0.732864 0.03275,0.01229 0.03328,0.01308 0.0654,0.02514 0.301024,0.112952 0.60089,0.208208 0.906721,0.277984 0.01886,0.0044 0.03657,0.0091 0.05487,0.01322 0.434722,0.0999 0.868115,0.164052 1.302448,0.190168 0.01399,8.3e-4 0.02839,0.0019 0.042,0.0028 0.529847,0.03202 1.053681,0.02034 1.578044,0.0012 0.523217,-0.01922 1.047695,-0.04401 1.578199,0.01452 0.01483,0.0017 0.02933,0.0032 0.04376,0.0047 0.226565,0.02447 0.451918,0.049 0.677896,0.110819 0.01633,0.0046 0.03234,0.0087 0.04817,0.01307 0.609317,0.161857 1.125493,0.383457 1.639986,0.862492 0.01806,0.01693 0.0356,0.03299 0.05311,0.04942 0.003,-0.01596 0.0061,-0.03076 0.009,-0.04626 -0.78118,-0.887242 -1.854369,-1.348145 -2.857472,-1.456171 -0.01986,-0.002 -0.03941,-0.004 -0.05869,-0.0058 -0.196109,-0.01992 -0.391101,-0.0374 -0.587045,-0.05347 -0.02722,-0.0021 -0.0544,-0.0049 -0.08162,-0.007 -0.316935,-0.02623 -0.631539,-0.0388 -0.946645,-0.04179 -0.129966,-0.0012 -0.260514,-0.0016 -0.391236,-0.01171 -0.05568,-0.0045 -0.110731,-0.0074 -0.166236,-0.0091 -1.493068,-0.02622 -3.013089,-0.298989 -4.435423,-1.144971 -0.01561,-0.0094 -0.0308,-0.01894 -0.04596,-0.02803 -0.125468,-0.07109 -0.209714,-0.130837 -0.288163,-0.271775 -0.192726,-0.364779 -0.42912,-0.711267 -0.680318,-1.02596 -0.01616,-0.0196 -0.03233,-0.03788 -0.048,-0.05691 -0.15883,-0.193428 -0.322348,-0.400894 -0.516037,-0.542539 -0.02617,-0.01776 -0.05208,-0.03536 -0.07805,-0.0536 -0.236228,-0.196289 -0.483305,-0.320224 -0.75528,-0.390281 -0.02084,-0.0047 -0.04158,-0.0099 -0.06182,-0.01445 -0.135804,-0.03116 -0.276985,-0.03784 -0.413188,-0.02082 z m -2.456493,2.222932 c 3.2e-5,0.0069 -1.29e-4,0.01323 2.28e-4,0.02019 l 0.0013,-1.97e-4 c 0.002,-0.0027 0.0034,-0.005 0.005,-0.0074 -0.0025,-0.004 -0.0044,-0.0086 -0.0066,-0.01249 z" /><path
       style="fill:#000000;fill-opacity:1;stroke:#000000;stroke-width:0.6;stroke-dasharray:none;stroke-opacity:1"
       d="M 20.637738,23.00455 20.416767,22.037802 Z"
       id="path703" /><path
       id="path719"
       style="fill:none;fill-opacity:1;stroke:#000000;stroke-width:0.6;stroke-dasharray:none;stroke-opacity:1"
       d="M 1.7541265,8.2989732 C 1.6589173,8.3011557 1.5668887,8.309782 1.4831004,8.3260938 1.6492447,8.3091648 1.8400917,8.3047817 2.0563967,8.3143288 1.9489835,8.3012795 1.8493359,8.2967843 1.7541261,8.2989266 Z m -0.2710261,0.02712 C 0.40370277,8.4360946 0.31521754,9.068262 0.31922558,9.734056 l 0.0301249,28.28189 c -9.7454e-4,0.07312 -9.1524e-4,0.146589 0.002135,0.218132 L 0.36758896,9.6357201 C 0.54095756,8.9525459 0.85781364,8.4481743 1.4831002,8.3260906 Z m -1.13157542,29.9120613 3.7904e-4,0.03873 c 0.0107296,0.659054 0.27906945,1.204731 1.44371528,1.355945 l 0.1972842,-0.0019 C 0.63486947,39.483636 0.38090981,38.905124 0.35152498,38.238155 Z" /><path
       style="fill:#000000;fill-opacity:1;stroke:#000000;stroke-width:0.6;stroke-dasharray:none;stroke-opacity:1"
       d="m 27.647173,39.953508 16.150814,0.0729 z"
       id="path725" /><path
       style="fill:none;fill-opacity:1;stroke:#000000;stroke-width:0.6;stroke-dasharray:none;stroke-opacity:1"
       d="m 47.678205,21.445384 -0.117243,16.217038 c -0.05104,0.947699 -0.111425,2.176954 -1.493485,2.244095 l -4.300154,0.114646 4.298778,-0.0595 c 1.941492,-0.197797 1.337347,-1.401975 1.509986,-2.299064 0.03409,-5.405738 0.172805,-10.706327 0.102108,-16.217216 z"
       id="path726"
       sodipodi:nodetypes="ccccccc" /><path
       style="fill:#ffffff;fill-opacity:1;stroke:#000000;stroke-width:0.6;stroke-dasharray:none;stroke-opacity:1"
       d="M 28.445436,39.954209 1.9601948,39.635666 Z"
       id="path729" /><path
       style="fill:#ffffff;fill-opacity:1;stroke:#000000;stroke-width:0.6;stroke-dasharray:none;stroke-opacity:1"
       d="M 3.9955467,29.924393 H 5.5998201 L 6.844515,31.20863 6.872175,36.104784 5.8764192,37.629816 4.0232069,37.549556 2.9168115,36.292072 2.8338325,31.449428 Z"
       id="path732" /><path
       style="fill:#000000;fill-opacity:1;stroke:#000000;stroke-width:0.6;stroke-dasharray:none;stroke-opacity:1"
       d="m 8.6526725,30.1916 h 1.7251025 l 0.08215,6.452838 h 0.73933 v 1.18797 H 8.5979072 l 0.027382,-1.18797 0.7119477,-0.108 0.05476,-4.886875 -0.7667127,-0.05399 z"
       id="path733" /><path
       style="fill:none;fill-opacity:1;stroke:#000000;stroke-width:0.6;stroke-dasharray:none;stroke-opacity:1"
       d="m 3.8688871,31.985827 0.5489616,-0.925164 h 0.7633999 l 0.5575391,0.740132 0.017155,3.525903 -0.4288762,0.925164 -0.9092178,-0.04112 -0.5146515,-0.740131 z"
       id="path734" /><path
       style="display:none;fill:#000000;stroke:#000000;stroke-width:0.6"
       d="M 24.039888,0.02458066 23.990727,48.030615 v 0"
       id="path1" /><path
       style="display:none;fill:#000000;stroke:#000000;stroke-width:0.6"
       d="M -0.03476231,24.003373 47.971983,24.038135"
       id="path2" /><path
       style="fill:none;stroke:#000000;stroke-width:0.6;stroke-dasharray:none"
       d="M 47.683135,21.511031 47.595052,9.4695511 C 47.468615,8.5604322 46.892019,8.0240935 45.601429,8.0790204 L 1.948585,8.3155265"
       id="path3"
       sodipodi:nodetypes="cccc" /><path
       style="font-variation-settings:'wght' 800;fill:none;fill-opacity:1;stroke:#000000;stroke-width:1;stroke-linejoin:round;stroke-dasharray:none"
       d="m 39.003308,31.459887 c 1.539617,-2.125168 4.368125,-4.525575 3.684804,-7.891043 -0.797295,-3.926808 2.637836,-4.652534 4.936248,-6.77865"
       id="path4"
       sodipodi:nodetypes="csc" /></g></svg>
