<?xml version="1.0" encoding="UTF-8"?>
<svg id="Blind_Boxes" data-name="Blind Boxes" xmlns="http://www.w3.org/2000/svg" viewBox="0 0 48 48">
  <defs>
    <style>
      .cls-1 {
        stroke-width: .75px;
      }

      .cls-1, .cls-2, .cls-3, .cls-4 {
        fill: none;
      }

      .cls-1, .cls-2, .cls-3, .cls-4, .cls-5 {
        stroke: #000;
        stroke-linecap: round;
        stroke-linejoin: round;
      }

      .cls-2 {
        stroke-width: .75px;
      }

      .cls-4, .cls-5 {
        stroke-width: .5px;
      }
    </style>
  </defs>
  <path class="cls-3" d="M28.12,39.62c-6.35,5.61-16.11,4.92-21.81-1.53s-5.17-16.22,1.17-21.83l20.64,23.36Z"/>
  <line class="cls-3" x1="4.9" y1="19.4" x2="24.4" y2="41.47"/>
  <path class="cls-3" d="M27.11,10.4c8.31-1.6,16.37,3.96,18,12.41,1.63,8.45-3.8,16.6-12.11,18.2l-5.89-30.61Z"/>
  <path class="cls-4" d="M21.69,11.72c.25-.19.4-.49.36-.82-.07-.49-.52-.83-1-.76-.44.06-.74.43-.75.86-.68-.23-1.42-.33-2.18-.22s-1.47.41-2.07.83c-.12-.42-.52-.71-.96-.64-.49.07-.83.52-.76,1,.05.34.29.6.59.71-.73.98-1.09,2.22-.91,3.52.36,2.63,2.79,4.47,5.42,4.11s4.47-2.79,4.11-5.42c-.18-1.31-.87-2.42-1.84-3.17h-.01Z"/>
  <polygon class="cls-5" points="37.75 34.14 38.84 37.19 41.2 38.17 39.02 39.5 38.43 42.69 37.35 39.63 34.99 38.66 37.16 37.33 37.75 34.14"/>
  <path class="cls-1" d="M29.62,12.1c1.27-.01,7.9.32,11.43,6.38"/>
  <rect class="cls-2" x="41.69" y="19.47"/>
  <line class="cls-4" x1="12.65" y1="9.79" x2="7.76" y2="7.09"/>
  <line class="cls-4" x1="16" y1="7.72" x2="14.49" y2="2.35"/>
  <line class="cls-4" x1="20.67" y1="7.86" x2="22.3" y2="2.53"/>
</svg>