<?xml version="1.0" encoding="UTF-8"?>
<svg id="Layer_1" data-name="Layer 1" xmlns="http://www.w3.org/2000/svg" viewBox="0 0 42.75 35.25">
  <defs>
    <style>
      .cls-1 {
        fill: none;
      }

      .cls-1, .cls-2 {
        stroke: #231f20;
        stroke-dasharray: 0 0 0 0 0 0;
        stroke-linecap: round;
        stroke-linejoin: round;
        stroke-width: .5px;
      }

      .cls-2 {
        fill: #231f20;
      }
    </style>
  </defs>
  <path class="cls-1" d="M3.03,31.5c4.47,1.32,9.16,1.66,13.74.99"/>
  <path class="cls-1" d="M25.03,32.45c4.87.77,9.88.44,14.64-.98"/>
  <path class="cls-1" d="M1.95,15.35c3.27-.78,6.4-3.11,8.28-6.27"/>
  <path class="cls-1" d="M41,15.96c-2.51-.59-4.91-2.33-6.36-4.72"/>
  <path class="cls-1" d="M7.49,6.09c.09-1.63.11-3.28.27-5,8.79,4.65,19.2,4,28.11-.15,0,1.67.16,3.21.16,4.88"/>
  <path class="cls-1" d="M22.74,5.87c.57.23.76,1.22.32,1.7s-1.29.23-1.48-.43c-.18-.66.39-1.43.99-1.32"/>
  <path class="cls-1" d="M28.1,3.98l.35,4.22"/>
  <path class="cls-1" d="M29.05,3.8l.46,4.02"/>
  <path class="cls-1" d="M17.28,3.98c-.08,1.42-.22,3.35-.3,4.78"/>
  <path class="cls-1" d="M16.19,4.11l-.28,4.1"/>
  <path class="cls-1" d="M35.87,6.17c-9.09,3.55-19.63,3.92-28.38.06,6.34,5.85,12.46,10.26,20.16,13.64"/>
  <path class="cls-1" d="M16.75,8.73c3.27,3,8.21,5.9,12.12,7.76.39.66.79,1.32,1.18,1.98"/>
  <path class="cls-1" d="M27.64,19.88c.77-.45,1.55-.91,2.32-1.36"/>
  <path class="cls-1" d="M26.45,15.27c3.89-.88,8.5-4.14,11.28-7.24"/>
  <path class="cls-1" d="M34.08,6.82c-2.73,2.59-8.22,5.49-11.8,6.03"/>
  <path class="cls-1" d="M22.52,9.12c.02,1.21.04,2.41.04,3.62"/>
  <line class="cls-1" x1="22.43" y1="17.59" x2="22.08" y2="30.52"/>
  <path class="cls-1" d="M27.04,15.57c-.4,1.15-.79,2.31-1.19,3.46"/>
  <path class="cls-1" d="M7.26,6.17C1.27,12.06-1.02,22.39,1.95,30.77c-.58.73-1.16,1.46-1.7,2.37,6.9,2.07,14.19,2.42,21.22,1"/>
  <path class="cls-1" d="M36.03,6.17c5.52,5.89,7.64,16.22,4.9,24.6.53.73,1.07,1.46,1.57,2.37-6.37,2.07-13.1,2.42-19.58,1"/>
  <path class="cls-1" d="M21.47,33.94c.2-1.19.41-2.37.63-3.64.31,1.24.51,2.61.82,3.85"/>
  <path class="cls-1" d="M22.52,19.63l1.23-1.29"/>
  <path class="cls-1" d="M24.51,8.95c.05.99.1,1.98.15,2.98"/>
  <path class="cls-1" d="M36.27,6.1c.52.64,1.03,1.28,1.55,1.92"/>
  <path class="cls-2" d="M7.75.96c8.71,4.25,19.5,4.21,28.11-.21C26.56-.03,17.14.16,7.83.93"/>
</svg>