<?xml version="1.0" encoding="UTF-8"?>
<svg id="Patches" xmlns="http://www.w3.org/2000/svg" viewBox="0 0 48 48">
  <defs>
    <style>
      .cls-1, .cls-2, .cls-3, .cls-4, .cls-5, .cls-6 {
        stroke-linecap: round;
        stroke-linejoin: round;
      }

      .cls-1, .cls-2, .cls-4, .cls-5, .cls-6 {
        stroke: #000000;
      }

      .cls-1, .cls-5, .cls-6 {
        stroke-width: .25px;
      }

      .cls-2 {
        stroke-dasharray: 4.85 1.94 4.85 1.94 4.85 1.94;
      }

      .cls-2, .cls-3, .cls-4 {
        stroke-width: .5px;
      }

      .cls-2, .cls-3, .cls-4, .cls-5 {
        fill: none;
      }

      .cls-3 {
        stroke: #fff;
      }

      .cls-6 {
        fill: #000000;
      }
    </style>
  </defs>
  <line class="cls-4" x1="21.55" y1="24.62" x2="16.28" y2="29.15"/>
  <g>
    <circle class="cls-4" cx="23.61" cy="24" r="22.06"/>
    <circle class="cls-2" cx="23.61" cy="24.34" r="19.46"/>
  </g>
  <g>
    <path class="cls-6" d="M12.56,21.16l-1.2-1.75s-.23-4.53,4.54-5.85l1.51,1.61s-2.05,1.05-4.86,5.99h.01Z"/>
    <g>
      <path class="cls-4" d="M25.47,21.79c6.22,2.66,7.46,7.74,7.98,7.29s.52-2.41.52-2.41c3.72,3.07,4.15,2.13,4.15,2.13,0,0-1.64-2.82-2.48-3.97s-1.22-2.68-1.22-2.68c-2.87-9.29-10.77-8.93-10.77-8.93,0,0-7.17-.06-10.98,8.47,0,0-3.16,6.9-3.7,6.9,0,0,1.85.52,3.97-2.09,0,0,.25,2.27.84,2.58,0,0,4.33-6.68,6.28-7.6,0,0,1.84,5.54,5.09,6.48,0,0-.66-6.59.31-6.17h0Z"/>
      <path class="cls-1" d="M21.55,24.62h-4.58s-.34,4.35,2.29,4.32,2.29-4.32,2.29-4.32Z"/>
      <path class="cls-5" d="M30.18,24.96c.01,1.01-.13,3.95-2.3,3.98-2.63.03-2.29-4.32-2.29-4.32h4.25l.35.34h-.01Z"/>
      <path class="cls-5" d="M23.04,31.41s.61.62,1.23,0"/>
      <path class="cls-4" d="M15.76,26.22l-2.09,2.83c.57,1.13,2.02,3.24,3.69,3.68,0,0-1.9-5.03-1.6-6.52h0Z"/>
      <path class="cls-4" d="M31.84,27.18l1.33,1.92s-.88,2.58-3.43,3.63c0,0,1.92-3.69,2.1-5.56h0Z"/>
      <path class="cls-4" d="M15.76,27.06s.36,6.52,7.79,6.52,8.24-6.09,8.24-6.09"/>
      <path class="cls-6" d="M34.31,21.24l1.28-1.69s.44-4.52-4.25-6.06l-1.59,1.53s2,1.15,4.57,6.21h0Z"/>
      <path class="cls-4" d="M8.37,36.26c.12-3.24,2.92-7.12,2.92-7.12l1.44-2.37s-2.92,2.25-3.73,1.56l3.02-5.47s1.37-2.99,1.67-3.36l2.47-3.14c-.64-2.67-2.44-3.46-3.87-2.88-1.24.5-1.85,1.81-3.3,5.14s-4.12,9.18-4.12,9.18"/>
      <path class="cls-4" d="M38.31,37.08s-.87-5.47-1.83-6.44-1.65-3.28-1.65-3.28c0,0,2.54,2.53,3.65,1.92l-1.21-2.02s-1.71-2.57-1.95-3.15-.87-2.47-.87-2.47h0c-.47-2.27-3.92-5.89-3.92-5.89,3.07-4.66,6.14-.43,6.14-.43,1.3,2.09,4.28,12.23,5.67,13.45"/>
      <path class="cls-4" d="M11.52,28.68s-.36,3.23,1.4,2.84l1.76-.4s-1.67-3.19-1.76-4.35-1.4,1.91-1.4,1.91Z"/>
      <path class="cls-4" d="M35.3,28.76s.36,3.23-1.4,2.84l-1.76-.4s1.67-3.19,1.76-4.35,1.4,1.91,1.4,1.91Z"/>
      <path class="cls-3" d="M12.2,19.62s1.37-3.89,4.08-4.74"/>
      <path class="cls-3" d="M34.78,19.34s-1.3-3.75-3.88-4.57"/>
    </g>
  </g>
</svg>
