<?xml version="1.0" encoding="UTF-8"?>
<svg xmlns="http://www.w3.org/2000/svg" viewBox="0 0 40.77 47.66">
  <defs>
    <style>
      .cls-1 {
        stroke-width: .75px;
      }

      .cls-1, .cls-2 {
        fill: none;
        stroke: #000000;
        stroke-linecap: round;
        stroke-linejoin: round;
      }

      .cls-2 {
        stroke-width: .5px;
      }
    </style>
  </defs>
  <g id="Layer_1" data-name="Layer 1">
    <path class="cls-1" d="M2.08,14.03c0,.97,8.39,1.75,18.75,1.75h-.83c10.36,0,18.75-.78,18.75-1.75C38.74,6.48,30.36.38,20,.38h.83C10.46.38,2.08,6.48,2.08,14.03Z"/>
    <path class="cls-1" d="M2.33,14.31c2.3,12.21.53,19.9-.26,21.07"/>
    <path class="cls-1" d="M38.53,14.3c-2.3,12.21-.58,19.9.21,21.07"/>
    <path class="cls-2" d="M38.74,35.37c0,.97-8.39,1.75-18.75,1.75h.83c-10.36,0-18.75-.78-18.75-1.75"/>
    <path class="cls-1" d="M2.08,35.38c-1.78,3.78-3.33,9.16,1.74,11.12,2.14.83,7.3.68,11.45.46"/>
    <path class="cls-1" d="M38.75,35.38c1.78,3.78,3.22,9.16-1.85,11.12-2.06.79-7.14.69-11.35.48"/>
    <path class="cls-1" d="M25.63,40.32v6.2c0,.16-.03.32-.08.46-.86-.04-1.68-.09-2.44-.13-2.01-.11-4.02-.1-6.03.01-.58.03-1.18.07-1.82.1-.05-.14-.08-.29-.08-.44v-6.2c0-.83.76-1.5,1.7-1.5h7.05c.94,0,1.7.67,1.7,1.5Z"/>
    <line class="cls-2" x1="17.4" y1="40.33" x2="17.4" y2="45.9"/>
    <line class="cls-2" x1="19.61" y1="42.68" x2="19.61" y2="45.75"/>
    <line class="cls-2" x1="22.15" y1="40.75" x2="22.15" y2="44.92"/>
    <line class="cls-2" x1="23.82" y1="42.11" x2="23.82" y2="44.52"/>
    <path class="cls-2" d="M17.7,29.75c0,.67,1.21,1.22,2.71,1.22"/>
    <path class="cls-2" d="M23.28,29.75c0,.67-1.29,1.22-2.88,1.22"/>
    <path class="cls-2" d="M22.31,27.45c0-.75,1.12-1.36,2.51-1.36"/>
    <path class="cls-2" d="M18.44,27.45c0-.67-1.18-1.21-2.63-1.21"/>
  </g>
  <g id="Layer_2" data-name="Layer 2">
    <path class="cls-2" d="M26.4,18.63c2.9-1.72,6.25,1.41,7.28,5.2.37,1.88,1.55,4.57,2.63,5.64"/>
    <path class="cls-2" d="M36.31,29.47c-.77-.01-1.55-.02-2.3-.23.03.54.28,1.58.46,2.59.2,1.14-.08,2.37-.8,3.11-.53.54-.93.44-1.1.39-.03,0-.1-.05-.19-.11-1.01-.66-1.65-1.95-1.78-3.36-.01-.14-.02-.29-.03-.42"/>
    <path class="cls-2" d="M28.77,27.25c.14,2.24.38,4.38.23,6.05-.06.32,1.53-1.23,1.58-1.87"/>
    <path class="cls-2" d="M14.33,18.7c-3.09-2.66-6.16,1.34-7.2,5.13-.37,1.88-1.55,4.57-2.63,5.64"/>
    <path class="cls-2" d="M4.5,29.47c.77-.01,1.55-.02,2.3-.23-.03.54-.28,1.58-.46,2.59-.2,1.14.08,2.37.8,3.11.53.54.93.44,1.1.39.03,0,.1-.05.19-.11,1.01-.66,1.65-1.95,1.78-3.36.01-.14.02-.29.03-.42"/>
    <path class="cls-2" d="M12.04,27.25c-.14,2.24-.38,4.38-.23,6.05.06.32-1.53-1.23-1.58-1.87"/>
    <ellipse class="cls-2" cx="20.41" cy="24.53" rx="8.89" ry="7.99"/>
    <path class="cls-2" d="M17.12,21.6c-2.48.61-2.52,3.71-2.33,4.6.23,1.1.85,2.38,1.28,2.72-.62.46-2.44.56-3.15-.07"/>
    <path class="cls-2" d="M25.76,21.55c1.19,1.43.99,3.66.8,4.55-.23,1.1-1.31,2.43-1.74,2.77.62.46,2.32.65,3.03.02"/>
    <path class="cls-2" d="M17.12,21.6c-.3,1.08-1.23,5.37-.34,4.34.69-.8,3.01-1.06,4.63-1.45,1.34-.33,3.58-1.73,4.36-2.93"/>
  </g>
</svg>
