<?xml version="1.0" encoding="UTF-8"?>
<svg id="Layer_1" data-name="Layer 1" xmlns="http://www.w3.org/2000/svg" viewBox="0 0 48 48">
  <defs>
    <style>
      .cls-1, .cls-2, .cls-3, .cls-4, .cls-5, .cls-6 {
        stroke: #231f20;
      }

      .cls-1, .cls-2, .cls-3, .cls-5, .cls-6, .cls-7 {
        stroke-linejoin: round;
      }

      .cls-1, .cls-2, .cls-4, .cls-5 {
        fill: none;
      }

      .cls-2, .cls-6 {
        stroke-width: .5px;
      }

      .cls-3, .cls-4, .cls-5, .cls-7 {
        stroke-width: .25px;
      }

      .cls-3, .cls-6 {
        fill: #231f20;
      }

      .cls-4 {
        stroke-miterlimit: 10;
      }

      .cls-7 {
        fill: #fff;
        stroke: #fff;
      }
    </style>
  </defs>
  <polygon class="cls-1" points="46.08 34.38 29.86 47.13 3.16 13.62 19.39 .87 46.08 34.38"/>
  <ellipse class="cls-2" cx="23.7" cy="21.79" rx="6.06" ry="5.74" transform="translate(-2.94 3.72) rotate(-8.45)"/>
  <path class="cls-5" d="M20.69,19.69c1.02.85,2.26,1.73,2.89,1.62.17.2.17-1.49-.53-3.15"/>
  <path class="cls-4" d="M23.11,18.26s1.71.62,3.36.47c.57-.17,2.09,2.05,1.23,3.72,0,0,1.54.26,2.06-.92"/>
  <polyline class="cls-5" points="26.4 26.68 24.91 24.74 26.9 23.03 28.56 25"/>
  <ellipse class="cls-5" cx="22.28" cy="23.12" rx=".67" ry=".67" transform="translate(-.65 .64) rotate(-1.63)"/>
  <ellipse class="cls-5" cx="25.48" cy="20.35" rx=".67" ry=".67" transform="translate(-.57 .73) rotate(-1.63)"/>
  <path class="cls-4" d="M20.72,19.83c-.1-.02.43,2.56-.33,3.32-.58.39,1.3,2.65,3.15,2.17,0,0-.29,1.65-1.58,1.85"/>
  <polyline class="cls-2" points="24.48 16.17 24.17 17.04 26.73 17.97 27 17.14"/>
  <polyline class="cls-2" points="17.49 21.34 18.38 21.11 19.09 23.73 18.24 23.92"/>
  <path class="cls-6" d="M5.85,14.09s2.97,4.31,3.77,4.08,1.65-1.43,1.65-1.43l-3.38-4.24s-1.33-.09-2.04,1.59Z"/>
  <circle class="cls-7" cx="7.3" cy="14.06" r=".49" transform="translate(-.4 .21) rotate(-1.63)"/>
  <polyline class="cls-3" points="23.24 4.99 23.91 4.47 27.01 8.17 26.33 8.83"/>
</svg>