<?xml version="1.0" encoding="UTF-8"?>
<svg id="Layer_1" data-name="Layer 1" xmlns="http://www.w3.org/2000/svg" viewBox="0 0 31.61 47.25">
  <defs>
    <style>
      .cls-1, .cls-2 {
        fill: none;
      }

      .cls-1, .cls-2, .cls-3 {
        stroke: #000000;
        stroke-linecap: round;
        stroke-linejoin: round;
      }

      .cls-1, .cls-3 {
        stroke-width: .5px;
      }

      .cls-3 {
        fill: #000000;
      }
    </style>
  </defs>
  <path class="cls-1" d="M20.43,10.15c.48,2.23.1,4.63-1.03,6.63s-3.02,3.57-5.22,4.36"/>
  <path class="cls-1" d="M14.22,21.08c2.42-3.07,3.2-7.31,1.86-11.23-1.38,1.66-3.06,3.05-4.49,4.66-1.43,1.61-2.64,3.54-2.77,5.67s1.07,4.44,3.13,5.37c-2.21-.17-4.25-1.75-4.92-3.81"/>
  <path class="cls-1" d="M4.65,7.85c-1.48,2.51-3.21,9.53-2.31,12.28s3.04,5.1,5.74,6.3"/>
  <path class="cls-1" d="M6.99,21.75c-.36,1.72-.06,3.35,1.1,4.69"/>
  <path class="cls-1" d="M20.47,10.06c1.38,1.36,2.77,2.73,3.81,4.35s1.71,3.54,1.5,5.44-1.43,3.75-3.27,4.41"/>
  <path class="cls-1" d="M25.84,22.58c-.61,1.04-2.1,1.77-3.32,1.69"/>
  <path class="cls-1" d="M4.65,7.85C7.44,3.77,12.91,1.44,17.89,2.14s9.38,4.38,10.86,9.07c1.48,4.69-.04,10.15-3.75,13.46"/>
  <path class="cls-1" d="M23.51,4.22c0-2.2,5.32-3.16,6.59-2.39s.48,6.09,1,7.46"/>
  <path class="cls-3" d="M2.66,40.07c-.23.88.55,1.86,1.46,1.85-.97-.05-1.5.85-1.5,1.95.04-1.24-.36-1.9-1.26-2.01.78-.18,1.34-1.02,1.2-1.81"/>
  <path class="cls-3" d="M5.54,35.85c-.23.88.55,1.86,1.46,1.85-.97-.05-1.5.85-1.5,1.95.04-1.24-.36-1.9-1.26-2.01.78-.18,1.34-1.02,1.2-1.81"/>
  <path class="cls-1" d="M25.85,22.62l-.93,2.01"/>
  <path class="cls-1" d="M9.39,3.71c-.75-1.46-4.32-2.43-5.82-1.69S1.11,3.6.58,5.15s.11,2.39-.08,4.13"/>
  <path class="cls-1" d="M20.39,37.73c-.18-2.79.29-5.79,1.33-8.54"/>
  <path class="cls-1" d="M24.1,23.98c-.78,1.15-1.45,2.42-2,3.76"/>
  <path class="cls-1" d="M10.82,30.81c2.16,3.15,5.52,5.68,9.45,6.96"/>
  <path class="cls-1" d="M10.07,29.21c-.72-1.41-1.39-3.79-1.7-5.34"/>
  <path class="cls-1" d="M18.57,29.44c-.7.97-2.37,1.04-3.17.15"/>
  <path class="cls-1" d="M20.64,26.02c.2,1.63-2.56,1.68-3.17,1.11-.24.24-.55.4-.89.48"/>
  <path class="cls-1" d="M14.33,25.89c0,.7.47,1.39,1.14,1.65.18.07.38.12.57.12"/>
  <path class="cls-1" d="M19.2,17.9c.4,1.83,2.08,3.33,3.99,3.55-1.91.95-4.38,3.07-6.45,2.53"/>
  <path class="cls-1" d="M21.04,31.7c1.93,1.56,4.21,2.31,6.43,3.44,2.22,1.13,2.45,1.69,3.64,3.84"/>
  <path class="cls-1" d="M24.77,34.16c-1.73,3.81-.85,9.57,2.18,12.59"/>
  <path class="cls-1" d="M8.99,31.82c1.38,2.27,2.16,3.76,2.1,6.45-.06,2.82-1.46,7.24-3,8.48"/>
  <path class="cls-1" d="M7.89,29.82c-.88-1.45-2.29-3.75-2.8-5.39"/>
  <path class="cls-1" d="M15.84,17.36c-2.09.18-4.18.37-6.26.55"/>
  <path class="cls-1" d="M13.18,17.91c.18.57-.03,1.24-.51,1.61s-1.19.43-1.72.13-.85-.92-.76-1.51"/>
  <path class="cls-1" d="M12.72,19.88c-1.01.29-2.12.22-3.09-.17"/>
  <path class="cls-1" d="M13.14,18.33c-.1.26-.44.4-.7.29s-.39-.44-.28-.69"/>
  <path class="cls-1" d="M11.55,19.59c.11-.24-.02-.56-.26-.67s-.58,0-.7.24"/>
  <path class="cls-1" d="M12.52,19.12c.07.17-.06.38-.24.41s-.37-.15-.34-.33.24-.31.41-.24c0-.15-.21-.2-.36-.15s-.29.14-.43.11-.2-.3-.04-.3c.19,0,.32-.26.2-.41s-.41-.08-.45.1c-.04.17-.31.24-.43.1s-.01-.38.17-.4c-.21.22-.42.44-.63.66.07-.36.45-.64.83-.6s.69.39.68.76"/>
  <path class="cls-1" d="M12.04,14.41c1.16.3,2.32.6,3.48.9-.1.38-.21.76-.37,1.22-1.12-.67-2.24-1.33-3.36-2"/>
  <path class="cls-1" d="M13.27,15.04c.59.35,1.28.54,1.97.55-.03.16-.06.32-.08.48-.78-.39-1.56-.78-2.34-1.17"/>
  <path class="cls-1" d="M23.63,14.18l-3.13,2c-.02-.45-.05-.9-.07-1.36,1.04-.36,2.09-.73,3.13-1.09-.98.61-1.95,1.23-2.93,1.84,0-.38.37-.71.75-.69"/>
  <path class="cls-1" d="M24.53,16.35c-1.5-.06-3.52.53-4.7,1.65.84-.66,3.54-.29,4.58,0"/>
  <rect class="cls-2" x=".5" y=".5" width="30.61" height="46.25" rx="3.39" ry="3.39"/>
  <path class="cls-1" d="M11.09,37.22c0-.08,5.18,8.44,7.53-.07"/>
  <path class="cls-3" d="M30,5.48l-1.46,5.11s-1.15-5.3-6.5-7.3l.73-1.27s7.24,3.47,7.24,3.47Z"/>
  <path class="cls-3" d="M1.42,5.9l2.01,4.88s.6-5.07,5.96-7.07l-1.12-1.95S1.42,5.9,1.42,5.9Z"/>
  <path class="cls-1" d="M27.2,29.72c-.35.12,1.42,3.45,1.36,3.56-.38.65-1.94.82-2.01.4-.04-.25-.79-2.28-1.65-3.51-1.06-.45-2.12-.77-3.18-.98-3.76-.73-7.48.01-10.9,1.62-.78.36-1.54.77-2.28,1.22-.94.56-1.84,1.19-2.71,1.86-.18-.18-.6-.63-.7-.88-.09-.24-.19-.5-.22-.76.82-.82,1.74-1.48,2.73-2.01.78-.42,1.59-.76,2.43-1.03,1.43-.5,2.92-.8,4.39-1.05.52-.1,1.05-.18,1.58-.24.18.01.37-.01.54-.06.54-.07,1.08-.11,1.62-.13,1.3-.05,2.61.05,3.9.29,1.08.21,2.16.51,3.2.91.81-.88,3.35-2.55,3.65-2.48,1.38.34.64,2.42.59,2.48,0,0-1.82.61-2.34.8Z"/>
  <path class="cls-1" d="M16.58,27.61c-.18.01-.36.03-.54.05"/>
  <path class="cls-1" d="M16.38,3.29c-.13-.06-.29-.03-.4.07s-.16.25-.16.39c0,.11.03.24.12.31.07.05.16.06.25.07.27.02.55.03.82.01.06,0,.13,0,.19.02.11.04.16.16.18.27.06.29,0,.61-.19.85"/>
</svg>
