<?xml version="1.0" encoding="UTF-8"?>
<svg id="Layer_1" data-name="Layer 1" xmlns="http://www.w3.org/2000/svg" viewBox="0 0 48 48">
  <defs>
    <style>
      .cls-1, .cls-2, .cls-3 {
        fill: none;
      }

      .cls-1, .cls-2, .cls-3, .cls-4 {
        stroke: #000000;
      }

      .cls-1, .cls-2, .cls-4 {
        stroke-linejoin: round;
      }

      .cls-2, .cls-3, .cls-4 {
        stroke-width: .5px;
      }

      .cls-3 {
        stroke-miterlimit: 10;
      }

      .cls-4 {
        fill: #000000;
      }
    </style>
  </defs>
  <path class="cls-1" d="M27.56,4.25h9.63c1.66,0,3.01,1.35,3.01,3.01v36.68c0,1.66-1.35,3.01-3.01,3.01H12.97c-1.66,0-3.01-1.35-3.01-3.01V7.26c0-1.66,1.35-3.01,3.01-3.01h8.68s.24-3.03,2.49-3.31c1.97-.25,3.11.47,3.42,3.31Z"/>
  <rect class="cls-1" x="13.47" y="9.1" width="23.23" height="33.91"/>
  <path class="cls-4" d="M40.2,16.88c-4.3,3.22-8.24-1.34-7.12-3.02,1.12-1.68.26-3.24-1.84-3.03s1.99-6.22,1.99-6.22l2.27.09s-4.17,5.07-3.19,5,3.7,1.91,2.72,3.04-.36,4.05.59,3.98,1.84,1.07,4.58-1.86v2.03Z"/>
  <path class="cls-4" d="M29.45,46.87c0-1.01-.33-3.61-2.87-3.56-3,.06-6.37-.69-8.28-1.19-2.16-.57-.3-4.28-.02-5.61s-2.03-1.75-4.28-1.26-4.04-4.63-4.04-4.63v2.94s2.01,4.77,5.09,3.58-1.84,3.31,2.38,6.17c4.13,2.79,10.93-.13,10.89,3.63l1.12-.07Z"/>
  <polygon class="cls-4" points="17.26 46.56 16.26 46.25 15.66 47.11 15.64 46.06 14.64 45.75 15.63 45.41 15.61 44.36 16.24 45.2 17.24 44.86 16.63 45.72 17.26 46.56"/>
  <polygon class="cls-4" points="14.61 7.88 13.15 7.81 12.64 9.18 12.25 7.77 10.79 7.71 12.01 6.9 11.62 5.49 12.76 6.4 13.98 5.6 13.47 6.97 14.61 7.88"/>
  <polygon class="cls-4" points="35.58 6.05 36.85 6.37 37.54 5.26 37.63 6.56 38.9 6.88 37.69 7.37 37.78 8.67 36.94 7.67 35.73 8.16 36.42 7.05 35.58 6.05"/>
  <polygon class="cls-4" points="13.31 45.53 12.34 45.04 11.58 45.8 11.75 44.74 10.79 44.25 11.85 44.08 12.02 43.01 12.51 43.97 13.58 43.8 12.82 44.57 13.31 45.53"/>
  <polygon class="cls-4" points="16.88 7.76 16.28 7.42 15.78 7.88 15.92 7.21 15.32 6.87 16.01 6.8 16.15 6.13 16.43 6.75 17.11 6.68 16.6 7.14 16.88 7.76"/>
  <path class="cls-4" d="M30.28,18.83c-4.91-4.9-9.06-.72-9.06-.72-.73.71-1.02,2.92-1.02,2.92-.99,3.31.44,7.53.98,7.34-.71-.96,2.72-7.08,2.72-7.08,0,0,.35,3.4,1.49,3.99l.52-4.42,3.03,3.3s.61,4.01.1,4.21c.59.09,1.37-1.14,1.6-3.83,0,0,1.18-4.16-.36-5.7Z"/>
  <path class="cls-4" d="M29.04,17.53s4.67-2.45,5.22,1.05,4.32,16.31-.32,16.54"/>
  <path class="cls-4" d="M22.21,17.53s-4.67-2.45-5.22,1.05-5.53,15.95-.88,16.19"/>
  <polyline class="cls-3" points="20.52 19.65 21.38 15.8 22.21 16.23 22.07 17.46"/>
  <polyline class="cls-3" points="29.89 19.94 29.02 16.08 28.19 16.51 28.33 17.74"/>
  <path class="cls-3" d="M20.99,27.42s4.33,7.14,9.01-1.01"/>
  <path class="cls-2" d="M23.4,29.8s.18,3.4-.55,3.6l2.61,1.36,2.35-1.39c-.73-.2-.58-3.58-.58-3.58"/>
  <polyline class="cls-2" points="27.82 33.38 31.54 35.12 31.77 43.39"/>
  <polyline class="cls-2" points="22.96 33.16 19.25 34.9 19.01 43.16"/>
  <line class="cls-2" x1="31.54" y1="35.12" x2="34.4" y2="43.01"/>
  <line class="cls-2" x1="19.25" y1="34.9" x2="16.08" y2="43.01"/>
  <circle class="cls-2" cx="24.75" cy="3.42" r=".75"/>
</svg>
