<?xml version="1.0" encoding="utf-8"?>
<!-- Generator: Adobe Adobe Illustrator 24.2.0, SVG Export Plug-In . SVG Version: 6.00 Build 0)  -->
<svg version="1.1" xmlns="http://www.w3.org/2000/svg" xmlns:xlink="http://www.w3.org/1999/xlink" x="0px" y="0px"
	 viewBox="0 0 48 48" style="enable-background:new 0 0 48 48;" xml:space="preserve">
<style type="text/css">
	.st0{fill:none;stroke:#000000;stroke-width:0.5;stroke-linecap:round;stroke-linejoin:round;stroke-miterlimit:10;}
</style>
<g id="Layer_1">
	<path class="st0" d="M28.01,9.55c0.42,1.97,0.09,4.08-0.9,5.84s-2.65,3.15-4.57,3.84"/>
	<path class="st0" d="M22.57,19.2c2.12-2.71,2.81-6.45,1.63-9.91c-1.2,1.46-2.68,2.69-3.93,4.11s-2.31,3.12-2.43,5
		c-0.12,1.88,0.94,3.91,2.74,4.74c-1.94-0.15-3.72-1.54-4.31-3.36"/>
	<path class="st0" d="M12.97,10.97c-1.3,2.21-1.59,4.96-0.8,7.4c0.79,2.43,2.67,4.5,5.03,5.56"/>
	<path class="st0" d="M16.24,19.79c-0.32,1.52-0.05,2.95,0.96,4.14"/>
	<path class="st0" d="M28.05,9.48c1.21,1.2,2.43,2.41,3.34,3.84c0.91,1.43,1.5,3.12,1.31,4.79s-1.25,3.31-2.86,3.89"/>
	<path class="st0" d="M32.75,20.52c-0.54,0.91-1.84,1.56-2.91,1.49"/>
	<path class="st0" d="M14.19,7.53c2.44-3.6,7.23-5.66,11.59-5.04s8.22,3.86,9.52,8s-0.04,8.95-3.29,11.87"/>
	<path class="st0" d="M35.2,6.6c-0.13,0.85-0.26,1.69-0.4,2.54"/>
	<path class="st0" d="M35.22,6.61c-1.75-1.26-3.5-2.53-5.32-3.73c-0.05,0.26-0.1,0.51-0.15,0.77"/>
	<path class="st0" d="M28.31,1.24c-0.04,0.55-0.07,1.09-0.11,1.64"/>
	<path class="st0" d="M31.28,1.1c2.27,1.61,4.53,3.23,6.75,4.98c-0.74,2.15-1.49,4.31-2.23,6.46"/>
	<path class="st0" d="M32.75,2c1.13-0.65,2.62-0.47,3.73,0.21C37.6,2.89,38.37,4,38.93,5.17s0.79,2.41,1.25,3.62"/>
	<path class="st0" d="M40.18,17.82c-1.64,4.58-1.78,10.2-0.13,14.77"/>
	<path class="st0" d="M35.36,34.29c-0.2,0.77,0.48,1.64,1.27,1.63c-0.85-0.05-1.31,0.75-1.31,1.72c0.04-1.09-0.32-1.67-1.11-1.77
		c0.68-0.16,1.17-0.9,1.05-1.6"/>
	<path class="st0" d="M17.3,9.55c-0.2,0.77,0.48,1.64,1.27,1.63c-0.85-0.05-1.31,0.75-1.31,1.72c0.04-1.09-0.32-1.67-1.11-1.77
		c0.68-0.16,1.17-0.9,1.05-1.6"/>
	<path class="st0" d="M12.11,39.33c-0.2,0.77,0.48,1.64,1.27,1.63c-0.85-0.05-1.31,0.75-1.31,1.72c0.04-1.09-0.32-1.67-1.11-1.77
		c0.68-0.16,1.17-0.9,1.05-1.6"/>
	<path class="st0" d="M15.18,42.7c-0.14,0.52,0.33,1.1,0.89,1.09c-0.59-0.03-0.91,0.5-0.91,1.15c0.03-0.73-0.22-1.12-0.77-1.18
		c0.47-0.11,0.81-0.6,0.73-1.07"/>
	<path class="st0" d="M18.58,5.98C18.4,6.63,19,7.36,19.72,7.34c-0.75-0.04-1.17,0.63-1.17,1.44c0.03-0.91-0.28-1.4-0.99-1.49
		c0.61-0.13,1.05-0.76,0.94-1.34"/>
	<path class="st0" d="M36.81,28.22c-0.2,0.77,0.48,1.64,1.27,1.63c-0.85-0.05-1.31,0.75-1.31,1.72c0.04-1.09-0.32-1.67-1.11-1.77
		c0.68-0.16,1.17-0.9,1.05-1.6"/>
	<path class="st0" d="M32.76,20.55c-0.27,0.59-0.54,1.18-0.82,1.78"/>
	<path class="st0" d="M21.23,2.71c-0.57-0.47-1.14-0.94-1.79-1.39c-2.78,1.67-5.55,3.35-8.24,5.29c0.66,1.53,1.33,3.07,1.99,4.6"/>
	<path class="st0" d="M15.12,8.56c-0.62,0.89-1.24,1.77-1.85,2.66"/>
	<path class="st0" d="M14.22,7.55c0.31,0.37,0.58,0.64,0.9,1.01"/>
	<path class="st0" d="M16.86,2.71c-0.66-1.29-2.51-1.65-3.82-1.01s-1.94,2.08-2.41,3.44c-0.46,1.33-0.41,2.61-0.57,4.15
		c-0.16,1.49-0.22,2.99-0.37,4.38"/>
	<path class="st0" d="M31.23,21.75c-2.31,3.44-3.5,8.01-3.26,12.13"/>
	<path class="st0" d="M17.56,22c1.06,5.35,5.11,10.02,10.31,11.91"/>
	<path class="st0" d="M26.44,26.07c-0.62,0.85-2.08,0.92-2.77,0.13"/>
	<path class="st0" d="M22.67,23.44c0,0.62,0.41,1.22,1,1.46s1.31,0.08,1.75-0.36c0.53,0.5,1.34,0.7,2.05,0.51s1.31-0.76,1.51-1.46"
		/>
	<path class="st0" d="M26.93,16.39c0.35,1.62,1.83,2.94,3.5,3.13c-1.68,0.83-3.67,1.04-5.48,0.57"/>
	<path class="st0" d="M28.47,28.39c1.69,1.38,3.76,2.21,5.71,3.21c1.95,1,3.88,2.26,4.92,4.16s1.16,4.42-0.63,5.95
		c1.06,0.98,1.26,2.69,0.91,4.07"/>
	<path class="st0" d="M36.09,40.75c-0.69-0.15-1.4,0.6-1.2,1.27s1.23,0.9,1.71,0.4c0.49-0.5,0.19-1.49-0.49-1.66"/>
	<path class="st0" d="M37.73,40.54c-0.01,0.66-0.02,1.33-0.03,1.99"/>
	<path class="st0" d="M31.82,30.73c-1.51,3.36-0.65,7.62,2.01,10.28c-1.19,2.13-2.25,4.01-3.44,6.14"/>
	<path class="st0" d="M26.8,33.77c0.78,0.81,1.57,1.63,2.35,2.44c-2.26-0.89-4.86-0.94-7.15-0.13"/>
	<path class="st0" d="M24.57,32.56c-0.91,1.14-1.83,2.28-2.74,3.43"/>
	<path class="st0" d="M14.86,22.66c1.31,5.41,3.81,10.53,7.28,14.93c2.15,2.72,2.09,6.9-0.13,9.56"/>
	<path class="st0" d="M9.59,34.51c-0.6,4.33,0.46,8.86,2.92,12.5"/>
	<path class="st0" d="M23.99,15.91c-1.83,0.16-3.66,0.32-5.49,0.49"/>
	<path class="st0" d="M21.66,16.4c0.16,0.5-0.03,1.09-0.45,1.42c-0.42,0.33-1.04,0.38-1.51,0.12c-0.47-0.26-0.74-0.81-0.67-1.34"/>
	<path class="st0" d="M21.26,18.13c-0.89,0.25-1.86,0.2-2.71-0.15"/>
	<path class="st0" d="M21.63,16.77c-0.09,0.23-0.38,0.35-0.61,0.26c-0.23-0.09-0.35-0.38-0.24-0.61"/>
	<path class="st0" d="M20.23,17.88c0.09-0.22-0.01-0.5-0.23-0.6c-0.22-0.1-0.51,0-0.61,0.21"/>
	<path class="st0" d="M21.08,17.46c0.06,0.15-0.05,0.34-0.21,0.36s-0.32-0.13-0.3-0.29c0.02-0.16,0.21-0.27,0.36-0.21
		c0-0.13-0.19-0.18-0.31-0.14c-0.13,0.04-0.25,0.12-0.38,0.1c-0.13-0.03-0.17-0.26-0.04-0.26c0.17,0,0.28-0.23,0.17-0.36
		c-0.11-0.13-0.36-0.07-0.4,0.09c-0.04,0.15-0.27,0.21-0.38,0.09s-0.01-0.34,0.15-0.35c-0.18,0.19-0.37,0.39-0.55,0.58
		c0.06-0.32,0.4-0.56,0.72-0.53c0.33,0.03,0.6,0.34,0.59,0.67"/>
	<path class="st0" d="M20.67,13.31c1.02,0.27,2.03,0.53,3.05,0.8c-0.09,0.34-0.18,0.67-0.32,1.08c-0.98-0.59-1.96-1.18-2.95-1.76"/>
	<path class="st0" d="M21.74,13.86c0.52,0.3,1.12,0.47,1.73,0.49c-0.02,0.14-0.05,0.28-0.07,0.42c-0.68-0.34-1.36-0.69-2.05-1.03"/>
	<path class="st0" d="M30.82,13.11c-0.91,0.59-1.83,1.18-2.74,1.77c-0.02-0.4-0.04-0.8-0.06-1.2c0.92-0.32,1.83-0.64,2.75-0.96
		c-0.86,0.54-1.71,1.08-2.57,1.62c0-0.33,0.32-0.63,0.66-0.61"/>
	<path class="st0" d="M31.16,15.1c-1.31-0.06-2.64,0.38-3.67,1.38c0.73-0.58,1.76-0.78,2.67-0.53"/>
	<path class="st0" d="M31.23,17.34c-0.99-0.77-2.35-1.06-3.57-0.75"/>
	<path class="st0" d="M23.71,21.12c-1.02-0.52-2.04-1.04-3.06-1.55"/>
	<path class="st0" d="M21.43,20.82c-0.6-0.28-1.19-0.56-1.79-0.84"/>
	<path class="st0" d="M19.86,20.75c-0.41-0.21-0.82-0.41-1.23-0.62"/>
	<path class="st0" d="M21.88,36.06c-0.62-1.01-1.45-1.9-2.43-2.59"/>
	<path class="st0" d="M21.56,34.51c0.52-1.37,0.43-2.95-0.23-4.27"/>
	<path class="st0" d="M20.73,32.69c-0.01-0.25-0.02-0.49-0.03-0.74"/>
	<path class="st0" d="M30.82,25.47c-6.48-1.78-12.26,0.09-17.57,4.15"/>
	<path class="st0" d="M15.62,28.2c-0.14,0.53-0.29,1.06-0.43,1.6c-0.27-0.21-0.53-0.41-0.8-0.62"/>
	<path class="st0" d="M18.11,26.41c-0.34-0.25-0.68-0.15-1.02-0.4c-0.04,0.41-0.11,0.78-0.14,1.2"/>
	<path class="st0" d="M32.27,25.84c-0.37-0.82,0.09-1.72,0.59-2.46c0.5-0.75,1.41-1.22,2.23-0.95c0.37,0.79,0.27,1.78-0.26,2.48
		c-0.52,0.7-1.68,1.21-2.56,1.1"/>
	<path class="st0" d="M34.85,25.28c0.57,0.4,0.89,1.12,0.8,1.8c-0.08,0.68-0.57,1.3-1.41,1.67c-1.09-0.46-1.86-1.56-1.92-2.72"/>
	<path class="st0" d="M35.45,25.73c0.49-0.26,0.81-0.8,0.8-1.35s-0.34-1.08-0.84-1.33"/>
	<path class="st0" d="M35.36,28.08c0.6-0.09,1.14-0.54,1.32-1.11c0.19-0.57,0.03-1.24-0.4-1.66"/>
	<path class="st0" d="M32.18,24.79c-0.32,0.37-0.87,0.71-1.36,0.68"/>
	<path class="st0" d="M32.5,26.91c-0.24-0.7-1.13-1.1-1.79-1.44"/>
	<path class="st0" d="M40.18,43.78V4.31c0-1.87-1.52-3.39-3.39-3.39H12.96c-1.87,0-3.39,1.52-3.39,3.39v39.48
		c0,1.87,1.52,3.39,3.39,3.39h23.83C38.66,47.17,40.18,45.65,40.18,43.78z"/>
	<path class="st0" d="M16.63,4.97c-0.91,0.66-2.08,1.32-2.95,2.01c0.27,0.22,0.52,0.63,0.79,0.85"/>
	<path class="st0" d="M21.9,36.13c-0.36-0.12-0.71-0.24-1.07-0.36"/>
</g>
</svg>
