<?xml version="1.0" encoding="UTF-8" standalone="no"?>
<!-- Created with Inkscape (http://www.inkscape.org/) -->

<svg
   width="48"
   height="48"
   viewBox="0 0 48 48"
   version="1.1"
   id="svg1"
   xml:space="preserve"
   inkscape:version="1.4.2 (f4327f4, 2025-05-13)"
   sodipodi:docname="Canvas.svg"
   xmlns:inkscape="http://www.inkscape.org/namespaces/inkscape"
   xmlns:sodipodi="http://sodipodi.sourceforge.net/DTD/sodipodi-0.dtd"
   xmlns="http://www.w3.org/2000/svg"
   xmlns:svg="http://www.w3.org/2000/svg"><sodipodi:namedview
     id="namedview1"
     pagecolor="#ffffff"
     bordercolor="#000000"
     borderopacity="0.25"
     inkscape:showpageshadow="2"
     inkscape:pageopacity="0.0"
     inkscape:pagecheckerboard="0"
     inkscape:deskcolor="#d1d1d1"
     inkscape:document-units="px"
     inkscape:zoom="39.854167"
     inkscape:cx="23.259801"
     inkscape:cy="9.9487715"
     inkscape:window-width="5120"
     inkscape:window-height="2131"
     inkscape:window-x="-9"
     inkscape:window-y="-9"
     inkscape:window-maximized="1"
     inkscape:current-layer="layer1" /><defs
     id="defs1" /><g
     inkscape:label="Layer 1"
     inkscape:groupmode="layer"
     id="layer1"
     style="display:inline" /><g
     inkscape:groupmode="layer"
     id="layer3"
     inkscape:label="Layer 3"
     style="display:inline;stroke:#000000;stroke-opacity:1"><path
       style="fill:none;stroke:#000000;stroke-width:0.5;stroke-dasharray:none;stroke-opacity:1"
       d="M 22.632514,7.3768949 13.750131,7.276529 c -1.2828,-0.066346 -1.673769,0.6219341 -1.656038,1.6560377 L 10.0115,28.077365 9.1373129,28.059535 c -0.5045953,-0.117846 -0.640071,0.284861 -0.6875162,0.811713 l 0.013307,1.734315 c 0.1946378,0.408285 0.3804391,0.49846 0.5633195,0.483479 l 22.1380238,0.421381 v 0 l 13.493061,0.319362 c 0.625533,-0.157406 0.665552,-0.607569 0.638725,-1.091155 l 0.04436,-1.392774 c -0.171878,-0.30982 -0.386798,-0.553852 -0.887122,-0.487915 l -0.390332,-0.0089 1.96053,-19.8359246 C 45.924609,8.3521278 44.550629,7.2601423 43.866179,7.3016205 L 35.27862,7.2514375 C 34.987718,7.6503783 34.454166,7.6449028 33.973863,7.7281756 L 24.112912,7.6278097 c -0.723228,0.1754462 -1.049357,0.033212 -1.104025,-0.3261892 z"
       id="path66"
       sodipodi:nodetypes="ccccccccccccccccccccc" /><path
       style="fill:none;stroke:#000000;stroke-width:0.5;stroke-dasharray:none;stroke-opacity:1"
       d="m 23.284893,7.6027182 0.225823,-2.9607945 c 0.243894,-0.4507164 0.544398,-0.7740585 1.053842,-0.627287 l 10.162049,0.075274 c 0.285055,0.1423706 0.799531,-0.2760677 0.526921,1.2294829 l -0.125457,1.9822269 -1.053842,0.4767381 z"
       id="path67"
       sodipodi:nodetypes="cccccc" /><path
       style="fill:none;stroke:#000000;stroke-width:0.5;stroke-dasharray:none;stroke-opacity:1"
       d="M 26.948249,4.0146367 27.048615,2.2833246 C 27.708072,1.5116612 27.988574,1.5736993 28.32828,1.5054888 h 3.010978 c 0.74108,0.030571 1.081626,0.4216232 1.154208,1.0538421 l -0.05018,1.5556717"
       id="path68"
       sodipodi:nodetypes="cccccc" /><path
       style="fill:none;stroke:#000000;stroke-width:0.5;stroke-dasharray:none;stroke-opacity:1"
       id="path69"
       sodipodi:type="arc"
       sodipodi:cx="28.654469"
       sodipodi:cy="5.9090433"
       sodipodi:rx="0.95347619"
       sodipodi:ry="0.84056455"
       sodipodi:start="1.7004175"
       sodipodi:end="1.7004116"
       sodipodi:open="true"
       sodipodi:arc-type="arc"
       d="M 28.531224,6.7425563 A 0.95347619,0.84056455 0 0 1 27.708991,5.8003944 0.95347619,0.84056455 0 0 1 28.777711,5.07553 0.95347619,0.84056455 0 0 1 29.599946,6.0176897 0.95347619,0.84056455 0 0 1 28.531229,6.7425569" /><path
       style="fill:none;stroke:#000000;stroke-width:0.5;stroke-dasharray:none;stroke-opacity:1"
       d="M 9.9864088,27.926817 43.985363,28.754835 Z"
       id="path70" /><path
       style="fill:none;stroke:#000000;stroke-width:0.5;stroke-dasharray:none;stroke-opacity:1"
       d="M 44.61265,7.6027182 42.504966,28.654469 Z"
       id="path71" /><path
       style="fill:none;stroke:#000000;stroke-width:0.5;stroke-dasharray:none;stroke-opacity:1"
       d="m 41.350758,31.815996 2.383691,12.094093 c -0.02359,0.601601 -0.588188,0.953508 -1.480398,1.154208 H 40.87402 C 40.210516,44.824508 39.44599,44.68574 39.293257,43.93518 L 36.959749,31.765813 Z"
       id="path72"
       sodipodi:nodetypes="cccccc" /><path
       style="fill:none;stroke:#000000;stroke-width:0.5;stroke-dasharray:none;stroke-opacity:1"
       d="m 26.772609,31.439624 0.426555,3.613173 10.312598,-0.100366 -5.269211,0.02509 -0.35128,-3.462622 z"
       id="path73" /><path
       style="fill:none;stroke:#000000;stroke-width:0.5;stroke-dasharray:none;stroke-opacity:1"
       d="m 16.861474,31.289075 -0.426555,2.308416 z"
       id="path74" /><path
       style="fill:none;stroke:#000000;stroke-width:0.5;stroke-dasharray:none;stroke-opacity:1"
       d="m 15.556717,31.2138 -0.426555,2.308416 z"
       id="path75" /><path
       style="fill:none;stroke:#000000;stroke-width:0.5;stroke-dasharray:none;stroke-opacity:1"
       d="m 11.592263,31.188709 -0.552012,2.534239 z"
       id="path76" /><path
       style="fill:none;stroke:#000000;stroke-width:0.5;stroke-dasharray:none;stroke-opacity:1"
       d="m 23.861997,34.977522 3.38735,0.02509 z"
       id="path77" /><path
       style="fill:none;stroke:#000000;stroke-width:0.495443;stroke-dasharray:none;stroke-opacity:1"
       id="path78"
       sodipodi:type="arc"
       sodipodi:cx="14.540512"
       sodipodi:cy="39.594357"
       sodipodi:rx="12.962016"
       sodipodi:ry="5.8987732"
       sodipodi:start="1.7004175"
       sodipodi:end="1.7004116"
       sodipodi:open="true"
       sodipodi:arc-type="arc"
       d="M 12.865061,45.443645 A 12.962016,5.8987732 0 0 1 1.6872327,38.831899 12.962016,5.8987732 0 0 1 16.215925,33.745066 12.962016,5.8987732 0 0 1 27.393796,40.356797 12.962016,5.8987732 0 0 1 12.865137,45.443649" /><path
       style="fill:none;stroke:#000000;stroke-width:0.858509;stroke-dasharray:none;stroke-opacity:1"
       id="path79"
       sodipodi:type="arc"
       sodipodi:cx="14.389963"
       sodipodi:cy="40.221638"
       sodipodi:rx="13.082651"
       sodipodi:ry="6.5931964"
       sodipodi:start="1.7004175"
       sodipodi:end="1.7004116"
       sodipodi:open="true"
       sodipodi:arc-type="arc"
       d="M 12.698919,46.759523 A 13.082651,6.5931964 0 0 1 1.4170608,39.369421 13.082651,6.5931964 0 0 1 16.080969,33.68375 13.082651,6.5931964 0 0 1 27.362871,41.073835 13.082651,6.5931964 0 0 1 12.698996,46.759528" /><path
       style="fill:none;stroke:#000000;stroke-width:0.52624;stroke-dasharray:none;stroke-opacity:1"
       id="path80"
       sodipodi:type="arc"
       sodipodi:cx="21.955044"
       sodipodi:cy="39.594357"
       sodipodi:rx="2.2952545"
       sodipodi:ry="1.316705"
       sodipodi:start="1.7004175"
       sodipodi:end="1.7004116"
       sodipodi:open="true"
       sodipodi:arc-type="arc"
       d="m 21.658363,40.900016 a 2.2952545,1.316705 0 0 1 -1.979319,-1.475853 2.2952545,1.316705 0 0 1 2.572674,-1.135466 2.2952545,1.316705 0 0 1 1.979327,1.475849 2.2952545,1.316705 0 0 1 -2.572669,1.135471" /><path
       style="fill:none;stroke:#000000;stroke-width:0.549071;stroke-dasharray:none;stroke-opacity:1"
       id="path81"
       sodipodi:type="arc"
       sodipodi:cx="22.005226"
       sodipodi:cy="40.10873"
       sodipodi:rx="1.4559718"
       sodipodi:ry="0.71569663"
       sodipodi:start="1.7004175"
       sodipodi:end="1.7004116"
       sodipodi:open="true"
       sodipodi:arc-type="arc"
       d="m 21.817029,40.818423 a 1.4559718,0.71569663 0 0 1 -1.255561,-0.802202 1.4559718,0.71569663 0 0 1 1.631951,-0.617184 1.4559718,0.71569663 0 0 1 1.255566,0.8022 1.4559718,0.71569663 0 0 1 -1.631947,0.617186" /><path
       style="fill:none;stroke:#000000;stroke-width:0.5;stroke-dasharray:none;stroke-opacity:1"
       d="m 22.532149,35.002614 4.692107,0.05018 z"
       id="path82" /><path
       style="fill:none;stroke:#000000;stroke-width:0.5;stroke-dasharray:none;stroke-opacity:1"
       d="M 27.048615,38.139049 38.16414,38.088869 Z"
       id="path83" /><path
       style="fill:none;stroke:#000000;stroke-width:0.5;stroke-dasharray:none;stroke-opacity:1"
       d="m 42.479875,31.841087 2.433873,9.534762 c 0.140249,0.73918 -0.715679,0.7887 -1.405123,0.953477 L 41.375849,31.89127 Z"
       id="path84"
       sodipodi:nodetypes="ccccc" /></g></svg>
