<?xml version="1.0" encoding="UTF-8" standalone="no"?>
<!-- Created with Inkscape (http://www.inkscape.org/) -->

<svg
   width="48"
   height="48"
   viewBox="0 0 48 48"
   version="1.1"
   id="svg1"
   xml:space="preserve"
   inkscape:version="1.4.2 (f4327f4, 2025-05-13)"
   sodipodi:docname="Pillow.svg"
   xmlns:inkscape="http://www.inkscape.org/namespaces/inkscape"
   xmlns:sodipodi="http://sodipodi.sourceforge.net/DTD/sodipodi-0.dtd"
   xmlns="http://www.w3.org/2000/svg"
   xmlns:svg="http://www.w3.org/2000/svg"><sodipodi:namedview
     id="namedview1"
     pagecolor="#ffffff"
     bordercolor="#000000"
     borderopacity="0.25"
     inkscape:showpageshadow="2"
     inkscape:pageopacity="0.0"
     inkscape:pagecheckerboard="0"
     inkscape:deskcolor="#d1d1d1"
     inkscape:document-units="px"
     inkscape:zoom="28.181152"
     inkscape:cx="81.614834"
     inkscape:cy="24.218315"
     inkscape:window-width="5120"
     inkscape:window-height="2131"
     inkscape:window-x="-9"
     inkscape:window-y="-9"
     inkscape:window-maximized="1"
     inkscape:current-layer="layer1" /><defs
     id="defs1" /><g
     inkscape:label="Layer 1"
     inkscape:groupmode="layer"
     id="layer1" /><g
     inkscape:groupmode="layer"
     id="layer3"
     inkscape:label="Layer 3"
     style="display:inline;stroke:#000000;stroke-opacity:1"><path
       style="fill:none;stroke:#000000;stroke-width:0.5;stroke-opacity:1"
       d="M 2.0758556,10.592186 C 1.3673962,8.4045796 0.82188708,6.2984484 0.58549772,4.346877 0.96940025,2.3755867 1.7472383,1.8487265 2.696838,1.9516591 L 9.0486012,3.3710475 20.79404,5.446903 c 1.228929,0.565182 1.098695,-0.014194 1.525843,-0.1241964 0.30162,0.017742 0,0 0,0 2.21188,-0.3484303 4.423761,-0.9327244 6.635641,-0.4790436 0.777648,0.1984611 1.344949,0.096427 1.791978,-0.1774236 2.234451,-0.7296666 4.519483,-1.079976 6.848549,-1.100026 0.732546,0.035127 0.90266,-0.1797158 1.241965,-0.3193624 1.941637,-0.6392197 3.846292,-1.3893868 6.014658,-1.348419 1.428048,0.016694 2.73929,0.219547 2.679096,2.6081262 -0.16471,2.1616753 -0.731169,4.1447957 -1.312935,6.1211128 0.140482,2.593477 -0.08335,5.153835 -0.461301,7.700182 -0.255619,0.993572 -0.508103,1.987144 -0.30162,2.980716 0.283838,2.220418 0.282752,4.409178 0.141939,6.582413 -0.128071,0.555927 -0.21633,1.111855 -0.01774,1.667782 0.734477,3.247133 0.625409,6.283379 0.851631,9.403448 0.75911,1.87143 0.947535,3.483458 1.20648,5.127541 0.04575,0.948112 0.06034,1.83 -0.266136,1.987143 -0.263646,0.817702 -0.744673,0.983261 -1.188737,1.259708 -0.903883,0.256834 -2.207851,0.170739 -3.424275,0.159681 l -7.00823,-1.117768 -6.316279,-0.816149 -1.046799,0.124197 c -5.218062,1.167691 -6.867879,0.105228 -9.651841,-0.248393 -2.233287,0.681241 -4.62784,0.94319 -7.096942,1.011314 C 9.1693564,47.098492 6.3128382,47.42013 3.2291086,47.549512 1.7077688,47.324365 0.53630282,46.761008 0.42581652,45.172036 0.53689222,42.758485 0.97133537,40.68986 1.7919779,39.033181 1.3496474,34.705582 2.5375027,32.415715 2.945231,29.15069 2.9552479,28.106553 2.8269486,28.168946 2.7678074,27.678074 2.5533458,25.15403 2.6427172,22.667965 2.8032921,20.1908 L 2.3065062,16.766526 C 1.899719,12.062754 2.2216696,12.89739 2.2355368,11.390592 Z"
       id="path420"
       sodipodi:nodetypes="cccccccccccccccccccccccccccccccccccc" /><path
       style="fill:none;stroke:#000000;stroke-width:0.5;stroke-opacity:1"
       d="m 31.439453,36.939584 c 1.447385,-0.723965 2.148747,-2.044748 2.909747,-3.317821 0.416264,-0.648846 0.656454,-1.429748 0.887117,-2.217794 1.023405,-3.083675 0.656101,-3.256 0.940345,-4.497687 0.280024,-1.827339 0.104531,-3.277798 -0.168552,-4.648497 -0.203574,-1.935189 -0.920523,-3.552574 -1.605683,-5.189639 -0.257571,-0.509583 -0.650485,-1.120675 -0.993572,-1.694395 L 34.3492,16.95282 c 0.642291,1.419389 1.198565,2.838777 1.534713,4.258166 0.180518,1.443095 0.545243,2.991662 0.381461,4.542043 -0.13463,1.764437 -0.10172,3.308186 -1.259707,6.227566 0.172989,1.131315 -3.323089,4.939276 -3.566214,4.958989 z"
       id="path421"
       sodipodi:nodetypes="cccccccccccc" /><path
       style="fill:none;stroke:#000000;stroke-width:0.5;stroke-opacity:1"
       d="m 31.466067,36.868614 2.049242,-8.117127 v -0.612112 l -6.85742,-11.514788 c -1.57093,3.96775 -1.184982,8.387087 -1.091155,12.739011 -4.333461,-3.154854 -6.398637,-7.065802 -7.124497,-11.42319 -5.325062,8.38078 -4.577766,11.741743 -5.168844,16.209095 C 10.991062,30.977734 9.5110583,27.839179 9.7856769,23.887088 L 11.36644,19.144799 C 10.174823,22.164432 7.6500521,27.235072 8.0041819,27.876634 7.483543,25.852189 7.0311137,23.739323 8.2801882,19.420805 11.779072,11.925484 13.965507,10.533053 16.158913,9.108207 23.642776,5.8401523 27.70513,7.4990711 31.941453,8.9074752 c 6.575733,4.2836298 6.113665,8.3294858 7.276529,11.3162578 -0.08094,2.059714 0.122064,4.176216 -0.903293,6.047046 l -2.007318,-0.85311 c -1.993425,12.115204 -3.264203,8.4354 -4.841304,11.450945 z"
       id="path422"
       sodipodi:nodetypes="ccccccccccccccccc" /><path
       style="fill:none;stroke:#000000;stroke-width:0.5;stroke-opacity:1"
       d="m 32.167277,8.8823837 0.928384,-1.8065865 2.785154,-1.0036592 5.093571,8.079456 c -0.309999,1.881772 -0.406432,3.799138 -1.078934,5.620492 -0.122923,0.28399 -0.402314,0.333276 -0.652378,0.426555 C 38.061296,16.67663 38.386977,13.474953 32.167277,8.8823837 Z"
       id="path423"
       sodipodi:nodetypes="ccccccc" /><path
       style="fill:none;stroke:#000000;stroke-width:0.5;stroke-opacity:1"
       d="m 33.92368,6.9252483 4.692107,8.1547307 -0.225824,1.380031 c 0.201523,-0.38928 0.378173,-0.793483 0.250915,-1.380031 z"
       id="path424"
       sodipodi:nodetypes="ccccc" /><path
       style="fill:none;stroke:#000000;stroke-width:0.5;stroke-opacity:1"
       d="m 35.027705,6.3732358 4.792473,8.2049142 0.07527,0.85311 -0.828015,3.838996 0.828015,-3.838996 c 0.09871,-1.052229 -0.121493,-0.722516 -0.200728,-1.003659 z"
       id="path425"
       sodipodi:nodetypes="ccccccc" /><path
       style="fill:none;stroke:#000000;stroke-width:0.467381;stroke-opacity:1"
       d="M 16.175191,8.7723538 15.481245,7.1273643 12.93941,6.2642728 7.2580802,13.827954 c 0.098544,1.728155 -0.00954,3.493909 0.4397346,5.158242 0.087218,0.259102 0.3475531,0.298293 0.5754411,0.378706 1.4897484,-3.273931 1.5137857,-6.218756 7.9019351,-10.5925482 z"
       id="path426"
       sodipodi:nodetypes="ccccccc" /><path
       style="fill:none;stroke:#000000;stroke-width:0.5;stroke-opacity:1"
       d="M 13.48667,6.5112389 8.2801882,14.640878 c -0.06357,0.107048 -0.1249983,0.218379 -0.025092,0.652379 l 0.4892839,2.634605 -0.5143754,-2.596968 c -0.045718,-0.289757 -0.076294,-0.56942 0.075274,-0.727653 z"
       id="path427"
       sodipodi:nodetypes="ccccccc" /><path
       style="fill:none;stroke:#000000;stroke-width:0.499545;stroke-opacity:1"
       d="M 14.75485,6.9499626 9.7428388,14.904142 9.5576659,15.515023 9.631735,15.896824 9.545321,15.578656 C 9.488487,15.362303 9.578619,15.145949 9.7181488,14.929595 Z"
       id="path428"
       sodipodi:nodetypes="ccccccc" /><path
       style="fill:none;stroke:#000000;stroke-width:1.34692;stroke-opacity:1"
       d="m 23.160885,35.812078 -0.116423,3.899224 -1.187691,0.919629 -2.142469,0.04904 -1.583565,-0.968676 0.04659,-3.739824 1.187672,-0.895106 2.212334,0.01232 z"
       id="path429" /><path
       style="fill:none;stroke:#000000;stroke-width:1.34692;stroke-opacity:1"
       d="m 26.491027,35.922431 1.886307,-0.821534 0.116422,5.64039 -0.139737,-5.603604 z"
       id="path430" /><path
       style="fill:none;stroke:#000000;stroke-width:1.34692;stroke-opacity:1"
       d="m 17.455395,42.605067 12.738381,-0.03679 z"
       id="path431" /><path
       style="fill:#000000;stroke:#000000;stroke-width:0.00627287;stroke-opacity:1;fill-opacity:1"
       d="m 39.364279,19.735989 c -0.02197,-0.0733 -0.05921,-0.197164 -0.08275,-0.275255 l -0.0428,-0.141985 0.03961,0.004 0.03961,0.004 0.41698,-1.932044 0.416981,-1.932044 0.01543,-0.247926 c 0.01852,-0.297557 0.0048,-0.491276 -0.04315,-0.607805 -0.01643,-0.03996 -1.077515,-1.865777 -2.357961,-4.057373 -1.280446,-2.1915959 -2.334101,-3.9959645 -2.341457,-4.0097082 -0.01248,-0.023317 -0.0015,-0.029298 0.164521,-0.089426 0.140047,-0.050728 0.180917,-0.061118 0.192099,-0.048839 0.0078,0.00858 1.117333,1.7657291 2.465602,3.9047772 1.938825,3.075974 2.451073,3.897049 2.44984,3.926817 -8.56e-4,0.0207 -0.0274,0.21265 -0.05899,0.426555 -0.03159,0.213905 -0.09466,0.665551 -0.140159,1.003659 -0.232718,1.729394 -0.371525,2.479153 -0.613182,3.312075 -0.07457,0.257014 -0.209027,0.661581 -0.2394,0.720316 -0.02603,0.05033 -0.109556,0.118945 -0.180888,0.148591 l -0.05997,0.02492 z"
       id="path432" /><path
       style="fill:#000000;fill-opacity:1;stroke:#000000;stroke-width:0.00627287;stroke-opacity:1"
       d="m 38.893316,18.024393 c -0.133256,-0.510697 -0.244061,-0.91417 -0.334182,-1.216858 -0.04119,-0.138341 -0.07241,-0.254003 -0.06939,-0.257028 0.003,-0.003 0.03217,0.0036 0.06476,0.01469 0.03259,0.01111 0.06048,0.0188 0.06196,0.01709 0.0015,-0.0017 0.02803,-0.05391 0.05899,-0.116012 0.130704,-0.26215 0.217421,-0.528912 0.248412,-0.764178 0.01895,-0.143844 0.0089,-0.469514 -0.0189,-0.609914 L 38.883816,14.98521 36.558125,10.964743 C 35.01771,8.3017876 34.237504,6.9415592 34.24743,6.9362132 34.30735,6.9039392 34.911977,6.6980136 34.920373,6.70702 c 0.01779,0.019082 4.543651,7.835541 4.556538,7.869437 0.0067,0.01755 0.03163,0.05905 0.05547,0.09223 l 0.04334,0.06032 0.03072,0.340931 0.03072,0.340931 -0.312695,1.449816 c -0.171983,0.797398 -0.317109,1.470672 -0.322503,1.496163 -0.0087,0.04119 -0.02081,0.0042 -0.108651,-0.332462 z"
       id="path433" /><path
       style="fill:#000000;fill-opacity:1;stroke:#000000;stroke-width:0.0177424;stroke-opacity:1"
       d="M 38.05957,15.337407 C 37.184399,13.164142 35.509262,11.124748 33.003465,9.1818568 32.748273,8.9839916 32.533714,8.8180643 32.526668,8.8131294 c -0.007,-0.00493 0.161339,-0.347841 0.374188,-0.7620136 l 0.386999,-0.7530412 0.218326,-0.081648 0.218326,-0.081648 0.121538,0.2028615 c 0.06685,0.1115739 1.103912,1.9114504 2.304593,3.9997259 l 2.183056,3.796864 -0.04311,0.274574 c -0.02371,0.151016 -0.0509,0.282366 -0.06043,0.291889 -0.0095,0.0095 -0.08629,-0.153955 -0.170583,-0.363285 z"
       id="path434" /><path
       style="fill:#000000;fill-opacity:1;stroke:#000000;stroke-width:0.0177424;stroke-opacity:1"
       d="m 11.940605,11.94727 c 0,-0.02154 2.888523,-4.6180782 2.951455,-4.6966805 0.02504,-0.031277 0.07868,-0.026074 0.217445,0.021094 l 0.184204,0.062613 0.281773,0.6686742 0.281774,0.6686741 -0.08651,0.062338 c -1.403297,1.0112306 -2.363549,1.7974902 -3.218033,2.6349432 -0.336661,0.329952 -0.612111,0.590206 -0.612111,0.578344 z"
       id="path435" /><path
       style="fill:#000000;fill-opacity:1;stroke:#000000;stroke-width:0.0177424;stroke-opacity:1"
       d="M 8.6610775,16.006851 8.4530827,14.876029 11.016359,10.87116 c 1.409802,-2.2026776 2.582302,-4.0248391 2.605556,-4.0492475 0.03367,-0.03534 0.113019,-0.020663 0.389575,0.072055 0.191013,0.064039 0.350113,0.1249317 0.353557,0.1353176 0.0034,0.010386 -1.087456,1.7504223 -2.424221,3.8667479 -1.336765,2.116325 -2.4824772,3.949587 -2.5460278,4.073916 -0.1281526,0.250714 -0.1501116,0.488165 -0.075169,0.812834 0.039593,0.171526 0.036041,0.185886 -0.1828129,0.739015 -0.1227548,0.310249 -0.233215,0.575741 -0.2454672,0.589982 -0.012252,0.01424 -0.1158745,-0.482978 -0.2302716,-1.104929 z"
       id="path436" /><path
       style="fill:#000000;fill-opacity:1;stroke:#000000;stroke-width:0.0177424;stroke-opacity:1"
       d="m 8.0454858,19.009672 c -0.054913,-0.0251 -0.096684,-0.09421 -0.1313716,-0.217369 -0.1393102,-0.494617 -0.24708,-1.260432 -0.3000596,-2.132231 -0.029764,-0.489773 -0.092962,-2.349653 -0.090432,-2.661354 6.92e-4,-0.08526 0.5475885,-0.834114 2.7469784,-3.761379 1.510363,-2.0102089 2.751761,-3.6618447 2.758663,-3.6703019 0.0069,-0.00846 0.02577,-4.732e-4 0.04193,0.017742 0.01663,0.018742 -1.063272,1.7352882 -2.487619,3.9541799 -1.3843498,2.156583 -2.5471917,3.984933 -2.5840928,4.062999 -0.041763,0.08835 -0.067617,0.22232 -0.068481,0.354847 -0.00184,0.28149 0.5322863,3.028189 0.5915005,3.041767 0.028591,0.0066 -0.027698,0.18277 -0.1660335,0.51977 -0.1151087,0.280418 -0.2140548,0.513963 -0.2198801,0.518989 -0.00583,0.005 -0.046822,-0.0074 -0.091104,-0.02766 z"
       id="path437" /></g></svg>
