<?xml version="1.0" encoding="UTF-8"?>
<svg id="Pins" xmlns="http://www.w3.org/2000/svg" viewBox="0 0 48 48">
  <defs>
    <style>
      .cls-1 {
        stroke-miterlimit: 10;
      }

      .cls-1, .cls-2, .cls-3, .cls-4, .cls-5, .cls-6 {
        stroke: #000;
      }

      .cls-1, .cls-2, .cls-3, .cls-5 {
        fill: none;
      }

      .cls-1, .cls-5, .cls-6 {
        stroke-width: .5px;
      }

      .cls-2 {
        stroke-width: .75px;
      }

      .cls-2, .cls-3, .cls-4, .cls-5, .cls-6 {
        stroke-linecap: round;
        stroke-linejoin: round;
      }

      .cls-3, .cls-4 {
        stroke-width: .25px;
      }
    </style>
  </defs>
  <polyline class="cls-5" points="44.7 38.43 44.7 47.26 4.55 47.26 4.55 38.73"/>
  <g>
    <path class="cls-1" d="M19.21,12.52c-2,1.51-3.81,5.48-3.78,6.52s.52,3.84.52,3.84c0,0,.79,1.95,3.21,2.36l-.71-2.49,2.66-3.45s2.09,3.51,4.25,3.75l2.88-4.38,2.55,4-.66,2.58c3.77-1.06,3.7-6.17,3.7-6.17,0,0,.03-2.41-2.93-5.75,0,0-5.06-4.68-11.67-.79"/>
    <path class="cls-5" d="M30.69,25.36c-.07.97-.06,3.25-6.33,3.25-6.27,0-5.81-3.71-5.81-3.71l.74.61-.75-2.63,2.37-3.43s2.95,4.21,4.31,3.74l2.94-4.54,2.55,4-.56,2.7h.53Z"/>
    <polygon class="cls-5" points="19.29 12.14 17.21 11.56 14.36 15.81 15.24 19.45 16.25 16.11 19.29 12.14"/>
    <polygon class="cls-5" points="30.16 12.14 32.24 11.56 35.09 15.81 33.92 19.45 33.2 16.11 30.16 12.14"/>
    <path class="cls-6" d="M16.14,23.33l-.47.92s.36,3.15,3.34,3.15c0,0-.5-2.06-.47-2.29s-2.01-.44-2.41-1.78Z"/>
    <path class="cls-6" d="M33.04,23.2l.47.92s-.36,3.15-3.34,3.15c0,0,.5-2.06.47-2.29s2.01-.44,2.41-1.78Z"/>
    <path class="cls-5" d="M16.12,13.18s-1.93.13-2.47,1.04S3.7,34.11,5.51,37.43s5.51,7.89,6.49,7.95c.99.05.52-1.42.52-1.42,0,0,2.63-3.95,2.63-4.8s.16-13.67.52-14.47.39-1.49.39-1.49l-.95-4.25-.75-3.13,1.76-2.63Z"/>
    <path class="cls-5" d="M33.5,13.18s1.56.13,2.11,1.04,9.95,19.89,8.14,23.21c-1.81,3.32-5.51,7.89-6.49,7.95s-.52-1.42-.52-1.42c0,0-2.63-3.95-2.63-4.8s-.16-13.67-.52-14.47-.39-1.49-.39-1.49l.95-4.25.75-3.13-1.4-2.63Z"/>
    <polyline class="cls-3" points="22.87 25.71 24.5 27.89 26.38 25.62"/>
    <line class="cls-3" x1="23.37" y1="26.3" x2="25.88" y2="26.29"/>
    <circle class="cls-4" cx="21.37" cy="23.58" r=".48"/>
    <circle class="cls-4" cx="28.02" cy="23.58" r=".48"/>
    <path class="cls-2" d="M29.07,10.18l3.56-.29,1.46,1.98,2.51.72s9.11,18.96,9.06,22.74-7.07,11.71-7.07,11.71c0,0-3.38.92-3.06-2.08l-2.66-4.48-.6-12.59s-.98.86-2.11,1.39c-5.08,2.42-11.14,0-11.14,0-1.24-.08-2.1-1.39-2.1-1.39l-.8,12.59-1.62,4.51c.32,3-3.8,1.72-3.8,1.72,0,0-7.06-7.76-7.11-11.53-.05-3.77,9.01-22.88,9.01-22.88l2.47-.73,1.47-1.44,3.24.06s3.47-2.65,9.29,0Z"/>
    <polyline class="cls-5" points="4.55 30.84 4.55 1.56 44.7 1.56 44.7 31.57"/>
  </g>
  <path class="cls-6" d="M31.48,4.45h-4.17s.03-.06.03-.09c0-.39-1.2-1.06-2.69-1.06s-2.69.67-2.69,1.06c0,.03.02.06.03.09h-4.24c-.6,0-1.09.49-1.09,1.09s.49,1.09,1.09,1.09h13.71c.6,0,1.09-.49,1.09-1.09s-.49-1.09-1.09-1.09Z"/>
</svg>