<?xml version="1.0" encoding="UTF-8"?>
<svg id="Plushies" xmlns="http://www.w3.org/2000/svg" viewBox="0 0 48 48">
  <defs>
    <style>
      .cls-1, .cls-2, .cls-3, .cls-4, .cls-5, .cls-6, .cls-7, .cls-8, .cls-9, .cls-10 {
        stroke-linecap: round;
        stroke-linejoin: round;
      }

      .cls-1, .cls-2, .cls-3, .cls-4, .cls-6, .cls-7 {
        fill: none;
      }

      .cls-1, .cls-2, .cls-4, .cls-5, .cls-9, .cls-10 {
        stroke: #231f20;
      }

      .cls-1, .cls-7, .cls-8 {
        stroke-width: .25px;
      }

      .cls-2, .cls-3, .cls-6, .cls-10 {
        stroke-width: .5px;
      }

      .cls-3 {
        stroke: #fff;
      }

      .cls-4, .cls-5, .cls-9 {
        stroke-width: .4px;
      }

      .cls-5 {
        fill: #231f20;
      }

      .cls-6, .cls-7, .cls-8 {
        stroke: #010101;
      }

      .cls-8 {
        fill: #010101;
      }
    </style>
  </defs>
  <g>
    <path class="cls-8" d="M12.82,17.56l-1.2-1.75s-.23-4.53,4.54-5.85l1.51,1.61s-2.05,1.05-4.86,5.99h.01Z"/>
    <g>
      <path class="cls-6" d="M25.73,18.19c6.22,2.66,7.46,7.74,7.98,7.29s.52-2.41.52-2.41c3.72,3.07,4.15,2.13,4.15,2.13,0,0-1.64-2.82-2.48-3.97s-1.22-2.68-1.22-2.68c-2.87-9.29-10.77-8.93-10.77-8.93,0,0-7.17-.06-10.98,8.47,0,0-3.16,6.9-3.7,6.9,0,0,1.85.52,3.97-2.09,0,0,.25,2.27.84,2.58,0,0,4.33-6.68,6.28-7.6,0,0,1.84,5.54,5.09,6.48,0,0-.66-6.59.31-6.17h0Z"/>
      <path class="cls-7" d="M21.81,21.02h-4.58s-.34,4.35,2.29,4.32,2.29-4.32,2.29-4.32Z"/>
      <path class="cls-7" d="M30.44,21.36c.01,1.01-.13,3.95-2.3,3.98-2.63.03-2.29-4.32-2.29-4.32h4.25l.35.34h-.01Z"/>
      <path class="cls-7" d="M23.3,27.81s.61.62,1.23,0"/>
      <path class="cls-6" d="M16.02,22.62l-2.09,2.83c.57,1.13,2.02,3.24,3.69,3.68,0,0-1.9-5.03-1.6-6.52h0Z"/>
      <path class="cls-6" d="M32.1,23.58l1.33,1.92s-.88,2.58-3.43,3.63c0,0,1.92-3.69,2.1-5.56h0Z"/>
      <path class="cls-6" d="M16.02,23.46s.36,6.52,7.79,6.52,8.24-6.09,8.24-6.09"/>
      <path class="cls-8" d="M34.57,17.64l1.28-1.69s.44-4.52-4.25-6.06l-1.59,1.53s2,1.15,4.57,6.21h0Z"/>
      <path class="cls-6" d="M13.94,15.91l2.47-3.14c-.64-2.67-2.44-3.46-3.87-2.88-1.24.5-1.85,1.81-3.3,5.14s-4.12,9.18-4.12,9.18c-1.43,1.39-9.49,8.76,1.04,11.92,0,0,.56.17.13,1.39s1.62.65,1.96,0,.99-.48.43-3.86,2.86-8.11,2.86-8.11l1.44-2.37s-2.92,2.25-3.73,1.56l3.02-5.47s1.37-2.99,1.67-3.36Z"/>
      <path class="cls-6" d="M34.72,18.03c-.47-2.26-3.92-5.88-3.92-5.88,3.07-4.66,6.14-.43,6.14-.43,1.3,2.09,4.28,12.23,5.67,13.45s6.76,7.26,3.56,9.51c-3.21,2.25-5,2.11-4.97,2.57s.95.93.43,1.42-2.69.29-2.78-2.05,1.3-2.54,0-5.78c0,0-1.15-2.83-2.11-3.8s-1.65-3.28-1.65-3.28c0,0,2.54,2.53,3.65,1.92l-1.21-2.02s-1.71-2.57-1.95-3.15-.87-2.47-.87-2.47h0Z"/>
      <path class="cls-6" d="M11.78,25.08s-.36,3.23,1.4,2.84l1.76-.4s-1.67-3.19-1.76-4.35-1.4,1.91-1.4,1.91Z"/>
      <path class="cls-6" d="M35.56,25.16s.36,3.23-1.4,2.84l-1.76-.4s1.67-3.19,1.76-4.35,1.4,1.91,1.4,1.91Z"/>
      <path class="cls-3" d="M12.46,16.02s1.37-3.89,4.08-4.74"/>
      <path class="cls-3" d="M35.04,15.74s-1.3-3.75-3.88-4.57"/>
    </g>
  </g>
  <polygon class="cls-2" points="19.66 29.33 21.51 32.19 23.3 30.1 19.66 29.33"/>
  <polygon class="cls-2" points="28.14 29.39 26.09 32.22 24.04 30.04 28.14 29.39"/>
  <polygon class="cls-10" points="23.1 30.34 23.1 31.82 24.24 31.82 24.27 30.34 23.81 29.98 23.1 30.34"/>
  <path class="cls-4" d="M19.66,29.62l.47,3.26-2.51,4.37,4.45,2.82,1.23-.84,1.23.84,5.47-2.69-2.81-4.91.95-3.09s-3.42.57-3.87.58-4.29-.22-4.61-.35Z"/>
  <polygon class="cls-4" points="19.52 29.98 17.62 30.9 18.94 33.37 20.07 32.47 19.52 29.98"/>
  <polygon class="cls-4" points="28.14 30.24 29.57 31.16 28.14 33.63 27.28 32.19 28.14 30.24"/>
  <polygon class="cls-5" points="17.62 31.14 17.4 30.77 16.82 31.17 18.41 34.29 19.07 33.68 17.62 31.14"/>
  <polygon class="cls-5" points="29.57 31.16 30 30.9 30.45 31.16 28.48 34.73 28.14 33.63 29.57 31.16"/>
  <polygon class="cls-4" points="16.82 31.12 12.72 32.82 15.28 37.25 18.41 34.29 16.82 31.12"/>
  <polygon class="cls-5" points="12.72 32.82 12.06 33.1 14.81 37.78 15.28 37.25 12.72 32.82"/>
  <polygon class="cls-4" points="30.45 31.16 35.18 33.63 32.4 38.23 28.48 34.73 30.45 31.16"/>
  <polygon class="cls-9" points="34 33.01 31.72 37.62 32.4 38.23 35.18 33.63 34 33.01"/>
  <path class="cls-4" d="M13.83,36.46h0c-.73.43-1.52.45-1.76.04l-.69-1.17c-.24-.41.16-1.1.89-1.52l1.57,2.66Z"/>
  <path class="cls-4" d="M33.43,37.16h0c.73.43,1.52.45,1.76.04l.69-1.17c.24-.41-.16-1.1-.89-1.52l-1.57,2.66Z"/>
  <polygon class="cls-9" points="23.1 31.82 23.04 39.41 23.3 39.24 24.27 39.89 24.24 31.82 23.1 31.82"/>
  <rect class="cls-1" x="20.77" y="32.82" width="1.41" height="1.94"/>
  <rect class="cls-1" x="25.13" y="32.82" width="1.41" height="1.94"/>
</svg>