<?xml version="1.0" encoding="UTF-8"?>
<svg id="Puzzles" xmlns="http://www.w3.org/2000/svg" viewBox="0 0 48 48">
  <defs>
    <style>
      .cls-1, .cls-2 {
        fill: none;
        stroke-width: .75px;
      }

      .cls-1, .cls-2, .cls-3 {
        stroke: #231f20;
      }

      .cls-1, .cls-3 {
        stroke-linecap: round;
        stroke-linejoin: round;
      }

      .cls-2 {
        stroke-miterlimit: 10;
      }

      .cls-3 {
        fill: #231f20;
        stroke-width: .5px;
      }
    </style>
  </defs>
  <rect class="cls-3" x="15.76" y="12.06" width="17" height="3.24" rx="1.62" ry="1.62"/>
  <rect class="cls-3" x="19.88" y="5.82" width="9.18" height="9.18"/>
  <path class="cls-1" d="M43.24,29.53l-5.94-.06-.12,6.06c4.68,1.56,3.12,3.06,3.12,5.35s-3.18,2.81-3.18,2.81h-6.29c-3.76,0-3.94-2.87-3.94-2.87,0,0-.01-.38-.03-.95.49-.65.79-1.54.79-2.53,0-1.08-.37-2.04-.95-2.7-.09-.14-.16-.18-.16-.18,0,0,0,0,0,0-.45-.44-1.01-.7-1.61-.7-1.51,0-2.74,1.61-2.74,3.59,0,.8.21,1.54.55,2.13-.85,2.82-3.02,4.2-3.02,4.2h-10.24c-1.59,0-1.82-1.57-1.82-1.57,0,0-.55-5.11,1.18-6.35.71-.51,3.41-.12,4.18-.47s-.06-7.88-.06-7.88c-.11-1.08-.31-1.56-1.59-1.56s-1.62.13-1.62,1.61c0,.15.02.34.04.55.04,5-1.65,4.69-1.65,4.69H3.76s-1.35-.06-1.35-7.06,2.29-7.06,2.29-7.06h6v-4.76s-1.82.12-3.24-.18-.94-1.76-.88-4.41c.06-2.65,2.88-2.65,8.12-2.59s3.47,7.94,3.47,7.94h11.47c2.24-6.12,3-7.82,6.47-8.24,3.47-.41,5.47,1.18,6.59,4.59,1.12,3.41-5.76,7.94-5.76,7.94l.06,3.76h2s.35-3.06,1.47-3.35,3.47-.76,3.35,3.24-.59,7-.59,7Z"/>
  <polyline class="cls-2" points="15.06 19 18.21 19 21.35 19"/>
  <line class="cls-2" x1="19.88" y1="22" x2="19.88" y2="19.18"/>
  <polyline class="cls-2" points="25.91 19 29.06 19 32.21 19"/>
  <line class="cls-2" x1="30.74" y1="22" x2="30.74" y2="19.18"/>
  <line class="cls-2" x1="21.35" y1="24.59" x2="25.59" y2="24.59"/>
</svg>