<?xml version="1.0" encoding="UTF-8" standalone="no"?>
<svg
   id="Layer_1"
   data-name="Layer 1"
   viewBox="0 0 48 48"
   version="1.1"
   sodipodi:docname="Ribbons.svg"
   inkscape:version="1.4.4 (dcaf3e7, 2026-05-05)"
   xmlns:inkscape="http://www.inkscape.org/namespaces/inkscape"
   xmlns:sodipodi="http://sodipodi.sourceforge.net/DTD/sodipodi-0.dtd"
   xmlns="http://www.w3.org/2000/svg"
   xmlns:svg="http://www.w3.org/2000/svg">
  <sodipodi:namedview
     id="namedview16"
     pagecolor="#ffffff"
     bordercolor="#000000"
     borderopacity="0.25"
     inkscape:showpageshadow="2"
     inkscape:pageopacity="0.0"
     inkscape:pagecheckerboard="0"
     inkscape:deskcolor="#d1d1d1"
     inkscape:zoom="4.4746601"
     inkscape:cx="54.08232"
     inkscape:cy="51.512292"
     inkscape:window-width="1704"
     inkscape:window-height="1401"
     inkscape:window-x="1699"
     inkscape:window-y="0"
     inkscape:window-maximized="0"
     inkscape:current-layer="Layer_1" />
  <defs
     id="defs1">
    <style
       id="style1">
      .cls-1, .cls-2 {
        fill: #231f20;
      }

      .cls-2, .cls-3 {
        stroke-width: .5px;
      }

      .cls-2, .cls-3, .cls-4 {
        stroke: #231f20;
        stroke-miterlimit: 10;
      }

      .cls-3, .cls-4 {
        fill: none;
      }
    </style>
  </defs>
  <polyline
     class="cls-4"
     points="46.27 20.64 43.5 27.61 46.12 33.09 2.03 33.09 5.25 27.25 1.73 20.64"
     id="polyline1" />
  <g
     id="g2"
     transform="translate(-0.6021784,0.76102542)">
    <path
       class="cls-1"
       d="m 15.02,14.51 c -0.45,0.42 -0.85,0.73 -1.19,0.92 -0.34,0.19 -0.6,0.29 -0.79,0.29 -0.24,0 -0.43,-0.11 -0.56,-0.33 -0.13,-0.22 -0.19,-0.47 -0.19,-0.76 0,-0.41 0.08,-0.91 0.23,-1.51 0.15,-0.6 0.27,-0.95 0.34,-1.07 0.07,-0.12 0.19,-0.17 0.36,-0.17 0.07,0 0.12,0.04 0.17,0.13 0.04,0.09 0.07,0.19 0.07,0.3 0,0.07 -0.03,0.15 -0.08,0.26 -0.13,0.25 -0.2,0.39 -0.21,0.41 0,0.03 -0.05,0.19 -0.14,0.48 -0.09,0.29 -0.13,0.57 -0.13,0.82 0,0.09 0.02,0.23 0.06,0.42 0.04,0.19 0.12,0.29 0.25,0.29 0.14,0 0.3,-0.04 0.5,-0.13 0.2,-0.09 0.42,-0.23 0.67,-0.43 0.25,-0.2 0.41,-0.36 0.5,-0.49 0.09,-0.12 0.15,-0.27 0.18,-0.42 0.04,-0.16 0.06,-0.5 0.08,-1.03 0.01,-0.53 0.13,-0.79 0.36,-0.79 0.13,0 0.22,0.04 0.26,0.11 0.04,0.08 0.06,0.22 0.06,0.43 0,0.17 -0.01,0.39 -0.03,0.65 -0.03,0.33 -0.04,0.57 -0.05,0.71 -0.03,0.73 -0.12,1.46 -0.26,2.19 -0.14,0.73 -0.35,1.35 -0.62,1.84 -0.27,0.49 -0.64,0.74 -1.12,0.74 -0.48,0 -0.91,-0.14 -1.28,-0.41 -0.37,-0.27 -0.56,-0.5 -0.56,-0.69 0,-0.09 0.02,-0.17 0.06,-0.26 0.04,-0.09 0.09,-0.13 0.15,-0.13 0.03,0 0.06,0.03 0.1,0.08 0.32,0.53 0.83,0.8 1.52,0.8 0.36,0 0.65,-0.34 0.9,-1.01 0.24,-0.67 0.37,-1.3 0.4,-1.89 0,-0.11 0.01,-0.23 0.03,-0.34 z"
       id="path1" />
    <path
       class="cls-1"
       d="m 19.35,14.19 c -0.31,0.57 -0.64,1.01 -0.96,1.32 -0.33,0.31 -0.63,0.47 -0.92,0.47 -0.16,0 -0.33,-0.1 -0.5,-0.31 -0.17,-0.2 -0.25,-0.52 -0.25,-0.94 0,-0.35 0.08,-0.86 0.23,-1.53 0.13,-0.56 0.2,-0.96 0.2,-1.19 0.07,-0.16 0.18,-0.24 0.33,-0.24 0.1,0 0.19,0.04 0.25,0.12 0.06,0.08 0.09,0.16 0.09,0.24 0,0.19 -0.06,0.45 -0.18,0.79 -0.23,0.66 -0.34,1.23 -0.34,1.71 0,0.43 0.09,0.65 0.28,0.65 0.24,0 0.54,-0.22 0.91,-0.65 0.37,-0.43 0.68,-1.04 0.95,-1.82 0.1,-0.31 0.19,-0.51 0.25,-0.61 0.06,-0.1 0.15,-0.14 0.26,-0.14 0.17,0 0.25,0.12 0.25,0.36 0,0.03 -0.02,0.13 -0.07,0.29 -0.15,0.58 -0.22,1.13 -0.22,1.64 0,0.62 0.09,1.02 0.28,1.2 0.1,0.1 0.15,0.18 0.15,0.24 0,0.07 -0.05,0.14 -0.15,0.2 -0.1,0.06 -0.19,0.09 -0.27,0.09 -0.17,0 -0.31,-0.14 -0.42,-0.41 -0.11,-0.27 -0.16,-0.68 -0.16,-1.22 v -0.13 c 0,0 0,-0.09 0,-0.13 z"
       id="path2" />
  </g>
  <polyline
     class="cls-4"
     points="46.27 33.28 43.5 40.25 46.12 45.73 2.03 45.73 5.25 39.89 1.73 33.28"
     id="polyline2" />
  <polygon
     class="cls-4"
     points="1.73 8 46.27 8 43.5 14.96 46.12 20.45 2.03 20.45 5.25 14.6 1.73 8"
     id="polygon2" />
  <g
     id="g4"
     transform="translate(-0.4345679,0.48448221)">
    <path
       class="cls-1"
       d="m 33.8,13.01 c -0.02,0.05 -0.05,0.09 -0.09,0.12 -0.03,0.03 -0.07,0.06 -0.11,0.07 -0.04,0.01 -0.08,0.02 -0.12,0.02 -0.03,0 -0.08,0 -0.12,-0.02 -0.04,-0.02 -0.1,-0.02 -0.15,-0.02 -0.1,0 -0.21,0.03 -0.34,0.09 -0.13,0.06 -0.27,0.13 -0.41,0.22 -0.14,0.09 -0.28,0.19 -0.41,0.3 -0.13,0.11 -0.24,0.22 -0.33,0.33 -0.05,0.06 -0.1,0.13 -0.16,0.2 -0.05,0.07 -0.11,0.15 -0.16,0.23 -0.05,0.08 -0.1,0.17 -0.14,0.25 -0.04,0.08 -0.07,0.17 -0.09,0.25 0,0.04 -0.01,0.09 -0.01,0.16 0,0.06 0,0.13 0.01,0.2 0,0.07 0.02,0.15 0.02,0.23 0,0.08 0.01,0.15 0.01,0.22 0,0.04 0,0.08 0,0.12 0,0.04 0,0.07 -0.01,0.11 0,0.02 -0.02,0.05 -0.04,0.08 -0.02,0.03 -0.05,0.05 -0.08,0.08 -0.03,0.02 -0.07,0.04 -0.1,0.06 -0.04,0.02 -0.07,0.03 -0.11,0.03 -0.06,0 -0.1,-0.03 -0.14,-0.1 -0.04,-0.06 -0.07,-0.14 -0.1,-0.25 -0.02,-0.11 -0.04,-0.23 -0.05,-0.38 0,-0.14 -0.01,-0.3 -0.01,-0.47 0,-0.05 0,-0.12 0,-0.22 0,-0.1 0,-0.2 0,-0.3 0,-0.1 0,-0.19 0.01,-0.28 0,-0.08 0,-0.13 0,-0.15 0,-0.04 0,-0.11 0,-0.18 0,-0.08 0,-0.16 0.01,-0.25 0,-0.09 0.01,-0.18 0.02,-0.28 0.01,-0.1 0.02,-0.18 0.03,-0.26 0,-0.03 0,-0.08 0.01,-0.14 0,-0.06 0,-0.12 0.02,-0.19 0,-0.06 0.01,-0.13 0.02,-0.19 0,-0.06 0.01,-0.1 0.02,-0.13 0,-0.03 0.02,-0.07 0.05,-0.11 0.03,-0.04 0.06,-0.08 0.09,-0.12 0.04,-0.04 0.08,-0.07 0.12,-0.1 0.05,-0.03 0.09,-0.04 0.14,-0.04 0.05,0 0.09,0.01 0.13,0.03 0.04,0.02 0.06,0.04 0.08,0.07 0.02,0.03 0.03,0.06 0.04,0.09 0,0.03 0.01,0.06 0.01,0.08 0,0.01 0,0.04 -0.01,0.08 0,0.04 -0.02,0.08 -0.04,0.13 -0.01,0.05 -0.03,0.11 -0.05,0.17 -0.02,0.06 -0.03,0.12 -0.04,0.17 -0.01,0.05 -0.03,0.1 -0.04,0.14 0,0.04 -0.01,0.07 -0.01,0.09 0,0.02 0,0.06 0,0.12 0,0.06 -0.01,0.13 -0.02,0.2 0,0.08 -0.01,0.16 -0.02,0.24 0,0.08 0,0.16 0,0.22 v 0.06 c 0,0 0,0.04 0,0.05 0.09,-0.12 0.19,-0.25 0.3,-0.38 0.11,-0.13 0.23,-0.26 0.35,-0.39 0.12,-0.13 0.25,-0.25 0.38,-0.37 0.13,-0.12 0.27,-0.22 0.4,-0.31 0.14,-0.09 0.27,-0.16 0.41,-0.21 0.14,-0.05 0.27,-0.08 0.4,-0.08 0.07,0 0.14,0.02 0.19,0.05 0.05,0.03 0.1,0.07 0.14,0.11 0.04,0.04 0.06,0.09 0.08,0.13 0.02,0.04 0.03,0.08 0.03,0.11 v 0 c 0,0.08 -0.01,0.14 -0.04,0.19 z"
       id="path3" />
    <path
       class="cls-1"
       d="m 37.18,14.92 c 0,0 -0.01,0.09 -0.04,0.15 -0.03,0.06 -0.07,0.13 -0.12,0.21 -0.05,0.08 -0.12,0.16 -0.19,0.24 -0.08,0.08 -0.16,0.16 -0.25,0.24 -0.05,0.04 -0.12,0.09 -0.2,0.15 -0.08,0.06 -0.18,0.11 -0.28,0.16 -0.11,0.05 -0.22,0.09 -0.35,0.13 -0.13,0.04 -0.26,0.05 -0.41,0.05 -0.17,0 -0.32,-0.04 -0.45,-0.11 -0.12,-0.07 -0.23,-0.17 -0.31,-0.29 -0.08,-0.12 -0.14,-0.26 -0.18,-0.41 -0.04,-0.15 -0.06,-0.31 -0.06,-0.46 0,-0.19 0.01,-0.39 0.04,-0.6 0.03,-0.21 0.05,-0.41 0.09,-0.59 0.03,-0.18 0.06,-0.34 0.09,-0.48 0.03,-0.13 0.04,-0.22 0.04,-0.27 0,-0.05 0,-0.11 0.01,-0.17 0,-0.06 0.02,-0.12 0.05,-0.18 0.02,-0.06 0.05,-0.1 0.09,-0.14 0.04,-0.04 0.08,-0.06 0.14,-0.06 0.07,0 0.13,0 0.17,0.03 0.05,0.02 0.09,0.04 0.12,0.07 0.03,0.03 0.05,0.06 0.07,0.09 0.02,0.03 0.02,0.06 0.02,0.09 0,0.08 -0.02,0.18 -0.06,0.31 -0.04,0.13 -0.08,0.27 -0.12,0.44 -0.05,0.16 -0.09,0.34 -0.13,0.54 -0.04,0.2 -0.06,0.4 -0.06,0.61 0,0.11 0,0.22 0.02,0.33 0.02,0.11 0.03,0.23 0.07,0.32 0.04,0.1 0.09,0.18 0.16,0.24 0.07,0.06 0.16,0.1 0.28,0.1 0.1,0 0.2,-0.02 0.3,-0.05 0.1,-0.03 0.21,-0.08 0.3,-0.13 0.1,-0.05 0.19,-0.11 0.28,-0.17 0.09,-0.06 0.16,-0.12 0.22,-0.17 0.06,-0.06 0.12,-0.11 0.17,-0.16 0.05,-0.05 0.1,-0.09 0.15,-0.13 0.05,-0.04 0.08,-0.07 0.12,-0.09 0.04,-0.02 0.07,-0.03 0.09,-0.03 0.06,0 0.09,0.02 0.1,0.05 0.01,0.03 0.02,0.07 0.02,0.1 z m -1.26,-4.39 c 0,0 0,0.06 -0.01,0.11 -0.01,0.05 -0.02,0.1 -0.04,0.16 -0.02,0.06 -0.03,0.12 -0.05,0.17 -0.02,0.06 -0.04,0.1 -0.05,0.15 -0.02,0.04 -0.05,0.08 -0.08,0.11 -0.03,0.03 -0.08,0.06 -0.13,0.09 -0.05,0.02 -0.09,0.04 -0.14,0.06 -0.05,0.01 -0.08,0.02 -0.11,0.02 -0.02,0 -0.04,0 -0.05,-0.02 -0.01,-0.02 -0.02,-0.03 -0.03,-0.05 0,-0.02 -0.01,-0.04 -0.01,-0.07 0,-0.03 0,-0.05 0,-0.08 L 35.2,11.06 c 0,0 -0.01,-0.04 -0.02,-0.06 0,-0.02 -0.02,-0.04 -0.03,-0.06 -0.01,-0.02 -0.02,-0.05 -0.03,-0.08 0,-0.03 -0.01,-0.07 -0.01,-0.12 0,-0.04 0.01,-0.09 0.04,-0.14 0.03,-0.05 0.06,-0.1 0.1,-0.14 0.04,-0.04 0.1,-0.08 0.16,-0.11 0.06,-0.03 0.12,-0.05 0.2,-0.05 0.02,0 0.04,0 0.08,0.02 0.04,0.01 0.08,0.03 0.11,0.06 0.03,0.03 0.07,0.05 0.1,0.08 0.03,0.03 0.04,0.06 0.04,0.08 z"
       id="path4" />
  </g>
  <polygon
     class="cls-3"
     points="22.92,23.38 24.84,22.98 25.27,25.04 27.41,22.21 28.96,23.79 22.21,30.31 20.52,29.44 24.04,25.44 "
     id="polygon4"
     transform="translate(-0.19753086,0.47407407)" />
  <polygon
     class="cls-2"
     points="22.21,30.31 20.52,29.44 23.2,26.39 23.72,28.86 "
     id="polygon5"
     transform="translate(-0.19753086,0.47407407)" />
  <g
     id="g6"
     transform="translate(-0.23703704,0.75061729)">
    <path
       class="cls-1"
       d="m 11.81,24.83 h 0.5 l 0.05,0.52 h 0.02 c 0.19,-0.37 0.41,-0.62 0.84,-0.62 0.36,0 0.59,0.23 0.69,0.68 0.21,-0.42 0.44,-0.68 0.86,-0.68 0.51,0 0.81,0.43 0.81,1.22 v 2.83 H 14.96 V 26 c 0,-0.46 -0.12,-0.69 -0.39,-0.69 -0.26,0 -0.39,0.2 -0.59,0.61 v 2.86 H 13.41 V 26 c 0,-0.46 -0.11,-0.69 -0.38,-0.69 -0.26,0 -0.42,0.2 -0.6,0.61 v 2.86 h -0.62 z"
       id="path5" />
    <path
       class="cls-1"
       d="m 18.27,25.38 h -1.7 v -0.54 h 2.32 v 3.95 h -0.63 v -3.4 z m -0.25,-1.89 c 0,-0.31 0.21,-0.52 0.5,-0.52 0.29,0 0.5,0.21 0.5,0.52 0,0.31 -0.21,0.52 -0.5,0.52 -0.29,0 -0.5,-0.2 -0.5,-0.52 z"
       id="path6" />
  </g>
  <g
     id="g8"
     transform="translate(0.23703703,0.63209877)">
    <path
       class="cls-1"
       d="m 29.75,23 h 0.63 v 3.91 h 0.03 l 1.97,-2.07 h 0.72 l -2.71,2.87 v 1.07 H 29.76 V 23 Z m 1.41,3.69 0.38,-0.44 1.75,2.53 H 32.6 l -1.43,-2.09 z"
       id="path7" />
    <path
       class="cls-1"
       d="m 34.07,27.29 v -2.45 h 0.63 v 2.36 c 0,0.74 0.24,1.1 0.84,1.1 0.42,0 0.73,-0.21 1.14,-0.72 v -2.74 h 0.63 v 3.95 H 36.79 L 36.74,28.1 h -0.03 c -0.37,0.46 -0.8,0.79 -1.36,0.79 -0.87,0 -1.27,-0.55 -1.27,-1.59 z"
       id="path8" />
  </g>
  <path
     class="cls-3"
     d="m 28.353692,11.476457 -0.49,-0.46 -1.56,0.99 c 0,0 -1.03,0.03 -1.26,0.14 -0.14,0.07 -1.48,1.04 -2.04,1.61 -0.39,0.4 -0.8,0.77 -1.23,1.11 l -0.24,0.46 2.84,2.1 1.39,-1.32 c 0,0 1.81,-1.77 1.9,-1.98 0.09,-0.21 0,-1.1 0,-1.1 l 0.86,-1.45 -0.49,-0.4"
     id="path9" />
  <path
     class="cls-3"
     d="m 23.062593,42.38619 c 1.5,1.4 2.06,0.78 2.06,0.78 0,0 3.12,-2.12 3.84,-5.11 0.72,-2.99 -2.26,-1.7 -3.07,-1.29 -0.13,0.06 -0.24,0.14 -0.36,0.22 -0.73,0.55 -3.83,2.9 -4.27,3.29 -0.5,0.44 0.61,1.19 0.61,1.19 l 1.18,0.91 z"
     id="path10" />
  <path
     class="cls-3"
     d="m 22.122593,41.59619 -1.96,1.64 c 0,0 -0.29,0.62 0.36,0.68 0.65,0.06 2.43,-1.75 2.43,-1.75"
     id="path11" />
  <path
     class="cls-3"
     d="m 27.452593,37.21619 c 0,0 0.51,0 0.53,0.68 0.02,0.62 -1.36,2.64 -1.36,2.64"
     id="path12" />
  <g
     id="g14"
     transform="translate(0.20150143,0.72359674)">
    <path
       class="cls-1"
       d="m 10.88,42.99 0.04,-0.67 c 0.15,0.04 0.29,0.06 0.43,0.06 0.14,0 0.26,-0.03 0.35,-0.1 0.12,-0.09 0.24,-0.25 0.38,-0.49 l 0.23,-0.41 -0.7,-4.22 h 0.71 l 0.32,2.13 c 0.06,0.42 0.12,0.84 0.16,1.26 l 1.88,-3.39 h 0.75 l -2.69,4.77 c -0.26,0.46 -0.49,0.77 -0.69,0.92 -0.2,0.15 -0.43,0.23 -0.69,0.23 -0.17,0 -0.33,-0.03 -0.49,-0.08 z"
       id="path13" />
    <path
       class="cls-1"
       d="m 18.06,40.84 c -0.25,0.21 -0.49,0.37 -0.72,0.47 -0.23,0.1 -0.48,0.15 -0.74,0.15 -0.39,0 -0.7,-0.11 -0.94,-0.34 -0.24,-0.23 -0.36,-0.52 -0.36,-0.88 0,-0.24 0.05,-0.44 0.16,-0.62 0.11,-0.18 0.25,-0.33 0.43,-0.44 0.18,-0.11 0.39,-0.19 0.65,-0.24 0.16,-0.03 0.47,-0.06 0.92,-0.08 0.45,-0.02 0.77,-0.07 0.97,-0.14 0.06,-0.2 0.08,-0.36 0.08,-0.49 0,-0.17 -0.06,-0.3 -0.18,-0.39 -0.17,-0.13 -0.41,-0.2 -0.73,-0.2 -0.3,0 -0.55,0.07 -0.74,0.2 -0.19,0.13 -0.33,0.32 -0.42,0.57 l -0.73,-0.06 c 0.15,-0.42 0.38,-0.74 0.7,-0.96 0.32,-0.22 0.73,-0.33 1.22,-0.33 0.52,0 0.93,0.12 1.24,0.37 0.23,0.19 0.35,0.43 0.35,0.72 0,0.23 -0.03,0.49 -0.1,0.78 l -0.23,1.05 c -0.07,0.33 -0.11,0.6 -0.11,0.81 0,0.13 0.03,0.32 0.09,0.57 H 18.14 C 18.1,41.22 18.07,41.05 18.06,40.84 Z m 0.26,-1.61 c -0.1,0.04 -0.21,0.07 -0.32,0.09 -0.11,0.02 -0.31,0.04 -0.58,0.07 -0.42,0.04 -0.71,0.08 -0.88,0.14 -0.17,0.06 -0.3,0.15 -0.39,0.27 -0.09,0.12 -0.13,0.26 -0.13,0.41 0,0.2 0.07,0.37 0.21,0.5 0.14,0.13 0.34,0.19 0.59,0.19 0.24,0 0.47,-0.06 0.69,-0.19 0.22,-0.13 0.39,-0.3 0.52,-0.53 0.13,-0.23 0.23,-0.54 0.3,-0.96 z"
       id="path14" />
  </g>
  <g
     id="g16"
     transform="translate(0.98368375,0.64458439)">
    <path
       class="cls-1"
       d="m 28.89,39.84 c 0,-0.82 0.24,-1.5 0.73,-2.04 0.4,-0.44 0.92,-0.67 1.57,-0.67 0.51,0 0.92,0.16 1.23,0.48 0.31,0.32 0.47,0.75 0.47,1.28 0,0.48 -0.1,0.93 -0.29,1.35 -0.19,0.42 -0.47,0.74 -0.83,0.96 -0.36,0.22 -0.74,0.33 -1.14,0.33 -0.33,0 -0.63,-0.07 -0.89,-0.21 -0.27,-0.14 -0.47,-0.34 -0.62,-0.59 -0.14,-0.26 -0.21,-0.55 -0.21,-0.89 z m 0.72,-0.07 c 0,0.4 0.09,0.7 0.29,0.9 0.19,0.21 0.43,0.31 0.73,0.31 0.15,0 0.31,-0.03 0.46,-0.09 0.15,-0.06 0.29,-0.16 0.42,-0.28 0.13,-0.13 0.24,-0.27 0.33,-0.43 0.09,-0.16 0.17,-0.34 0.22,-0.53 0.08,-0.26 0.12,-0.51 0.12,-0.75 0,-0.38 -0.1,-0.68 -0.29,-0.89 -0.19,-0.21 -0.43,-0.32 -0.72,-0.32 -0.22,0 -0.43,0.05 -0.61,0.16 -0.18,0.11 -0.35,0.26 -0.5,0.47 -0.15,0.21 -0.26,0.45 -0.33,0.72 -0.07,0.27 -0.1,0.52 -0.1,0.73 z"
       id="path15" />
    <path
       class="cls-1"
       d="m 33.25,41.44 0.88,-4.21 h 0.72 l -0.88,4.21 z m 1.05,-5 0.17,-0.81 h 0.71 l -0.17,0.81 z"
       id="path16" />
  </g>
  <polyline
     class="cls-3"
     points="27.84 14.22 26.04 12.57 23.03 15.7"
     id="polyline16"
     transform="translate(-0.54630823,0.32645752)" />
  <polygon
     class="cls-2"
     points="1.48 7.22 3.41 5.59 2.78 4.1 45.61 4.24 45.41 5.96 46.52 7.29 1.48 7.22"
     id="polygon16" />
</svg>
