<?xml version="1.0" encoding="utf-8"?>
<!-- Generator: Adobe Adobe Illustrator 24.2.0, SVG Export Plug-In . SVG Version: 6.00 Build 0)  -->
<svg version="1.1" id="Layer_1" xmlns="http://www.w3.org/2000/svg" xmlns:xlink="http://www.w3.org/1999/xlink" x="0px" y="0px"
	 viewBox="0 0 48 48" style="enable-background:new 0 0 48 48;" xml:space="preserve">
<style type="text/css">
	.st0{stroke:#000000;stroke-width:0.5;stroke-linecap:round;stroke-linejoin:round;stroke-miterlimit:10;}
	.st1{fill:none;stroke:#000000;stroke-width:0.5;stroke-linecap:round;stroke-linejoin:round;stroke-miterlimit:10;}
</style>
<path class="st0" d="M3.97,23.94L3.97,23.94c0-0.76,0.62-1.38,1.37-1.38h6.6c0.76,0,1.37,0.62,1.37,1.38v0
	c0,0.76-0.62,1.37-1.37,1.37h-6.6C4.58,25.31,3.97,24.7,3.97,23.94z"/>
<path class="st0" d="M3.97,27.95v-0.01c0-0.76,0.61-1.37,1.37-1.37h6.61c0.76,0,1.37,0.61,1.37,1.37v0.01
	c0,0.76-0.61,1.37-1.37,1.37H5.34C4.58,29.31,3.97,28.7,3.97,27.95z"/>
<path class="st1" d="M5.67,3.78C4.2,15.1,4.2,26.6,5.68,37.91c0-0.01,5.33,2.95,8.3,2.81s5.85-1.54,7.69-3.83
	c-2.75-9.76-2.63-20.31,0.68-30.15c-1.75-2.59-4.62-4.4-7.72-4.86S8.12,1.83,5.69,3.8"/>
<path class="st1" d="M22.26,6.94c6.99,0.49,14.03,0.18,20.94-0.93c1.07-0.17,1.96,0.95,2.05,2.03s-0.36,2.11-0.64,3.16
	s-0.34,2.28,0.38,3.09c0.7,0.79,0.93,1.97,0.57,2.96s-1.28,1.76-2.32,1.93c-7.71,1.24-15.55,1.73-23.35,1.47"/>
<path class="st1" d="M5.31,6.04C3.73,5.67,1.98,6.98,1.9,8.59c-0.18,3.52-0.07,7.05,0.33,10.54c0.12,1.04,1.34,1.8,2.33,1.46"/>
<path class="st1" d="M27.87,12.5c4.46-0.61,8.96-0.89,13.46-0.86"/>
<path class="st1" d="M31.64,14.77c2.49-0.3,4.97-0.6,7.46-0.9"/>
<path class="st1" d="M6.11,38.23c-0.31,0.53-0.23,1.2,0,1.77s0.6,1.06,0.87,1.61c0.27,0.55,0.45,1.19,0.26,1.77
	c-0.19,0.58-0.85,1.03-1.42,0.82"/>
<path class="st1" d="M10.09,40.07c-0.31,0.53-0.23,1.2,0,1.77c0.23,0.57,0.6,1.06,0.87,1.61c0.27,0.55,0.45,1.19,0.26,1.77
	s-0.85,1.03-1.42,0.82"/>
<path class="st1" d="M14.89,40.73c-0.31,0.53-0.23,1.2,0,1.77c0.23,0.57,0.6,1.06,0.87,1.61s0.45,1.19,0.26,1.77
	s-0.85,1.03-1.42,0.82"/>
<path class="st1" d="M19.09,39.15c-0.31,0.53-0.26,1.39-0.03,1.95c0.23,0.57,0.6,1.06,0.87,1.61c0.27,0.55,0.45,1.19,0.26,1.77
	s-0.85,1.03-1.42,0.82"/>
<path class="st1" d="M21.56,37.06c-0.31,0.53-0.23,1.2,0,1.77c0.23,0.57,0.6,1.06,0.87,1.61c0.27,0.55,0.45,1.19,0.26,1.77
	s-0.85,1.03-1.42,0.82"/>
</svg>
