<?xml version="1.0" encoding="utf-8"?>
<!-- Generator: Adobe Adobe Illustrator 24.2.0, SVG Export Plug-In . SVG Version: 6.00 Build 0)  -->
<svg version="1.1" id="Layer_1" xmlns="http://www.w3.org/2000/svg" xmlns:xlink="http://www.w3.org/1999/xlink" x="0px" y="0px"
	 viewBox="0 0 48 48" style="enable-background:new 0 0 48 48;" xml:space="preserve">
<style type="text/css">
	
		.st0{fill:none;stroke:#000000;stroke-width:0.5;stroke-linecap:round;stroke-linejoin:round;stroke-miterlimit:10;stroke-dasharray:0,0,0,0,0,0;}
	.st1{fill:none;stroke:#000000;stroke-width:0.5;stroke-linecap:round;stroke-linejoin:round;stroke-miterlimit:10;}
</style>
<path class="st1" d="M23.93,19.39c0.94,0.37,1.56,1.6,1.57,2.6c0.01,1-0.46,1.97-1.12,2.73c-0.65,0.76-1.42,1.5-2.24,2.08"/>
<path class="st1" d="M7.5,8.44c-2.27,3.78-4.43,7.3-6.7,11.08c2.33,2.8,5.21,5.13,8.44,6.83"/>
<path class="st1" d="M11.62,10.82C8.83,22.4,8.25,34.51,9.91,46.3"/>
<path class="st1" d="M15.56,1.9c-2.59,1.56-5.19,3.13-7.78,4.69C6.99,7.07,6.55,8.06,6.72,8.96"/>
<path class="st1" d="M6.81,8.88C7.3,8.05,8.64,7.91,9.29,8.61c3.51,3.77,8.25,6.38,13.32,7.33"/>
<path class="st1" d="M15.59,2.04c-0.65,0.64-0.77,1.75-0.27,2.51c2.44,3.77,4.89,7.53,7.33,11.3"/>
<path class="st1" d="M40.13,8.33c2.39,3.78,4.78,7.56,7.16,11.34c-2.45,2.8-5.65,4.99-9.05,6.69"/>
<path class="st1" d="M35.73,10.82c2.93,11.58,3.55,23.69,1.81,35.49"/>
<path class="st1" d="M31.58,1.9c2.73,1.56,5.47,3.13,8.2,4.69c0.83,0.48,1.29,1.46,1.11,2.36"/>
<path class="st1" d="M40.8,8.88c-0.52-0.83-1.92-0.98-2.62-0.27c-3.69,3.77-8.69,6.38-14.03,7.33"/>
<path class="st1" d="M31.55,2.04c0.68,0.64,0.81,1.75,0.29,2.51c-2.57,3.77-5.15,7.53-7.72,11.3"/>
<path class="st1" d="M7.1,7.32c1.66-0.56,3.48,0.4,4.72,1.64c2.94,2.93,6.42,4.3,9.94,5.68"/>
<path class="st1" d="M40.13,6.85c-0.82-0.47-2.93,0.68-3.6,1.34c-3.72,3.7-6.9,5.05-11.55,6.62"/>
<path class="st1" d="M22.47,15.89c0.55,0.19,1.16,0.2,1.72,0.02"/>
<path class="st1" d="M31.58,1.9c-5.18,0.66-10.89,0.97-16.02,0"/>
<path class="st1" d="M9.98,46.3c2.73-0.23,5.3-1.7,7.84-2.71c2.54-1.01,5.72-1.41,7.79,0.38c3.2,2.77,7.89,3.64,11.93,2.33"/>
<path class="st1" d="M18.78,15.06c0.56,1.2,1.49,2.23,2.62,2.92"/>
<path class="st1" d="M28.91,14.97c-0.59,1.15-1.52,2.12-2.65,2.76"/>
<path class="st1" d="M21.98,16.3c-0.54,0.63-0.58,1.62-0.11,2.3s1.42,0.97,2.2,0.69c0.52-0.19,1.04-0.38,1.56-0.57
	c0.33-0.12,0.5-0.5,0.48-0.85c-0.02-0.35-0.2-0.67-0.39-0.96s-0.4-0.58-0.5-0.92"/>
<path class="st1" d="M23.08,18.13c0.03-0.34,0.26-0.65,0.57-0.78c0.31-0.13,0.7-0.07,0.96,0.14"/>
<path class="st1" d="M22.02,19.11c-1.06,0.47-1.85,1.49-2.03,2.63s0.25,2.35,1.1,3.13c0.56,0.5,0.93,1.2,1.05,1.94"/>
<path class="st1" d="M25.22,18.94c1.02,0.19,1.93,0.92,2.33,1.87c0.4,0.96,0.27,2.11-0.32,2.96c-0.62,0.9-0.94,2-0.88,3.09"/>
<path class="st1" d="M26.33,26.92c-0.4-0.87-1.21-1.54-2.22-1.58c0.07,5.83,0.15,11.65,0.22,17.48"/>
<path class="st1" d="M23.05,27.3c-0.24-0.11-0.56,0.12-0.53,0.38c0.02,0.26,0.38,0.43,0.59,0.28c0.22-0.15,0.19-0.54-0.05-0.65"/>
<path class="st1" d="M22.85,38.02c-0.25-0.07-0.53,0.18-0.49,0.43c0.05,0.26,0.4,0.4,0.61,0.24c0.21-0.15,0.18-0.53-0.06-0.65"/>
<path class="st1" d="M22.85,32.46c-0.26-0.05-0.52,0.23-0.46,0.48c0.06,0.25,0.42,0.38,0.63,0.22c0.21-0.16,0.18-0.53-0.05-0.66"/>
<path class="st1" d="M21.45,22.08c0.46-0.84,0.92-1.67,1.56-2.44c0.09,0.92,0.18,1.83,0.27,2.75"/>
<path class="st1" d="M25.22,20.78c0.36,0.69,0.85,1.51,1.22,2.2"/>
<path class="st1" d="M46.56,18.97c-2.33,2.6-5.18,4.75-8.33,6.29"/>
<path class="st1" d="M1.32,18.88c2.19,2.5,4.83,4.62,7.75,6.22"/>
</svg>
