<?xml version="1.0" encoding="utf-8"?>
<!-- Generator: Adobe Adobe Illustrator 24.2.0, SVG Export Plug-In . SVG Version: 6.00 Build 0)  -->
<svg version="1.1" xmlns="http://www.w3.org/2000/svg" xmlns:xlink="http://www.w3.org/1999/xlink" x="0px" y="0px" width="48px"
	 height="48px" viewBox="0 0 48 48" style="enable-background:new 0 0 48 48;" xml:space="preserve">
<style type="text/css">
	.st0{display:none;}
	.st1{fill:none;stroke:#000000;stroke-width:0.5;stroke-linecap:round;stroke-linejoin:round;stroke-miterlimit:10;}
	.st2{stroke:#000000;stroke-width:0.5;stroke-linecap:round;stroke-linejoin:round;stroke-miterlimit:10;}
	
		.st3{stroke:#000000;stroke-width:0.5;stroke-linecap:round;stroke-linejoin:round;stroke-miterlimit:10;stroke-dasharray:0,0,0,0,0,0;}
	
		.st4{fill:none;stroke:#000000;stroke-width:0.5;stroke-linecap:round;stroke-linejoin:round;stroke-miterlimit:10;stroke-dasharray:0,0,0,0,0,0;}
</style>
<g id="Layer_2">
	<path class="st1" d="M6.99,12.13c3.49,1.33,7.15,1.33,10.64,0.03c-0.43,4.46-0.8,9.09-1.17,13.72c-2.6,1.22-6.09,1.35-8.63,0.01
		c-0.1,0.07-0.52-8.85-1-13.78"/>
	<path class="st1" d="M8.43,26.43c0.01,1.44,0.01,2.89,0,4.33c-2.31,2-6.21,6.15-6.21,6.15c-0.8,0.8-1.24,2.36-1.24,2.36"/>
	<path class="st1" d="M16,26.27c0.04,3.08,0.07,6.16,0.19,9.25"/>
	<path class="st2" d="M0.94,39.39c2.38,1.92,5.7,2.88,8.65,2.09s6.6-5.96,6.6-5.96l0,1.78c0,0.93-0.26,1.85-0.78,2.62
		c-1.6,2.35-4.06,4.95-6.57,5.26c-2.37,0.29-4.63-0.97-6.52-2.56c-0.89-0.75-1.39-1.85-1.38-3.01c0-0.06,0-0.13,0-0.2"/>
	<path class="st3" d="M6.84,12.11c1.46-1.28,3.54-1.79,5.48-1.83c1.94-0.04,3.81,0.66,5.32,1.88c-3.5,1.3-7.23,1.33-10.73,0.04"/>
	<path class="st3" d="M19.09,7.27c4.21,2.39,9.58,2.58,14.08,0.33c-4.43-1.92-9.6-2.09-14.16-0.48c0.01-0.02,0.07-0.03,0.09-0.05"/>
	<path class="st4" d="M33.16,7.82c-1.29,4.98-0.66,10.42,1.85,14.91c-5.02,2.11-10.82,2.31-15.72,0.29
		c-0.61-5.2-0.81-10.68-0.29-15.9"/>
	<path class="st4" d="M23.48,10.54c0.01,3.43,0.02,6.86,0.03,10.29"/>
	<path class="st4" d="M20,23.32c-1.37,3.3-1.32,6.93-0.22,10.33"/>
	<path class="st4" d="M32.92,23.73c0.65,1.93,2.1,3.59,3.92,4.49c1.83,0.91,4.02,1.06,5.95,0.42c0.8-0.27,1.74-0.11,2.41,0.4
		c0.68,0.51,1.08,1.37,1.03,2.22"/>
	<path class="st3" d="M46.24,31.32c0.23,2.83-2.07,5.56-4.56,6.97s-5.72,1.43-8.23,0.05c-1.64-0.9-3.64-0.7-5.48-0.39
		c-1.84,0.31-3.77,0.7-5.55,0.12s-3.31-2.84-2.64-4.42c5.5,2.16,11.31-0.58,17.39,1.81c3.25,1.27,7.34-1.17,9.07-4.2"/>
	<path class="st4" d="M30.85,10.31c0.54,0.06,0.97,0.6,0.92,1.14c-0.05,0.54-0.59,0.98-1.12,0.93c-0.54-0.05-0.99-0.57-0.95-1.11
		c0.04-0.54,0.56-1,1.1-0.97"/>
	<path class="st4" d="M30.85,13.86c0.54,0.06,0.97,0.6,0.92,1.14c-0.05,0.54-0.59,0.98-1.12,0.93s-0.99-0.57-0.95-1.11
		c0.04-0.54,0.56-1,1.1-0.97"/>
	<path class="st4" d="M31.4,17.4c0.54,0.06,0.97,0.6,0.92,1.14c-0.05,0.54-0.59,0.98-1.12,0.93c-0.54-0.05-0.99-0.57-0.95-1.11
		c0.04-0.54,0.56-1,1.1-0.97"/>
	<path class="st4" d="M9.59,21.93c0.54,0.06,0.97,0.6,0.92,1.14S9.93,24.04,9.39,24c-0.54-0.05-0.99-0.57-0.95-1.11
		c0.04-0.54,0.56-1,1.1-0.97"/>
	<path class="st4" d="M9.59,18.44c0.54,0.06,0.97,0.6,0.92,1.14s-0.59,0.98-1.12,0.93c-0.54-0.05-0.99-0.57-0.95-1.11
		s0.56-1,1.1-0.97"/>
	<path class="st4" d="M9.34,14.65c0.54,0.06,0.97,0.6,0.92,1.14c-0.05,0.54-0.59,0.98-1.12,0.93c-0.54-0.05-0.99-0.57-0.95-1.11
		s0.56-1,1.1-0.97"/>
</g>
</svg>
