<?xml version="1.0" encoding="UTF-8"?>
<svg id="Layer_4" data-name="Layer 4" xmlns="http://www.w3.org/2000/svg" viewBox="0 0 48.5 48.5">
  <defs>
    <style>
      .cls-1, .cls-2 {
        stroke: #000;
        stroke-linecap: round;
        stroke-linejoin: round;
        stroke-width: .5px;
      }

      .cls-2 {
        fill: none;
      }
    </style>
  </defs>
  <path class="cls-2" d="M48.14,45.68c-4.58,1.13-9.47,1.03-14-.3-3-3.4-5.73-6.86-8.46-10.32-1.62-.94-3.44-1.75-5.35-2.2.25-2.87,1.14-5.68,2.5-8.25.42-.79.61-1.69.59-2.59-.13-5.46-.78-11.09-1.96-16.65,3.31-2.34,8.03-2.44,11.69-.32-.67,6.58-.66,13.22.22,19.49.52,3.02,1.45,5.97,2.74,8.75,2.1,4.52,6.01,7.95,10.68,9.66l.3.11c.76.68,1.2,1.72,1.15,2.74"/>
  <path class="cls-1" d="M33.22,5.12l3.02,5.55c-.25.3-.8.54-1.05.84-.56-1.14-1.71-2.86-2.26-4"/>
  <path class="cls-1" d="M27.06,36.96l.05,10.35v.11c-1.81,1.22-4.27,1.02-6.1-.18-.17-4.76-.51-9.63-.69-14.4.51-.04,5.34,2.33,6.73,4.11"/>
  <path class="cls-1" d="M38.52,46.65c-1.32-.18-2.98-.2-4-.85-.95-.6-2.23-2.56-3.18-3.44-1.57-1.46-2.45-3.72-4.06-5.13,1.76,1.76,4.41,7.73,6.37,9.66,4.81,1.29,9.44,1.29,14.27.01.3-.38.34-.75.33-1.15-2.52.7-5.13.96-7.65.68-.71-.08-1.47.3-2.07.22Z"/>
  <path class="cls-1" d="M16.66,1.73c-3.44,2.3-8.36,2.12-11.49-.55C9.02-.23,13.09-.01,16.59,1.63"/>
  <path class="cls-2" d="M16.66,1.73c-1.15,8.09-2.45,16.62-3.62,24.46.02,1.55.05,3.1.03,4.7-.05,3.58.82,7.1,2.54,10.24.22.41.45.82.68,1.25.64,1.18.23,2.66-.92,3.35-1.73,1.03-3.83,1.46-5.81,1.1-2.79-.5-4.63-2.62-5.68-5.26"/>
  <path class="cls-2" d="M2.27,32.53c1.26,2.85,1.35,6.6,1.62,9.05"/>
  <path class="cls-2" d="M5.18,1.19c-.51,6.63-.72,12.92-1.2,19.52-.05.72-.22,1.44-.57,2.07-1.62,2.98-1.95,6.42-1.14,9.76"/>
  <path class="cls-1" d="M1.75,37.33c-.38-.6-1.13-1.33-1.5-1.93.54-2.54,1.27-5.94,1.76-8.49-.17.83-.3,2.42-.34,3.37,0,.23-.13.4-.09.62.02.11.01.3.05.41.11.36.33.76.44,1.12.05.16.31.28.32.45.01.18-.02.35-.05.53-.19,1.22-.52,3.83-.6,3.82"/>
  <path class="cls-1" d="M3.42,37.05l-1.6.28c.1-1.63.38-2.57.69-4.18-.05.49.04.94.23,1.39.33.78.63,1.65.68,2.5Z"/>
  <path class="cls-1" d="M15.37,45.74c-1.76,1.8-5.36,2.18-7.69,1.47s-3.99-2.83-4.93-5.07c.19-1.4.44-2.73.8-4.12-.07.61-.01,1.24.08,1.85.08.52.16,1.05.24,1.57.05.32.1.64.22.94.27.65.74,1.26,1.09,1.87.27.47.52.89.8,1.36.05.07.11.16.2.15.19-.02.38.07.55.16.52.28,1.01.62,1.57.84.68.26,1.42.32,2.15.37"/>
  <path class="cls-2" d="M11.33,3.33c-.48,7.29-.93,7.36-1.89,14.6"/>
  <path class="cls-1" d="M9.43,23.51c.23-1.84.46-3.68.69-5.52-.43.04-.86.07-1.38.27-.3,1.74-.59,3.49-.89,5.39.58-.05.84-.07,1.42-.12"/>
  <path class="cls-2" d="M11.93,25.26c-1.9.94-4.12,1.21-6.19.76,1.41,1.8,4.05,2.51,6.17,1.66"/>
  <path class="cls-2" d="M11.28,28.6c-.2.96-.95.67-1.69.39"/>
  <polygon class="cls-1" points="25.44 8.32 23.68 8.32 23.68 3.75 25.44 3.33 25.44 8.32"/>
  <polygon class="cls-1" points="5.02 6.13 6.09 6.66 6.72 1.23 5.33 1.15 5.02 6.13"/>
</svg>