<?xml version="1.0" encoding="UTF-8"?>
<svg id="Layer_5" data-name="Layer 5" xmlns="http://www.w3.org/2000/svg" viewBox="0 0 47.1 41.5">
  <defs>
    <style>
      .cls-1 {
        fill: none;
        stroke: #231f20;
        stroke-linecap: round;
        stroke-linejoin: round;
        stroke-width: .5px;
      }
    </style>
  </defs>
  <path class="cls-1" d="M31.56,4.33c-7.29,7.66-15.82,14.33-25.01,19.28"/>
  <path class="cls-1" d="M39.42,17.98c-8.95,5.15-17.98,11.81-24.56,19.97"/>
  <path class="cls-1" d="M11.47,40.61c-3.61,1.25-8.17.42-10.16-2.96-1.99-3.39-1.02-8.05,1.67-10.85"/>
  <path class="cls-1" d="M35.03,1.25c2.45-1.29,5.67-1.39,8.03.05,2.37,1.44,3.65,4.19,3.78,7.05.13,2.86-1.21,5.75-3.44,7.42"/>
  <path class="cls-1" d="M22.8,20c-.65.91-1.46,2.53-1.59,3.65-.09.79-.09,1.65.35,2.29.9,1.34,2.9,1.07,3.57-.42,1.16-2.59,3.67-4.47,6.39-4.77.47-.05,1.1-.36,1.33-.79.7-1.29-.04-2.64-1.09-3.25-.75-.43-1.64-.54-2.49-.5-2.56.12-5.02,1.57-6.46,3.78"/>
  <path class="cls-1" d="M24.8,25.59c-.23-.39-.47-.78-.7-1.16.46-.04.92-.09,1.38-.13"/>
  <path class="cls-1" d="M26.37,23.28c-.02-.53-.03-1.06-.05-1.59.4.17.79.35,1.19.52"/>
  <path class="cls-1" d="M28.5,21.51c.12-.47.24-1.13.36-1.6.31.32.62.84.94,1.16"/>
  <path class="cls-1" d="M30.79,20.73l.31-1.24c.36.26.71.52,1.07.78"/>
  <path class="cls-1" d="M21.68,22.59c.69-.07,1.39-.14,2.08-.21"/>
  <path class="cls-1" d="M22.91,20.29l.84,2.09"/>
  <path class="cls-1" d="M23.44,19.91l1.8.28"/>
  <path class="cls-1" d="M24.74,18.34c.17.61.35,1.22.52,1.83"/>
  <path class="cls-1" d="M25.4,17.82c.52.32,1.05.65,1.57.97"/>
  <path class="cls-1" d="M27.19,17c-.06.61-.11,1.22-.17,1.82"/>
  <path class="cls-1" d="M28.06,16.62c.3.45.6.91.91,1.36.24-.5.48-.99.72-1.49"/>
  <path class="cls-1" d="M27.18,12.86c.99-.62,2.19-.85,3.33-.65"/>
  <path class="cls-1" d="M28.29,12.73c.1.24.37.4.62.35s.46-.27.49-.53"/>
  <path class="cls-1" d="M17.99,20.55c.34-1.19,1.1-2.24,2.1-2.9"/>
  <path class="cls-1" d="M18.61,19.62c.29.2.71.13.93-.15s.18-.74-.08-.98v.03"/>
  <path class="cls-1" d="M28.9,7.25c2.07.21,3.58,1.43,4.77,3.2"/>
  <path class="cls-1" d="M33.67,10.48c-.5-.04-1.25-.08-1.71-.03.41.37,1.09.83,1.5,1.2"/>
  <path class="cls-1" d="M32.61,10.9c2.69,1.93,3.51,6.16,5.71,7.44"/>
  <path class="cls-1" d="M13.71,19.34c-.37,1.62-.3,3.56.37,5.27.27-.71.54-1.42,1.09-1.77-.44,2.41.26,3.85,2.26,5.13-.17-.84-.33-1.67-.5-2.51.57,1.91,3.54,3.76,3.54,6.33"/>
  <path class="cls-1" d="M39.72,12.58c-.09-1.77,1.38-3.69,3.07-3.85s3.33,1.24,3.55,2.99"/>
  <path class="cls-1" d="M42.12,8.81c.34-.64.42-2.03.1-2.76.81.42,1.46,1.55,1.34,2.49"/>
  <path class="cls-1" d="M45.59,9.52c.45-.56.54-2.19.17-2.82-.02.74-.72,2-1.21,2.3"/>
  <path class="cls-1" d="M40.32,10.23c-.15-.77-.77-1.55-1.53-1.76.82-.04,1.66.26,2.27.83"/>
  <path class="cls-1" d="M11.17,34.57c.63-1,2.26-1.93,3.36-1.59s1.89,1.9,1.9,3.1"/>
  <path class="cls-1" d="M13.41,32.72c-.05-1.07.43-2.1,1.44-2.26-.64.46-.5,1.66-.23,2.41"/>
  <path class="cls-1" d="M11.05,34.04c-.44-1.15-.34-2.85.65-3.41-.68.93.09,1.74.91,2.53"/>
  <path class="cls-1" d="M9.69,36.41c-1.29-.42-1.57-1.07-1.43-2.44.38,1.07.65,1.17,1.73,1.32"/>
  <path class="cls-1" d="M4.5,25.4l.62-.44"/>
  <path class="cls-1" d="M33.08,3.23l.6-.49"/>
  <path class="cls-1" d="M33.71,5.19l.33.48"/>
  <path class="cls-1" d="M34.7,6.81s.02.08.06.07.03-.08,0-.09"/>
  <path class="cls-1" d="M40.9,17.89s.02.08.06.07.03-.08,0-.09"/>
  <path class="cls-1" d="M5.04,27.38c.14.23.29.46.43.69"/>
  <path class="cls-1" d="M6.09,29.06l.11.11c0-.06,0-.11-.01-.17"/>
  <path class="cls-1" d="M11.05,38.25c.15.21.3.42.45.62"/>
  <path class="cls-1" d="M12.3,40.09c-.02.08.08.15.15.11s.04-.17-.04-.18"/>
  <path class="cls-1" d="M39.63,16.15l.58.79"/>
  <path class="cls-1" d="M19.29,18.74l-.41.73c.17-.2.33-.4.5-.61-.03.16-.06.32-.09.48"/>
  <path class="cls-1" d="M28.5,12.64l.63-.08-.41.13"/>
  <path class="cls-1" d="M37.8,15.18c.77,1.15,1.65,2.54,2.45,3.75.76.21,1.61.07,2.26-.38.66-.45,1.11-1.2,1.21-2"/>
  <path class="cls-1" d="M41.43,12.64c.73,1.27,1.54,2.57,2.29,3.84"/>
  <path class="cls-1" d="M35.47,7.89c1.11,1.93,2.32,4.09,3.42,6.02"/>
  <path class="cls-1" d="M36.64,7.18c1.11,1.93,2.37,4.17,3.47,6.1"/>
  <path class="cls-1" d="M38.53,13.86c-.22.17-.62.54-.73.8-.22.5.08.64.36.63,1.43-.03,2.99-.99,3.29-2.46.14-.66-1.19-.04-1.19-.04"/>
  <ellipse class="cls-1" cx="33.38" cy="2.91" rx="2.26" ry="1.11" transform="translate(4.66 20.16) rotate(-35.98)"/>
  <path class="cls-1" d="M31.66,4.55c.78,1.17,1.55,2.35,2.35,3.6.77.22,1.52-.28,2.18-.74s1.07-1.24,1.18-2.06"/>
  <path class="cls-1" d="M35.29,1.64c.69,1.24,1.38,2.47,2.08,3.7"/>
  <path class="cls-1" d="M40.24,18.93c.76.21,1.61.07,2.26-.38"/>
  <ellipse class="cls-1" cx="4.96" cy="25.13" rx="2.26" ry="1.11" transform="translate(-13.82 7.71) rotate(-35.98)"/>
  <path class="cls-1" d="M3.14,26.42c.78,1.17,1.55,2.35,2.35,3.6.77.22,1.62.07,2.28-.39.66-.46,1.12-1.23,1.22-2.05"/>
  <path class="cls-1" d="M6.87,23.87c.69,1.24,1.38,2.47,2.08,3.7"/>
  <path class="cls-1" d="M9.4,37.42c.77,1.15,1.63,2.51,2.42,3.73.76.21,1.61.07,2.26-.38.66-.45,1.11-1.2,1.21-2"/>
  <path class="cls-1" d="M13.03,34.94c.73,1.27,1.52,2.5,2.27,3.76"/>
  <path class="cls-1" d="M7.05,30.18c1.11,1.93,2.32,4.02,3.42,5.95"/>
  <path class="cls-1" d="M8.14,29.32c1.11,1.93,2.45,4.25,3.55,6.18"/>
  <path class="cls-1" d="M10.27,35.77c-.22.17-.78.86-.89,1.12-.22.5.08.64.36.63,1.43-.03,2.99-.99,3.29-2.46.14-.66-1.16-.3-1.48.04"/>
</svg>