<?xml version="1.0" encoding="utf-8"?>
<!-- Generator: Adobe Adobe Illustrator 24.2.0, SVG Export Plug-In . SVG Version: 6.00 Build 0)  -->
<svg version="1.1" xmlns="http://www.w3.org/2000/svg" xmlns:xlink="http://www.w3.org/1999/xlink" x="0px" y="0px"
	 viewBox="0 0 48 48" style="enable-background:new 0 0 48 48;" xml:space="preserve">
<style type="text/css">
	.st0{fill:none;stroke:#000000;stroke-width:0.5;stroke-linecap:round;stroke-linejoin:round;stroke-miterlimit:10;}
</style>
<g id="Layer_1">
</g>
<g id="Layer_2">
	<path class="st0" d="M15.83,5.6c-1.37,1.23-2.88,2.7-4.08,5.2"/>
	<path class="st0" d="M32.41,5.43c1.47,1.42,3.26,3.03,4.51,5.79"/>
	<path class="st0" d="M29.12,11.56c0.86,1.54,2.63,2.81,4.15,2.69c1.51-0.12,2.94-1.28,3.64-2.95"/>
	<path class="st0" d="M32.31,5.43C26.89,6.32,21.42,6.38,15.83,5.6c0.76-0.43,1.21-1.45,1.14-2.39c4.71-0.14,9.43-0.27,14.08-0.33
		C30.9,3.8,31.69,5.1,32.41,5.43"/>
	<path class="st0" d="M20.05,7.04c-0.86,2.36-1.11,5.12,0.12,7.21s3.33,3.33,5.32,2.54s3.73-3.46,3.63-6.04
		c-0.05-1.24-0.37-2.43-0.56-3.65"/>
	<path class="st0" d="M11.67,10.93c0.59,1.84,2.1,3.16,3.7,3.24c1.59,0.08,3.18-1.1,3.89-2.87"/>
	<path class="st0" d="M11.41,11.06c-0.39-0.22-0.9,0.17-0.92,0.7c-0.02,0.52,0.46,0.97,0.86,0.81c-0.24,0.42-0.22,1.04,0.05,1.43
		c0.27,0.39,0.76,0.51,1.13,0.27c-0.07,0.67,0.27,1.37,0.78,1.6c0.51,0.23,1.14-0.04,1.42-0.61c0.23,0.65,0.82,1.09,1.39,1.03
		c0.57-0.06,1.1-0.6,1.24-1.29c0.16,0.4,0.57,0.62,0.91,0.5c0.35-0.12,0.6-0.56,0.58-1.01c-0.13,0.48-0.02,1.05,0.27,1.4
		s0.75,0.47,1.14,0.3c-0.16,0.53,0.02,1.19,0.42,1.49s0.95,0.18,1.25-0.24c0,0.67,0.38,1.31,0.9,1.51s1.12-0.06,1.45-0.62
		c0.25,0.3,0.63,0.43,0.96,0.31c0.33-0.12,0.61-0.48,0.68-0.9c0.29,0.24,0.69,0.29,1.01,0.11c0.32-0.18,0.56-0.57,0.61-1
		c0.38,0.2,0.85,0.13,1.17-0.19c0.32-0.32,0.49-0.86,0.42-1.37c0.54,0.24,1.2-0.38,1.15-1.09c-0.07,0.52,0.15,1.08,0.53,1.32
		c0.38,0.24,0.88,0.15,1.26-0.18c-0.02,0.44,0.27,0.87,0.62,0.92c0.35,0.05,0.72-0.27,0.78-0.71c0.21,0.42,0.67,0.62,1.05,0.47
		c0.38-0.16,0.65-0.66,0.61-1.15c0.3,0.32,0.75,0.39,1.1,0.16c0.35-0.22,0.57-0.72,0.53-1.21c0.57-0.01,1.11-0.59,1.19-1.29
		c0.09-0.7-0.4-1.17-0.94-1.39"/>
	<path class="st0" d="M16.31,16.26c-0.34-0.01-0.84,0.57-0.94,1.19c-0.07,0.41,0.04,0.88,0.33,1.1c-0.47-0.06-0.96,0.32-1.12,0.88
		c-0.16,0.56,0.02,1.23,0.42,1.56c-0.47,0.1-0.88,0.54-1.02,1.1c-0.15,0.56-0.02,1.21,0.32,1.63c-0.49-0.01-0.97,0.41-1.13,0.99
		s0.02,1.27,0.41,1.63c-0.44,0.1-0.77,0.95-0.88,1.49c-0.11,0.54,0.05,1.15,0.4,1.5"/>
	<path class="st0" d="M18.32,15.65c0.28,0.42,0.38,1.46,0.19,1.95c-0.2,0.48-0.63,0.8-1.07,0.78c0.38,0.33,0.57,0.95,0.49,1.51
		c-0.09,0.56-0.45,1.05-0.9,1.19c0.31,0.46,0.39,1.14,0.2,1.7c-0.19,0.56-0.64,0.96-1.12,1.01c0.39,0.41,0.56,1.12,0.4,1.72
		c-0.16,0.6-0.63,1.06-1.14,1.11c0.39,0.3,0.58,1.21,0.45,1.76s-0.72,1.43-1.18,1.42"/>
	<path class="st0" d="M30.26,15.18c-0.48,0.27-0.65,1.39-0.5,1.8c0.15,0.42,0.53,0.69,0.89,0.64c-0.37,0.31-0.54,0.93-0.4,1.46
		c0.13,0.52,0.56,0.91,1.01,0.9c-0.37,0.34-0.52,0.99-0.37,1.53s0.61,0.91,1.07,0.88c-0.36,0.42-0.5,1.12-0.33,1.7
		c0.16,0.58,0.62,1.02,1.11,1.07c-0.39,0.28-0.58,0.93-0.42,1.46s0.63,0.87,1.08,0.78c-0.31,0.27-0.45,1.3-0.31,1.73
		c0.14,0.44,0.98,0.92,0.98,0.92"/>
	<path class="st0" d="M32.31,16.02c0.44,0.05,0.69,0.69,0.88,1.19c0.19,0.5,0.14,1.12-0.12,1.57c0.5,0.13,0.93,0.59,1.1,1.18
		c0.17,0.59,0.08,1.29-0.23,1.78c0.42,0.09,0.79,0.5,0.91,1s0.01,1.1-0.3,1.47c0.9,0.29,1.39,1.75,0.93,2.75
		c0.38,0.05,0.7,0.75,0.7,1.22c0.01,0.47-0.42,1.26-0.8,1.32"/>
	<path class="st0" d="M33.91,30.01c-0.41-0.08-0.79-0.29-1.2-0.4c-0.41-0.11-0.87-0.09-1.18,0.24c-0.32,0.33-0.38,1.04-0.04,1.33
		c0.59,0.48,0.91,1.41,0.79,2.27c-0.06,0.43,0.23,0.85,0.58,0.94c0.34,0.09,0.71-0.09,0.98-0.37c0.27-0.28,0.47-0.65,0.67-1.01
		s0.41-0.72,0.66-1.03c0,0,0,0.01,0,0.01"/>
	<path class="st0" d="M35.99,29.72c0.37-0.2,0.68-0.53,1.04-0.76c0.36-0.23,0.79-0.36,1.16-0.14c0.37,0.22,0.58,0.88,0.31,1.27
		c-0.45,0.65-0.55,1.65-0.26,2.44c0.15,0.4-0.04,0.9-0.34,1.09c-0.3,0.2-0.68,0.14-0.99-0.05c-0.31-0.18-0.58-0.48-0.84-0.76
		s-0.53-0.57-0.84-0.79c0,0,0,0.01,0,0.01"/>
	<path class="st0" d="M34.18,30.21c-0.12,0.51,0.1,1.11,0.49,1.32c0.4,0.21,0.91-0.02,1.1-0.5s0.03-1.12-0.35-1.37
		c-0.38-0.25-1.06-0.03-1.22,0.5"/>
	<path class="st0" d="M33.91,33.95c-0.59,2.72-1.15,5.96-1.75,8.67c0.63-0.69,1.27-1.38,1.9-2.07c-0.05,0.7,0.11,1.43,0.45,2
		c0.25-3.29,0.49-6.58,0.77-9.85c0.56,3.25,1.39,6.43,2.46,9.47c0.02-0.65,0.04-1.3,0.06-1.96c0.62,0.59,1.25,1.19,1.87,1.78
		c-0.88-2.94-2.01-6.14-3.29-8.85"/>
	<path class="st0" d="M12.81,29.55c-0.39-0.17-0.74-0.46-1.12-0.65c-0.38-0.19-0.84-0.28-1.2-0.03s-0.52,0.94-0.23,1.3
		c0.51,0.61,0.69,1.59,0.45,2.41c-0.12,0.41,0.11,0.89,0.43,1.06c0.33,0.17,0.71,0.07,1.01-0.14s0.55-0.53,0.8-0.84
		c0.25-0.31,0.51-0.62,0.8-0.87c0,0,0,0.01,0,0.01"/>
	<path class="st0" d="M14.89,29.72c0.39-0.12,0.75-0.37,1.13-0.52s0.83-0.18,1.16,0.12c0.33,0.29,0.44,1,0.13,1.32
		c-0.53,0.54-0.78,1.5-0.61,2.35c0.09,0.42-0.17,0.87-0.49,1c-0.33,0.13-0.69-0.02-0.97-0.26s-0.5-0.6-0.71-0.94
		c-0.22-0.34-0.44-0.68-0.71-0.96c0,0,0,0.01,0,0.01"/>
	<path class="st0" d="M13.04,29.8c-0.2,0.47-0.06,1.12,0.3,1.41c0.36,0.29,0.89,0.18,1.15-0.25c0.26-0.43,0.19-1.1-0.15-1.43
		c-0.34-0.33-1.04-0.27-1.28,0.22"/>
	<path class="st0" d="M12.24,33.42c-0.98,2.54-2,5.61-2.97,8.15c0.72-0.54,1.45-1.08,2.17-1.61c-0.16,0.68-0.1,1.43,0.15,2.06
		c0.72-3.18,1.44-6.36,2.18-9.52c0.08,3.32,0.43,6.63,1.05,9.86c0.11-0.64,0.23-1.27,0.34-1.91c0.53,0.72,1.05,1.45,1.58,2.17
		c-0.45-3.09-1.09-6.49-1.96-9.44"/>
	<path class="st0" d="M10.5,30.95c-0.33,0.49-0.9,0.72-1.4,0.55c-0.5-0.16-0.91-0.7-1-1.33c-0.25,0.45-0.75,0.65-1.17,0.49
		c-0.42-0.17-0.73-0.69-0.72-1.24c-0.3,0.41-0.82,0.55-1.23,0.34c-0.41-0.22-0.69-0.78-0.65-1.33c-0.51,0.56-1.42,0.36-1.75-0.37
		c0.41-0.49,0.83-0.99,1.31-1.6c0.04-0.65,0.09-1.29,0.13-1.94c0.68-0.27,1.47,0.55,1.37,1.43c0.35-0.26,0.81-0.27,1.17-0.03
		s0.6,0.72,0.62,1.23c0.29-0.35,0.75-0.47,1.13-0.29c0.38,0.18,0.66,0.66,0.68,1.16c0.46-0.53,1.34-0.22,1.52,0.53"/>
	<path class="st0" d="M17.03,33.04c0.07,0.44,0.39,0.81,0.75,0.85c0.36,0.05,0.74-0.22,0.88-0.64c0.12,0.47,0.5,0.83,0.9,0.84
		c0.4,0.02,0.8-0.3,0.95-0.77c0.09,0.55,0.5,1,0.95,1.05c0.45,0.05,0.91-0.31,1.08-0.83c0.55,0.95,1.81,1.09,2.49,0.28
		c0.34,0.49,0.91,0.72,1.42,0.57c0.51-0.15,0.94-0.66,1.07-1.29c0.08,0.52,0.47,0.94,0.89,0.98c0.42,0.04,0.86-0.29,1.01-0.78
		c0.14,0.56,0.62,0.96,1.09,0.89c0.47-0.07,0.87-0.6,0.89-1.18c0.08,0.38,0.6,0.45,0.74,0.1"/>
	<path class="st0" d="M17.65,30.46c0.49-0.69,1.5-0.63,1.93,0.11c0.55-0.72,1.73-0.27,1.86,0.71c0.68-0.95,2.05-0.92,2.7,0.05
		c0.17-0.47,0.61-0.76,1.02-0.7s0.77,0.49,0.85,0.99c0.39-1.09,1.72-1.42,2.42-0.6c0.08-0.49,0.43-0.88,0.83-0.94
		s0.81,0.24,0.97,0.69c0.05-0.59,0.82-0.79,1.06-0.28"/>
	<path class="st0" d="M38.59,28.81c-0.19-0.38-0.1-0.93,0.19-1.19c0.3-0.25,0.75-0.15,0.96,0.21c-0.07-0.41,0.12-0.85,0.43-1.02
		c0.31-0.16,0.7-0.02,0.89,0.31c-0.09-0.41,0.05-0.88,0.33-1.11c0.28-0.23,0.69-0.21,0.96,0.05c-0.01-0.35,0.15-0.7,0.4-0.86
		c0.25-0.16,0.58-0.12,0.8,0.1c-0.16-0.67,0.45-1.4,0.98-1.18c0.07,0.69,0.13,1.37,0.26,2.16c0.38,0.35,0.75,0.69,1.11,1.06
		c-0.01,0.4-0.21,0.78-0.49,0.96s-0.65,0.16-0.92-0.06c-0.01,0.4-0.22,0.78-0.51,0.96c-0.29,0.17-0.66,0.13-0.92-0.1
		c-0.19,0.85-1.12,1.28-1.71,0.79c-0.18,0.78-1.09,1.12-1.58,0.58c-0.03,0.3-0.22,0.56-0.46,0.62c-0.24,0.06-0.5-0.1-0.61-0.36
		c0.02,0.27-0.22,0.52-0.43,0.45"/>
	<path class="st0" d="M10.53,12.37c-3.01,2.99-5.14,7.3-5.93,11.97"/>
	<path class="st0" d="M37.99,12.78c2.62,3.17,4.61,7.13,5.75,11.45"/>
	<path class="st0" d="M3.21,28.92c-0.8,2.64-1.21,5.5-1.19,8.35"/>
	<path class="st0" d="M45.33,28.53c0.85,2.45,1.35,5.08,1.48,7.75"/>
	<path class="st0" d="M2.02,36.62c-0.98-0.05-1.48,1.63-1.18,2.67s1.67,1.66,2.41,1.06c-0.08,0.8,0.33,1.64,0.94,1.91
		s1.35-0.06,1.68-0.76c-0.1,0.92,0.3,1.88,0.94,2.32c0.65,0.44,1.51,0.32,2.06-0.28c0.18,1,0.89,1.8,1.7,1.92
		c0.81,0.12,1.65-0.47,2-1.39c0.29,1.05,1.09,1.85,1.97,1.99c0.88,0.13,1.8-0.4,2.29-1.33c0.09,1.04,0.83,1.93,1.67,1.98
		c0.83,0.05,1.64-0.74,1.81-1.77c0.24,1.18,1.13,2.1,2.1,2.18c0.97,0.07,1.94-0.71,2.51-1.86c0.34,0.9,1.14,1.48,1.93,1.41
		c0.79-0.07,1.51-0.8,1.74-1.75c0.15,0.98,0.93,1.74,1.72,1.68s1.5-0.91,1.57-1.91c0.39,0.98,1.27,1.62,2.14,1.56
		c0.87-0.06,1.69-0.83,1.98-1.87c0.48,0.8,1.36,1.18,2.13,0.92c0.77-0.26,1.38-1.15,1.47-2.15c0.57,0.77,1.53,1.04,2.3,0.65
		c0.78-0.39,1.32-1.42,1.3-2.47c1.16,0.96,2.99-0.19,3.07-1.93c0.56-0.01,1.08-0.54,1.21-1.23c0.12-0.68-0.17-1.45-0.67-1.76"/>
	<path class="st0" d="M2.02,37.31c13.73,9.23,31.31,8.97,44.86-0.65"/>
	<path class="st0" d="M16.97,16.95c-0.11,0.42-0.21,0.84-0.32,1.25"/>
	<path class="st0" d="M16.06,20.48c-0.14,0.55-0.28,1.09-0.42,1.64"/>
	<path class="st0" d="M14.8,25.06c-0.17,0.64-0.35,1.28-0.52,1.92"/>
	<path class="st0" d="M31.43,16.93c0.17,0.65,0.34,1.3,0.51,1.95"/>
	<path class="st0" d="M32.64,20.88c0.11,0.4,0.23,0.8,0.34,1.2"/>
	<path class="st0" d="M33.96,25.6c0.16,0.63,0.32,1.25,0.48,1.88"/>
	<path class="st0" d="M17.98,31.84c0.67,0.05,1.34,0.1,2.01,0.14"/>
	<path class="st0" d="M22.69,32.29c0.97,0.08,1.94,0.15,2.9,0.23"/>
	<path class="st0" d="M28.43,32.27c0.6-0.07,1.21-0.14,1.81-0.21"/>
	<path class="st0" d="M4.76,27.24c0.56,0.31,1.11,0.63,1.67,0.94"/>
	<path class="st0" d="M8.42,29.18c0.23,0.08,0.45,0.16,0.68,0.24"/>
	<path class="st0" d="M39.44,29.26c0.49-0.23,0.97-0.47,1.46-0.7"/>
	<path class="st0" d="M42.41,27.61c0.51-0.31,1.02-0.62,1.53-0.93"/>
	<path class="st0" d="M11.88,30.49c0.28,0.09,0.56,0.18,0.82,0.52c-0.2,0.15-0.41,0.31-0.61,0.46"/>
	<path class="st0" d="M15.59,30.97c-0.24-0.08-0.49-0.17-0.79-0.04c0.15,0.24,0.31,0.48,0.46,0.72"/>
	<path class="st0" d="M33.08,31.01c0.33,0.01,0.65,0.02,0.9,0.23c-0.1,0.29-0.21,0.59-0.31,0.88"/>
	<path class="st0" d="M36.98,30.42c-0.29,0.01-0.58,0.02-0.89,0.27c0.27,0.26,0.53,0.52,0.8,0.78"/>
</g>
</svg>
