<?xml version="1.0" encoding="UTF-8" standalone="no"?>
<svg
   id="Layer_1"
   data-name="Layer 1"
   viewBox="0 0 48 48"
   version="1.1"
   sodipodi:docname="Soap.svg"
   inkscape:version="1.4.4 (dcaf3e7, 2026-05-05)"
   xmlns:inkscape="http://www.inkscape.org/namespaces/inkscape"
   xmlns:sodipodi="http://sodipodi.sourceforge.net/DTD/sodipodi-0.dtd"
   xmlns="http://www.w3.org/2000/svg"
   xmlns:svg="http://www.w3.org/2000/svg">
  <sodipodi:namedview
     id="namedview8"
     pagecolor="#ffffff"
     bordercolor="#000000"
     borderopacity="0.25"
     inkscape:showpageshadow="2"
     inkscape:pageopacity="0.0"
     inkscape:pagecheckerboard="0"
     inkscape:deskcolor="#d1d1d1"
     inkscape:zoom="25.3125"
     inkscape:cx="23.980247"
     inkscape:cy="24"
     inkscape:window-width="5120"
     inkscape:window-height="1417"
     inkscape:window-x="-8"
     inkscape:window-y="-8"
     inkscape:window-maximized="1"
     inkscape:current-layer="Layer_1" />
  <defs
     id="defs1">
    <style
       id="style1">
      .cls-1 {
        fill: #000;
        stroke-width: .75px;
      }

      .cls-1, .cls-2, .cls-3 {
        stroke: #000;
        stroke-miterlimit: 10;
      }

      .cls-2 {
        fill: #fff;
      }

      .cls-2, .cls-3 {
        stroke-width: .5px;
      }

      .cls-3 {
        fill: none;
      }
    </style>
  </defs>
  <path
     class="cls-3"
     d="M12.76,12.2c1.14-.82,1.89-1.47,3.21-2.12,9.99-4.92,21.16-2.68,24.94,5.01,1.88,3.81,1.9,7.63-.09,11.73"
     id="path1" />
  <path
     class="cls-3"
     d="M37.55,31.91c-2.1,2.6-4.45,4.33-7.86,6.01-9.99,4.92-21.16,2.68-24.94-5.01-1.69-3.42-1.92-7.04-.45-10.77"
     id="path2" />
  <path
     class="cls-3"
     d="M40.52,27.44c-.07.15-.15.31-.23.46"
     id="path3" />
  <path
     class="cls-2"
     d="M10.2,31.68s4.62,6.93,16.02,2.52"
     id="path4"
     style="fill:none" />
  <circle
     class="cls-1"
     cx="26.04"
     cy="10.96"
     r=".3"
     transform="translate(-1.18 3.39) rotate(-7.29)"
     id="circle4" />
  <circle
     class="cls-1"
     cx="33.7"
     cy="14.48"
     r=".3"
     id="circle5" />
  <path
     class="cls-3"
     d="M32.65,18.85c-.74.57-3.6.31-6.73-1.51s-3.79-3.79-3.33-4.62,1.38,1.45,4.52,3.27,8.22.76,5.54,2.85Z"
     id="path5" />
  <path
     class="cls-3"
     d="M37.36,31.61c-.48-.53-.76-1.24-.76-2.01,0-1.67,1.36-3.03,3.03-3.03s3.03,1.36,3.03,3.03-1.36,3.03-3.03,3.03c-.9,0-1.71-.39-2.27-1.02"
     id="path6" />
  <circle
     class="cls-3"
     cx="45.37"
     cy="29.24"
     r="1.8"
     id="circle6" />
  <path
     class="cls-3"
     d="M37.65,32.13c.76.83.79,2.17.03,2.87s-2,.59-2.76-.25"
     id="path7" />
  <path
     class="cls-3"
     d="M12.31,11.63c-1.89-2.95-3.74.23-3.74.23,0,0-1.5-1.2-3,0-.84.67-.55,2.77-.55,2.77,0,0-2.18-.66-3.31,1.36s-.99,3.32-.51,4.36c.69,1.48,3.3,1.67,3.3,1.67,0,0,.2,1.94,3.01,1.42,2.28-.42,2.13-1.82,2.06-3.55,0,0,2.87.51,2.26-2.73,1.54.76,4.46-3.38.84-4.7l-.35-.83h0Z"
     id="path8" />
</svg>
