<?xml version="1.0" encoding="utf-8"?>
<!-- Generator: Adobe Adobe Illustrator 24.2.0, SVG Export Plug-In . SVG Version: 6.00 Build 0)  -->
<svg version="1.1" xmlns="http://www.w3.org/2000/svg" xmlns:xlink="http://www.w3.org/1999/xlink" x="0px" y="0px"
	 viewBox="0 0 48 48" style="enable-background:new 0 0 48 48;" xml:space="preserve">
<style type="text/css">
	.st0{fill:none;stroke:#000000;stroke-width:0.5;stroke-linecap:round;stroke-linejoin:round;stroke-miterlimit:10;}
	
		.st1{fill:none;stroke:#000000;stroke-width:0.5;stroke-linecap:round;stroke-linejoin:round;stroke-miterlimit:10;stroke-dasharray:0,0,0,0,0,0;}
</style>
<g id="Layer_1">
	<path class="st0" d="M5.3,24.9c-5.5,2.3-5.1,9.6-3.6,11.4"/>
	<path class="st0" d="M23.8,9.2c-3.2,8.2-10.7,12.3-18.6,15.7"/>
	<path class="st1" d="M43.4,20.6c0.2,3.4,0.4,7.4-1.4,10.3c-1.9,2.9-5.3,4.7-8.7,4.7c-3.4-0.1-6.4,1.9-9.1,3.9s-5.3,4.4-8.5,5.3
		c-3.2,1-7.3,0-8.8-3"/>
	<path class="st1" d="M38.8,14.7c0.2,3.4,0.4,7.4-1.4,10.3s-5.2,4.7-8.7,4.7c-3.4-0.1-6.4,1.9-9.1,3.9S14.3,38,11,38.9
		c-3.2,1-7.9,0.4-9.3-2.6"/>
	<path class="st0" d="M43.7,15.5c-0.3-0.7-0.4-1.6-0.2-2.4c0.5-1.8-0.3-3.9-1.9-5c0.2-0.5,0.4-1,0.6-1.5C38,4.5,33.6,2.7,29,1.2
		c-0.3,0.5-0.7,0.9-1,1.2c-2-0.3-4.2,0.7-5.4,2.4c-0.5,0.7-1.3,1-2.1,0.9c0.5,0.9,1.7,1.2,2.6,1c-0.2,1.1,0.2,2.2,1.1,2.9
		c0.9,0.6,2.1,0.7,3,0.1"/>
	<path class="st0" d="M32.3,11.9c-0.8,0.9-2.3,1-3.3,0.6s-1.8-1.6-1.7-2.8"/>
	<path class="st0" d="M43.6,15.6c-0.8,0.6-1.8,0.9-2.8,0.6s-1.8-0.9-2.2-1.9c-1.1,0.8-2.6,1-3.8,0.5c-1.3-0.5-2.2-1.7-2.5-3"/>
	<path class="st0" d="M22.3,5.4c0.4,0.3,1,0.5,1.5,0.5"/>
	<path class="st0" d="M23.1,4.7c0.3,0.4,0.5,0.8,0.8,1.2"/>
	<path class="st0" d="M26,8.7c-0.4,0.2-1,0.1-1.3-0.2c-0.3-0.3-0.5-0.9-0.2-1.3C25,7.6,25.5,8.2,26,8.7"/>
	<path class="st0" d="M30.9,11.4c-0.4,0.4-1,0.5-1.5,0.3c-0.5-0.2-0.8-0.7-0.9-1.3C29.3,10.7,30.1,11,30.9,11.4"/>
	<path class="st0" d="M36.7,13.9c-0.4,0.4-0.9,0.5-1.4,0.4c-0.5-0.2-0.9-0.6-1-1.3C35.1,13.2,35.8,13.6,36.7,13.9"/>
	<path class="st0" d="M42.5,14.9c-0.3,0.4-0.9,0.6-1.4,0.6s-1-0.5-1.1-1.1C40.9,14.5,41.6,14.7,42.5,14.9"/>
	<path class="st1" d="M3,26.8c3.1,1.2,5.4,4.3,5.6,7.7"/>
	<path class="st1" d="M29.2,3c1.5,0.6,3.1,1.2,4.6,1.8"/>
	<path class="st1" d="M37.8,6.6c0.7,0.3,1.5,0.7,2.2,1"/>
	<path class="st0" d="M6.2,39.2c0.1,1.2,0.2,1.7,0.7,2.7"/>
	<path class="st0" d="M41.6,8.2c1.7,0.7,2.4,0.8,4.1,1.5c-0.1,0.5-0.2,1-0.2,1.5c1.1,0.9,1.6,2.7,1,4c-0.3,0.8,0,1.9,0.7,2.3
		c-0.6,0.5-1.4,0.7-2.1,0.5c-0.7-0.1-1.4-0.6-1.8-1.3c-0.6,0.6-1.4,1-2.3,1c-0.9,0-1.7-0.5-2.3-1.1"/>
	<path class="st0" d="M43.3,17.4c0,1.4,0,2.8,0.1,4.2"/>
	<path class="st0" d="M9.6,39.3c0.2,0.5,0.4,1.1,0.6,1.6"/>
</g>
<g id="Layer_2">
	<path class="st1" d="M28.5,29.5c-0.8-3,0.5-6.4,3.2-8.1s4.4-1.2,7-0.2"/>
	<path class="st1" d="M34.5,35.3c-0.8-3,0.6-6.4,3.2-8.1c2.4-1.6,5.7-0.5,5.7-0.5"/>
</g>
</svg>
