<?xml version="1.0" encoding="UTF-8"?>
<svg id="Layer_1" data-name="Layer 1" xmlns="http://www.w3.org/2000/svg" viewBox="0 0 48 48">
  <defs>
    <style>
      .cls-1 {
        stroke-width: .75px;
      }

      .cls-1, .cls-2, .cls-3 {
        fill: none;
      }

      .cls-1, .cls-2, .cls-3, .cls-4 {
        stroke: #000000;
        stroke-linejoin: round;
      }

      .cls-3, .cls-4 {
        stroke-width: .5px;
      }

      .cls-4 {
        fill: #000000;
      }
    </style>
  </defs>
  <path class="cls-2" d="M20.23,27.79l.51-.67c.16-.21.03-.57-.29-.82l-9.24-7.09c-.32-.24-.7-.27-.86-.07L1.41,30.8c-.16.21-.03.57.29.82l9.24,7.09c.32.24.7.27.91,0l7.16-9.33,1.22-1.59Z"/>
  <line class="cls-2" x1="7.83" y1="30.09" x2="1.9" y2="31.33"/>
  <line class="cls-2" x1="11.07" y1="19.01" x2="11.73" y2="24.77"/>
  <path class="cls-2" d="M12.69,31.84s1.47-.74,1.57-1.22.43-1.2.73-2.34c.09-.32-.45-2.45-1.12-2.48s-1.43-1.05-2.61-1.03-3.17,1.03-3.97,2.16c-.51.72.22,4.11,1.2,4.08s.93.86,2.3,1.23c1.36.37,1.89-.39,1.89-.39Z"/>
  <polygon class="cls-3" points="11.07 30.71 10.43 28.62 9.5 27.9 9.92 27.35 11.03 28.18 10.89 26.02 11.86 26.21 11.78 28.43 11.86 30.44 11.07 30.71"/>
  <polygon class="cls-4" points="10.43 28.62 11.78 28.43 11.86 26.21 10.89 26.02 11.03 28.18 9.92 27.35 9.5 27.9 10.43 28.62"/>
  <path class="cls-1" d="M30.24,8.12s1.93.15,4.15-1.14,4.74-2.66,4.74-2.66c0,0,5.6-3.71,7.04-1.23,1.44,2.48-1.29,3.86-4.58,5.87,0,0-2.48,1.44-4.74,2.66-2.26,1.23-3.13,2.95-3.13,2.95"/>
  <path class="cls-1" d="M26.08,14.58c2.35,4.18,2.94,8.32,1.31,9.23-1.63.92-4.85-1.74-7.21-5.92-2.35-4.18-2.38-8.67-.75-9.58,1.63-.91,4.29,2.09,6.64,6.27Z"/>
  <path class="cls-3" d="M19.41,8.14s3.81-1.55,6.52-1.34c2.35.18,6.79,10.07,6.67,11.11-.17,1.56-3.11,6.24-5.62,6.09"/>
  <polyline class="cls-3" points="27.65 7.76 29.51 6.61 34.23 15.48 32.35 16.72"/>
  <polygon class="cls-3" points="23.96 20.48 21.08 16.14 19.58 13.55 21.37 12.97 23.02 15.93 24.17 14.41 25.24 15.31 24.1 17.73 25.4 20.32 23.96 20.48"/>
  <polygon class="cls-4" points="19.58 13.55 21.37 12.97 23.02 15.93 24.17 14.41 25.24 15.31 24.27 17.36 22.09 17.5 19.58 13.55"/>
</svg>
