<?xml version="1.0" encoding="UTF-8"?>
<svg id="Standees" xmlns="http://www.w3.org/2000/svg" viewBox="0 0 48 48">
  <defs>
    <style>
      .cls-1, .cls-2, .cls-3, .cls-4, .cls-5, .cls-6, .cls-7, .cls-8 {
        fill: none;
      }

      .cls-1, .cls-9, .cls-8 {
        stroke-width: .4px;
      }

      .cls-1, .cls-4 {
        stroke-miterlimit: 10;
      }

      .cls-1, .cls-4, .cls-7 {
        stroke: #000;
      }

      .cls-2 {
        stroke-width: .3px;
      }

      .cls-2, .cls-9, .cls-3, .cls-5, .cls-6, .cls-10, .cls-7, .cls-8 {
        stroke-linecap: round;
        stroke-linejoin: round;
      }

      .cls-2, .cls-6, .cls-10 {
        stroke: #000000;
      }

      .cls-9 {
        fill: #000000;
      }

      .cls-9, .cls-3, .cls-8 {
        stroke: #000000;
      }

      .cls-3, .cls-5, .cls-6, .cls-7 {
        stroke-width: .5px;
      }

      .cls-4, .cls-10 {
        stroke-width: .25px;
      }

      .cls-5 {
        stroke: #fff;
      }

      .cls-10 {
        fill: #000000;
      }
    </style>
  </defs>
  <g>
    <g>
      <path class="cls-10" d="M15.53,12.27l-.92-1.34s-.18-3.48,3.49-4.49l1.16,1.24s-1.58.81-3.73,4.6h0Z"/>
      <path class="cls-6" d="M25.45,12.75c4.78,2.04,5.73,5.95,6.13,5.6s.4-1.85.4-1.85c2.86,2.36,3.19,1.64,3.19,1.64,0,0-1.26-2.17-1.91-3.05s-.94-2.06-.94-2.06c-2.21-7.14-8.27-6.86-8.27-6.86,0,0-5.51-.05-8.44,6.51,0,0-2.43,5.3-2.84,5.3,0,0,1.42.4,3.05-1.61,0,0,.19,1.74.65,1.98,0,0,3.33-5.13,4.82-5.84,0,0,1.41,4.26,3.91,4.98,0,0-.51-5.06.24-4.74h0Z"/>
      <path class="cls-6" d="M17.99,16.15l-1.61,2.17c.44.87,1.55,2.49,2.84,2.83,0,0-1.46-3.86-1.23-5.01h0Z"/>
      <path class="cls-6" d="M30.34,16.89l1.02,1.48s-.68,1.98-2.64,2.79c0,0,1.48-2.84,1.61-4.27h0Z"/>
      <path class="cls-10" d="M32.24,12.33l.98-1.3s.34-3.47-3.27-4.66l-1.22,1.18s1.54.88,3.51,4.77h0Z"/>
      <path class="cls-6" d="M16.39,11l1.9-2.41c-.49-2.05-1.87-2.66-2.97-2.21-.95.38-1.42,1.39-2.54,3.95s-3.17,7.05-3.17,7.05c-1.1,1.07-7.29,6.73.8,9.16,0,0,.43.13.1,1.07s1.24.5,1.51,0,.76-.37.33-2.97,2.2-6.23,2.2-6.23l1.11-1.82s-2.24,1.73-2.87,1.2l2.32-4.2s1.05-2.3,1.28-2.58Z"/>
      <path class="cls-6" d="M32.35,12.63c-.36-1.74-3.01-4.52-3.01-4.52,2.36-3.58,4.72-.33,4.72-.33,1,1.61,3.29,9.4,4.36,10.33s5.19,5.58,2.74,7.31c-2.47,1.73-3.84,1.62-3.82,1.97s.73.71.33,1.09-2.07.22-2.14-1.58,1-1.95,0-4.44c0,0-.88-2.17-1.62-2.92s-1.27-2.52-1.27-2.52c0,0,1.95,1.94,2.8,1.48l-.93-1.55s-1.31-1.97-1.5-2.42-.67-1.9-.67-1.9h0Z"/>
      <path class="cls-6" d="M14.73,18.04s-.28,2.48,1.08,2.18l1.35-.31s-1.28-2.45-1.35-3.34-1.08,1.47-1.08,1.47Z"/>
      <path class="cls-6" d="M33,18.1s.28,2.48-1.08,2.18l-1.35-.31s1.28-2.45,1.35-3.34,1.08,1.47,1.08,1.47Z"/>
      <path class="cls-5" d="M15.25,11.08s1.05-2.99,3.13-3.64"/>
      <path class="cls-5" d="M32.6,10.87s-1-2.88-2.98-3.51"/>
      <circle class="cls-6" cx="20.5" cy="16.44" r=".96"/>
      <circle class="cls-6" cx="27.61" cy="16.44" r=".96"/>
      <g>
        <path class="cls-2" d="M23.97,19.02c0,.44-.36.8-.8.8s-.8-.36-.8-.8"/>
        <path class="cls-2" d="M23.97,19.02c0,.44.36.8.8.8s.8-.36.8-.8"/>
      </g>
      <g>
        <path class="cls-6" d="M17.99,16.8s.28,5.01,5.99,5.01,6.33-4.68,6.33-4.68"/>
        <polygon class="cls-3" points="21.09 21.47 22.51 23.67 23.89 22.07 21.09 21.47"/>
        <polygon class="cls-3" points="27.52 21.29 26.03 23.69 24.45 22.02 27.52 21.29"/>
        <path class="cls-8" d="M21.03,21.29l.4,2.74-1.91,3.52,3.33,2.51,1.32-.89,1,1.02,3.87-2.53-1.89-3.83.46-2.68s-2.63.8-2.98.81-3.35-.57-3.6-.67Z"/>
        <polygon class="cls-8" points="20.91 21.47 19.25 23.18 20.74 24.73 21.39 23.83 20.91 21.47"/>
        <polygon class="cls-9" points="19.3 23.36 19.05 23.13 18.71 23.55 20.55 25.53 20.91 24.93 19.3 23.36"/>
        <polygon class="cls-8" points="18.7 23.51 16.03 25.63 18.85 28.37 20.55 25.53 18.7 23.51"/>
        <polygon class="cls-9" points="16.03 25.63 15.6 25.98 18.62 28.86 18.85 28.37 16.03 25.63"/>
        <path class="cls-8" d="M30.57,28.08h0c.44.48,1.02.66,1.29.41l.76-.71c.27-.25.12-.84-.32-1.32l-1.74,1.61Z"/>
        <polygon class="cls-8" points="27.76 21.2 29.3 22.93 27.8 24.48 27.15 23.58 27.76 21.2"/>
        <polygon class="cls-9" points="29.25 23.07 29.49 22.84 29.83 23.26 28 25.23 27.64 24.64 29.25 23.07"/>
        <polygon class="cls-8" points="29.84 23.22 32.51 25.34 29.65 28.27 28 25.23 29.84 23.22"/>
        <polygon class="cls-9" points="32.51 25.34 32.94 25.69 29.92 28.56 29.69 28.08 32.51 25.34"/>
        <polygon class="cls-3" points="23.17 22.91 23.69 23.67 24.61 23.69 25.29 22.91 24.45 22.02 23.89 22.07 23.17 22.91"/>
        <polygon class="cls-3" points="23.8 23.77 22.73 27.8 24.17 29.17 25.56 27.84 24.71 23.76 23.8 23.77"/>
        <path class="cls-8" d="M16.28,26.72h0c-.44.48-.58,1.07-.31,1.32l.77.7c.27.25.85.06,1.29-.42l-1.75-1.6Z"/>
      </g>
    </g>
    <g>
      <polygon class="cls-7" points="19.53 27.66 17.16 31.48 19.35 31.87 20.55 28.37 19.53 27.66"/>
      <polygon class="cls-7" points="20.55 28.37 19.05 32.88 21.96 33.11 22.49 29.79 20.55 28.37"/>
      <polygon class="cls-7" points="22.49 29.79 22.05 33.9 26.17 33.9 25.7 29.84 25.17 30.19 24.17 29.17 22.85 30.07 22.49 29.79"/>
      <polygon class="cls-7" points="26.17 33.11 29.3 32.84 27.81 28.46 25.7 29.84 26.17 33.11"/>
      <polygon class="cls-7" points="29.04 27.54 31.2 31.35 29.22 31.87 27.81 28.46 29.04 27.54"/>
    </g>
    <polygon class="cls-7" points="24.15 33.86 24.11 39.39 21.85 39.43 19.53 32.92 21.96 33.1 22.05 33.82 24.15 33.86"/>
    <polygon class="cls-7" points="24.45 33.86 24.36 39.39 26.62 39.43 28.94 32.92 26.5 33.1 26.41 33.82 24.45 33.86"/>
    <polygon class="cls-4" points="20.32 34.99 23.97 34.99 28.2 34.99 26.62 39.43 21.85 39.43 20.32 34.99"/>
  </g>
  <rect class="cls-1" x="11.97" y="43.18" width="24.52" height="3.18"/>
  <polygon class="cls-1" points="35.63 3.76 31.2 3.76 28 5.59 24.45 4.35 20.55 5.47 17.53 3.76 12.77 3.76 2.88 23.22 9 31.29 14.71 31.29 18.54 40.67 18.54 43.18 30.05 43.18 30.05 40.67 33.23 31.54 38.53 31.54 44.88 24.04 35.63 3.76"/>
</svg>
