<?xml version="1.0" encoding="UTF-8"?>
<svg id="Layer_1" data-name="Layer 1" xmlns="http://www.w3.org/2000/svg" viewBox="0 0 48 48">
  <defs>
    <style>
      .cls-1, .cls-2, .cls-3, .cls-4, .cls-5 {
        stroke: #000;
      }

      .cls-1, .cls-2, .cls-4 {
        fill: none;
      }

      .cls-1, .cls-2, .cls-5 {
        stroke-width: .75px;
      }

      .cls-1, .cls-4 {
        stroke-linejoin: round;
      }

      .cls-2, .cls-3, .cls-5 {
        stroke-miterlimit: 10;
      }

      .cls-4 {
        stroke-width: .5px;
      }
    </style>
  </defs>
  <path class="cls-2" d="M18.22,38.95c-6.91.09-11.73,1.19-11.73,2.55s5.92,2.57,13.23,2.57,13.23-1.15,13.23-2.57c0-1.04-2.34-1.69-6.9-2.09"/>
  <path class="cls-1" d="M30.69,26.39c.39-1.47.63-2.43.63-2.43l7.24-8.23s-.44-2.73-4-3.26"/>
  <path class="cls-1" d="M18.17,37.18c-.23,1.41-.27,2.26-.41,3.07-.12.74.34,1.45,1.07,1.63,1.47.37,3.91.77,5.69,0,1.55-.67,3.54-6.41,4.96-11.21"/>
  <path class="cls-1" d="M34.55,12.46c-.09-.01-.18-.01-.25,0-.8.19-3.41,3.48-4.99,5.56-.28.37-.88.09-.77-.37l2.96-12.52s-6.79-1.54-7.51,0c-.5,1.06-3.15,17.6-4.88,27.97"/>
  <polygon class="cls-3" points="24.44 5.19 30.55 5.37 28.99 17.99 33.3 14.12 36.67 16.76 31 23.92 21.39 21.2 24.44 5.19"/>
  <path class="cls-1" d="M32.95,41.5v3.04c-14.91,4-26.45,0-26.45,0v-3.04"/>
  <g>
    <path d="M28.42,28.96c-.03.12-.06.28-.09.49l-.03.18s-.02.05-.04.08-.04.04-.05.04c-.02,0-.04-.01-.07-.03-.03-.02-.04-.04-.04-.05,0-.04,0-.08.02-.15.12-.48.18-.9.18-1.26v-.08c0-.07,0-.12.04-.15.03-.03.06-.05.09-.05.02,0,.03.01.04.04.01.02.02.06.02.1,0,.06,0,.14-.02.23-.02.11-.03.18-.03.19.1-.17.2-.3.31-.4s.21-.14.3-.14c.07,0,.12.02.17.07.04.05.07.11.07.18,0,.21-.08.4-.24.58-.16.17-.32.26-.47.26-.04,0-.07,0-.09-.03s-.05-.05-.07-.11ZM29.03,28.18c-.09,0-.21.09-.34.26-.14.17-.2.31-.2.4,0,.02.01.05.04.07.03.02.06.03.1.03.09,0,.2-.07.32-.21.12-.14.18-.27.18-.4,0-.05,0-.08-.03-.11-.02-.03-.04-.04-.07-.04Z"/>
    <path d="M29.72,28.69s.01-.03.02-.05c.04-.1.08-.18.12-.24s.08-.11.12-.17c.04-.05.08-.09.12-.12s.07-.05.1-.06c.03-.01.06-.02.09-.02.06,0,.1.02.14.05.04.03.05.07.05.12,0,.02,0,.04-.02.05-.01.02-.03.02-.06.02-.03,0-.05-.01-.08-.04-.02-.02-.05-.04-.07-.04-.07,0-.16.08-.28.25-.12.16-.19.34-.22.54,0,.05-.02.08-.04.1-.02.02-.04.02-.08.02-.03,0-.05-.02-.07-.07-.01-.05-.02-.13-.02-.24,0-.03,0-.1,0-.2,0-.12.01-.22.02-.3,0-.01,0-.04,0-.09,0-.05,0-.08.02-.1s.02-.04.04-.05.04-.03.07-.03.04,0,.05.02c.01.01.02.03.02.05,0,.03,0,.06-.02.11-.01.05-.02.09-.03.11,0,.02,0,.04-.01.07,0,.03-.01.1-.02.22v.04s0,.03,0,.03Z"/>
    <path d="M31.2,28.72c-.09.12-.18.21-.27.27-.09.06-.17.09-.25.09-.05,0-.09-.02-.13-.06-.04-.04-.05-.1-.05-.16,0-.17.08-.35.23-.55.15-.2.3-.3.46-.3.05,0,.1.03.12.09,0,.02.02.03.04.03.05,0,.08.02.08.06,0,.02,0,.05,0,.08-.04.19-.05.33-.05.41,0,.16.03.25.09.28.03.02.04.04.04.06,0,.02-.01.04-.04.06-.03.02-.05.03-.08.03-.05,0-.09-.03-.12-.1-.03-.07-.05-.17-.05-.29ZM31.14,28.17c-.08,0-.18.08-.3.24-.11.16-.17.29-.17.4,0,.07.03.11.07.11.07,0,.17-.07.3-.22.13-.14.19-.28.19-.4,0-.09-.03-.14-.09-.14Z"/>
    <path d="M31.98,29.13c-.1,0-.17-.03-.22-.08-.05-.06-.08-.13-.08-.23,0-.17.07-.35.2-.54.13-.19.26-.28.38-.28.05,0,.1.03.14.09.04.06.06.12.06.18,0,.04,0,.07-.02.1s-.03.04-.05.04c-.04,0-.06-.04-.08-.11-.02-.08-.04-.12-.08-.12-.07,0-.15.08-.24.24-.09.16-.14.3-.14.41s.06.17.19.17c.1,0,.21-.04.34-.13.05-.03.08-.05.1-.05s.03.01.03.04c0,.05-.06.11-.17.19-.12.07-.23.11-.34.11Z"/>
    <path d="M33.12,28.09c.07,0,.13-.01.19-.02.06,0,.11,0,.15,0,.05,0,.08,0,.09.01s.02.03.02.05c0,.05-.04.08-.11.09-.09,0-.18.01-.26.02-.08,0-.12.02-.13.03,0,0-.03.08-.06.23-.03.15-.05.24-.05.29,0,.07,0,.12.03.14s.05.04.08.04c.06,0,.13-.04.23-.12.04-.04.07-.05.09-.05.03,0,.04.01.04.04,0,.05-.04.11-.13.18-.09.07-.18.11-.28.11-.16,0-.24-.09-.24-.28,0-.07.02-.17.05-.31.03-.14.05-.22.05-.25,0,0,0-.01-.02-.01h-.1c-.08,0-.12-.02-.12-.09,0-.04.02-.06.06-.06h.2s.03,0,.04-.02c.01-.01.03-.05.05-.12.02-.07.04-.14.05-.21s.05-.1.09-.1c.03,0,.05,0,.07.03s.02.04.02.05c0,0-.01.06-.04.14l-.06.21Z"/>
    <path d="M33.85,28.86s0,.11.02.17c0,.01,0,.02,0,.03,0,.01-.01.03-.03.04s-.04.03-.07.03c-.06,0-.09-.06-.09-.17s.02-.31.07-.57c.02-.09.02-.15.02-.17,0-.04,0-.08.02-.1.02-.03.04-.04.06-.04.03,0,.06,0,.08.02.02.02.03.03.03.05s0,.04-.01.08c-.05.17-.08.29-.09.37s-.02.16-.02.26ZM33.98,27.77s-.02-.01-.03-.04c0,0,0-.02-.01-.03-.02-.04-.03-.08-.03-.11,0-.03.02-.05.05-.08.03-.03.06-.04.1-.04.02,0,.04,0,.06.02s.04.03.04.04c0,.02,0,.06-.02.11-.02.05-.04.09-.08.1-.03.02-.06.03-.08.03Z"/>
    <path d="M34.5,29.13c-.1,0-.17-.03-.22-.08-.05-.06-.08-.13-.08-.23,0-.17.07-.35.2-.54.13-.19.26-.28.38-.28.05,0,.1.03.14.09.04.06.06.12.06.18,0,.04,0,.07-.02.1s-.03.04-.05.04c-.04,0-.06-.04-.08-.11-.02-.08-.04-.12-.08-.12-.07,0-.15.08-.24.24-.09.16-.14.3-.14.41s.06.17.19.17c.1,0,.21-.04.34-.13.05-.03.08-.05.1-.05s.03.01.03.04c0,.05-.06.11-.17.19-.12.07-.23.11-.34.11Z"/>
    <path d="M36.08,28.75c0,.07-.06.15-.18.24s-.24.14-.36.14c-.1,0-.19-.03-.24-.09s-.08-.15-.08-.26c0-.19.06-.36.19-.53.13-.17.26-.25.41-.25.05,0,.09.02.12.05.03.03.05.07.05.12,0,.1-.05.2-.15.29-.1.09-.23.18-.39.27-.03.02-.05.04-.05.07,0,.05.02.1.05.13.03.03.08.05.14.05.14,0,.28-.08.43-.23.02-.02.04-.03.05-.03.02,0,.03.02.03.05ZM35.41,28.6c.28-.16.41-.29.41-.39,0-.04-.02-.06-.05-.06-.06,0-.13.04-.2.13-.08.09-.13.19-.16.32Z"/>
    <path d="M37.96,28.58s-.1.07-.17.09c-.07.03-.12.04-.15.04-.05,0-.09-.02-.13-.06-.04-.04-.06-.08-.06-.12,0-.1.05-.21.14-.33.09-.12.18-.18.25-.18.09,0,.15.02.19.06,0,0,.01.02.01.03,0,0,0,.02,0,.03s0,.02.02.02c0,0,.01,0,.02,0s.02,0,.02,0c.04,0,.05.02.05.05,0,0-.01.04-.03.09-.02.05-.03.08-.04.1s0,.04,0,.07.02.04.07.04c.06,0,.11-.03.16-.09.05-.06.08-.12.08-.18s-.02-.14-.07-.24c-.05-.1-.11-.17-.18-.21-.07-.04-.13-.06-.17-.06-.08,0-.17.05-.3.15s-.23.23-.32.39c-.09.16-.14.28-.14.34,0,.09.06.18.17.26.11.08.24.12.39.12.08,0,.18-.02.31-.05.13-.04.23-.08.3-.14.03-.02.04-.03.05-.03,0,0,.02,0,.03.01.01,0,.02.02.02.03,0,.05-.01.09-.04.11-.02.03-.07.05-.13.08s-.16.05-.28.08c-.12.02-.23.04-.33.04-.16,0-.3-.05-.43-.14s-.2-.21-.2-.35c0-.1.05-.24.16-.43s.23-.33.37-.43.26-.15.36-.15c.16,0,.29.07.39.2.1.13.15.27.15.41,0,.09-.02.17-.07.25-.05.08-.1.13-.18.15-.07.02-.11.04-.13.04-.06,0-.11-.03-.16-.09ZM37.9,28.17c-.08,0-.15.05-.21.15-.06.09-.09.16-.09.2,0,.03,0,.04.02.05s.04.02.09.02c.03,0,.07-.02.13-.05.06-.04.09-.07.09-.09,0,0,0-.03,0-.08,0-.03,0-.06.02-.09.01-.03.02-.04.02-.04,0,0-.02-.03-.06-.06Z"/>
    <path d="M40.22,28.95v.06s-.04.05-.12.05c0,0-.02-.01-.04-.03-.02-.02-.03-.03-.04-.03,0,0-.04,0-.11.03-.06.02-.1.03-.11.03-.08.03-.13.04-.17.04s-.05,0-.07-.03-.03-.04-.03-.06c0-.03.03-.06.09-.08s.11-.03.15-.04c.14-.03.22-.05.25-.06,0-.12.02-.27.04-.43l.05-.41s-.09.02-.16.07c-.12.08-.22.12-.31.12-.03,0-.04-.02-.04-.06,0-.03,0-.04.01-.05s.06-.03.14-.06c.08-.04.18-.09.3-.16.12-.07.19-.11.2-.11.02,0,.04.01.05.04.01.03.02.05.02.08,0,.02,0,.04-.03.05-.06.28-.1.49-.11.64,0,.15-.01.23,0,.26.05,0,.12-.02.21-.04.13-.04.23-.05.31-.05.02.03.02.05.02.08s0,.04,0,.04c0,0-.03.02-.06.03-.04.01-.1.02-.19.04-.13.02-.22.04-.26.06Z"/>
    <path d="M41.2,29.1c-.1,0-.18-.04-.24-.11-.06-.07-.08-.16-.08-.26,0-.13.04-.27.12-.43.08-.16.19-.28.35-.38.15-.1.29-.15.4-.15.08,0,.18.03.27.08.1.06.17.12.2.19s.06.16.06.28c0,.17-.11.35-.34.52-.22.18-.47.26-.74.26ZM41.89,27.96s-.04.03-.07.03c0,0-.02,0-.04-.02s-.04-.02-.06-.02c-.08,0-.14.01-.19.04-.05.02-.11.08-.19.16-.08.08-.15.17-.2.26-.05.09-.08.19-.08.29,0,.12.03.19.08.22.05.03.11.04.18.04.08,0,.18-.03.3-.1.12-.06.23-.15.34-.25.1-.1.15-.18.15-.25,0-.04,0-.08-.02-.13-.01-.05-.02-.08-.04-.1s-.04-.05-.08-.09-.07-.07-.09-.08Z"/>
    <path d="M43.1,28.72c-.09.12-.18.21-.27.27-.09.06-.17.09-.25.09-.05,0-.09-.02-.13-.06-.04-.04-.05-.1-.05-.16,0-.17.08-.35.23-.55.15-.2.3-.3.46-.3.05,0,.1.03.12.09,0,.02.02.03.04.03.05,0,.08.02.08.06,0,.02,0,.05,0,.08-.04.19-.05.33-.05.41,0,.16.03.25.09.28.03.02.04.04.04.06,0,.02-.01.04-.04.06-.03.02-.05.03-.08.03-.05,0-.09-.03-.12-.1-.03-.07-.05-.17-.05-.29ZM43.04,28.17c-.08,0-.18.08-.3.24-.11.16-.17.29-.17.4,0,.07.03.11.07.11.07,0,.17-.07.3-.22.13-.14.19-.28.19-.4,0-.09-.03-.14-.09-.14Z"/>
    <path d="M44.35,28.31c-.06,0-.19.18-.39.54-.07.12-.11.19-.12.2-.01.01-.03.02-.06.03s-.05.01-.07.01c-.04,0-.07-.08-.07-.25,0-.1.02-.27.06-.52.02-.1.02-.17.02-.22s.02-.06.06-.06c.07,0,.11.05.11.16,0,.05-.01.14-.04.29-.03.16-.04.26-.04.3.04-.04.1-.12.18-.26.11-.18.19-.29.24-.34.05-.05.11-.07.16-.07.04,0,.08.03.1.08.03.06.04.19.05.4,0,.05,0,.09.01.12,0,.03.01.04.02.04.03,0,.1-.1.2-.31.05-.11.11-.19.16-.25.05-.06.11-.09.17-.09.05,0,.09.03.11.08.02.05.04.13.05.24,0,.11.03.21.05.3s.06.15.11.17c.04.02.06.04.06.06s-.02.05-.05.07c-.03.02-.06.04-.09.04-.05,0-.1-.03-.14-.1s-.07-.2-.09-.41c0-.08-.02-.15-.03-.18,0-.04-.02-.05-.04-.05-.03,0-.06.03-.1.08-.04.05-.1.16-.18.32-.06.12-.11.21-.15.25s-.07.06-.1.06c-.03,0-.05-.01-.08-.03s-.04-.05-.04-.08-.01-.11-.02-.23c0-.21-.03-.33-.05-.36Z"/>
  </g>
  <polygon class="cls-4" points="27.04 26.5 27.03 30.64 46.31 30.43 46.26 26.39 27.04 26.5"/>
  <polygon class="cls-4" points="1.7 33.22 1.69 37.36 20.97 37.15 20.92 33.11 1.7 33.22"/>
  <g>
    <path d="M3.15,35.41c-.07.11-.15.2-.23.27s-.15.09-.22.09c-.05,0-.09-.02-.12-.06-.03-.04-.05-.09-.05-.16,0-.13.05-.27.16-.42.11-.14.23-.21.35-.22.06,0,.11.02.16.07l.11-.52s.02-.06.04-.07c.02-.01.04-.02.05-.02.04,0,.06.03.06.1,0,.01-.01.06-.04.13-.04.12-.07.26-.11.43-.03.17-.05.31-.05.41,0,.11.02.16.07.16.03,0,.06,0,.09-.03.01,0,.03-.01.04-.01.02,0,.03.01.03.03,0,.03-.02.06-.07.1-.05.04-.1.05-.15.05-.09,0-.13-.08-.13-.25,0-.03,0-.06,0-.09ZM3.04,35.03c-.09,0-.17.06-.26.18-.08.12-.13.23-.12.33,0,.07.02.1.07.1.04,0,.09-.02.15-.07.06-.04.12-.12.18-.21.06-.1.09-.17.09-.22,0-.02-.01-.05-.03-.07-.02-.02-.05-.04-.08-.04Z"/>
    <path d="M3.9,35.77c-.07,0-.13-.03-.18-.08-.05-.05-.07-.12-.07-.21,0-.14.04-.27.14-.41.09-.13.2-.2.33-.2.09,0,.16.03.21.1.05.07.08.14.08.23,0,.14-.05.27-.16.39-.11.12-.22.18-.34.18ZM3.78,35.46c0,.05.01.1.04.13.02.03.05.05.09.05.08,0,.16-.04.24-.13.08-.09.12-.18.12-.29,0-.07-.02-.12-.05-.16-.03-.04-.07-.06-.12-.06-.09,0-.16.05-.22.16s-.09.21-.09.3Z"/>
    <path d="M5.38,35.48c.2-.37.36-.55.49-.55.03,0,.06.02.08.06.02.04.04.12.05.26.01.14.05.25.09.31.02.03.04.06.04.07,0,.01,0,.03-.02.04s-.03.02-.05.02c-.04,0-.08-.02-.11-.07-.03-.05-.05-.13-.06-.25-.01-.11-.02-.18-.03-.22-.01-.03-.03-.05-.05-.05-.06,0-.17.15-.33.44-.05.09-.09.15-.11.17-.02.03-.05.04-.07.04-.02,0-.04,0-.06-.02-.02-.01-.02-.03-.02-.05,0-.01,0-.04.01-.09.06-.34.11-.68.15-1.01,0-.08.02-.13.04-.15.02-.03.03-.04.05-.04.02,0,.04,0,.06.03.02.02.03.04.03.08,0,.1-.02.23-.07.4-.02.08-.05.19-.07.32-.03.13-.04.21-.04.24,0,0,0,0,0,0h0Z"/>
    <path d="M6.51,35.75c-.07,0-.13-.03-.18-.08-.05-.06-.07-.12-.07-.21,0-.14.04-.27.14-.41.09-.13.2-.2.33-.2.09,0,.16.03.21.1.05.06.08.14.08.23,0,.14-.05.27-.16.39-.11.12-.22.18-.34.18ZM6.39,35.44c0,.05.01.1.04.13.02.03.05.05.09.05.08,0,.16-.04.24-.13.08-.09.12-.18.12-.29,0-.07-.02-.12-.05-.16-.03-.04-.07-.06-.12-.06-.09,0-.16.05-.22.16-.06.11-.09.21-.09.3Z"/>
    <path d="M7.8,35.07s-.15.15-.32.44c-.05.1-.09.15-.09.16,0,0-.03.02-.05.03-.02,0-.04,0-.06,0-.04,0-.05-.07-.06-.21,0-.08.02-.22.05-.43.01-.08.02-.14.02-.18,0-.04.02-.05.05-.05.06,0,.09.04.09.13,0,.04,0,.12-.03.24-.02.13-.03.21-.03.24.03-.03.08-.1.14-.21.09-.15.16-.24.2-.28.04-.04.09-.06.13-.06.03,0,.06.02.08.07.02.05.03.16.04.33,0,.04,0,.08.01.1,0,.02.01.03.02.03.03,0,.08-.08.16-.26.04-.09.09-.16.13-.21s.09-.07.14-.07c.04,0,.07.02.1.07.02.04.03.11.04.2,0,.09.02.17.04.24.02.07.05.12.09.14.03.01.05.03.05.05s-.01.04-.04.06c-.03.02-.05.03-.07.03-.04,0-.08-.03-.12-.08s-.06-.17-.08-.34c0-.07-.02-.12-.02-.15,0-.03-.02-.04-.03-.04-.02,0-.05.02-.08.07-.03.04-.08.13-.15.26-.05.1-.09.17-.12.21-.03.03-.05.05-.08.05-.02,0-.04,0-.06-.03-.02-.02-.03-.04-.04-.07,0-.03-.01-.09-.02-.19,0-.17-.02-.27-.05-.29Z"/>
    <path d="M9.57,35.42c0,.05-.05.12-.14.2-.1.08-.2.12-.3.12-.09,0-.15-.02-.2-.07-.05-.05-.07-.12-.07-.21,0-.15.05-.3.15-.44.1-.14.21-.21.34-.21.04,0,.07.01.1.04.03.03.04.06.04.09,0,.08-.04.16-.12.24-.08.08-.19.15-.32.22-.03.01-.04.03-.04.06,0,.04.01.08.04.11.03.03.06.04.11.04.11,0,.23-.07.35-.19.02-.02.03-.03.04-.03.02,0,.03.01.03.04ZM9.01,35.3c.23-.14.34-.24.34-.33,0-.03-.01-.05-.04-.05-.05,0-.1.04-.17.11-.06.07-.1.16-.13.26Z"/>
    <path d="M10.37,35.15s-.05.06-.11.19c-.05.1-.09.19-.14.27s-.08.12-.11.12c-.07,0-.13-.1-.19-.29-.06-.2-.09-.35-.09-.47,0-.04,0-.07.03-.1.02-.03.04-.04.07-.04,0,0,.01,0,.02,0,0,0,.02,0,.04.03s.02.03.02.05h0s0,.04,0,.08c0,.03,0,.08,0,.13,0,.08.02.17.05.26.03.1.06.14.08.14.02,0,.06-.08.15-.24.05-.1.09-.17.11-.21l.03-.05c.04-.07.07-.12.1-.15.05,0,.07.03.07.07,0,.01,0,.02,0,.03,0,0,0,.02,0,.03,0,.1.03.2.08.31s.09.16.11.16c.02,0,.04-.06.08-.17.05-.16.09-.27.13-.35.04-.08.07-.12.09-.14.02-.01.04-.02.06-.02.01,0,.02,0,.03.02,0,.01.01.02.01.04,0,.02,0,.03,0,.04-.06.09-.13.22-.19.41-.05.16-.09.26-.1.3-.02.04-.03.06-.05.06-.06,0-.12-.02-.16-.07-.04-.05-.1-.17-.17-.38,0-.02-.02-.04-.02-.06Z"/>
    <path d="M11.42,35.71c-.07,0-.13-.03-.18-.08-.05-.06-.07-.12-.07-.21,0-.14.04-.27.14-.41.09-.13.2-.2.33-.2.09,0,.16.03.21.1.05.06.08.14.08.23,0,.14-.05.27-.16.39-.11.12-.22.18-.34.18ZM11.3,35.41c0,.05.01.1.04.13.02.03.05.05.09.05.08,0,.16-.04.24-.13.08-.09.12-.18.12-.29,0-.07-.02-.12-.05-.16-.03-.04-.07-.06-.12-.06-.09,0-.16.05-.22.16-.06.11-.09.21-.09.3Z"/>
    <path d="M12.27,35.35s.01-.02.02-.04c.04-.08.07-.15.1-.2.03-.05.06-.09.1-.14s.07-.08.1-.1c.03-.02.06-.04.08-.05.02,0,.05-.01.07-.01.05,0,.08.01.11.04s.04.06.04.1c0,.02,0,.03-.02.04-.01.01-.03.02-.05.02s-.04,0-.06-.03c-.02-.02-.04-.03-.06-.03-.06,0-.13.07-.23.2-.1.13-.16.28-.18.45,0,.04-.02.07-.03.08-.02.01-.04.02-.06.02-.03,0-.04-.02-.06-.06-.01-.04-.02-.1-.02-.2,0-.03,0-.08,0-.17,0-.1,0-.18.02-.25,0,0,0-.03,0-.07,0-.04,0-.07.01-.08,0-.02.02-.03.03-.04.02-.01.04-.02.06-.02.02,0,.03,0,.04.02.01.01.02.03.02.04,0,.02,0,.05-.02.09-.01.04-.02.07-.02.09,0,.02,0,.04,0,.06,0,.02-.01.08-.01.18v.03s0,.02,0,.02Z"/>
    <path d="M13.12,35.29s.05-.05.14-.13c.08-.07.14-.13.17-.16.12-.12.21-.19.26-.19.04,0,.06.02.06.06,0,.05-.02.08-.06.1-.05.03-.12.07-.21.14-.09.06-.13.11-.13.13,0,.01.03.05.1.12.06.07.12.12.16.15.05.03.09.05.13.05h.03s.03,0,.03.02c0,.02-.01.05-.04.07-.03.02-.07.04-.12.04-.03,0-.06-.01-.09-.03-.03-.02-.09-.08-.17-.17-.06-.08-.11-.12-.12-.14-.02-.01-.03-.02-.04-.02,0,0-.02.01-.06.04s-.05.05-.05.06c0,.01,0,.07,0,.16v.04s0,.04-.03.05c-.02.02-.04.02-.06.02-.02,0-.04,0-.05-.02-.01-.01-.02-.03-.02-.04,0-.02,0-.06.02-.14.02-.1.04-.24.05-.41.04-.41.07-.64.09-.69.02-.05.05-.08.09-.08.01,0,.03,0,.04.02,0,.01.01.03.01.06,0,.04-.02.16-.05.34-.04.18-.06.37-.08.54Z"/>
    <path d="M15.31,35.23s-.08.05-.14.08c-.05.02-.1.04-.13.04-.04,0-.08-.02-.11-.05-.03-.03-.05-.06-.05-.09,0-.08.04-.17.11-.27.08-.1.14-.15.2-.15.07,0,.12.01.15.04,0,0,.01.01.01.03,0,0,0,.02,0,.03,0,0,0,.01.01.01,0,0,.01,0,.02,0,0,0,.01,0,.02,0,.03,0,.04.01.04.04,0,0,0,.03-.02.07-.02.04-.03.07-.03.08,0,.01,0,.03,0,.06,0,.02.02.04.05.04.05,0,.09-.03.13-.08.04-.05.06-.1.06-.15s-.02-.11-.06-.19c-.04-.08-.09-.14-.15-.17-.06-.03-.11-.05-.14-.05-.06,0-.14.04-.24.12-.1.08-.19.19-.26.33-.08.13-.11.23-.11.28,0,.08.05.15.14.21.09.06.2.09.33.09.06,0,.15-.02.25-.05.1-.03.19-.07.25-.12.02-.02.04-.03.04-.03,0,0,.02,0,.03.01s.02.01.02.02c0,.04,0,.07-.03.09-.02.02-.06.04-.11.07-.05.02-.13.04-.23.07s-.19.03-.27.03c-.13,0-.25-.04-.36-.11-.11-.07-.16-.17-.16-.29,0-.08.04-.2.13-.35.09-.15.19-.27.3-.35.11-.08.21-.13.29-.13.13,0,.24.05.32.16.09.11.13.22.13.33,0,.07-.02.14-.05.2-.04.07-.08.11-.14.13-.06.02-.09.03-.1.03-.05,0-.09-.02-.13-.07ZM15.26,34.9c-.06,0-.12.04-.17.12-.05.08-.08.13-.08.16,0,.02,0,.04.02.04.01,0,.03.01.07.01.02,0,.06-.01.11-.04.05-.03.07-.05.07-.07,0,0,0-.03,0-.06,0-.02,0-.05.02-.07.01-.02.02-.04.02-.04,0,0-.02-.02-.05-.05Z"/>
    <path d="M17.25,34.69s-.03,0-.04,0c-.07.02-.14.08-.22.18-.01.02-.04.05-.07.08-.04.04-.07.07-.09.1-.02.03-.04.07-.05.12-.02.05-.02.1-.02.14,0,.03,0,.05.02.08.01.02.05.05.1.09-.01-.08,0-.16.04-.24.04-.07.09-.13.15-.16.06-.03.15-.05.28-.05.06,0,.12.02.17.06.05.04.08.09.08.15,0,.04-.02.08-.05.12-.03.04-.08.09-.16.13-.07.05-.13.08-.17.1-.04.02-.12.03-.23.03-.06,0-.11,0-.16-.03-.05-.02-.09-.06-.13-.1-.04-.05-.06-.1-.06-.14,0-.09.01-.17.04-.22.02-.06.06-.12.1-.18.04-.06.09-.11.13-.15.01-.01.04-.04.07-.07.06-.06.11-.11.14-.14.04-.03.08-.04.11-.04.02,0,.04,0,.05.02s.02.03.02.05c0,.04-.01.06-.03.06ZM17.48,35.22c-.06-.04-.13-.06-.21-.06-.19,0-.29.11-.3.34.02,0,.04,0,.07,0h.08c.05,0,.13-.04.22-.11.1-.07.14-.12.14-.18Z"/>
    <path d="M17.95,35.53c-.03.1-.05.23-.07.4l-.02.15s-.01.04-.03.06c-.02.02-.03.03-.04.03-.02,0-.04,0-.06-.02s-.03-.03-.03-.04c0-.03,0-.07.02-.12.09-.39.14-.74.14-1.04v-.07c0-.06,0-.1.03-.13.02-.03.05-.04.07-.04.01,0,.03,0,.04.03.01.02.02.05.02.09,0,.05,0,.11-.01.19-.01.09-.02.15-.02.16.08-.14.16-.25.25-.33.09-.08.17-.12.25-.12.05,0,.1.02.14.06.04.04.06.09.06.15,0,.17-.06.33-.2.48-.13.14-.26.22-.39.22-.03,0-.06,0-.07-.02-.02-.02-.04-.04-.06-.09ZM18.44,34.88c-.08,0-.17.07-.28.21-.11.14-.17.25-.16.33,0,.02.01.04.03.06.02.02.05.03.08.03.08,0,.16-.06.26-.17.1-.11.15-.22.15-.33,0-.04,0-.07-.02-.09-.02-.02-.04-.03-.06-.03Z"/>
    <path d="M19.46,34.98s-.15.15-.32.44c-.05.1-.09.15-.09.16,0,0-.03.02-.05.02s-.04.01-.06.01c-.04,0-.05-.07-.06-.21,0-.08.02-.22.05-.43.01-.08.02-.14.02-.18,0-.04.02-.05.05-.05.06,0,.09.04.09.13,0,.04,0,.12-.03.24-.02.13-.03.21-.03.24.03-.03.08-.1.14-.21.09-.15.16-.24.2-.28.04-.04.09-.06.13-.06.03,0,.06.02.08.07s.03.16.04.33c0,.04,0,.08.01.1,0,.02.01.03.02.03.03,0,.08-.09.16-.26.04-.09.09-.16.13-.21.04-.05.09-.07.14-.07.04,0,.07.02.1.07.02.04.03.11.04.2,0,.09.02.17.04.24.02.07.05.12.09.14.03.01.05.03.05.05s-.01.04-.04.06c-.03.02-.05.03-.07.03-.04,0-.08-.03-.12-.08-.03-.05-.06-.17-.08-.34,0-.07-.02-.12-.02-.15,0-.03-.02-.04-.03-.04-.02,0-.05.02-.08.07-.03.04-.08.13-.15.26-.05.1-.09.17-.12.21-.03.03-.05.05-.08.05-.02,0-.04,0-.06-.03-.02-.02-.03-.04-.04-.07,0-.03-.01-.09-.02-.19,0-.17-.02-.27-.05-.29Z"/>
  </g>
  <path class="cls-2" d="M41.22,5.16c.33-1.62.04-2.99-.83-3.37-1.16-.51-2.91.93-3.92,3.21s-.87,4.55.29,5.06c.53.23,1.17.06,1.82-.4l2.64-4.49Z"/>
  <path class="cls-2" d="M42.22,5.74c1.18-1.16,2.49-1.66,3.28-1.13,1.06.7.8,2.95-.58,5.03s-3.35,3.2-4.4,2.5c-.48-.32-.69-.95-.65-1.74l2.34-4.65Z"/>
  <polyline class="cls-5" points="36.83 10.16 34.62 17.04 40.51 11.89 35.88 15.37 37.17 10.26"/>
</svg>