<?xml version="1.0" encoding="UTF-8"?>
<svg id="Layer_1" data-name="Layer 1" xmlns="http://www.w3.org/2000/svg" viewBox="0 0 48 48">
  <defs>
    <style>
      .cls-1, .cls-2, .cls-3, .cls-4, .cls-5 {
        stroke: #000;
      }

      .cls-1, .cls-2, .cls-4 {
        fill: none;
      }

      .cls-1, .cls-2, .cls-5 {
        stroke-width: .75px;
      }

      .cls-1, .cls-4 {
        stroke-linejoin: round;
      }

      .cls-2, .cls-3, .cls-5 {
        stroke-miterlimit: 10;
      }

      .cls-4 {
        stroke-width: .5px;
      }
    </style>
  </defs>
  <path class="cls-2" d="M18.22,38.95c-6.91.09-11.73,1.19-11.73,2.55s5.92,2.57,13.23,2.57,13.23-1.15,13.23-2.57c0-1.04-2.34-1.69-6.9-2.09"/>
  <path class="cls-1" d="M30.69,26.39c.39-1.47.63-2.43.63-2.43l7.24-8.23s-.44-2.73-4-3.26"/>
  <path class="cls-1" d="M29.49,30.66c-1.42,4.8-3.41,10.54-4.96,11.21-1.78.77-4.22.37-5.69,0-.73-.18-1.19-.89-1.07-1.63.13-.81.17-1.65.41-3.07"/>
  <path class="cls-1" d="M34.55,12.46c-.09-.01-.18-.01-.25,0-.8.19-3.41,3.48-4.99,5.56-.28.37-.88.09-.77-.37l2.96-12.52s-6.79-1.54-7.51,0c-.5,1.06-3.15,17.6-4.88,27.97"/>
  <polygon class="cls-3" points="24.44 5.19 30.55 5.37 28.99 17.99 33.3 14.12 36.67 16.76 31 23.92 21.39 21.2 24.44 5.19"/>
  <path class="cls-1" d="M32.95,41.5v3.04c-14.91,4-26.45,0-26.45,0v-3.04"/>
  <polygon class="cls-4" points="27.04 26.5 27.03 30.64 46.31 30.43 46.26 26.39 27.04 26.5"/>
  <polygon class="cls-4" points="1.7 33.35 1.69 37.36 20.97 37.15 20.92 33.11 1.7 33.35"/>
  <path class="cls-2" d="M41.22,5.16c.33-1.62.04-2.99-.83-3.37-1.16-.51-2.91.93-3.92,3.21s-.87,4.55.29,5.06c.53.23,1.17.06,1.82-.4l2.64-4.49Z"/>
  <path class="cls-2" d="M42.22,5.74c1.18-1.16,2.49-1.66,3.28-1.13,1.06.7.8,2.95-.58,5.03s-3.35,3.2-4.4,2.5c-.48-.32-.69-.95-.65-1.74l2.34-4.65Z"/>
  <polyline class="cls-5" points="36.83 10.16 34.62 17.04 40.51 11.89 35.88 15.37 37.17 10.26"/>
  <polyline points="20.92 33.11 20.97 37.15 17.75 37.19 17.72 33.13"/>
  <path class="cls-2" d="M2.22,35.86s3.57-.18,3.46-1.03c-.16-1.35-1.44-.3-1.44-.3,0,0,1.2,1.94,2.33,1.43,1-.45,1.82-1.26,3.39-1.56,1.48-.29,1.1,1.66,2.58,1.83.68.08,1.2-.87,1.63-.62,1.22.74,2.31-.78,2.79-.66"/>
  <polygon points="27.04 26.5 27.03 30.64 30.95 30.6 30.93 26.48 27.04 26.5"/>
  <path class="cls-2" d="M31.3,29.22s1.25-.98,1.66-.66.56.61,1.24.66,2.11-.95,2.02-1.53-2.11-.77-1.84,0,2.66,1.63,2.93,1.5,2.73-1.55,3.35-.83,3.32.7,4.02.21"/>
</svg>