<?xml version="1.0" encoding="UTF-8"?>
<svg id="Stickers" xmlns="http://www.w3.org/2000/svg" viewBox="0 0 48 48">
  <defs>
    <style>
      .cls-1 {
        fill: none;
        stroke: #000;
        stroke-linecap: round;
        stroke-linejoin: round;
        stroke-width: .5px;
      }
    </style>
  </defs>
  <g>
    <path class="cls-1" d="M8.27,43.52c-.48-.92-.4-2.03.28-2.77l17.28-18.76,3.9,3.59-15.2,16.49"/>
    <polygon points="37.16 10.06 30.72 17.04 32.06 8.1 26.82 7.32 24.34 23.85 27.95 24.39 27.83 28 29.73 25.94 30.38 25.24 41.06 13.65 37.16 10.06"/>
    <path class="cls-1" d="M5.26,43.09c.41.94,1.11,1.92,2.05,2.79,0,0,3.18-9.75,9.05-1.77l16.27-17.65,2.37-2.58.81-.88,10.05-10.9-6.99-6.62-4.99,4.57.26-6.32-8.1-2.33-4.99,21.52-15.72,17.06c-.64.7-.62,1.86-.08,3.12"/>
  </g>
  <path class="cls-1" d="M7.32,45.87s4.38,1.05,9.05-1.77c0,0-5.21-8.12-9.05,1.77Z"/>
</svg>