<?xml version="1.0" encoding="UTF-8"?>
<svg id="Layer_4" data-name="Layer 4" xmlns="http://www.w3.org/2000/svg" viewBox="0 0 47.6 33.16">
  <defs>
    <style>
      .cls-1 {
        fill: none;
        stroke: #000000;
        stroke-linecap: round;
        stroke-linejoin: round;
        stroke-width: .5px;
      }
    </style>
  </defs>
  <path class="cls-1" d="M41.38,22.2c-.42.71-.89,1.39-1.4,2.04h-.01c-1.52,1.99-3.38,3.71-5.48,5.08-1.22.81-2.5,1.48-3.86,2.02-1.01.41-2.04.74-3.12.98-1.59.38-3.25.57-4.95.57-3.02,0-5.89-.62-8.51-1.73h0c-2.21-.94-4.22-2.24-6.01-3.82-3.3-2.93-5.78-6.85-6.97-11.31-.3-1.07-.52-2.18-.64-3.31-.13-.95-.19-1.92-.19-2.91,0-1.98,1.07-3.65,2.88-5"/>
  <path class="cls-1" d="M18.19,6.91l.41,1.75-4.43.03L3.13,4.81l-1.18-.42C.25,3.59,1.48,0,2.93.26l5.39,2,12.17,4.51-2.31.14Z"/>
  <path class="cls-1" d="M8.33,2.26C21.18-1.99,44.87.53,44.87,9.82c0,1.6-.15,3.16-.45,4.66"/>
  <path class="cls-1" d="M42.51,20.15c.02-.06.06-.1.07-.15h.01c.35-.75.67-1.54.96-2.34"/>
  <path class="cls-1" d="M44.57,8.16c0,1.79-2.3,3.52-6.01,4.86h-.01c-.19.08-.39.14-.6.21"/>
  <path class="cls-1" d="M31.42,14.77c-2.72.42-5.72.66-8.86.66-6.29,0-12.06-.86-16.13-2.22-.24-.08-.48-.17-.71-.24-1.28-.48-2.36-.99-3.21-1.56-1.31-.86-2.05-1.83-2.05-2.84"/>
  <path class="cls-1" d="M38.58,13.02h-.02"/>
  <path class="cls-1" d="M34.49,29.33c0-2.88,2.31-5.08,5.49-5.08"/>
  <path class="cls-1" d="M42.59,19.99h-.18"/>
  <path class="cls-1" d="M30.63,31.35c0-4.94,3.45-9.32,8.31-10.8"/>
  <path class="cls-1" d="M27.51,32.33c.95-9.19,3.91-11.9,9.54-14.97"/>
  <path class="cls-1" d="M14.06,31.17c0-2.36-3.02-4.35-6.02-3.82"/>
  <path class="cls-1" d="M17.36,32.17c0-3.98-6.3-8.34-11.39-7.2"/>
  <path class="cls-1" d="M2.51,11.41c0,.73-.93,1.32-2.08,1.32"/>
  <path class="cls-1" d="M5.73,12.97c-.8,1.72-2.09,3.08-4.66,3.08"/>
  <path class="cls-1" d="M46.88,18.74l-3.32-1.09-3.28-1.07,2.14,3.41.1.15.57.92s0,.06-.01.08c-.06.52-.72.89-1.7,1.06-.42.08-.89.12-1.4.12l-1.04-1.78-1.88-3.18-.45-.78-5.17-1.81h-.01l-8.45-2.98-8.8-3.09,4.43-.03-.41-1.75,2.31-.14h.01l16.06,5.95,1.38.51.88.33,5.58.92,2.44.41c1.09,1.97.02,3.86.02,3.86Z"/>
  <path class="cls-1" d="M46.74,18.62c-.43-1.26-.7-3.02.12-3.73"/>
  <path class="cls-1" d="M39.97,22.32c0-.7,1.39-1.26,3.12-1.26"/>
  <path class="cls-1" d="M19.81,32.65c.85-5.64-7.68-12.1-15.51-9.57"/>
  <circle class="cls-1" cx="7.09" cy="17.03" r="1.36"/>
  <ellipse class="cls-1" cx="9.09" cy="20.28" rx="1.04" ry=".92"/>
  <ellipse class="cls-1" cx="11.66" cy="17.36" rx="1.84" ry="1.61"/>
  <path class="cls-1" d="M11.92,14.48c.67-.69,7.12-1.46,16.06-.93"/>
</svg>
