<?xml version="1.0" encoding="UTF-8"?>
<svg id="Layer_2" data-name="Layer 2" xmlns="http://www.w3.org/2000/svg" viewBox="0 0 48 48">
  <defs>
    <style>
      .cls-1 {
        fill: #000000;
      }

      .cls-1, .cls-2 {
        stroke-width: .5px;
      }

      .cls-1, .cls-2, .cls-3 {
        stroke: #000000;
        stroke-miterlimit: 10;
      }

      .cls-2, .cls-3 {
        fill: none;
      }

      .cls-3 {
        stroke-width: .75px;
      }
    </style>
  </defs>
  <path class="cls-2" d="M26.38,28.79c-4.5-8.76-11.72-7.15-11.72-7.15-1.42-9.52-8.82-13.43-8.82-13.43,15.71-13.22,29.31-3.43,29.31-3.43,0,0,14.49,8.48,6.91,27.08,0,0-6.09-7.08-15.95-3.11"/>
  <path class="cls-2" d="M14.66,21.64s5.86-13.94,20.28-16.67c0,0,2.34,10.68-8.44,23.55"/>
  <path class="cls-2" d="M32.79,31.34c4.81.82,4.98-2.69,4.98-2.69"/>
  <path class="cls-2" d="M29.99,27.72s-.76.53.39,2.32"/>
  <circle class="cls-1" cx="31.27" cy="31.71" r="1.63"/>
  <circle class="cls-1" cx="29.64" cy="34.17" r="1.31"/>
  <circle class="cls-1" cx="28.14" cy="35.9" r="1.01"/>
  <path class="cls-2" d="M27.94,36.92s-2.15,4.23-3.03,7.15c-.96,3.17-3.11,2.7-4.73,2.49,0,0,.6-2.14.41-2.42l-1.83,1.75c-.87-.87.95-2.83.95-2.83-.99.09-2.91,1.17-2.91,1.17-.61-3.36,5.16-5.98,5.16-5.98,1.4-.65,5.25-1.93,5.25-1.93"/>
  <path class="cls-2" d="M16.82,21.32s-.75,4.38,1.75,5.71"/>
  <path class="cls-2" d="M25.27,27.24s-1.69,1.36-2.79.96"/>
  <circle class="cls-1" cx="20.36" cy="28.2" r="2.13"/>
  <circle class="cls-1" cx="18.11" cy="31.01" r="1.37"/>
  <circle class="cls-1" cx="16.44" cy="32.75" r=".96"/>
  <path class="cls-2" d="M16.07,33.45s-2.91,3.74-4.33,6.44c-1.54,2.93-3.57,2.06-5.12,1.55,0,0,.99-1.99.86-2.3l-2.13,1.37c-.68-1.02,1.47-2.6,1.47-2.6-.99-.1-3.08.59-3.08.59.04-3.41,6.19-4.81,6.19-4.81,1.46-.71,5.54-.98,5.54-.98"/>
  <path class="cls-2" d="M23.84,28.32s2.45,3.28,6.15,1.48"/>
  <path class="cls-2" d="M10.9,12.57s1.41-.79,2.32.5-.57,2.38-.57,2.38"/>
  <path class="cls-2" d="M8.05,9.77s1.73-.85,2.7.4-.1,2.61-.1,2.61"/>
  <path class="cls-2" d="M12.57,15.69s1.47-.79,2.31.55c.86,1.37-.91,2.4-.91,2.38"/>
  <path class="cls-2" d="M13.99,18.87s1.23-.44,1.5.44-.88,1.48-.88,1.48"/>
  <path class="cls-2" d="M14.96,21.32s.69-1.33,1.48-.86.56,1.07.56,1.07"/>
  <path class="cls-2" d="M17.04,21.5s.72-1.65,2.23-1.2,1.09,2.12,1.09,2.12"/>
  <path class="cls-2" d="M20.41,22.44s1.27-1.28,2.51-.32.25,2.37.25,2.37"/>
  <path class="cls-2" d="M23.32,24.5s1.56-.92,2.51.34-.36,2.36-.36,2.36"/>
  <path class="cls-2" d="M25.21,27.24s1.2-.9,1.71-.13-.54,1.54-.54,1.54"/>
  <path class="cls-2" d="M27.32,28.29s.3-1.47,1.19-1.24.84.87.84.87"/>
  <path class="cls-2" d="M29.6,27.69s.21-1.79,1.78-1.8,1.66,1.71,1.66,1.71"/>
  <path class="cls-2" d="M33.05,27.73s.68-1.69,2.23-1.42,1.49,2.08,1.49,2.08"/>
  <path class="cls-2" d="M36.77,28.4s1.26-1.47,2.66-.64.96,2.32.96,2.32"/>
  <path class="cls-2" d="M40.39,30.58s.72-1.32,1.5-.83.16,1.62.16,1.62"/>
  <path class="cls-2" d="M6.39,8.28s.94-.91,1.55-.21-.19,1.71-.19,1.71"/>
  <line class="cls-3" x1="35.29" y1="4.7" x2="36.62" y2="3.18"/>
</svg>
