<?xml version="1.0" encoding="utf-8"?>
<!-- Generator: Adobe Adobe Illustrator 24.2.0, SVG Export Plug-In . SVG Version: 6.00 Build 0)  -->
<svg version="1.1" id="Layer_1" xmlns="http://www.w3.org/2000/svg" xmlns:xlink="http://www.w3.org/1999/xlink" x="0px" y="0px"
	 viewBox="0 0 48 48" style="enable-background:new 0 0 48 48;" xml:space="preserve">
<style type="text/css">
	.st0{fill:none;stroke:#000000;stroke-width:0.5;stroke-linecap:round;stroke-linejoin:round;stroke-miterlimit:10;}
	.st1{fill:none;stroke:#000000;stroke-width:0.5;stroke-linecap:round;stroke-miterlimit:10;}
</style>
<path class="st0" d="M35.82,21.61c-0.83-0.07-1.98,0.6-2.05,1.42c-0.43,5,2.34,10.57,6.27,13.33c0.61,0.43,1.46,0.45,2.09,0.04
	c0.63-0.41,1-1.22,0.93-2c-0.49-5.11-3.03-10.51-7.18-12.8L35.82,21.61z"/>
<path class="st0" d="M35.93,28.29c-0.76-1.54-0.69-3.52,0.2-4.97c1.15,1.42,1.1,3.77-0.09,5.13"/>
<path class="st0" d="M40.35,34.87c-0.87-1.21-0.87-3.06,0.14-4.31c0.95,1.22,0.96,3.16,0.02,4.39"/>
<path class="st0" d="M8.22,29.15c-0.3,0.22-0.61,0.43-0.91,0.65c-0.26-0.37-0.52-0.75-0.74-1.07c-0.13,0.12-0.26,0.23-0.39,0.35"/>
<path class="st0" d="M17.66,18.63c0.07,0.52-0.1,1.06-0.46,1.42c-0.35,0.36-0.87,0.52-1.35,0.41c0,0,1.02,0.11,1.34,0.51
	c0.32,0.4,0.43,0.99,0.26,1.49c0.06-0.95,1.17-1.89,2.05-2.01c-1.11-0.11-1.79-0.94-1.85-1.93"/>
<path class="st0" d="M32.31,35.41c0,0,0.06,1-0.27,1.33c-0.33,0.33-1.26,0.23-1.26,0.23c0.96-0.04,1.82,1,1.68,2.01
	c-0.09-0.89,0.67-1.77,1.51-1.74c-0.82-0.19-1.62-0.93-1.62-1.83"/>
<path class="st0" d="M25.85,27.33c-0.18-0.05-0.38,0.16-0.34,0.35c0.04,0.2,0.3,0.3,0.45,0.17c0.15-0.13,0.12-0.42-0.05-0.51"/>
<rect x="2.93" y="16.97" class="st1" width="42.41" height="23.51"/>
<rect x="1.54" y="13.29" class="st0" width="45" height="3.6"/>
<rect x="1.54" y="40.56" class="st0" width="45" height="3.6"/>
<line class="st1" x1="3.28" y1="13.29" x2="24.77" y2="2.65"/>
<line class="st1" x1="44.82" y1="13.29" x2="24.77" y2="2.65"/>
<path class="st0" d="M38.14,31.53c-0.83-1.34-0.71-3.27,0.4-4.47c0.96,1.29,0.86,3.33-0.21,4.51"/>
<path class="st0" d="M27.11,27.76c0.54-0.22,1.09-0.45,1.63-0.67c-1.89-1.11-4.27-1.2-6.22-0.23s-3.42,2.98-3.84,5.24"/>
<path class="st0" d="M28.79,27.06c-0.44,2.3-1.9,4.34-3.86,5.39c-1.96,1.05-4.37,1.08-6.26,0.02c-0.15,1.31-0.57,2.78-1.19,3.91"/>
<path class="st0" d="M16.95,33.57c-0.29,0.95-0.08,2.06,0.53,2.82"/>
<path class="st0" d="M18.49,32.22c-0.97-0.54-2.07-0.83-3.17-0.82"/>
<path class="st0" d="M16.99,33.45c-0.87-0.31-1.57-1.12-1.8-2.07"/>
<path class="st0" d="M8.5,20.91c-0.34,0.8-0.68,1.59-1.02,2.39C7.09,22.65,6.7,22,6.31,21.35c-0.29-0.48-1.05-0.34-1.32,0.16
	C4.72,22,4.86,22.64,5.14,23.12c0.28,0.48,0.69,0.87,1.01,1.31c0.33,0.45,0.58,1.01,0.48,1.57c-0.45,2.39-0.9,4.79-1.35,7.18
	c-0.16,0.86,0.5,1.78,1.32,1.84c0.82,0.06,1.59-0.76,1.53-1.64c-0.24-3.95,0.46-7.95,2.02-11.54c0.19-0.44,0.02-1.02-0.38-1.27
	s-0.95-0.11-1.21,0.29"/>
<path class="st0" d="M25.85,27.33c-0.18-0.05-0.38,0.16-0.34,0.35c0.04,0.2,0.3,0.3,0.45,0.17c0.15-0.13,0.12-0.42-0.05-0.51"/>
<path class="st0" d="M22.81,29.51c-0.53,0.58-1.06,1.16-1.6,1.73c0.96-0.22,1.93-0.45,2.89-0.67"/>
</svg>
