<?xml version="1.0" encoding="UTF-8" standalone="no"?>
<!-- Created with Inkscape (http://www.inkscape.org/) -->

<svg
   width="48"
   height="48"
   viewBox="0 0 48 48"
   version="1.1"
   id="svg1"
   xml:space="preserve"
   inkscape:version="1.4.4 (dcaf3e7, 2026-05-05)"
   sodipodi:docname="Frog_Wallet.svg"
   xmlns:inkscape="http://www.inkscape.org/namespaces/inkscape"
   xmlns:sodipodi="http://sodipodi.sourceforge.net/DTD/sodipodi-0.dtd"
   xmlns="http://www.w3.org/2000/svg"
   xmlns:svg="http://www.w3.org/2000/svg"><sodipodi:namedview
     id="namedview1"
     pagecolor="#ffffff"
     bordercolor="#000000"
     borderopacity="0.25"
     inkscape:showpageshadow="2"
     inkscape:pageopacity="0.0"
     inkscape:pagecheckerboard="0"
     inkscape:deskcolor="#d1d1d1"
     inkscape:document-units="px"
     inkscape:zoom="9.9635418"
     inkscape:cx="15.355985"
     inkscape:cy="25.242028"
     inkscape:window-width="1704"
     inkscape:window-height="1401"
     inkscape:window-x="1699"
     inkscape:window-y="0"
     inkscape:window-maximized="0"
     inkscape:current-layer="svg1" /><defs
     id="defs1" /><g
     inkscape:label="Layer 1"
     inkscape:groupmode="layer"
     id="layer1" /><g
     inkscape:groupmode="layer"
     id="layer3"
     inkscape:label="Layer 3" /><path
     style="fill:none;fill-opacity:1;stroke:#000000;stroke-width:1;stroke-dasharray:none;stroke-opacity:1"
     d="M 3.8205054,30.587227 H 44.385894 c 0.883203,-0.04526 1.713277,-0.229466 1.871921,-2.169727 v 0 V 5.1035698 C 46.019471,3.2138244 45.118305,2.8304919 44.003,2.9338428 L 4.0820108,2.8744996 C 2.2703005,2.9921606 2.3235045,4.2876624 1.9461237,5.3112158 l 0.030083,23.6150892 c 0.4180287,1.261895 1.0251937,1.8429 1.8442987,1.660922 z"
     id="path38"
     sodipodi:nodetypes="cccccccccc" /><path
     style="fill:none;fill-opacity:1;stroke:#000000;stroke-width:0.5;stroke-dasharray:none;stroke-opacity:1"
     d="m 17.859987,25.346438 c -1.600084,-0.831128 -4.252301,-0.920093 -5.114096,-6.70849 -0.0037,-2.568407 0.467039,-4.810555 1.744809,-6.497911 -0.03012,-2.3351044 -1.022873,-4.7624632 1.173234,-6.949153 2.016457,-1.8612736 3.059634,-0.6011951 3.940861,-0.1203315 0.493594,0.5388471 1.043801,1.7922008 1.293566,2.5871308 1.91081,-0.9980061 3.900337,-1.5499462 6.287329,0.1504141 1.173567,-3.4748425 2.30467,-3.6727048 3.39937,-3.5197009 2.523857,0.1951419 2.549781,2.4031111 3.279037,4.0912774 0.141685,1.3965947 -0.116943,2.4595931 -0.451243,3.4595351 1.307539,1.769939 1.931224,3.976052 1.95539,6.949153 -0.866745,3.369074 -2.163416,5.624978 -5.084014,6.467828"
     id="path39"
     sodipodi:nodetypes="cccccccccccc" /><ellipse
     style="fill:none;fill-opacity:1;stroke:#000000;stroke-width:0.5;stroke-dasharray:none;stroke-opacity:1"
     id="path40"
     cx="16.28063"
     cy="15.343866"
     rx="1.6644002"
     ry="1.9351465" /><ellipse
     style="fill:none;fill-opacity:1;stroke:#000000;stroke-width:0.5;stroke-dasharray:none;stroke-opacity:1"
     id="path40-8"
     cx="31.762022"
     cy="15.199061"
     rx="1.6644002"
     ry="1.9351465" /><path
     style="fill:none;fill-opacity:1;stroke:#000000;stroke-width:0.5;stroke-dasharray:none;stroke-opacity:1"
     d="m 21.830932,12.410784 c 1.669899,3.205499 3.603215,1.523589 4.301856,0.09026"
     id="path41"
     sodipodi:nodetypes="cc" /><ellipse
     style="fill:none;fill-opacity:1;stroke:#000000;stroke-width:0.5;stroke-dasharray:none;stroke-opacity:1"
     id="path42"
     cx="17.5742"
     cy="9.3573666"
     rx="1.7207899"
     ry="2.6232777" /><ellipse
     style="fill:none;fill-opacity:1;stroke:#000000;stroke-width:0.5;stroke-dasharray:none;stroke-opacity:1"
     id="path43"
     cx="18.236027"
     cy="8.6353769"
     rx="0.48996076"
     ry="0.76070702" /><ellipse
     style="fill:none;fill-opacity:1;stroke:#000000;stroke-width:0.5;stroke-dasharray:none;stroke-opacity:1"
     id="path44"
     cx="30.449686"
     cy="9.2821608"
     rx="1.7297678"
     ry="2.6172137" /><ellipse
     style="fill:none;fill-opacity:1;stroke:#000000;stroke-width:0.5;stroke-dasharray:none;stroke-opacity:1"
     id="path45"
     cx="31.08143"
     cy="8.7256269"
     rx="0.49480987"
     ry="0.73547328" /><path
     style="fill:none;fill-opacity:1;stroke:#000000;stroke-width:0.5;stroke-dasharray:none;stroke-opacity:1"
     d="m 19.213718,30.460534 1.594395,-3.30912 6.287329,-0.09026 1.74481,3.489625 z"
     id="path46" /><path
     style="fill:none;fill-opacity:1;stroke:#000000;stroke-width:0.5;stroke-dasharray:none;stroke-opacity:1"
     d="m 27.546686,30.641031 -0.932571,-1.925306 -5.023847,-0.06016 -0.962653,1.774888"
     id="path47" /><path
     style="fill:none;fill-opacity:1;stroke:#000000;stroke-width:0.5;stroke-dasharray:none;stroke-opacity:1"
     d="m 19.213718,30.610949 1.413897,3.188789 6.798739,-0.09024 1.684643,-3.008298 z"
     id="path48" /><ellipse
     style="fill:none;fill-opacity:1;stroke:#000000;stroke-width:0.5;stroke-dasharray:none;stroke-opacity:1"
     id="path49"
     cx="26.99015"
     cy="31.979721"
     rx="0.42875341"
     ry="0.57916802" /><ellipse
     style="fill:none;fill-opacity:1;stroke:#000000;stroke-width:0.5;stroke-dasharray:none;stroke-opacity:1"
     id="path50"
     cx="21.093901"
     cy="31.979721"
     rx="0.44003308"
     ry="0.62053055" /><path
     style="fill:none;fill-opacity:1;stroke:#000000;stroke-width:1;stroke-dasharray:none;stroke-opacity:1"
     d="m 2.4575333,30.430451 0.030082,12.574659 c 0.4612716,1.826784 0.9225431,1.73708 1.3838147,1.865141 l 40.281026,-0.06016 c 0.549103,-0.255831 1.163184,0.300553 1.564311,-1.804979 L 45.596436,30.099541 45.446021,30.40037 Z"
     id="path51"
     sodipodi:nodetypes="cccccccc" /></svg>
