<?xml version="1.0" encoding="UTF-8" standalone="no"?>
<svg
   id="Layer_1"
   data-name="Layer 1"
   viewBox="0 0 48 48"
   version="1.1"
   sodipodi:docname="Washi tape.svg"
   inkscape:version="1.4.4 (dcaf3e7, 2026-05-05)"
   xmlns:inkscape="http://www.inkscape.org/namespaces/inkscape"
   xmlns:sodipodi="http://sodipodi.sourceforge.net/DTD/sodipodi-0.dtd"
   xmlns="http://www.w3.org/2000/svg"
   xmlns:svg="http://www.w3.org/2000/svg">
  <sodipodi:namedview
     id="namedview17"
     pagecolor="#ffffff"
     bordercolor="#000000"
     borderopacity="0.25"
     inkscape:showpageshadow="2"
     inkscape:pageopacity="0.0"
     inkscape:pagecheckerboard="0"
     inkscape:deskcolor="#d1d1d1"
     inkscape:zoom="24.979167"
     inkscape:cx="24.020017"
     inkscape:cy="24"
     inkscape:window-width="1706"
     inkscape:window-height="1401"
     inkscape:window-x="1698"
     inkscape:window-y="0"
     inkscape:window-maximized="0"
     inkscape:current-layer="Layer_1" />
  <defs
     id="defs1">
    <style
       id="style1">
      .cls-1 {
        fill: #fff;
      }

      .cls-1, .cls-2, .cls-3 {
        stroke: #000000;
        stroke-miterlimit: 10;
        stroke-width: .5px;
      }

      .cls-2 {
        fill: #000000;
      }

      .cls-3 {
        fill: none;
      }
    </style>
  </defs>
  <ellipse
     class="cls-1"
     cx="16.26"
     cy="22.81"
     rx="6.88"
     ry="5.94"
     transform="translate(-3.77 3.23) rotate(-10.17)"
     id="ellipse1"
     style="fill:none" />
  <ellipse
     class="cls-3"
     cx="16.26"
     cy="22.81"
     rx="14.8"
     ry="12.69"
     transform="translate(-3.77 3.23) rotate(-10.17)"
     id="ellipse2" />
  <path
     class="cls-3"
     d="M29.35,28.07c2.05-3.89,7.66-16.06,13.71-17.07l-.03,2.26,1.97-.57-.37,2.11,1.86.55c-3.33,1.45-9.13,13.2-12.34,19.21-1.03,1.93-3.36,3.75-6.25,5.53-12.2,7.56-23.26-2.08-23.04-1.94l-2.86-11.47"
     id="path2" />
  <circle
     class="cls-3"
     cx="37.17"
     cy="21.31"
     r="2.51"
     id="circle2" />
  <path
     class="cls-3"
     d="M39.17,19.82c-.2.88-2.45.51-2.45.51l.28.92-.85.32s.81,1.01,1.06,2.26"
     id="path3" />
  <path
     class="cls-3"
     d="M34.69,21.79s-1.61,1.18-.62,1.83,3.15,2.65,3.74,2.09.56-1.15.56-1.15l-.73-.14.18-.68"
     id="path4" />
  <path
     class="cls-3"
     d="M36.08,18.96s-.05-2,1.07-1.61,4.02.87,3.94,1.69c-.08.81-.56,1.15-.56,1.15l-.55-.49-.43.56"
     id="path5" />
  <circle
     class="cls-3"
     cx="30.67"
     cy="32.2"
     r="2.63"
     id="circle5" />
  <path
     class="cls-3"
     d="M32.91,30.81c-.29.9-2.61.3-2.61.3l.21.99-.91.25s.75,1.13.9,2.47"
     id="path6" />
  <path
     class="cls-3"
     d="M28.04,32.45s-1.8,1.08-.82,1.86,3.04,3.06,3.72,2.53.7-1.15.7-1.15l-.75-.21.26-.69"
     id="path7" />
  <path
     class="cls-3"
     d="M29.75,29.63s.13-2.09,1.27-1.59,4.12,1.29,3.96,2.13-.7,1.15-.7,1.15l-.53-.56-.5.55"
     id="path8" />
  <circle
     class="cls-3"
     cx="19.39"
     cy="38.56"
     r="2.69"
     id="circle8" />
  <path
     class="cls-3"
     d="M21.96,39.31c-.88.39-2.01-1.78-2.01-1.78l-.61.83-.81-.52s-.35,1.34-1.26,2.36"
     id="path9" />
  <path
     class="cls-3"
     d="M17.4,36.73s-2.05-.63-1.97.64-.25,4.4.61,4.55,1.35-.25,1.35-.25l-.35-.71.7-.28"
     id="path10" />
  <path
     class="cls-3"
     d="M20.71,36.11s1.68-1.32,2.07-.12,1.82,4.01,1.07,4.46-1.35.25-1.35.25l.06-.79h-.75"
     id="path11" />
  <circle
     class="cls-3"
     cx="7.18"
     cy="36.66"
     r="2.5"
     id="circle11" />
  <path
     class="cls-3"
     d="M8.84,38.52c-.88-.13-.7-2.39-.7-2.39l-.89.35-.38-.81s-.93.88-2.16,1.24"
     id="path12" />
  <path
     class="cls-3"
     d="M9.43,35.38s1.98-.21,1.69.93c-.29,1.14-.54,4.06-1.35,4.04s-1.19-.47-1.19-.47l.44-.59-.59-.38"
     id="path13" />
  <path
     class="cls-3"
     d="M6,34.47s-1.36-1.33-2.14-.29"
     id="path14" />
  <polygon
     class="cls-2"
     points="42.77 15.98 41.72 16.08 41.48 17.11 41.06 16.14 40.01 16.23 40.81 15.53 40.39 14.56 41.3 15.1 42.09 14.4 41.86 15.44 42.77 15.98"
     id="polygon14" />
  <polygon
     class="cls-2"
     points="35.23 26.63 34.29 26.92 34.27 27.9 33.71 27.1 32.77 27.39 33.36 26.61 32.8 25.8 33.72 26.12 34.31 25.34 34.3 26.32 35.23 26.63"
     id="polygon15" />
  <polygon
     class="cls-2"
     points="26.99 37.39 25.97 37.09 25.37 37.96 25.34 36.9 24.33 36.59 25.33 36.24 25.31 35.18 25.95 36.03 26.95 35.68 26.35 36.55 26.99 37.39"
     id="polygon16" />
  <polygon
     class="cls-2"
     points="13.23 40.4 12.59 39.69 11.71 40.09 12.19 39.26 11.54 38.55 12.48 38.74 12.95 37.91 13.06 38.86 13.99 39.05 13.12 39.45 13.23 40.4"
     id="polygon17" />
  <path
     class="cls-3"
     d="M11.38,27.35c-.36-2.74,2.03-5.2,4.67-5.68s5.75.83,6.26,3.67"
     id="path17" />
  <line
     class="cls-3"
     x1="30.62"
     y1="19.27"
     x2="31.93"
     y2="23.11"
     id="line17" />
</svg>
