<?xml version="1.0" encoding="UTF-8"?>
<svg id="Layer_1" data-name="Layer 1" xmlns="http://www.w3.org/2000/svg" viewBox="0 0 48 48">
  <defs>
    <style>
      .cls-1, .cls-2 {
        fill: #231f20;
      }

      .cls-1, .cls-2, .cls-3, .cls-4 {
        stroke: #231f20;
        stroke-linecap: round;
        stroke-miterlimit: 10;
      }

      .cls-1, .cls-4 {
        stroke-width: .75px;
      }

      .cls-2, .cls-3 {
        stroke-width: .5px;
      }

      .cls-3, .cls-4 {
        fill: none;
      }
    </style>
  </defs>
  <path class="cls-4" d="M29.34,20.67c1.14-2.32,1.42-5.07.58-7.74-1.73-5.5-7.6-8.56-13.1-6.82s-8.56,7.6-6.82,13.1c.83,2.63,2.6,4.7,4.82,5.95,0,0,1.01-3.98,4.55-5.55,5.07-2.25,9.97,1.06,9.97,1.06Z"/>
  <path class="cls-4" d="M15.41,25.52s10.04,2.44,13.72-4.47"/>
  <path class="cls-4" d="M16.82,6.11s-7.08-1.3-6.81-4.11,7.07,3.62,7.07,3.62"/>
  <polyline class="cls-1" points="9.51 15.4 12.09 16.77 14.54 14.32 17.53 15.54 16.26 17.95 14.45 17.41 12.91 19.49 9.7 18.06"/>
  <polyline class="cls-1" points="29.24 11.9 27.12 13.91 24.11 12.21 21.55 14.19 23.42 16.16 25.02 15.16 27.06 16.75 30 14.32"/>
  <polygon class="cls-3" points="25.07 34.93 28.54 32.97 34.01 43.62 30.37 46.07 25.07 34.93"/>
  <polygon class="cls-3" points="32.14 31.61 35.35 29.46 41.73 36.77 38.4 39.33 32.14 31.61"/>
  <polygon class="cls-3" points="21.25 35.06 24.59 37.02 20.58 46.07 16.82 44.18 21.25 35.06"/>
  <line class="cls-3" x1="26.8" y1="33.96" x2="19.88" y2="19.71"/>
  <path class="cls-3" d="M20.13,20.03s5.63,12.26,2.92,15.76"/>
  <path class="cls-3" d="M20.13,19.71s7.97,11.65,13.87,10.65"/>
  <path class="cls-3" d="M24.16,7.79s1.6.3,2.75,2.3"/>
  <path class="cls-3" d="M23.31,7.43s-.75-.48-1.35-.2"/>
  <path class="cls-2" d="M30.37,46.07s2.67.38,3.64-2.45"/>
  <path class="cls-2" d="M38.4,39.33s2.37.05,3.33-2.56"/>
  <path class="cls-2" d="M16.82,44.18s.46,2.31,3.75,1.89"/>
</svg>