<?xml version="1.0" encoding="UTF-8"?>
<svg id="Layer_2" data-name="Layer 2" xmlns="http://www.w3.org/2000/svg" viewBox="0 0 48 48">
  <defs>
    <style>
      .cls-1 {
        fill: none;
        stroke: #010101;
        stroke-linecap: round;
        stroke-linejoin: round;
        stroke-width: .5px;
      }
    </style>
  </defs>
  <polygon class="cls-1" points="26.83 18.02 12.19 32.91 14.8 35.65 29.11 20.15 26.83 18.02"/>
  <polygon class="cls-1" points="35.95 8.74 26.83 18.02 29.11 20.15 37.84 10.46 35.95 8.74"/>
  <path class="cls-1" d="M12.85,33.76l-4.74,1.75c.1.41.45,1.92-.18,3.88-.56,1.74-1.43,2.82-1.49,2.91,0,0,1.66-1.69,3.34-2.07,1.44-.33,2.02-.23,3.05-.2l1.31-5.06"/>
  <path class="cls-1" d="M35.95,8.74l-.39-3.9s1.86-.27,2.01,1.74c0,0,.34-.52,1.6-.08s.53,2.37.53,2.37c1.36-.32,1.55,1.93,1.55,1.93l-3.42-.34"/>
  <g>
    <polyline class="cls-1" points="39.71 8.85 43.09 7.93 43.32 5.65 42.79 3.86 42.09 3.14 40.37 2.6 38.06 3.03 37.57 6.72"/>
    <polyline class="cls-1" points="40.37 2.6 40.52 3.5 42.25 5.49 43.32 5.65"/>
    <polyline class="cls-1" points="38.7 2.96 39.33 4.54 41.41 6.86 42.93 7.5"/>
    <polyline class="cls-1" points="37.76 6.38 39.28 4.42 41.1 4.27"/>
    <polyline class="cls-1" points="40.02 8.58 41.69 6.86 41.81 5.02"/>
  </g>
  <path class="cls-1" d="M34.61,14.04s1.03-.76,1.29,0,.68,1.71-5.64,5.41c0,0-2.38,1.24-.36,2.59,0,0,1.25.16,1.46-.74s-.76-.37-.76-.37c0,0,6.28-3.68,6.57-4.74"/>
  <path class="cls-1" d="M37.19,16.19c.13-.37,1.84-2.64-1.32-3.54"/>
  <line class="cls-1" x1="6.72" y1="41.96" x2="11.78" y2="36.5"/>
</svg>