<?xml version="1.0" encoding="UTF-8"?>
<svg id="Zines" xmlns="http://www.w3.org/2000/svg" viewBox="0 0 48 48">
  <defs>
    <style>
      .cls-1 {
        fill: #000000;
      }

      .cls-2 {
        stroke-width: .75px;
      }

      .cls-2, .cls-3 {
        fill: none;
        stroke: #000000;
        stroke-linecap: round;
        stroke-linejoin: round;
      }

      .cls-3 {
        stroke-width: .5px;
      }
    </style>
  </defs>
  <g>
    <rect class="cls-2" x="11.67" y="8.47" width="25.74" height="34.69" transform="translate(-10.05 17.33) rotate(-32.66)"/>
    <polygon class="cls-2" points="4.34 18.15 23.63 2.06 25.33 4.7 4.34 18.15"/>
    <polygon class="cls-2" points="4.34 18.15 20.52 1.07 21.88 3.18 4.34 18.15"/>
  </g>
  <g>
    <path class="cls-3" d="M27.7,23.88l1.17,1.82c1.22,1.9.99,4.25-.5,5.2l-.79.51c-1.5.96-3.72.19-4.94-1.71l-1.17-1.82,6.23-4Z"/>
    <rect class="cls-3" x="20.51" y="24.62" width="7.4" height="1.37" transform="translate(-9.83 17.07) rotate(-32.66)"/>
    <polygon class="cls-3" points="20.73 26.73 16.73 23.07 18.7 16.66 25.11 17.56 26.96 22.73 20.73 26.73"/>
    <path class="cls-3" d="M24.21,37.98l-5.62-8.76c-.47-.73-.25-1.7.47-2.17h0c.73-.47,1.7-.25,2.17.47l4.11,6.41s-.76,1.74-1.13,4.05Z"/>
    <path class="cls-3" d="M35.73,30.6l-5.62-8.76c-.47-.73-1.44-.94-2.17-.47h0c-.73.47-.94,1.44-.47,2.17l4.11,6.41s1.94-.22,4.15.66Z"/>
    <path class="cls-3" d="M39.82,34.4h0c-2.59-4.04-7.39-5.62-10.67-3.52l-1.94,1.24c-3.28,2.1-3.84,7.12-1.25,11.16h0s13.86-8.88,13.86-8.88Z"/>
    <polygon class="cls-3" points="21.47 27.88 22.91 30.14 24.16 27.75 26.23 28.2 26.65 26.27 29.19 26.3 27.7 23.88 21.47 27.88"/>
    <path class="cls-3" d="M25.35,33.93s6.08,3.01,6.23-4"/>
    <line class="cls-3" x1="29.79" y1="34.16" x2="31.98" y2="37.57"/>
    <line class="cls-3" x1="29.39" y1="35.9" x2="31.7" y2="34.42"/>
    <line class="cls-3" x1="19.57" y1="18.22" x2="22.16" y2="22.26"/>
    <line class="cls-3" x1="19.62" y1="19.96" x2="21.3" y2="18.89"/>
  </g>
  <g>
    <path class="cls-1" d="M8.71,16.51l.06-.02c.34-.1.65-.08.95.03.27.12.45.31.53.58.08.28.03.58-.14.91-.1.17-.2.3-.29.38-.1.11-.21.2-.32.28-.2.14-.41.24-.63.3-.26.07-.51.09-.76.04l.06,1.14-.72.21h0s0,0,0,0c-.08-1.46-.12-2.23-.12-2.31.03-.38.21-.74.55-1.06.26-.23.54-.39.83-.48ZM8.05,18.07c.03.12.1.21.22.27.17.09.36.1.56.05h.03c.22-.07.41-.21.57-.42.14-.21.18-.41.13-.58-.05-.17-.17-.28-.36-.34-.15-.03-.29-.03-.43.01-.23.07-.43.21-.6.43-.13.21-.17.4-.12.57Z"/>
    <path class="cls-1" d="M12.24,16.43h.05c.26-.09.51-.07.75.04.24.12.39.31.47.57.08.28.05.59-.09.93-.08.16-.14.28-.2.35-.25.34-.55.56-.9.66-.32.09-.61.06-.86-.1-.19-.13-.31-.3-.37-.51v-.03c-.07-.23-.06-.49.03-.78.02-.07.07-.17.14-.32.11-.19.22-.33.32-.42.21-.2.44-.34.67-.4ZM11.63,18.05v.02c.05.17.17.28.35.33.1.02.21.01.31-.02.22-.06.4-.21.54-.44.11-.21.14-.4.09-.57-.05-.17-.16-.28-.34-.33-.1-.02-.21-.02-.32.01-.2.06-.37.19-.51.39-.06.11-.1.18-.11.22-.04.15-.05.27-.02.38Z"/>
    <path class="cls-1" d="M15.31,15.55h.04c.25-.08.49-.08.71,0,.21.09.34.23.39.43.06.2.02.43-.11.67-.08.13-.15.22-.22.28-.07.08-.15.15-.24.21-.15.1-.31.18-.47.22-.2.06-.39.07-.57.03l.04.84-.54.15h0s0,0,0,0c-.05-1.08-.08-1.64-.08-1.7.02-.28.16-.54.42-.78.2-.17.41-.29.63-.36ZM14.81,16.7c.02.08.08.15.16.2.13.07.26.08.42.03h.02c.16-.05.31-.15.43-.31.1-.15.14-.3.1-.43-.04-.12-.12-.2-.27-.25-.11-.02-.21-.02-.32.01-.17.05-.32.15-.45.32-.1.15-.13.29-.09.42Z"/>
    <path class="cls-1" d="M18.28,14.7h.04c.24-.08.48-.07.72.03.13.07.21.12.25.17.05.05.1.11.14.19.03.05.06.12.09.21.03.21.05.33.05.36v.22s-1.88.54-1.88.54c.04.08.09.14.15.18.14.09.3.11.46.07l1.27-.36h0s.01.59.01.59l-1.29.37c-.21.06-.42.06-.64-.01-.17-.06-.32-.17-.43-.33-.06-.08-.1-.17-.13-.28v-.03c-.07-.23-.06-.49.03-.78.02-.06.06-.16.13-.3.1-.17.2-.3.29-.39.22-.22.46-.37.72-.44ZM17.68,15.89h0s1.33-.38,1.33-.38c-.02-.07-.08-.16-.19-.25-.16-.1-.32-.13-.48-.08-.24.07-.44.26-.62.59l-.04.11Z"/>
    <path class="cls-1" d="M21.52,14.94h0c.05.42.07.64.07.67l-1.4.4h0s-.07-.67-.07-.67l1.4-.4Z"/>
    <path class="cls-1" d="M22.64,13.45h0s.06.91.06.91l.53-.15c.13-.06.21-.1.25-.13.06-.03.11-.08.15-.14.09-.11.14-.23.14-.35l-.03-.47.47-.14h0c.02.3.03.49.02.55,0,.08-.03.17-.07.29-.06.14-.13.25-.2.33-.04.06-.11.12-.2.2-.03.03-.06.05-.09.07h0c.06,0,.13.02.21.05.22.09.36.24.42.44h0c.02.08.04.21.04.4,0,.12.01.18,0,.19l-.48.14h0c-.02-.27-.03-.43-.04-.48v-.03c-.04-.11-.11-.19-.23-.23-.03-.01-.07-.02-.12-.01-.02,0-.1,0-.23.02l-.54.16.06.91-.48.14h0s-.16-2.52-.16-2.52h0s.48-.14.48-.14Z"/>
    <path class="cls-1" d="M25.53,12.62h0c.03.82.05,1.27.06,1.35l.02.09c.04.15.13.26.26.33.1.05.2.05.32.02.23-.07.4-.25.51-.56.02-.08.03-.15.04-.22,0-.08-.02-.51-.05-1.31,0-.02,0-.03,0-.03l.55-.16h0c.04.84.06,1.3.06,1.37-.01.39-.16.76-.45,1.09-.18.2-.39.33-.63.4h0c-.41.12-.74,0-.99-.33-.06-.09-.11-.19-.14-.29v-.03c-.04-.11-.06-.28-.06-.51l-.05-1.05h0s.55-.16.55-.16Z"/>
    <path class="cls-1" d="M28.44,10.86l.49-.14h0s.06,1.71.06,1.71c.01.43.02.66.02.69.16.04.25.14.3.29.04.15.02.3-.07.47-.12.2-.27.32-.45.38h0c-.17.05-.31.02-.44-.08-.05-.05-.09-.11-.11-.18v-.02c-.05-.16-.02-.33.09-.52.05-.07.11-.14.17-.19.01,0,.01-.02,0-.06-.03-1.18-.06-1.96-.07-2.33h0ZM28.48,13.85c.03.1.1.15.22.16.03,0,.06,0,.08-.01.1-.03.18-.1.24-.21.04-.09.05-.17.03-.24-.03-.1-.11-.15-.23-.15h-.07c-.1.04-.18.11-.24.22-.04.09-.05.17-.03.23Z"/>
  </g>
</svg>
