<?xml version="1.0" encoding="UTF-8"?>
<svg id="Zines" xmlns="http://www.w3.org/2000/svg" viewBox="0 0 48 48">
  <defs>
    <style>
      .cls-1 {
        stroke-width: .75px;
      }

      .cls-1, .cls-2 {
        fill: none;
        stroke: #000000;
        stroke-linecap: round;
        stroke-linejoin: round;
      }

      .cls-2 {
        stroke-width: .5px;
      }

      .cls-3 {
        fill: #000000;
        font-family: Vocaloid-Italic, Vocaloid;
        font-size: 4.59px;
        font-style: italic;
      }
    </style>
  </defs>
  <g>
    <rect class="cls-1" x="11.67" y="8.47" width="25.74" height="34.69" transform="translate(-10.05 17.33) rotate(-32.66)"/>
    <polygon class="cls-1" points="4.34 18.15 23.63 2.06 25.33 4.7 4.34 18.15"/>
    <polygon class="cls-1" points="4.34 18.15 20.52 1.07 21.88 3.18 4.34 18.15"/>
  </g>
  <g>
    <path class="cls-2" d="M27.7,23.88l1.17,1.82c1.22,1.9.99,4.25-.5,5.2l-.79.51c-1.5.96-3.72.19-4.94-1.71l-1.17-1.82,6.23-4Z"/>
    <rect class="cls-2" x="20.51" y="24.62" width="7.4" height="1.37" transform="translate(-9.83 17.07) rotate(-32.66)"/>
    <polygon class="cls-2" points="20.73 26.73 16.73 23.07 18.7 16.66 25.11 17.56 26.96 22.73 20.73 26.73"/>
    <path class="cls-2" d="M24.21,37.98l-5.62-8.76c-.47-.73-.25-1.7.47-2.17h0c.73-.47,1.7-.25,2.17.47l4.11,6.41s-.76,1.74-1.13,4.05Z"/>
    <path class="cls-2" d="M35.73,30.6l-5.62-8.76c-.47-.73-1.44-.94-2.17-.47h0c-.73.47-.94,1.44-.47,2.17l4.11,6.41s1.94-.22,4.15.66Z"/>
    <path class="cls-2" d="M39.82,34.4h0c-2.59-4.04-7.39-5.62-10.67-3.52l-1.94,1.24c-3.28,2.1-3.84,7.12-1.25,11.16h0s13.86-8.88,13.86-8.88Z"/>
    <polygon class="cls-2" points="21.47 27.88 22.91 30.14 24.16 27.75 26.23 28.2 26.65 26.27 29.19 26.3 27.7 23.88 21.47 27.88"/>
    <path class="cls-2" d="M25.35,33.93s6.08,3.01,6.23-4"/>
    <line class="cls-2" x1="29.79" y1="34.16" x2="31.98" y2="37.57"/>
    <line class="cls-2" x1="29.39" y1="35.9" x2="31.7" y2="34.42"/>
    <line class="cls-2" x1="19.57" y1="18.22" x2="22.16" y2="22.26"/>
    <line class="cls-2" x1="19.62" y1="19.96" x2="21.3" y2="18.89"/>
  </g>
  <text class="cls-3" transform="translate(7.48 20.38) rotate(-15.97)"><tspan x="0" y="0">Pope-ku!</tspan></text>
</svg>
