<?xml version="1.0" encoding="UTF-8" standalone="no"?>
<!-- Created with Inkscape (http://www.inkscape.org/) -->

<svg
   width="512"
   height="512"
   viewBox="0 0 135.46667 135.46667"
   version="1.1"
   id="svg1"
   xml:space="preserve"
   inkscape:version="1.3 (0e150ed6c4, 2023-07-21)"
   sodipodi:docname="Anichive Icon.svg"
   inkscape:export-filename="Anichive Icon.png"
   inkscape:export-xdpi="96"
   inkscape:export-ydpi="96"
   xmlns:inkscape="http://www.inkscape.org/namespaces/inkscape"
   xmlns:sodipodi="http://sodipodi.sourceforge.net/DTD/sodipodi-0.dtd"
   xmlns="http://www.w3.org/2000/svg"
   xmlns:svg="http://www.w3.org/2000/svg"><sodipodi:namedview
     id="namedview1"
     pagecolor="#5bdced"
     bordercolor="#000000"
     borderopacity="0.25"
     inkscape:showpageshadow="2"
     inkscape:pageopacity="0.0"
     inkscape:pagecheckerboard="0"
     inkscape:deskcolor="#d1d1d1"
     inkscape:document-units="mm"
     inkscape:clip-to-page="true"
     inkscape:zoom="1.0877315"
     inkscape:cx="172.3771"
     inkscape:cy="202.71547"
     inkscape:window-width="3440"
     inkscape:window-height="1417"
     inkscape:window-x="-8"
     inkscape:window-y="-8"
     inkscape:window-maximized="1"
     inkscape:current-layer="layer2"
     inkscape:export-bgcolor="#ffffffff"
     showgrid="false" /><defs
     id="defs1" /><g
     inkscape:groupmode="layer"
     id="layer2"
     inkscape:label="Head"
     transform="matrix(0.71705734,0,0,0.71705734,22.89033,9.2050939)"><path
       style="fill:#ffffff;fill-opacity:1;stroke:#000000;stroke-width:0.808;stroke-dasharray:none"
       d="m 27.178056,99.962028 1.837173,-74.649396 57.216014,-9.387833 6.489359,77.223397 c 0.423492,2.758287 -2.410776,5.493572 -5.299643,8.111704 -6.284396,5.69544 -14.620487,8.6983 -25.632977,8.76063 L 53.1355,109.80422 c 0,0 -7.431087,-1.66826 -6.890306,-1.56011 0.540778,0.10816 -12.118911,-3.95697 -12.118911,-3.95697 z"
       id="path2"
       sodipodi:nodetypes="ccccsccscc"
       inkscape:label="Face" /><ellipse
       style="opacity:1;fill:#000000;fill-opacity:1;stroke:#000000;stroke-width:0.20751"
       id="path1"
       cx="38.900112"
       cy="70.546799"
       rx="1.7304964"
       ry="11.031914"
       transform="rotate(-3.9080185)"
       inkscape:label="Right eye" /><ellipse
       style="opacity:1;fill:#000000;fill-opacity:1;stroke:#000000;stroke-width:0.20751"
       id="path1-4"
       cx="76.534698"
       cy="73.365036"
       rx="1.7304964"
       ry="11.031914"
       transform="rotate(-3.9080185)"
       inkscape:label="Left eye" /><path
       style="display:inline;fill:#000000;fill-opacity:1;stroke:#000000;stroke-width:0.20751"
       d="m 48.528178,26.597993 13.91897,52.004945 13.154189,-59.193861 14.836708,45.427845 4.435713,28.449761 1.070692,9.024387 6.27118,-25.696556 3.05912,9.330298 2.29433,-25.390649 10.24804,19.119463 -8.96726,-40.382747 17.24713,11.224726 c 0,0 -25.71683,-38.754314 -26.175692,-37.989535 L 91.508733,5.7960188 C 78.480427,-1.133287 64.186912,-0.21829186 50.057737,-0.32221024 34.12962,0.88457604 24.772188,8.3162214 17.50338,17.726563 L 8.9968193,28.97772 -9.5949908,28.280508 c 1.3934502,14.17607 0.8068308,28.475894 6.9342927,42.356087 2.45929761,51.161465 -1.1998679,76.672435 -7.0107707,93.162675 4.025999,-3.84942 6.099496,0.003 13.440227,-16.92149 3.978642,-12.31347 8.7149138,-29.4797 7.8767258,-50.935388 l 1.919109,-29.333718 -1.289349,18.418402 4.721304,12.124098 2.732236,-26.478503 -0.998585,8.751917 1.781243,7.969457 7.826591,20.882295 1.223645,-10.400985 2.600248,-26.767247 z"
       id="path3"
       sodipodi:nodetypes="cccccccccccccccccccccccccccccccc"
       inkscape:label="Hair" /></g><g
     inkscape:groupmode="layer"
     id="layer3"
     inkscape:label="Body"
     transform="matrix(0.71705734,0,0,0.71705734,22.89033,9.2050939)"><path
       style="display:inline;fill:#ffffff;fill-opacity:1;stroke:#000000;stroke-width:0.908;stroke-dasharray:none"
       d="m 39.011008,111.79267 c 0,0.61182 -5.931357,24.32162 -5.931357,24.32162 l -4.289128,26.31924 48.952197,-1.38746 -19.884244,-46.80445 -5.506405,-1.52956 z"
       id="path4"
       sodipodi:nodetypes="ccccccc"
       inkscape:label="Body" /><path
       style="fill:#ffffff;fill-opacity:1;stroke:#000000;stroke-width:0.365001;stroke-dasharray:none"
       d="m 46.033782,108.12162 6.506758,1.42905 -0.06081,3.16217 -3.557434,0.66892 -2.979729,-1.76352 z"
       id="path7"
       inkscape:label="Neck" /><path
       style="fill:#f9f9f9;fill-opacity:1;stroke:#000000;stroke-width:0.665;stroke-dasharray:none"
       d="m 38.893523,111.78068 8.225544,9.24904 1.985737,-7.72177 2.016142,7.90763 6.584699,-7.00828 -5.589965,-1.54799 c 0,0 -1.987488,0.81266 -3.010876,0.6956 -1.172711,-0.13414 -3.181086,-1.5556 -3.181086,-1.5556 -2.735814,-0.4012 -4.978074,-0.3616 -6.99979,-0.14022 z"
       id="path5"
       sodipodi:nodetypes="ccccccsccc"
       inkscape:label="Collar" /><path
       style="fill:#00ffff;fill-opacity:1;stroke:#000000;stroke-width:0.365;stroke-dasharray:none"
       d="m 47.42871,119.92627 -0.04822,13.24317 1.80599,3.22498 1.71999,-2.70899 -0.209782,-14.23216 -1.71999,-6.14896 z"
       id="path6"
       sodipodi:nodetypes="ccccccc"
       inkscape:label="Tie" /></g><g
     inkscape:groupmode="layer"
     id="layer4"
     inkscape:label="Chives"><path
       id="rect3692-2-8"
       style="fill:#12702f;stroke:none;stroke-width:0.206357"
       inkscape:label="Chives"
       d="M 91.164879,-0.26914336 C 96.067407,33.323963 93.854816,64.79604 89.991951,98.147452 l -0.889961,7.690178 c 3.948914,-41.849197 -2.820796,-67.837805 -8.620598,-90.499647 3.800209,22.415719 9.826899,70.244986 1.474694,110.031027 l -0.63074,5.29378 4.844572,0.51045 1.319358,-11.39968 c -0.308226,3.76559 -0.698673,7.58033 -1.13533,11.41865 l 5.374887,0.56639 c 0.310752,-2.68385 0.66756,-5.68808 1.081409,-9.25449 l -0.98791,9.26448 9.302298,0.97994 c 0.17971,-1.54859 0.35435,-3.1326 0.54318,-4.6145 l -0.50261,4.619 3.54549,0.3731 c 2.62308,-27.01987 2.57952,-41.655597 12.77556,-66.560533 -1.91538,1.740992 -9.90353,14.291732 -14.31852,47.792313 l 0.74847,-6.87506 c 5.19835,-32.159379 6.7045,-65.002936 20.1896,-95.045731 -15.06496,21.845201 -19.50475,59.151885 -23.67276,85.367204 0.41212,-3.678746 0.90652,-7.505472 1.55978,-11.526538 2.70857,-26.31107 4.22779,-56.815463 -0.56791,-81.731135 0.74319,33.244642 -2.328293,61.520046 -6.149591,94.839464 l -0.705438,6.614846 C 97.371514,76.907922 99.492797,35.174281 91.164879,-0.26914336 Z" /><rect
       style="fill:#209dc8;fill-opacity:1;stroke:#e40808;stroke-width:0.0447713"
       id="rect5915"
       width="25.105566"
       height="12.146132"
       x="94.5177"
       y="100.81874"
       transform="matrix(0.99451006,0.10464104,-0.1118556,0.99372447,0,0)"
       inkscape:label="Band" /><path
       d="m 94.042625,121.93266 -1.369106,-0.14405 -0.660829,-2.64495 -4.178664,-0.43967 -1.233825,2.44559 -1.304215,-0.13722 4.544766,-8.76228 1.713001,0.18024 z m -2.308368,-3.87329 -1.188884,-4.66153 -2.204661,4.30448 z"
       id="path11226"
       style="white-space:pre;shape-inside:url(#rect5977);display:inline;stroke:#000000;stroke-width:0.675371"
       inkscape:label="Letter A" /><path
       d="m 101.62131,122.73008 -6.112272,-0.64311 1.027949,-9.13232 1.284745,0.13515 -0.906443,8.05288 4.827511,0.50793 z"
       id="path11228"
       style="white-space:pre;shape-inside:url(#rect5977);display:inline;stroke:#000000;stroke-width:0.675371"
       inkscape:label="Letter L" /></g></svg>
