<?xml version="1.0" encoding="UTF-8" standalone="no"?>
<!-- Created with Inkscape (http://www.inkscape.org/) -->

<svg
   width="100"
   height="100"
   viewBox="0 0 26.458333 26.458333"
   version="1.1"
   id="svg1"
   xmlns="http://www.w3.org/2000/svg"
   xmlns:svg="http://www.w3.org/2000/svg">
  <defs
     id="defs1" />
  <g
     id="layer1">
    <path
       id="path2"
       style="font-variation-settings:'wght' 800;fill:#ffffff;fill-opacity:1;stroke:#000000;stroke-width:0.141819;stroke-dasharray:none;stroke-opacity:1"
       d="m 8.2747678,20.363722 -3.8973359,4.691206 c -1.335014,1.092911 -2.2664124,1.772955 -3.3550962,0.707496 v 0 c -2.0612443,-2.342291 0.029239,-3.530104 1.1769485,-4.448546 l 9.6786128,-10.29146 2.096606,3.67195 c -0.858493,0.333172 -1.414981,0.918896 -2.176389,1.705128 z" />
    <path
       id="path3"
       style="font-variation-settings:'wght' 800;fill:#05c63c;fill-opacity:1;stroke:#000000;stroke-width:0.141819;stroke-dasharray:none;stroke-opacity:1"
       d="M 11.876417,11.001338 21.186141,1.1447079 C 22.043395,-0.06427126 22.67712,-0.11645376 23.814842,0.74587973 24.407707,1.30241 25.018216,1.8893527 24.864105,2.6444073 l -8.589598,8.6386847 8.7445,-1.3601903 c 0.943214,-0.3254951 1.138798,0.6334823 1.31426,1.6270283 0.103338,0.6182 0.22472,1.636574 -0.991977,1.717147 l -11.2949,1.372112 -6.8307899,1.347633 z" />
  </g>
</svg>
