<?xml version="1.0" encoding="UTF-8" standalone="no"?>
<!-- Created with Inkscape (http://www.inkscape.org/) -->

<svg
   width="1in"
   height="1in"
   viewBox="0 0 25.4 25.4"
   version="1.1"
   id="svg1"
   inkscape:version="1.4.4 (dcaf3e7, 2026-05-05)"
   sodipodi:docname="Miku Sleep Stamp.svg"
   inkscape:export-filename="Miku Sleep Stamp.png"
   inkscape:export-xdpi="300"
   inkscape:export-ydpi="300"
   xmlns:inkscape="http://www.inkscape.org/namespaces/inkscape"
   xmlns:sodipodi="http://sodipodi.sourceforge.net/DTD/sodipodi-0.dtd"
   xmlns="http://www.w3.org/2000/svg"
   xmlns:svg="http://www.w3.org/2000/svg">
  <sodipodi:namedview
     id="namedview1"
     pagecolor="#ffffff"
     bordercolor="#000000"
     borderopacity="0.25"
     inkscape:showpageshadow="2"
     inkscape:pageopacity="0.0"
     inkscape:pagecheckerboard="0"
     inkscape:deskcolor="#d1d1d1"
     inkscape:document-units="mm"
     inkscape:zoom="5.6568545"
     inkscape:cx="49.762638"
     inkscape:cy="35.266949"
     inkscape:window-width="1690"
     inkscape:window-height="1401"
     inkscape:window-x="1706"
     inkscape:window-y="0"
     inkscape:window-maximized="0"
     inkscape:current-layer="layer3"
     showgrid="false"
     inkscape:export-bgcolor="#ffffffff" />
  <defs
     id="defs1">
    <filter
       inkscape:collect="always"
       style="color-interpolation-filters:sRGB"
       id="filter18"
       x="-0.042036775"
       y="-0.41099"
       width="1.0769222"
       height="1.9088926">
      <feGaussianBlur
         inkscape:collect="always"
         stdDeviation="0.00013694299"
         id="feGaussianBlur18" />
    </filter>
  </defs>
  <g
     inkscape:groupmode="layer"
     id="layer2"
     inkscape:label="Pillow"
     style="display:none">
    <path
       style="font-variation-settings:'wght' 800;display:inline;fill:#000000;fill-opacity:1;stroke:#000000;stroke-width:0.264583;stroke-linejoin:round"
       d="m 3.846637,11.18317 c -0.2122201,2.760065 -0.5634741,4.156538 -1.5879106,5.899265 l 1.2295415,3.418396 c 1.4802503,-0.276409 3.0133792,-1.181258 4.1355303,-1.26035 l 0.078001,-7.947453 C 8.0681569,10.105754 7.6547482,1.3761849 7.6547482,1.3761849 6.4074978,2.1072468 6.5134568,1.5809223 3.4471654,4.2627063 1.9390841,5.5816769 0.99876005,9.3138653 0.53748518,10.299772 0.46389488,10.45706 0.30892864,12.075418 0.29893415,12.996373 0.29326015,13.519193 1.1719257,13.696526 1.4242098,13.676851 2.1945074,12.56493 3.8526378,10.990245 3.846637,11.18317 Z"
       id="path3"
       sodipodi:nodetypes="cccccccsscc" />
    <path
       style="font-variation-settings:'wght' 800;display:inline;fill:none;stroke:#000000;stroke-width:0.264583"
       d="m 6.7031347,18.915822 c 0.2515538,0.601435 15.6046293,-0.692816 15.4119703,1.97012 -0.03325,0.459602 3.084365,-7.063783 3.094184,-7.470276 C 25.306523,9.3903206 24.098377,5.7672812 19.922222,2.5361111 15.806132,-0.28638368 12.366849,-0.06960553 8.8576969,0.91137486 7.9275235,1.2216947 6.2542977,1.2927707 3.8662915,5.2924523 c 0,0 1.8770228,11.3285537 2.8368432,13.6233697 z"
       id="path2"
       sodipodi:nodetypes="ssscccs" />
  </g>
  <g
     inkscape:groupmode="layer"
     id="layer5"
     inkscape:label="Outfit"
     style="display:inline"
     transform="matrix(1.0561253,0,0,1.0561253,-1.6127478,-1.3875271)">
    <path
       style="font-variation-settings:'wght' 800;fill:#ffffff;fill-opacity:1;stroke:#000000;stroke-width:0.396875;stroke-dasharray:none;stroke-opacity:1"
       d="m 10.916233,19.479339 c 0,0.213889 -1.7289339,4.734928 -1.7289339,4.734928 0.2290551,0.135806 5.8760219,2.313107 10.1112859,-0.701834 l -2.086823,-4.090255 z"
       id="path14"
       sodipodi:nodetypes="ccccc"
       inkscape:label="Torso" />
    <g
       id="g1"
       inkscape:label="Tie"
       transform="matrix(1.0441829,0,0,1.101412,-0.56994791,-1.9069816)"
       style="fill:#ffffff;fill-opacity:1">
      <path
         style="font-variation-settings:'wght' 800;fill:#ffffff;fill-opacity:1;stroke:#000000;stroke-width:0.396875;stroke-dasharray:none;stroke-opacity:1"
         d="m 13.511401,19.908652 c -0.741145,0.899856 -1.375048,2.074581 -2.419734,2.519125 l -0.32253,1.10531 c 0.528725,0.09662 1.023198,0.179812 1.711959,0.07638 1.37408,-1.024998 1.627972,-2.22377 2.20279,-3.568472 l -0.593849,-0.42233 z"
         id="path15"
         inkscape:label="Tie"
         sodipodi:nodetypes="ccccccc" />
      <path
         style="font-variation-settings:'wght' 800;fill:#ffffff;fill-opacity:1;stroke:#000000;stroke-width:0.529167;stroke-dasharray:none;stroke-opacity:1"
         d="m 11.816858,22.047844 0.462969,0.743175"
         id="path16"
         sodipodi:nodetypes="cc"
         inkscape:label="Bottom rect" />
      <path
         style="font-variation-settings:'wght' 800;fill:#ffffff;fill-opacity:1;stroke:#000000;stroke-width:0.529167;stroke-dasharray:none;stroke-opacity:1"
         d="m 12.377261,21.547049 0.563586,0.671566"
         id="path17"
         sodipodi:nodetypes="cc"
         inkscape:label="Top rect" />
    </g>
    <path
       style="font-variation-settings:'wght' 800;display:inline;fill:#ffffff;fill-opacity:1;stroke:#000000;stroke-width:0.420895;stroke-dasharray:none;stroke-opacity:1"
       d="m 11.011697,14.458771 0.760659,0.875126 2.004961,-0.854337 0.249529,-0.02079 1.256261,0.842652 1.426181,-0.884227 z"
       id="path18"
       sodipodi:nodetypes="ccccccc"
       inkscape:label="Collar"
       transform="matrix(1.1246484,0,0,1.124982,-1.5331444,3.4252245)" />
  </g>
  <g
     inkscape:groupmode="layer"
     id="layer3"
     inkscape:label="Miku"
     transform="matrix(1.1877696,0,0,1.188122,-3.00043,2.4614496)"
     style="display:inline;stroke-width:0.420895;stroke-dasharray:none">
    <path
       style="font-variation-settings:'wght' 800;display:inline;fill:#ffffff;fill-opacity:1;stroke:#000000;stroke-width:0.420895;stroke-dasharray:none;stroke-opacity:1"
       d="M 8.1902567,17.781927 C 7.5556245,17.504576 7.0352443,16.978841 6.5991267,16.486827 4.5169835,13.26781 5.173311,6.0813075 7.4093698,3.6866651 8.3361526,2.6941539 9.2786402,3.0644367 9.7817082,4.4433417 9.4502914,7.1700342 8.1148348,14.703556 8.1902567,17.781927 Z"
       id="path8-1"
       sodipodi:nodetypes="ccscc"
       inkscape:label="Right twintail" />
    <path
       style="font-variation-settings:'wght' 800;fill:#ffffff;fill-opacity:1;stroke:#000000;stroke-width:0.420895;stroke-dasharray:none;stroke-opacity:1"
       d="m 20.017236,16.533566 c 0,0 1.888505,-1.485435 2.808478,-4.011741 0.85476,-2.5895328 0.465244,-6.2623168 -1.476297,-8.3415539 -0.926783,-0.992511 -1.86927,-0.6222284 -2.372338,0.7566766 0.46449,3.821537 1.134484,7.7469333 1.040157,11.5966183 z"
       id="path8"
       sodipodi:nodetypes="ccscc"
       inkscape:label="Left twintail" />
    <path
       style="font-variation-settings:'wght' 800;fill:none;fill-opacity:1;stroke:#000000;stroke-width:0.841789;stroke-dasharray:none;stroke-opacity:1"
       d="M 18.358759,2.7543338 20.481014,2.4323825 20.770129,6.2551158 18.347898,5.3763779 Z"
       id="path10"
       sodipodi:nodetypes="ccccc"
       inkscape:label="Left hair tie" />
    <path
       style="font-variation-settings:'wght' 800;fill:none;fill-opacity:1;stroke:#000000;stroke-width:0.841789;stroke-dasharray:none;stroke-opacity:1"
       d="M 8.8886586,1.764636 11.190536,2.8933591 9.935166,6.0142322 7.7699304,4.9452577 Z"
       id="path10-8"
       sodipodi:nodetypes="ccccc"
       inkscape:label="Right hair tie" />
    <path
       style="font-variation-settings:'wght' 800;fill:#ffffff;fill-opacity:1;stroke:#000000;stroke-width:0.420895;stroke-dasharray:none;stroke-opacity:1"
       d="m 8.7455027,6.7730353 2.1831693,-2.7509667 5.739607,-0.055226 2.189058,2.0157356 1.414879,4.1695358 -0.892035,2.65506 c -0.923825,0.675372 -1.785551,1.443863 -3.126746,1.493366 l -3.842348,0.08085 C 11.250752,14.301469 9.7332781,14.425847 8.7970918,13.827041 7.72784,13.196337 7.4417189,11.870254 8.0585699,10.661796 Z"
       id="path4"
       sodipodi:nodetypes="ccccccccccc"
       inkscape:label="Head" />
    <path
       style="font-variation-settings:'wght' 800;mix-blend-mode:normal;fill:#ffffff;fill-opacity:1;stroke:#000000;stroke-width:0.398527;stroke-dasharray:none;stroke-opacity:1;filter:url(#filter18)"
       d="m 14.690096,11.108557 c 0.83413,0.558863 1.893311,0.485908 2.646286,0.09405"
       id="path6"
       sodipodi:nodetypes="cc"
       inkscape:label="Left eye"
       transform="matrix(1.0561253,0,0,1.0561253,-0.80473691,-1.0330942)" />
    <path
       style="font-variation-settings:'wght' 800;fill:#ffffff;fill-opacity:1;stroke:#000000;stroke-width:0.420895;stroke-dasharray:none;stroke-opacity:1"
       d="m 12.682712,10.683373 c -1.151064,0.644688 -1.995264,0.510661 -2.8377293,-0.02979"
       id="path5"
       sodipodi:nodetypes="cc"
       inkscape:label="Right eye" />
    <path
       style="font-variation-settings:'wght' 800;fill:#ffffff;fill-opacity:1;stroke:#000000;stroke-width:0.420895;stroke-dasharray:none;stroke-opacity:1"
       d="M 8.8118709,4.6787838 8.424625,5.3887346 C 7.2277119,7.4547527 8.6061621,8.5779045 7.9735926,11.17966 9.0706156,10.457948 10.174213,8.2435609 11.096419,6.2985139 c 0.363652,1.7066035 1.457257,2.7233188 2.913267,3.5720278 0.274357,-1.802152 -0.069,-1.8288304 0.721401,-3.5024615 0.818353,0.8265524 2.118907,2.6769704 3.057805,3.1596165 0.03078,-0.861291 0.125019,-1.7851164 0.369378,-2.1659934 -0.953514,1.7725316 0.268911,5.1908397 1.129205,6.4940597 1.138047,-2.307711 2.493733,-5.8840981 0.07724,-9.0931253 C 18.258416,2.7872569 11.887455,0.56118637 8.8118709,4.6787838 Z"
       id="path7"
       sodipodi:nodetypes="ccccccccccc"
       inkscape:label="Hair" />
    <g
       id="g13"
       inkscape:label="ZZZ"
       transform="matrix(1.0561253,0,0,1.0561253,-0.63766958,-0.62946791)"
       style="stroke-width:0.398527;stroke-dasharray:none">
      <path
         style="font-variation-settings:'wght' 800;fill:none;fill-opacity:1;stroke:#000000;stroke-width:0.398527;stroke-dasharray:none;stroke-opacity:1"
         d="m 11.011166,0.46584518 c 0.295859,-0.26572447 0.68622,-0.54847131 1.518077,-0.31496658 l -1.192301,2.0986169 c 0.468869,0.026502 0.891778,-0.015205 1.312622,-0.088039"
         id="path11"
         inkscape:label="Z1"
         sodipodi:nodetypes="cccc" />
      <path
         style="font-variation-settings:'wght' 800;fill:none;fill-opacity:1;stroke:#000000;stroke-width:0.398527;stroke-dasharray:none;stroke-opacity:1"
         d="m 13.176906,-0.20222227 c 0.416661,-0.0329969 0.83039,-0.0497351 1.374228,0.19071848 L 13.057079,1.6718885 c 0.484876,0.2212224 0.911707,0.1232927 1.363635,0.163357"
         id="path12"
         sodipodi:nodetypes="cccc"
         inkscape:label="Z2" />
      <path
         style="font-variation-settings:'wght' 800;fill:none;fill-opacity:1;stroke:#000000;stroke-width:0.398527;stroke-dasharray:none;stroke-opacity:1"
         d="m 15.429496,-0.21770915 c 0.425699,-0.007584 0.817043,0.0741477 1.162985,0.33554951 L 15.017993,1.427391 c 0.452512,0.2367973 0.849097,0.3067009 1.301609,0.4028757"
         id="path13"
         sodipodi:nodetypes="cccc"
         inkscape:label="Z3" />
    </g>
  </g>
  <g
     inkscape:label="Outline"
     inkscape:groupmode="layer"
     id="layer1"
     style="display:inline">
    <ellipse
       style="font-variation-settings:'wght' 800;display:inline;fill:none;fill-opacity:1;stroke:#000000;stroke-width:0.317311;stroke-dasharray:none;stroke-opacity:1"
       id="path1"
       ry="12.518687"
       rx="12.511273"
       cy="12.7"
       cx="12.7"
       inkscape:label="Outline" />
  </g>
</svg>
